<svg version="1.2" baseProfile="tiny" viewBox="0 0 16.875 18.000" xmlns:xlink="http://www.w3.org/1999/xlink" xmlns="http://www.w3.org/2000/svg">
<path style="fill:#ffffff;" d="M16.875,16.746v0.628c0,0.347-0.555,0.626-1.225,0.626H1.225C0.556,18,0,17.431,0,16.746V1.253   C0,0.569,0.272,0,0.612,0h0.613v16.746H16.875z M9.73,0.069H8.562c-0.669,0-1.225,0.569-1.225,1.253v14.241h3.617V1.323   C10.954,0.638,10.399,0.069,9.73,0.069z M5.296,5.455H4.127c-0.669,0-1.225,0.557-1.225,1.253v8.855h3.619V6.708   C6.521,6.012,5.965,5.455,5.296,5.455z M14.165,3.354h-1.169c-0.668,0-1.225,0.557-1.225,1.252v10.957h3.617V4.606   C15.389,3.911,14.833,3.354,14.165,3.354z"/>
</svg>