<svg version="1.2" baseProfile="tiny" viewBox="0 0 143.521 225.000" xmlns:xlink="http://www.w3.org/1999/xlink" xmlns="http://www.w3.org/2000/svg">
<path style="fill:#ffffff;stroke:#F2F2F2;" d="M114.802,195.069    h13.653 M114.802,205.065h13.653 M114.802,185.073h13.653 M114.802,155.087h13.653 M114.802,165.083h13.653 M114.802,145.089    h13.653 M114.802,115.103h13.653 M114.802,125.099h13.653 M114.802,105.108h13.653 M114.802,75.12h13.653 M114.802,85.116h13.653     M114.802,65.123h13.653 M114.802,35.137h13.653 M114.802,45.133h13.653 M114.802,25.14h13.653 M65.8,195.069h13.652 M65.8,205.065    h13.652 M65.8,185.073h13.652 M65.8,155.087h13.652 M65.8,165.083h13.652 M65.8,145.089h13.652 M65.8,115.103h13.652 M65.8,125.099    h13.652 M65.8,105.108h13.652 M65.8,75.12h13.652 M65.8,85.116h13.652 M65.8,65.123h13.652 M65.8,35.137h13.652 M65.8,45.133    h13.652 M65.8,25.14h13.652"/>
</svg>