<svg version="1.2" baseProfile="tiny" id="EdgeSVG_RD36B" x="0px" y="0px" width="122.143px" height="111.254px" viewBox="0 0 122.143 111.254" xmlns:xlink="http://www.w3.org/1999/xlink" xmlns="http://www.w3.org/2000/svg">
  <linearGradient id="SVGID_1_" gradientUnits="userSpaceOnUse" x1="0" y1="55.6274" x2="122.1426" y2="55.6274">
    <stop offset="0.0982" style="stop-color:#000000;stop-opacity:0.5"/>
    <stop offset="1" style="stop-color:#000000;stop-opacity:0.5"/>
  </linearGradient>
  <polygon fill="url(#SVGID_1_)" points="122.143,11.061 112.078,11.061 112.078,0 111.076,0 11.258,0 10.259,0 10.259,1 &#xD;&#xA;&#x9;&#x9;10.258,11.062 0,11.062 0,11.062 0,12.062 0,34.503 0,35.503 0,35.503 24.438,35.503 25.438,35.503 25.438,34.503 25.438,33.076 &#xD;&#xA;&#x9;&#x9;25.668,33.076 28.639,33.076 28.881,33.076 29.881,33.076 30.881,33.076 32.794,33.076 33.09,33.076 33.09,53.315 34.371,53.315 &#xD;&#xA;&#x9;&#x9;34.371,102.89 31.653,107.892 31.653,111.254 33.91,111.254 45.965,111.254 48.223,111.254 48.223,107.892 45.425,102.742 &#xD;&#xA;&#x9;&#x9;45.425,53.315 46.744,53.315 46.744,33.076 47.03,33.076 48.952,33.076 49.952,33.076 50.952,33.076 51.194,33.076 70.939,33.076 &#xD;&#xA;&#x9;&#x9;71.183,33.076 72.183,33.076 73.183,33.076 75.1,33.076 75.389,33.076 75.389,53.315 76.651,53.315 76.651,102.89 73.934,107.892 &#xD;&#xA;&#x9;&#x9;73.934,111.254 76.19,111.254 88.245,111.254 90.503,111.254 90.503,107.892 87.705,102.742 87.705,53.315 89.044,53.315 &#xD;&#xA;&#x9;&#x9;89.044,33.076 89.335,33.076 91.254,33.076 92.254,33.076 93.254,33.076 93.494,33.076 96.465,33.076 96.706,33.076 96.706,34.502 &#xD;&#xA;&#x9;&#x9;96.706,35.503 97.706,35.503 122.143,35.503 122.143,35.503 122.143,34.502 122.143,12.061 122.143,11.061 &#x9;"/>
</svg>