<svg version="1.2" baseProfile="tiny" viewBox="0 0 272.98 162.713" xmlns:xlink="http://www.w3.org/1999/xlink" xmlns="http://www.w3.org/2000/svg">
<path style="fill:#ffffff;" d="M235.42,147.666c0,0.953-0.627,1.731-1.395,1.731h-11.061c-0.767,0-1.395-0.778-1.395-1.731V2.731    c0-0.952,0.628-1.731,1.395-1.731h11.061c0.768,0,1.395,0.779,1.395,1.731V147.666z M14.849,2.731C14.849,1.779,14.222,1,13.455,1    H2.394C1.627,1,1,1.779,1,2.731v144.934c0,0.953,0.627,1.731,1.394,1.731h11.061c0.767,0,1.395-0.778,1.395-1.731V2.731z     M270.122,69.388h-31.141c0,3.38,0,8.479,0,11.62h31.141c1.022,0,1.858-0.837,1.858-1.859v-7.901    C271.98,70.226,271.144,69.388,270.122,69.388z M238.981,24.798h-3.561v100.8h3.561V24.798z M14.849,2.731v144.938h56.359    c0,0,63.907,0,72.041,0c8.133,0,9.528-10.923,14.873-13.943c2.636-1.492,12.549-1.734,16.732,0    c4.183,1.729,6.274,13.943,11.387,13.943c5.113,0,29.281,0,29.281,0h6.047V2.731H14.849z M186.241,157.531    c-1.817,0-3.369-2.203-5.01-4.536c-1.58-2.235-3.207-4.55-5.577-5.531c-4.56-1.887-15.138-1.821-18.563,0.112    c-2.292,1.296-3.867,3.146-5.396,4.939c-2.389,2.803-4.276,5.016-8.445,5.016H71.208v4.183h72.041c4.574,0,7.372-1.934,9.575-4.183    c0.734-0.753,1.408-1.538,2.054-2.301c1.353-1.585,2.626-3.082,4.271-4.011c1.943-1.098,11.164-1.44,14.906,0.111    c1.246,0.516,2.524,2.324,3.755,4.076c0.498,0.702,1.009,1.427,1.552,2.124c1.748,2.235,3.839,4.183,6.878,4.183h29.281v-4.183    H186.241z M186.241,147.668c-5.112,0-7.204-12.215-11.387-13.943c-4.183-1.734-14.097-1.492-16.732,0    c-5.345,3.021-6.739,13.943-14.873,13.943c-8.134,0-72.041,0-72.041,0v9.862h72.041c4.169,0,6.056-2.213,8.445-5.016    c1.492-1.752,3.031-3.555,5.238-4.847c0.051-0.033,0.107-0.061,0.158-0.093c3.425-1.934,14.004-1.999,18.563-0.112    c0.153,0.065,0.302,0.13,0.446,0.205c2.133,1.073,3.652,3.234,5.131,5.326c1.641,2.333,3.192,4.536,5.01,4.536h29.281v-9.862    C215.522,147.668,191.354,147.668,186.241,147.668z"/>
</svg>