<svg version="1.2" baseProfile="tiny" viewBox="0 0 203.249 74.948" xmlns:xlink="http://www.w3.org/1999/xlink" xmlns="http://www.w3.org/2000/svg">
<path style="fill:#ffffff;" d="M41.7758,1.0418C41.7331,1.0418,41.6965,1.0523,41.6559,1.0538C41.6132,1.0523,41.5766,1.0418,41.536,1.0418L41.7758,1.0418M166.9609,1.8692L42.8368,1.8692L42.8368,2.0154C42.8368,1.3408,42.3124,1.0837,41.6539,1.0553C40.9953,1.0837,40.4709,1.3408,40.4709,2.0154L40.4709,13.4487L2.3028,13.4487C1.5853,13.4479,1.0,14.034,1.0,14.7513L1.0,54.4092C1.0,55.125,1.5853,55.7111,2.3028,55.7111L40.473,55.7111L40.473,67.1452C40.473,67.8189,40.9953,68.1067,41.6559,68.1412C42.3124,68.1082,42.8388,67.8189,42.8388,67.1452L42.8388,67.2898L61.4544,67.2898L61.4544,68.45C61.4544,69.4063,62.2369,70.1873,63.1921,70.1873L95.0331,70.1873C95.9884,70.1873,96.7709,69.4063,96.7709,68.45L96.7709,67.2898L106.6813,67.2898L112.3052,70.4743L112.2036,70.4743L112.2036,72.2109L109.7992,72.2109L109.7992,73.9482L150.0039,73.9482L150.0039,72.2109L150.0039,67.2898L166.9609,67.2898C167.6682,67.2898,168.2475,66.7097,168.2475,66.0022L168.2475,3.1568C168.2495,2.4493,167.6682,1.8692,166.9609,1.8692M41.7758,68.154C41.7331,68.154,41.6965,68.142,41.6559,68.1397C41.6132,68.142,41.5766,68.154,41.536,68.154L41.7758,68.154M200.7511,27.673L169.2475,27.673C169.2475,27.682,169.2475,27.694,169.2475,27.703L201.0519,27.703C200.9543,27.6828,200.8547,27.673,200.7511,27.673M200.7511,40.4787C201.5742,40.4787,202.249,39.8199,202.249,39.0157L202.249,29.136C202.249,28.4323,201.7307,27.8387,201.0519,27.7023L169.2475,27.7023C169.2475,30.3862,169.2475,38.0129,169.2475,40.4787L200.7511,40.4787M200.7511,40.4787C201.5742,40.4787,202.249,39.8199,202.249,39.0157L202.249,29.136C202.249,28.4323,201.7307,27.8387,201.0519,27.7023L169.2475,27.7023C169.2475,30.3862,169.2475,38.0129,169.2475,40.4787L200.7511,40.4787Z"/>
</svg>