<svg version="1.2" baseProfile="tiny" id="EdgeSVG_zZAfG" x="0px" y="0px" width="109.181px" height="224.627px" viewBox="0 0 109.181 224.627" xmlns:xlink="http://www.w3.org/1999/xlink" xmlns="http://www.w3.org/2000/svg">
  <linearGradient id="SVGID_1_" gradientUnits="userSpaceOnUse" x1="0" y1="114.1318" x2="109.1812" y2="114.1318">
    <stop offset="0" style="stop-color:#000000;stop-opacity:0.5"/>
    <stop offset="1" style="stop-color:#000000;stop-opacity:0.5"/>
  </linearGradient>
  <path fill="url(#SVGID_1_)" d="M60.084,224.627c-2.257,0-4.504-0.311-6.679-0.925c-10.464-2.95-16.307-10.081-16.452-20.08l0-2.259&#xD;&#xA;&#x9;&#x9;c-8.396,5.121-25.435,6.688-28.83,6.953l-0.416,0.029c-0.346,0.053-0.356,0.164-0.364,0.255l0.022,1.521l-0.043-0.002v14.485H0&#xD;&#xA;&#x9;&#x9;V168.19h7.323v14.158h0.041l-0.022,1.389c0.007,0.015,0.042,0.198,0.535,0.226c0.368-0.071,0.855-0.159,1.438-0.264&#xD;&#xA;&#x9;&#x9;c4.34-0.776,15.87-2.838,18.44-6.644c2.549-3.774,6.162-6.727,10.49-8.584v-0.445H30.16v-12.487h6.618v-0.806h-5.779&#xD;&#xA;&#x9;&#x9;c-12.197,0-16.625-10.054-16.625-16.812v-34.828h-3.896c-2.84,0-4.604-1.765-4.604-4.604V61.564c0-2.84,1.764-4.604,4.604-4.604&#xD;&#xA;&#x9;&#x9;h22.171v-0.964H16.594c-3.995,0-13.459-3.114-13.459-8.023V32.861c0-0.572,0.001-1.116,0.004-1.635H2.358l-2.155-1.352v-3.751&#xD;&#xA;&#x9;&#x9;l2.155-1.351h0.776V11.659c0-4.909,9.464-8.023,13.46-8.023h75.671c3.995,0,13.459,3.114,13.459,8.023v13.112h1.059l2.166,1.319&#xD;&#xA;&#x9;&#x9;v3.776l-2.153,1.359h-1.077c0.004,0.519,0.006,1.063,0.006,1.635v15.112c0,4.909-9.464,8.023-13.459,8.023H77.318v0.964h22.034&#xD;&#xA;&#x9;&#x9;c2.84,0,4.604,1.764,4.604,4.604v36.925c0,2.84-1.765,4.604-4.604,4.604h-3.891v34.828c0,6.758-4.427,16.812-16.624,16.812H73.19&#xD;&#xA;&#x9;&#x9;v0.806h6.469v12.487h-6.94v22.264c0.002,0.104,0.025,0.244,0.055,0.359c0.091-0.033,0.217-0.089,0.38-0.181&#xD;&#xA;&#x9;&#x9;c6.981-3.936,21.696-5.591,26.52-6.042l0.513-0.039l0.987-0.089l0.296-0.021c0.363-0.055,0.365-0.191,0.365-0.193l0.047-0.403&#xD;&#xA;&#x9;&#x9;l-0.023-1.119v-14.155h7.322v56.201h-7.322v-14.331h-0.041l0.021-1.389c-0.008-0.016-0.042-0.201-0.542-0.228&#xD;&#xA;&#x9;&#x9;c-0.78,0.137-1.921,0.205-3.337,0.29c-4.792,0.286-13.713,0.82-16.964,5.097C75.957,220.672,68.139,224.627,60.084,224.627z&#xD;&#xA;&#x9;&#x9; M78.837,143.578c4.678,0,5.435-3.56,5.47-5.681v-34.804H64.588v1.655c0,1.259-1.024,2.283-2.283,2.283H58.81l0.45,23.772h5.628&#xD;&#xA;&#x9;&#x9;c1.259,0,2.283,1.024,2.283,2.283v1.423c0,0.778-0.392,1.467-0.988,1.879c0.596,0.429,0.988,1.146,0.988,1.956v5.232H78.837z&#xD;&#xA;&#x9;&#x9; M25.528,137.922c0.036,2.097,0.793,5.656,5.471,5.656h11.699v-5.232c0-0.811,0.392-1.527,0.988-1.956&#xD;&#xA;&#x9;&#x9;c-0.596-0.412-0.988-1.101-0.988-1.879v-1.423c0-1.259,1.024-2.283,2.283-2.283h5.634l0.548-23.772h-3.6&#xD;&#xA;&#x9;&#x9;c-1.258,0-2.282-1.024-2.282-2.283v-1.655H25.528V137.922z"/>
</svg>