<svg version="1.2" baseProfile="tiny" viewBox="0 0 109.282 38.549" xmlns:xlink="http://www.w3.org/1999/xlink" xmlns="http://www.w3.org/2000/svg">
<path style="fill:#ffffff;" d="M8.6628,15.2982C8.6628,17.487,6.9099,19.2599,4.7461,19.2599C2.5823,19.2599,0.8284,17.487,0.8284,15.2982C0.8284,13.1101,2.5823,11.3369,4.7461,11.3369C6.9099,11.3369,8.6628,13.1101,8.6628,15.2982M13.7903,11.3361C11.6265,11.3361,9.8725,13.109,9.8725,15.297C9.8725,17.4858,11.6265,19.2591,13.7903,19.2591C15.953,19.2591,17.707,17.4858,17.707,15.297C17.707,13.1101,15.953,11.3361,13.7903,11.3361M22.8334,11.3361C20.6685,11.3361,18.9145,13.109,18.9145,15.297C18.9145,17.4858,20.6696,19.2591,22.8334,19.2591C24.9961,19.2591,26.75,17.4858,26.75,15.297C26.75,13.1101,24.9961,11.3361,22.8334,11.3361M31.8754,11.3361C29.7105,11.3361,27.9565,13.109,27.9565,15.297C27.9565,17.4858,29.7116,19.2591,31.8754,19.2591C34.0402,19.2591,35.7931,17.4858,35.7931,15.297C35.7942,13.1101,34.0402,11.3361,31.8754,11.3361M40.9185,11.3361C38.7536,11.3361,37.0007,13.109,37.0007,15.297C37.0007,17.4858,38.7547,19.2591,40.9185,19.2591C43.0833,19.2591,44.8362,17.4858,44.8362,15.297C44.8362,13.1101,43.0833,11.3361,40.9185,11.3361M49.9615,11.3361C47.7978,11.3361,46.0438,13.109,46.0438,15.297C46.0438,17.4858,47.7978,19.2591,49.9615,19.2591C52.1264,19.2591,53.8804,17.4858,53.8804,15.297C53.8804,13.1101,52.1264,11.3361,49.9615,11.3361M59.0046,11.121C56.8408,11.121,55.0869,12.8939,55.0869,15.0819C55.0869,17.27,56.8408,19.0451,59.0046,19.0451C61.1695,19.0451,62.9235,17.2711,62.9235,15.0819C62.9235,12.8939,61.1695,11.121,59.0046,11.121M68.0477,11.3361C65.885,11.3361,64.13,13.109,64.13,15.297C64.13,17.4858,65.885,19.2591,68.0477,19.2591C70.2115,19.2591,71.9655,17.4858,71.9655,15.297C71.9655,13.1101,70.2115,11.3361,68.0477,11.3361M77.0908,11.3361C74.927,11.3361,73.173,13.109,73.173,15.297C73.173,17.4858,74.927,19.2591,77.0908,19.2591C79.2546,19.2591,81.0086,17.4858,81.0086,15.297C81.0086,13.1101,79.2546,11.3361,77.0908,11.3361M86.1339,11.3361C83.9723,11.3361,82.2161,13.109,82.2161,15.297C82.2161,17.4858,83.9723,19.2591,86.1339,19.2591C88.2977,19.2591,90.0527,17.4858,90.0527,15.297C90.0527,13.1101,88.2977,11.3361,86.1339,11.3361M95.1781,11.3361C93.0154,11.3361,91.2603,13.109,91.2603,15.297C91.2603,17.4858,93.0154,19.2591,95.1781,19.2591C97.3418,19.2591,99.0947,17.4858,99.0947,15.297C99.0947,13.1101,97.3418,11.3361,95.1781,11.3361M104.2222,11.3361C102.0585,11.3361,100.3045,13.109,100.3045,15.297C100.3045,17.4858,102.0585,19.2591,104.2222,19.2591C106.3849,19.2591,108.1389,17.4858,108.1389,15.297C108.1389,13.1101,106.3849,11.3361,104.2222,11.3361Z"/>
</svg>