<svg version="1.2" baseProfile="tiny" viewBox="0 0 109.282 122.689" xmlns:xlink="http://www.w3.org/1999/xlink" xmlns="http://www.w3.org/2000/svg">
<path style="fill:#ffffff;" d="M7.2487,37.6582C7.2946,37.6582,7.3711,37.6582,7.417,37.6582L15.9224,37.6582C15.9683,37.6582,16.0065,37.6962,16.0065,37.7416L16.0065,39.8825C16.0065,39.9291,15.988,40.0003,15.9661,40.0408L13.2636,45.0146C13.2417,45.0551,13.186,45.0882,13.1401,45.0882L12.6002,45.0882L12.6002,45.0882C12.5543,45.0882,12.5161,45.1262,12.5161,45.1716L12.5161,57.8049C12.5161,57.8515,12.5543,57.8896,12.6002,57.8896L12.7128,57.8896C12.7587,57.8896,12.7969,57.9276,12.7969,57.973L12.7969,114.0873C12.7969,114.1327,12.8352,114.1707,12.8811,114.1707L13.0887,114.1707C13.1346,114.1707,13.1914,114.2038,13.2133,114.2443L15.9136,119.2194C15.9355,119.2586,15.9541,119.3298,15.9541,119.3764L15.9541,121.5173C15.9541,121.5627,15.9158,121.6008,15.8699,121.6008L8.7557,121.6008L8.7557,121.6008C8.7098,121.6008,8.6344,121.6008,8.5885,121.6008L0.0841,121.6008L0.0841,121.6008C0.0382,121.5995,0.0,121.5615,0.0,121.5161L0.0,119.3752C0.0,119.3286,0.0175,119.2574,0.0404,119.2181L2.7408,114.2431C2.7626,114.2026,2.8195,114.1695,2.8654,114.1695L2.8905,114.1695C2.9375,114.1695,2.9747,114.1314,2.9747,114.0861L2.9747,57.9718C2.9747,57.9264,3.0129,57.8884,3.0588,57.8884L3.1768,57.8884C3.2227,57.8884,3.261,57.8503,3.261,57.8037L3.261,45.1704C3.261,45.1238,3.2227,45.0858,3.1768,45.0858L2.9167,45.0858L2.9167,45.0858C2.8708,45.0858,2.8151,45.0526,2.7932,45.0121L0.0907,40.0396C0.0688,39.9991,0.0514,39.9291,0.0514,39.8825L0.0514,37.7416C0.0514,37.695,0.0885,37.6569,0.1355,37.6569L7.2487,37.6569L7.2487,37.6569M106.5401,114.2431C106.5183,114.2026,106.4625,114.1695,106.4155,114.1695L106.2079,114.1695C106.162,114.1695,106.1237,114.1314,106.1237,114.0861L106.1237,57.9203C106.1237,57.8736,106.0855,57.8356,106.0396,57.8356L105.9281,57.8356C105.8822,57.8356,105.844,57.7976,105.844,57.7522L105.844,45.1189C105.844,45.0735,105.8822,45.0354,105.9281,45.0354L106.3685,45.0354C106.4144,45.0354,106.4702,45.0023,106.492,44.9606L109.1935,39.988C109.2164,39.9475,109.2339,39.8776,109.2339,39.8298L109.2339,37.6901C109.2339,37.6434,109.1957,37.6054,109.1498,37.6054L100.6454,37.6054C100.5995,37.6054,100.523,37.6054,100.4771,37.6054L93.364,37.6054C93.3181,37.6054,93.2798,37.6434,93.2798,37.6901L93.2798,39.831C93.2798,39.8776,93.2984,39.9475,93.3203,39.9893L96.0206,44.9618C96.0425,45.0036,96.0993,45.0354,96.1452,45.0354L96.5047,45.0354C96.5506,45.0354,96.5889,45.0735,96.5889,45.1201L96.5889,57.7534C96.5889,57.8,96.5506,57.838,96.5047,57.838L96.3856,57.838C96.3397,57.838,96.3015,57.8761,96.3015,57.9215L96.3015,114.0885C96.3015,114.1339,96.2643,114.1719,96.2184,114.1719L96.1933,114.1719C96.1474,114.1719,96.0906,114.2051,96.0687,114.2455L93.3673,119.2206C93.3454,119.2598,93.3268,119.331,93.3268,119.3764L93.3268,121.5185C93.3268,121.5639,93.3651,121.602,93.411,121.602L101.9175,121.602C101.9634,121.602,102.0388,121.602,102.0847,121.602L109.1979,121.602C109.2438,121.602,109.282,121.5639,109.282,121.5185L109.282,119.3764C109.282,119.331,109.2645,119.2598,109.2416,119.2206L106.5401,114.2431Z"/>
</svg>