<svg version="1.2" baseProfile="tiny" viewBox="0 0 122.143 111.254" xmlns:xlink="http://www.w3.org/1999/xlink" xmlns="http://www.w3.org/2000/svg">
<path style="fill:#ffffff;" d="M121.8364,12.0599C122.005,12.0599,122.143,12.1979,122.143,12.367L122.143,34.1973C122.143,34.3664,122.005,34.5043,121.8364,34.5043L98.0124,34.5043L98.0124,34.5043C97.8439,34.5043,97.7058,34.3664,97.7058,34.1973L97.7058,32.3827C97.7058,32.2136,97.5678,32.0756,97.3993,32.0756L92.56,32.0756C92.3914,32.0756,92.1166,32.0756,91.9468,32.0756L88.3497,32.0756C88.1811,32.0756,88.0431,32.2136,88.0431,32.3827L88.0431,52.009C88.0431,52.1781,87.9051,52.3161,87.7365,52.3161L86.9243,52.3161C86.7545,52.3161,86.6165,52.454,86.6165,52.6231L86.6165,103.1647C86.6165,103.3338,86.6934,103.4718,86.7887,103.4718C86.884,103.4718,87.0257,103.593,87.1075,103.7421L89.3537,107.8785C89.4355,108.0265,89.5003,108.2857,89.5003,108.4548L89.5003,109.9501C89.5003,110.1192,89.3623,110.2572,89.1925,110.2572L83.1574,110.2572C82.9888,110.2572,82.714,110.2572,82.5455,110.2572L75.2401,110.2572L75.2401,110.2572C75.0715,110.2572,74.9335,110.1192,74.9335,109.9501L74.9335,108.4548C74.9335,108.2857,74.9982,108.0265,75.0789,107.8785L77.3275,103.7421C77.4081,103.5942,77.5144,103.4718,77.5608,103.4718C77.6097,103.4718,77.65,103.3338,77.65,103.1647L77.65,52.622C77.65,52.4529,77.5119,52.315,77.3434,52.315L76.6936,52.315C76.525,52.315,76.387,52.177,76.387,52.0079L76.387,32.3816C76.387,32.2125,76.249,32.0745,76.0804,32.0745L72.487,32.0745C72.3184,32.0745,72.0436,32.0745,71.8738,32.0745L50.2594,32.0745L50.2594,32.0745C50.0896,32.0745,49.8148,32.0745,49.6462,32.0745L46.0516,32.0745C45.8818,32.0745,45.7438,32.2125,45.7438,32.3816L45.7438,52.0079C45.7438,52.177,45.6058,52.315,45.4372,52.315L44.6457,52.315C44.4771,52.315,44.3391,52.4529,44.3391,52.622L44.3391,103.1636C44.3391,103.3327,44.4161,103.4707,44.5101,103.4707C44.6042,103.4707,44.7471,103.5919,44.8277,103.741L47.0751,107.8785C47.1558,108.0265,47.2205,108.2846,47.2205,108.4537L47.2205,109.949C47.2205,110.1181,47.0825,110.2561,46.9139,110.2561L40.8788,110.2561C40.7103,110.2561,40.4354,110.2561,40.2657,110.2561L32.9603,110.2561L32.9603,110.2561C32.7905,110.2561,32.6525,110.1181,32.6525,109.949L32.6525,108.4537C32.6525,108.2846,32.7184,108.0265,32.7991,107.8785L35.0465,103.741C35.1271,103.593,35.2334,103.4707,35.281,103.4707C35.3286,103.4707,35.3702,103.3327,35.3702,103.1636L35.3702,52.622C35.3702,52.4529,35.2321,52.315,35.0636,52.315L34.3955,52.315C34.2257,52.315,34.0877,52.177,34.0877,52.0079L34.0877,32.3816C34.0877,32.2125,33.9496,32.0745,33.7811,32.0745L30.1852,32.0745C30.0154,32.0745,29.7406,32.0745,29.572,32.0745L24.7425,32.0745C24.5739,32.0745,24.4359,32.2125,24.4359,32.3816L24.4359,34.1961C24.4359,34.3652,24.2979,34.5032,24.1293,34.5032L0.3066,34.5032L0.3066,34.5032C0.138,34.5032,0.0,34.3664,0.0,34.1973L0.0,12.3692C0.0,12.2001,0.138,12.0622,0.3066,12.0622L10.9526,12.0622C11.1223,12.0622,11.2604,11.9242,11.2604,11.7551L11.2604,1.3061C11.2591,1.137,11.3959,1.0002,11.5645,1.0002L110.7715,1.0002C110.94,1.0002,111.0781,1.1381,111.0781,1.3072L111.0781,11.754C111.0781,11.9231,111.2161,12.061,111.3846,12.061L121.8364,12.061L121.8364,12.061Z"/>
</svg>