<svg version="1.2" baseProfile="tiny" id="EdgeSVG_wenCh" x="0px" y="0px" width="40.281px" height="35.06px" viewBox="0 0 40.281 35.06" xmlns:xlink="http://www.w3.org/1999/xlink" xmlns="http://www.w3.org/2000/svg">
  <linearGradient id="SVGID_2_" gradientUnits="userSpaceOnUse" x1="20.1416" y1="33.3398" x2="20.1416" y2="34.3398">
    <stop offset="0" style="stop-color:#000000;stop-opacity:0.45"/>
    <stop offset="1" style="stop-color:#000000;stop-opacity:0.4"/>
  </linearGradient>
  <path fill="url(#SVGID_2_)" d="M1.604,33.34h37.074c0,0-1.177-0.002-1.413,1H3.017C3.017,34.34,2.806,33.34,1.604,33.34"/>
  <g>
    <linearGradient id="SVGID_3_" gradientUnits="userSpaceOnUse" x1="36.3057" y1="9.0605" x2="36.3057" y2="24.2314">
      <stop offset="0" style="stop-color:#000000;stop-opacity:0.1"/>
      <stop offset="1" style="stop-color:#000000;stop-opacity:0.15"/>
    </linearGradient>
    <rect x="33.764" y="9.061" fill="url(#SVGID_3_)" width="5.084" height="15.171"/>
    <linearGradient id="SVGID_4_" gradientUnits="userSpaceOnUse" x1="3.9902" y1="24.9463" x2="3.9902" y2="32.626">
      <stop offset="0" style="stop-color:#000000;stop-opacity:0.1"/>
      <stop offset="1" style="stop-color:#000000;stop-opacity:0.15"/>
    </linearGradient>
    <rect x="1.436" y="24.946" fill="url(#SVGID_4_)" width="5.11" height="7.68"/>
    <linearGradient id="SVGID_5_" gradientUnits="userSpaceOnUse" x1="30.248" y1="6.4385" x2="30.248" y2="8.3457">
      <stop offset="0" style="stop-color:#000000;stop-opacity:0.1"/>
      <stop offset="1" style="stop-color:#000000;stop-opacity:0.15"/>
    </linearGradient>
    <path fill="url(#SVGID_5_)" d="M33.021,6.438h-5.547c0.462,0.38,0.875,0.979,0.963,1.907h4.584V6.438z"/>
    <linearGradient id="SVGID_6_" gradientUnits="userSpaceOnUse" x1="3.9902" y1="3.8975" x2="3.9902" y2="5.7246">
      <stop offset="0" style="stop-color:#000000;stop-opacity:0.1"/>
      <stop offset="1" style="stop-color:#000000;stop-opacity:0.15"/>
    </linearGradient>
    <rect x="1.436" y="3.897" fill="url(#SVGID_6_)" width="5.11" height="1.827"/>
    <linearGradient id="SVGID_7_" gradientUnits="userSpaceOnUse" x1="4.0039" y1="9.0605" x2="4.0039" y2="24.2314">
      <stop offset="0" style="stop-color:#000000;stop-opacity:0.1"/>
      <stop offset="1" style="stop-color:#000000;stop-opacity:0.15"/>
    </linearGradient>
    <rect x="1.436" y="9.061" fill="url(#SVGID_7_)" width="5.136" height="15.171"/>
    <linearGradient id="SVGID_8_" gradientUnits="userSpaceOnUse" x1="3.9902" y1="1.4355" x2="3.9902" y2="3.1826">
      <stop offset="0" style="stop-color:#000000;stop-opacity:0.1"/>
      <stop offset="1" style="stop-color:#000000;stop-opacity:0.15"/>
    </linearGradient>
    <rect x="1.436" y="1.436" fill="url(#SVGID_8_)" width="5.11" height="1.747"/>
    <linearGradient id="SVGID_9_" gradientUnits="userSpaceOnUse" x1="3.9902" y1="6.4385" x2="3.9902" y2="8.3457">
      <stop offset="0" style="stop-color:#000000;stop-opacity:0.1"/>
      <stop offset="1" style="stop-color:#000000;stop-opacity:0.15"/>
    </linearGradient>
    <rect x="1.436" y="6.438" fill="url(#SVGID_9_)" width="5.11" height="1.907"/>
    <linearGradient id="SVGID_10_" gradientUnits="userSpaceOnUse" x1="36.292" y1="6.4385" x2="36.292" y2="8.3457">
      <stop offset="0" style="stop-color:#000000;stop-opacity:0.1"/>
      <stop offset="1" style="stop-color:#000000;stop-opacity:0.15"/>
    </linearGradient>
    <polygon fill="url(#SVGID_10_)" points="33.736,8.346 33.764,8.346 38.848,8.346 38.848,6.438 33.736,6.438 &#x9;&#x9;"/>
    <linearGradient id="SVGID_11_" gradientUnits="userSpaceOnUse" x1="36.292" y1="3.8975" x2="36.292" y2="5.7246">
      <stop offset="0" style="stop-color:#000000;stop-opacity:0.1"/>
      <stop offset="1" style="stop-color:#000000;stop-opacity:0.15"/>
    </linearGradient>
    <rect x="33.736" y="3.897" fill="url(#SVGID_11_)" width="5.111" height="1.827"/>
    <linearGradient id="SVGID_12_" gradientUnits="userSpaceOnUse" x1="20.1406" y1="24.9463" x2="20.1406" y2="32.626">
      <stop offset="0" style="stop-color:#000000;stop-opacity:0.1"/>
      <stop offset="1" style="stop-color:#000000;stop-opacity:0.15"/>
    </linearGradient>
    <rect x="7.26" y="24.946" fill="url(#SVGID_12_)" width="25.762" height="7.68"/>
    <linearGradient id="SVGID_13_" gradientUnits="userSpaceOnUse" x1="36.292" y1="24.9463" x2="36.292" y2="32.626">
      <stop offset="0" style="stop-color:#000000;stop-opacity:0.1"/>
      <stop offset="1" style="stop-color:#000000;stop-opacity:0.15"/>
    </linearGradient>
    <polygon fill="url(#SVGID_13_)" points="33.736,32.626 38.848,32.626 38.848,24.946 33.764,24.946 33.736,24.946 &#x9;&#x9;"/>
    <linearGradient id="SVGID_14_" gradientUnits="userSpaceOnUse" x1="36.292" y1="1.4355" x2="36.292" y2="3.1826">
      <stop offset="0" style="stop-color:#000000;stop-opacity:0.1"/>
      <stop offset="1" style="stop-color:#000000;stop-opacity:0.15"/>
    </linearGradient>
    <rect x="33.736" y="1.436" fill="url(#SVGID_14_)" width="5.111" height="1.747"/>
    <linearGradient id="SVGID_15_" gradientUnits="userSpaceOnUse" x1="20.1406" y1="1.4355" x2="20.1406" y2="3.1826">
      <stop offset="0" style="stop-color:#000000;stop-opacity:0.1"/>
      <stop offset="1" style="stop-color:#000000;stop-opacity:0.15"/>
    </linearGradient>
    <rect x="7.26" y="1.436" fill="url(#SVGID_15_)" width="25.762" height="1.747"/>
    <linearGradient id="SVGID_16_" gradientUnits="userSpaceOnUse" x1="10.0488" y1="6.4385" x2="10.0488" y2="8.3457">
      <stop offset="0" style="stop-color:#000000;stop-opacity:0.1"/>
      <stop offset="1" style="stop-color:#000000;stop-opacity:0.15"/>
    </linearGradient>
    <path fill="url(#SVGID_16_)" d="M7.26,8.346h4.612c0.087-0.929,0.502-1.527,0.965-1.907H7.26V8.346z"/>
    <linearGradient id="SVGID_17_" gradientUnits="userSpaceOnUse" x1="20.1406" y1="3.8975" x2="20.1406" y2="5.7246">
      <stop offset="0" style="stop-color:#000000;stop-opacity:0.1"/>
      <stop offset="1" style="stop-color:#000000;stop-opacity:0.15"/>
    </linearGradient>
    <path fill="url(#SVGID_17_)" d="M7.26,5.725h7.604l0,0l10.591-0.001c0,0,0.024,0,0.057,0.001h7.51V3.897H7.26V5.725z"/>
  </g>
  <g>
    <linearGradient id="SVGID_18_" gradientUnits="userSpaceOnUse" x1="27.7148" y1="8.9307" x2="27.7217" y2="8.9307">
      <stop offset="0" style="stop-color:#000000;stop-opacity:0.1"/>
      <stop offset="1" style="stop-color:#000000;stop-opacity:0.15"/>
    </linearGradient>
    <path fill="url(#SVGID_18_)" d="M27.715,8.972c0.002-0.027,0.005-0.055,0.007-0.082C27.72,8.917,27.717,8.944,27.715,8.972z"/>
    <linearGradient id="SVGID_19_" gradientUnits="userSpaceOnUse" x1="1.4355" y1="28.7861" x2="6.5459" y2="28.7861">
      <stop offset="0" style="stop-color:#000000;stop-opacity:0.1"/>
      <stop offset="1" style="stop-color:#000000;stop-opacity:0.15"/>
    </linearGradient>
    <rect x="1.436" y="24.946" fill="url(#SVGID_19_)" width="5.11" height="7.68"/>
    <linearGradient id="SVGID_20_" gradientUnits="userSpaceOnUse" x1="27.7061" y1="9.0186" x2="27.7148" y2="9.0186">
      <stop offset="0" style="stop-color:#000000;stop-opacity:0.1"/>
      <stop offset="1" style="stop-color:#000000;stop-opacity:0.15"/>
    </linearGradient>
    <path fill="url(#SVGID_20_)" d="M27.706,9.061L27.706,9.061c0.004-0.028,0.007-0.057,0.009-0.085&#xD;&#xA;&#x9;&#x9;&#x9;C27.712,9.004,27.71,9.032,27.706,9.061z"/>
    <linearGradient id="SVGID_21_" gradientUnits="userSpaceOnUse" x1="27.7227" y1="8.8311" x2="27.7256" y2="8.8311">
      <stop offset="0" style="stop-color:#000000;stop-opacity:0.1"/>
      <stop offset="1" style="stop-color:#000000;stop-opacity:0.15"/>
    </linearGradient>
    <path fill="url(#SVGID_21_)" d="M27.723,8.864c0.001-0.021,0.001-0.043,0.003-0.065C27.724,8.821,27.724,8.843,27.723,8.864z"/>
    <linearGradient id="SVGID_22_" gradientUnits="userSpaceOnUse" x1="27.4746" y1="7.3916" x2="33.0215" y2="7.3916">
      <stop offset="0" style="stop-color:#000000;stop-opacity:0.1"/>
      <stop offset="1" style="stop-color:#000000;stop-opacity:0.15"/>
    </linearGradient>
    <path fill="url(#SVGID_22_)" d="M33.021,6.438h-5.547c0.462,0.38,0.875,0.979,0.963,1.907h4.584V6.438z"/>
    <linearGradient id="SVGID_23_" gradientUnits="userSpaceOnUse" x1="1.4355" y1="4.8115" x2="6.5459" y2="4.8115">
      <stop offset="0" style="stop-color:#000000;stop-opacity:0.1"/>
      <stop offset="1" style="stop-color:#000000;stop-opacity:0.15"/>
    </linearGradient>
    <rect x="1.436" y="3.897" fill="url(#SVGID_23_)" width="5.11" height="1.827"/>
    <linearGradient id="SVGID_24_" gradientUnits="userSpaceOnUse" x1="1.4355" y1="16.6455" x2="6.5713" y2="16.6455">
      <stop offset="0" style="stop-color:#000000;stop-opacity:0.1"/>
      <stop offset="1" style="stop-color:#000000;stop-opacity:0.15"/>
    </linearGradient>
    <rect x="1.436" y="9.061" fill="url(#SVGID_24_)" width="5.136" height="15.171"/>
    <linearGradient id="SVGID_25_" gradientUnits="userSpaceOnUse" x1="1.4355" y1="2.3096" x2="6.5459" y2="2.3096">
      <stop offset="0" style="stop-color:#000000;stop-opacity:0.1"/>
      <stop offset="1" style="stop-color:#000000;stop-opacity:0.15"/>
    </linearGradient>
    <rect x="1.436" y="1.436" fill="url(#SVGID_25_)" width="5.11" height="1.747"/>
    <linearGradient id="SVGID_26_" gradientUnits="userSpaceOnUse" x1="12.5605" y1="8.9766" x2="12.5752" y2="8.9766">
      <stop offset="0" style="stop-color:#000000;stop-opacity:0.1"/>
      <stop offset="1" style="stop-color:#000000;stop-opacity:0.15"/>
    </linearGradient>
    <path fill="url(#SVGID_26_)" d="M12.575,9.061L12.575,9.061c-0.007-0.055-0.011-0.11-0.015-0.168&#xD;&#xA;&#x9;&#x9;&#x9;C12.564,8.95,12.568,9.006,12.575,9.061z"/>
    <linearGradient id="SVGID_27_" gradientUnits="userSpaceOnUse" x1="1.4355" y1="7.3916" x2="6.5459" y2="7.3916">
      <stop offset="0" style="stop-color:#000000;stop-opacity:0.1"/>
      <stop offset="1" style="stop-color:#000000;stop-opacity:0.15"/>
    </linearGradient>
    <rect x="1.436" y="6.438" fill="url(#SVGID_27_)" width="5.11" height="1.907"/>
    <linearGradient id="SVGID_28_" gradientUnits="userSpaceOnUse" x1="33.7637" y1="16.6455" x2="38.8477" y2="16.6455">
      <stop offset="0" style="stop-color:#000000;stop-opacity:0.1"/>
      <stop offset="1" style="stop-color:#000000;stop-opacity:0.15"/>
    </linearGradient>
    <rect x="33.764" y="9.061" fill="url(#SVGID_28_)" width="5.084" height="15.171"/>
    <linearGradient id="SVGID_29_" gradientUnits="userSpaceOnUse" x1="33.7363" y1="7.3916" x2="38.8477" y2="7.3916">
      <stop offset="0" style="stop-color:#000000;stop-opacity:0.1"/>
      <stop offset="1" style="stop-color:#000000;stop-opacity:0.15"/>
    </linearGradient>
    <polygon fill="url(#SVGID_29_)" points="33.736,8.346 33.764,8.346 38.848,8.346 38.848,6.438 33.736,6.438 &#x9;&#x9;"/>
    <linearGradient id="SVGID_30_" gradientUnits="userSpaceOnUse" x1="33.7363" y1="4.8115" x2="38.8477" y2="4.8115">
      <stop offset="0" style="stop-color:#000000;stop-opacity:0.1"/>
      <stop offset="1" style="stop-color:#000000;stop-opacity:0.15"/>
    </linearGradient>
    <rect x="33.736" y="3.897" fill="url(#SVGID_30_)" width="5.111" height="1.827"/>
    <linearGradient id="SVGID_31_" gradientUnits="userSpaceOnUse" x1="7.2598" y1="28.7861" x2="33.0215" y2="28.7861">
      <stop offset="0" style="stop-color:#000000;stop-opacity:0.1"/>
      <stop offset="1" style="stop-color:#000000;stop-opacity:0.15"/>
    </linearGradient>
    <rect x="7.26" y="24.946" fill="url(#SVGID_31_)" width="25.762" height="7.68"/>
    <linearGradient id="SVGID_32_" gradientUnits="userSpaceOnUse" x1="33.7363" y1="28.7861" x2="38.8477" y2="28.7861">
      <stop offset="0" style="stop-color:#000000;stop-opacity:0.1"/>
      <stop offset="1" style="stop-color:#000000;stop-opacity:0.15"/>
    </linearGradient>
    <polygon fill="url(#SVGID_32_)" points="33.736,32.626 38.848,32.626 38.848,24.946 33.764,24.946 33.736,24.946 &#x9;&#x9;"/>
    <linearGradient id="SVGID_33_" gradientUnits="userSpaceOnUse" x1="33.7363" y1="2.3096" x2="38.8477" y2="2.3096">
      <stop offset="0" style="stop-color:#000000;stop-opacity:0.1"/>
      <stop offset="1" style="stop-color:#000000;stop-opacity:0.15"/>
    </linearGradient>
    <rect x="33.736" y="1.436" fill="url(#SVGID_33_)" width="5.111" height="1.747"/>
    <linearGradient id="SVGID_34_" gradientUnits="userSpaceOnUse" x1="7.2598" y1="2.3096" x2="33.0215" y2="2.3096">
      <stop offset="0" style="stop-color:#000000;stop-opacity:0.1"/>
      <stop offset="1" style="stop-color:#000000;stop-opacity:0.15"/>
    </linearGradient>
    <rect x="7.26" y="1.436" fill="url(#SVGID_34_)" width="25.762" height="1.747"/>
    <linearGradient id="SVGID_35_" gradientUnits="userSpaceOnUse" x1="12.5576" y1="8.8506" x2="12.5605" y2="8.8506">
      <stop offset="0" style="stop-color:#000000;stop-opacity:0.1"/>
      <stop offset="1" style="stop-color:#000000;stop-opacity:0.15"/>
    </linearGradient>
    <path fill="url(#SVGID_35_)" d="M12.558,8.81c0.001,0.027,0.001,0.055,0.003,0.082C12.559,8.864,12.559,8.837,12.558,8.81z"/>
    <linearGradient id="SVGID_36_" gradientUnits="userSpaceOnUse" x1="12.5557" y1="8.7598" x2="12.5576" y2="8.7598">
      <stop offset="0" style="stop-color:#000000;stop-opacity:0.1"/>
      <stop offset="1" style="stop-color:#000000;stop-opacity:0.15"/>
    </linearGradient>
    <path fill="url(#SVGID_36_)" d="M12.556,8.716c0,0.03,0.001,0.06,0.002,0.088C12.557,8.775,12.556,8.746,12.556,8.716z"/>
    <linearGradient id="SVGID_37_" gradientUnits="userSpaceOnUse" x1="7.2598" y1="7.3916" x2="12.8369" y2="7.3916">
      <stop offset="0" style="stop-color:#000000;stop-opacity:0.1"/>
      <stop offset="1" style="stop-color:#000000;stop-opacity:0.15"/>
    </linearGradient>
    <path fill="url(#SVGID_37_)" d="M7.26,8.346h4.612c0.087-0.929,0.502-1.527,0.965-1.907H7.26V8.346z"/>
    <linearGradient id="SVGID_38_" gradientUnits="userSpaceOnUse" x1="7.2598" y1="4.8115" x2="33.0215" y2="4.8115">
      <stop offset="0" style="stop-color:#000000;stop-opacity:0.1"/>
      <stop offset="1" style="stop-color:#000000;stop-opacity:0.15"/>
    </linearGradient>
    <path fill="url(#SVGID_38_)" d="M7.26,5.725h7.604l0,0l10.591-0.001c0,0,0.024,0,0.057,0.001h7.51V3.897H7.26V5.725z"/>
  </g>
  <linearGradient id="SVGID_39_" gradientUnits="userSpaceOnUse" x1="0.7207" y1="17.0303" x2="39.5615" y2="17.0303">
    <stop offset="0" style="stop-color:#000000;stop-opacity:0.01"/>
    <stop offset="1" style="stop-color:#000000;stop-opacity:0.01"/>
  </linearGradient>
  <path fill="url(#SVGID_39_)" d="M0.721,0.72v32.62h38.841V0.72H0.721z M38.848,3.183h-5.111V1.436h5.111V3.183z M33.021,3.897&#xD;&#xA;&#x9;&#x9;v1.827h-7.51c-0.032-0.001-0.052-0.001-0.052-0.001L14.864,5.725l0,0H7.26V3.897H33.021z M7.26,3.183V1.436h25.762v1.747H7.26z&#xD;&#xA;&#x9;&#x9; M31.598,24.231l1.451-1.45v1.45H31.598z M1.436,6.438h5.11v1.907h-5.11V6.438z M33.049,9.061v1.421l-1.421-1.421H33.049z&#xD;&#xA;&#x9;&#x9; M11.87,9.061c0.06,0.67,0.289,1.165,0.584,1.532l-0.238,0.237l-1.77-1.77H11.87z M27.343,11.081l0.254,0.255l-2.142,2.142&#xD;&#xA;&#x9;&#x9;l-1.791-1.789l1.791,0.002c0.031,0,0.753,0,1.48-0.363C27.068,11.261,27.207,11.181,27.343,11.081z M30.244,13.983l-2.143,2.143&#xD;&#xA;&#x9;&#x9;l-2.141-2.143l2.141-2.143L30.244,13.983z M28.608,11.336l2.142-2.143l2.143,2.143l-2.143,2.142L28.608,11.336z M30.75,14.489&#xD;&#xA;&#x9;&#x9;l2.143,2.142l-2.143,2.142l-2.142-2.142L30.75,14.489z M7.286,12.206l1.777,1.777l-1.777,1.777V12.206z M7.427,11.336l2.142-2.143&#xD;&#xA;&#x9;&#x9;l2.143,2.143l-2.143,2.142L7.427,11.336z M9.568,14.489l2.143,2.142l-2.143,2.142l-2.142-2.142L9.568,14.489z M10.074,13.983&#xD;&#xA;&#x9;&#x9;l2.142-2.143l2.144,2.143l-2.144,2.143L10.074,13.983z M14.864,14.489l2.142,2.142l-2.142,2.142l-2.144-2.142L14.864,14.489z&#xD;&#xA;&#x9;&#x9; M15.37,13.983l2.142-2.143l2.143,2.143l-2.143,2.143L15.37,13.983z M20.16,14.489l2.141,2.142l-2.141,2.142l-2.144-2.142&#xD;&#xA;&#x9;&#x9;L20.16,14.489z M20.664,13.983l2.143-2.143l2.143,2.143l-2.143,2.143L20.664,13.983z M25.455,14.489l2.142,2.142l-2.142,2.142&#xD;&#xA;&#x9;&#x9;l-2.143-2.142L25.455,14.489z M20.16,13.478l-1.794-1.793l3.584,0.002L20.16,13.478z M14.864,13.478l-2.144-2.142l0.256-0.255&#xD;&#xA;&#x9;&#x9;c0.135,0.096,0.271,0.175,0.402,0.24c0.729,0.36,1.452,0.36,1.485,0.36l0,0l1.795,0.001L14.864,13.478z M7.286,10.465V9.061h1.405&#xD;&#xA;&#x9;&#x9;L7.286,10.465z M9.063,19.278l-1.777,1.777v-3.553L9.063,19.278z M9.568,19.784l2.143,2.143l-2.143,2.143l-2.142-2.143&#xD;&#xA;&#x9;&#x9;L9.568,19.784z M10.074,19.278l2.142-2.142l2.144,2.142l-2.144,2.143L10.074,19.278z M14.864,19.784l2.142,2.143l-2.142,2.143&#xD;&#xA;&#x9;&#x9;l-2.144-2.143L14.864,19.784z M15.37,19.278l2.142-2.142l2.143,2.142l-2.143,2.143L15.37,19.278z M20.16,19.784l2.141,2.143&#xD;&#xA;&#x9;&#x9;l-2.141,2.143l-2.144-2.143L20.16,19.784z M20.664,19.278l2.143-2.142l2.143,2.142l-2.143,2.143L20.664,19.278z M25.455,19.784&#xD;&#xA;&#x9;&#x9;l2.142,2.143l-2.142,2.143l-2.143-2.143L25.455,19.784z M25.961,19.278l2.141-2.142l2.143,2.142l-2.143,2.143L25.961,19.278z&#xD;&#xA;&#x9;&#x9; M30.75,19.784l2.143,2.143l-2.143,2.143l-2.142-2.143L30.75,19.784z M31.256,19.278l1.793-1.791v3.585L31.256,19.278z&#xD;&#xA;&#x9;&#x9; M33.049,15.776l-1.793-1.793l1.793-1.793V15.776z M28.102,10.83l-0.24-0.241c0.292-0.367,0.519-0.861,0.578-1.528h1.434&#xD;&#xA;&#x9;&#x9;L28.102,10.83z M27.727,8.703c0,2.236-2.188,2.276-2.279,2.277L14.86,10.978c0,0-0.599-0.008-1.171-0.292&#xD;&#xA;&#x9;&#x9;c-0.744-0.369-1.131-1.032-1.134-1.97h0.013c0-2.224,2.202-2.273,2.296-2.273l10.59-0.004c0.089,0.002,2.091,0.049,2.272,1.988&#xD;&#xA;&#x9;&#x9;V8.703z M11.872,8.346H7.26V6.438h5.577C12.395,6.878,11.959,7.417,11.872,8.346z M7.286,22.798l1.435,1.434H7.286V22.798z&#xD;&#xA;&#x9;&#x9; M12.216,22.432l1.8,1.8h-3.6L12.216,22.432z M17.512,22.432l1.8,1.8h-3.599L17.512,22.432z M22.807,22.432l1.8,1.8h-3.599&#xD;&#xA;&#x9;&#x9;L22.807,22.432z M28.102,22.432l1.801,1.8h-3.6L28.102,22.432z M33.021,8.346h-4.584c-0.088-0.929-0.501-1.527-0.963-1.907h5.547&#xD;&#xA;&#x9;&#x9;V8.346z M6.546,5.725h-5.11V3.897h5.11V5.725z M1.436,9.061h5.136v15.171H1.436V9.061z M7.26,24.946h25.762v7.68H7.26V24.946z&#xD;&#xA;&#x9;&#x9; M33.764,9.061h5.084v15.171h-5.084V9.061z M33.764,8.346h-0.027V6.438h5.111v1.907H33.764z M38.848,5.725h-5.111V3.897h5.111&#xD;&#xA;&#x9;&#x9;V5.725z M6.546,1.436v1.747h-5.11V1.436H6.546z M1.436,24.946h5.11v7.68h-5.11V24.946z M33.736,32.626v-7.68h0.027h5.084v7.68&#xD;&#xA;&#x9;&#x9;H33.736z"/>
  <linearGradient id="SVGID_40_" gradientUnits="userSpaceOnUse" x1="27.7188" y1="8.8896" x2="27.7188" y2="8.9717">
    <stop offset="0" style="stop-color:#000000;stop-opacity:0.1"/>
    <stop offset="1" style="stop-color:#000000;stop-opacity:0.15"/>
  </linearGradient>
  <path fill="url(#SVGID_40_)" d="M27.715,8.972c0.002-0.027,0.005-0.055,0.007-0.082C27.72,8.917,27.717,8.944,27.715,8.972z"/>
  <linearGradient id="SVGID_41_" gradientUnits="userSpaceOnUse" x1="27.7109" y1="8.9756" x2="27.7109" y2="9.0605">
    <stop offset="0" style="stop-color:#000000;stop-opacity:0.1"/>
    <stop offset="1" style="stop-color:#000000;stop-opacity:0.15"/>
  </linearGradient>
  <path fill="url(#SVGID_41_)" d="M27.706,9.061L27.706,9.061c0.004-0.028,0.007-0.057,0.009-0.085&#xD;&#xA;&#x9;&#x9;C27.712,9.004,27.71,9.032,27.706,9.061z"/>
  <linearGradient id="SVGID_42_" gradientUnits="userSpaceOnUse" x1="27.7246" y1="8.7988" x2="27.7246" y2="8.8643">
    <stop offset="0" style="stop-color:#000000;stop-opacity:0.1"/>
    <stop offset="1" style="stop-color:#000000;stop-opacity:0.15"/>
  </linearGradient>
  <path fill="url(#SVGID_42_)" d="M27.723,8.864c0.001-0.021,0.001-0.043,0.003-0.065C27.724,8.821,27.724,8.843,27.723,8.864z"/>
  <linearGradient id="SVGID_43_" gradientUnits="userSpaceOnUse" x1="12.5684" y1="8.8926" x2="12.5684" y2="9.0605">
    <stop offset="0" style="stop-color:#000000;stop-opacity:0.1"/>
    <stop offset="1" style="stop-color:#000000;stop-opacity:0.15"/>
  </linearGradient>
  <path fill="url(#SVGID_43_)" d="M12.575,9.061L12.575,9.061c-0.007-0.055-0.011-0.11-0.015-0.168&#xD;&#xA;&#x9;&#x9;C12.564,8.95,12.568,9.006,12.575,9.061z"/>
  <linearGradient id="SVGID_44_" gradientUnits="userSpaceOnUse" x1="12.5586" y1="8.8096" x2="12.5586" y2="8.8916">
    <stop offset="0" style="stop-color:#000000;stop-opacity:0.1"/>
    <stop offset="1" style="stop-color:#000000;stop-opacity:0.15"/>
  </linearGradient>
  <path fill="url(#SVGID_44_)" d="M12.558,8.81c0.001,0.027,0.001,0.055,0.003,0.082C12.559,8.864,12.559,8.837,12.558,8.81z"/>
  <linearGradient id="SVGID_45_" gradientUnits="userSpaceOnUse" x1="12.5566" y1="8.7158" x2="12.5566" y2="8.8037">
    <stop offset="0" style="stop-color:#000000;stop-opacity:0.1"/>
    <stop offset="1" style="stop-color:#000000;stop-opacity:0.15"/>
  </linearGradient>
  <path fill="url(#SVGID_45_)" d="M12.556,8.716c0,0.03,0.001,0.06,0.002,0.088C12.557,8.775,12.556,8.746,12.556,8.716z"/>
  <g>
    <linearGradient id="SVGID_46_" gradientUnits="userSpaceOnUse" x1="7.2598" y1="2.3096" x2="33.0215" y2="2.3096">
      <stop offset="0" style="stop-color:#000000;stop-opacity:0.45"/>
      <stop offset="1" style="stop-color:#000000;stop-opacity:0.45"/>
    </linearGradient>
    <polygon fill="url(#SVGID_46_)" points="7.763,1.436 7.26,1.436 7.26,1.938 7.26,3.183 7.763,3.183 7.763,1.938 32.52,1.938 &#xD;&#xA;&#x9;&#x9;&#x9;32.52,3.183 33.021,3.183 33.021,1.938 33.021,1.436 32.52,1.436 &#x9;&#x9;"/>
    <linearGradient id="SVGID_47_" gradientUnits="userSpaceOnUse" x1="7.2334" y1="4.8115" x2="33.0215" y2="4.8115">
      <stop offset="0" style="stop-color:#000000;stop-opacity:0.45"/>
      <stop offset="1" style="stop-color:#000000;stop-opacity:0.45"/>
    </linearGradient>
    <polygon fill="url(#SVGID_47_)" points="7.26,3.924 7.233,3.924 7.233,5.725 7.736,5.725 7.736,4.401 32.493,4.401 32.493,5.725 &#xD;&#xA;&#x9;&#x9;&#x9;32.995,5.725 32.995,4.401 33.021,4.401 33.021,3.897 7.26,3.897 &#x9;&#x9;"/>
    <linearGradient id="SVGID_48_" gradientUnits="userSpaceOnUse" x1="27.4883" y1="7.3916" x2="33.0215" y2="7.3916">
      <stop offset="0" style="stop-color:#000000;stop-opacity:0.45"/>
      <stop offset="1" style="stop-color:#000000;stop-opacity:0.45"/>
    </linearGradient>
    <path fill="url(#SVGID_48_)" d="M28.021,6.438h-0.532c0,0,0.938,0.768,0.961,1.907h0.534c0,0-0.032-0.741-0.491-1.403h4.027v1.403&#xD;&#xA;&#x9;&#x9;&#x9;h0.502V6.942V6.438H32.52H28.021z"/>
    <linearGradient id="SVGID_49_" gradientUnits="userSpaceOnUse" x1="1.4355" y1="2.3096" x2="6.5713" y2="2.3096">
      <stop offset="0" style="stop-color:#000000;stop-opacity:0.45"/>
      <stop offset="1" style="stop-color:#000000;stop-opacity:0.45"/>
    </linearGradient>
    <polygon fill="url(#SVGID_49_)" points="1.938,1.938 6.068,1.938 6.068,3.183 6.571,3.183 6.571,1.436 6.546,1.436 6.068,1.436 &#xD;&#xA;&#x9;&#x9;&#x9;1.938,1.436 1.436,1.436 1.436,1.938 1.436,3.183 1.938,3.183 &#x9;&#x9;"/>
    <linearGradient id="SVGID_50_" gradientUnits="userSpaceOnUse" x1="1.4092" y1="4.8115" x2="6.5459" y2="4.8115">
      <stop offset="0" style="stop-color:#000000;stop-opacity:0.45"/>
      <stop offset="1" style="stop-color:#000000;stop-opacity:0.45"/>
    </linearGradient>
    <polygon fill="url(#SVGID_50_)" points="1.912,4.401 6.042,4.401 6.042,5.725 6.546,5.725 6.546,4.401 6.546,3.924 6.546,3.897 &#xD;&#xA;&#x9;&#x9;&#x9;1.436,3.897 1.436,3.924 1.409,3.924 1.409,5.725 1.912,5.725 &#x9;&#x9;"/>
    <linearGradient id="SVGID_51_" gradientUnits="userSpaceOnUse" x1="1.4355" y1="7.3916" x2="6.5713" y2="7.3916">
      <stop offset="0" style="stop-color:#000000;stop-opacity:0.45"/>
      <stop offset="1" style="stop-color:#000000;stop-opacity:0.45"/>
    </linearGradient>
    <polygon fill="url(#SVGID_51_)" points="6.571,8.346 6.571,6.438 6.546,6.438 6.068,6.438 1.938,6.438 1.436,6.438 1.436,6.942 &#xD;&#xA;&#x9;&#x9;&#x9;1.436,8.346 1.938,8.346 1.938,6.942 6.068,6.942 6.068,8.346 &#x9;&#x9;"/>
    <linearGradient id="SVGID_52_" gradientUnits="userSpaceOnUse" x1="1.4619" y1="16.6455" x2="6.5977" y2="16.6455">
      <stop offset="0" style="stop-color:#000000;stop-opacity:0.45"/>
      <stop offset="1" style="stop-color:#000000;stop-opacity:0.45"/>
    </linearGradient>
    <polygon fill="url(#SVGID_52_)" points="6.095,9.061 1.965,9.061 1.462,9.061 1.462,9.563 1.462,24.231 1.965,24.231 1.965,9.563 &#xD;&#xA;&#x9;&#x9;&#x9;6.095,9.563 6.095,24.231 6.598,24.231 6.598,9.061 6.571,9.061 &#x9;&#x9;"/>
    <linearGradient id="SVGID_53_" gradientUnits="userSpaceOnUse" x1="1.4355" y1="28.7861" x2="6.5713" y2="28.7861">
      <stop offset="0" style="stop-color:#000000;stop-opacity:0.45"/>
      <stop offset="1" style="stop-color:#000000;stop-opacity:0.45"/>
    </linearGradient>
    <polygon fill="url(#SVGID_53_)" points="6.068,24.946 1.938,24.946 1.436,24.946 1.436,25.449 1.436,32.626 1.938,32.626 &#xD;&#xA;&#x9;&#x9;&#x9;1.938,25.449 6.068,25.449 6.068,32.626 6.571,32.626 6.571,24.946 6.546,24.946 &#x9;&#x9;"/>
    <linearGradient id="SVGID_54_" gradientUnits="userSpaceOnUse" x1="33.7363" y1="2.3096" x2="38.874" y2="2.3096">
      <stop offset="0" style="stop-color:#000000;stop-opacity:0.45"/>
      <stop offset="1" style="stop-color:#000000;stop-opacity:0.45"/>
    </linearGradient>
    <polygon fill="url(#SVGID_54_)" points="34.24,1.938 38.37,1.938 38.37,3.183 38.874,3.183 38.874,1.436 38.848,1.436 &#xD;&#xA;&#x9;&#x9;&#x9;38.37,1.436 34.24,1.436 33.736,1.436 33.736,1.938 33.736,3.183 34.24,3.183 &#x9;&#x9;"/>
    <linearGradient id="SVGID_55_" gradientUnits="userSpaceOnUse" x1="33.7109" y1="4.8115" x2="38.8477" y2="4.8115">
      <stop offset="0" style="stop-color:#000000;stop-opacity:0.45"/>
      <stop offset="1" style="stop-color:#000000;stop-opacity:0.45"/>
    </linearGradient>
    <polygon fill="url(#SVGID_55_)" points="34.214,4.401 38.344,4.401 38.344,5.725 38.848,5.725 38.848,4.401 38.848,3.924 &#xD;&#xA;&#x9;&#x9;&#x9;38.848,3.897 33.736,3.897 33.736,3.924 33.711,3.924 33.711,5.725 34.214,5.725 &#x9;&#x9;"/>
    <linearGradient id="SVGID_56_" gradientUnits="userSpaceOnUse" x1="33.7363" y1="7.3916" x2="38.874" y2="7.3916">
      <stop offset="0" style="stop-color:#000000;stop-opacity:0.45"/>
      <stop offset="1" style="stop-color:#000000;stop-opacity:0.45"/>
    </linearGradient>
    <polygon fill="url(#SVGID_56_)" points="38.874,8.346 38.874,6.438 38.848,6.438 38.37,6.438 34.24,6.438 33.736,6.438 &#xD;&#xA;&#x9;&#x9;&#x9;33.736,6.942 33.736,8.346 34.24,8.346 34.24,6.942 38.37,6.942 38.37,8.346 &#x9;&#x9;"/>
    <linearGradient id="SVGID_57_" gradientUnits="userSpaceOnUse" x1="33.7637" y1="16.6455" x2="38.8994" y2="16.6455">
      <stop offset="0" style="stop-color:#000000;stop-opacity:0.45"/>
      <stop offset="1" style="stop-color:#000000;stop-opacity:0.45"/>
    </linearGradient>
    <polygon fill="url(#SVGID_57_)" points="38.874,9.061 38.397,9.061 34.266,9.061 33.764,9.061 33.764,9.563 33.764,24.231 &#xD;&#xA;&#x9;&#x9;&#x9;34.266,24.231 34.266,9.563 38.397,9.563 38.397,24.231 38.899,24.231 38.899,9.061 &#x9;&#x9;"/>
    <linearGradient id="SVGID_58_" gradientUnits="userSpaceOnUse" x1="33.7363" y1="28.7861" x2="38.874" y2="28.7861">
      <stop offset="0" style="stop-color:#000000;stop-opacity:0.45"/>
      <stop offset="1" style="stop-color:#000000;stop-opacity:0.45"/>
    </linearGradient>
    <polygon fill="url(#SVGID_58_)" points="38.37,24.946 34.24,24.946 33.736,24.946 33.736,25.449 33.736,32.626 34.24,32.626 &#xD;&#xA;&#x9;&#x9;&#x9;34.24,25.449 38.37,25.449 38.37,32.626 38.874,32.626 38.874,24.946 38.848,24.946 &#x9;&#x9;"/>
    <linearGradient id="SVGID_59_" gradientUnits="userSpaceOnUse" x1="7.2598" y1="7.3916" x2="12.8369" y2="7.3916">
      <stop offset="0" style="stop-color:#000000;stop-opacity:0.45"/>
      <stop offset="1" style="stop-color:#000000;stop-opacity:0.45"/>
    </linearGradient>
    <path fill="url(#SVGID_59_)" d="M11.872,8.346c0-0.845,0.712-1.65,0.91-1.855c0.034-0.032,0.055-0.052,0.055-0.052h-0.005h-0.531&#xD;&#xA;&#x9;&#x9;&#x9;H7.763H7.26v0.504v1.403h0.503V6.942h4.065c-0.461,0.662-0.49,1.403-0.49,1.403H11.872z"/>
    <linearGradient id="SVGID_60_" gradientUnits="userSpaceOnUse" x1="7.2598" y1="28.7861" x2="33.0215" y2="28.7861">
      <stop offset="0" style="stop-color:#000000;stop-opacity:0.45"/>
      <stop offset="1" style="stop-color:#000000;stop-opacity:0.45"/>
    </linearGradient>
    <polygon fill="url(#SVGID_60_)" points="32.52,24.946 7.763,24.946 7.26,24.946 7.26,25.449 7.26,32.626 7.763,32.626 &#xD;&#xA;&#x9;&#x9;&#x9;7.763,25.449 32.52,25.449 32.52,32.626 33.021,32.626 33.021,25.449 33.021,24.946 &#x9;&#x9;"/>
  </g>
  <g>
    <linearGradient id="SVGID_61_" gradientUnits="userSpaceOnUse" x1="0.7207" y1="0.8525" x2="39.5615" y2="0.8525">
      <stop offset="0" style="stop-color:#FFFFFF;stop-opacity:0.35"/>
      <stop offset="1" style="stop-color:#FFFFFF;stop-opacity:0.35"/>
    </linearGradient>
    <rect x="0.721" y="0.72" fill="url(#SVGID_61_)" width="38.841" height="0.265"/>
    <linearGradient id="SVGID_62_" gradientUnits="userSpaceOnUse" x1="1.4355" y1="3.3145" x2="6.5459" y2="3.3145">
      <stop offset="0" style="stop-color:#FFFFFF;stop-opacity:0.35"/>
      <stop offset="1" style="stop-color:#FFFFFF;stop-opacity:0.35"/>
    </linearGradient>
    <rect x="1.436" y="3.183" fill="url(#SVGID_62_)" width="5.11" height="0.264"/>
    <linearGradient id="SVGID_63_" gradientUnits="userSpaceOnUse" x1="1.4092" y1="5.8564" x2="6.5176" y2="5.8564">
      <stop offset="0" style="stop-color:#FFFFFF;stop-opacity:0.35"/>
      <stop offset="1" style="stop-color:#FFFFFF;stop-opacity:0.35"/>
    </linearGradient>
    <rect x="1.409" y="5.725" fill="url(#SVGID_63_)" width="5.108" height="0.265"/>
    <linearGradient id="SVGID_64_" gradientUnits="userSpaceOnUse" x1="1.4883" y1="8.4775" x2="6.5977" y2="8.4775">
      <stop offset="0" style="stop-color:#FFFFFF;stop-opacity:0.35"/>
      <stop offset="1" style="stop-color:#FFFFFF;stop-opacity:0.35"/>
    </linearGradient>
    <rect x="1.488" y="8.346" fill="url(#SVGID_64_)" width="5.109" height="0.265"/>
    <linearGradient id="SVGID_65_" gradientUnits="userSpaceOnUse" x1="1.4619" y1="24.3643" x2="6.5713" y2="24.3643">
      <stop offset="0" style="stop-color:#FFFFFF;stop-opacity:0.35"/>
      <stop offset="1" style="stop-color:#FFFFFF;stop-opacity:0.35"/>
    </linearGradient>
    <rect x="1.462" y="24.231" fill="url(#SVGID_65_)" width="5.109" height="0.266"/>
    <linearGradient id="SVGID_66_" gradientUnits="userSpaceOnUse" x1="1.4355" y1="32.7578" x2="6.5459" y2="32.7578">
      <stop offset="0" style="stop-color:#FFFFFF;stop-opacity:0.35"/>
      <stop offset="1" style="stop-color:#FFFFFF;stop-opacity:0.35"/>
    </linearGradient>
    <rect x="1.436" y="32.626" fill="url(#SVGID_66_)" width="5.11" height="0.264"/>
    <linearGradient id="SVGID_67_" gradientUnits="userSpaceOnUse" x1="33.7637" y1="3.3145" x2="38.874" y2="3.3145">
      <stop offset="0" style="stop-color:#FFFFFF;stop-opacity:0.35"/>
      <stop offset="1" style="stop-color:#FFFFFF;stop-opacity:0.35"/>
    </linearGradient>
    <rect x="33.764" y="3.183" fill="url(#SVGID_67_)" width="5.11" height="0.264"/>
    <linearGradient id="SVGID_68_" gradientUnits="userSpaceOnUse" x1="33.7363" y1="5.8564" x2="38.8477" y2="5.8564">
      <stop offset="0" style="stop-color:#FFFFFF;stop-opacity:0.35"/>
      <stop offset="1" style="stop-color:#FFFFFF;stop-opacity:0.35"/>
    </linearGradient>
    <rect x="33.736" y="5.725" fill="url(#SVGID_68_)" width="5.111" height="0.265"/>
    <linearGradient id="SVGID_69_" gradientUnits="userSpaceOnUse" x1="33.8164" y1="8.4775" x2="38.9258" y2="8.4775">
      <stop offset="0" style="stop-color:#FFFFFF;stop-opacity:0.35"/>
      <stop offset="1" style="stop-color:#FFFFFF;stop-opacity:0.35"/>
    </linearGradient>
    <rect x="33.816" y="8.346" fill="url(#SVGID_69_)" width="5.109" height="0.265"/>
    <linearGradient id="SVGID_70_" gradientUnits="userSpaceOnUse" x1="33.791" y1="24.3643" x2="38.8994" y2="24.3643">
      <stop offset="0" style="stop-color:#FFFFFF;stop-opacity:0.35"/>
      <stop offset="1" style="stop-color:#FFFFFF;stop-opacity:0.35"/>
    </linearGradient>
    <rect x="33.791" y="24.231" fill="url(#SVGID_70_)" width="5.108" height="0.266"/>
    <linearGradient id="SVGID_71_" gradientUnits="userSpaceOnUse" x1="33.7637" y1="32.7578" x2="38.874" y2="32.7578">
      <stop offset="0" style="stop-color:#FFFFFF;stop-opacity:0.35"/>
      <stop offset="1" style="stop-color:#FFFFFF;stop-opacity:0.35"/>
    </linearGradient>
    <rect x="33.764" y="32.626" fill="url(#SVGID_71_)" width="5.11" height="0.264"/>
    <linearGradient id="SVGID_72_" gradientUnits="userSpaceOnUse" x1="7.2598" y1="3.3145" x2="33.0215" y2="3.3145">
      <stop offset="0" style="stop-color:#FFFFFF;stop-opacity:0.35"/>
      <stop offset="1" style="stop-color:#FFFFFF;stop-opacity:0.35"/>
    </linearGradient>
    <rect x="7.26" y="3.183" fill="url(#SVGID_72_)" width="25.762" height="0.264"/>
    <linearGradient id="SVGID_73_" gradientUnits="userSpaceOnUse" x1="7.2598" y1="5.8564" x2="33.0215" y2="5.8564">
      <stop offset="0" style="stop-color:#FFFFFF;stop-opacity:0.35"/>
      <stop offset="1" style="stop-color:#FFFFFF;stop-opacity:0.35"/>
    </linearGradient>
    <rect x="7.26" y="5.725" fill="url(#SVGID_73_)" width="25.762" height="0.265"/>
    <linearGradient id="SVGID_74_" gradientUnits="userSpaceOnUse" x1="7.2598" y1="32.7578" x2="33.0215" y2="32.7578">
      <stop offset="0" style="stop-color:#FFFFFF;stop-opacity:0.35"/>
      <stop offset="1" style="stop-color:#FFFFFF;stop-opacity:0.35"/>
    </linearGradient>
    <rect x="7.26" y="32.626" fill="url(#SVGID_74_)" width="25.762" height="0.264"/>
    <linearGradient id="SVGID_75_" gradientUnits="userSpaceOnUse" x1="7.2598" y1="8.4775" x2="11.9033" y2="8.4775">
      <stop offset="0" style="stop-color:#FFFFFF;stop-opacity:0.35"/>
      <stop offset="1" style="stop-color:#FFFFFF;stop-opacity:0.35"/>
    </linearGradient>
    <polygon fill="url(#SVGID_75_)" points="7.26,8.346 7.26,8.61 11.903,8.61 11.872,8.346 &#x9;&#x9;"/>
    <linearGradient id="SVGID_76_" gradientUnits="userSpaceOnUse" x1="28.4375" y1="8.4775" x2="33.0215" y2="8.4775">
      <stop offset="0" style="stop-color:#FFFFFF;stop-opacity:0.35"/>
      <stop offset="1" style="stop-color:#FFFFFF;stop-opacity:0.35"/>
    </linearGradient>
    <polygon fill="url(#SVGID_76_)" points="28.464,8.61 33.021,8.61 33.021,8.346 28.438,8.346 &#x9;&#x9;"/>
    <linearGradient id="SVGID_77_" gradientUnits="userSpaceOnUse" x1="12.6953" y1="10.4072" x2="27.5879" y2="10.4072">
      <stop offset="0" style="stop-color:#FFFFFF;stop-opacity:0.35"/>
      <stop offset="1" style="stop-color:#FFFFFF;stop-opacity:0.35"/>
    </linearGradient>
    <path fill="url(#SVGID_77_)" d="M25.447,10.98c-1.469,0-8.976,0.003-10.586-0.003c-1.717-0.006-2.166-1.395-2.166-1.395&#xD;&#xA;&#x9;&#x9;&#x9;s0.146,1.634,2.11,1.648c0,0,8.733,0,10.601,0c1.866,0,2.182-1.648,2.182-1.648C27.513,9.851,26.915,10.98,25.447,10.98z"/>
    <linearGradient id="SVGID_78_" gradientUnits="userSpaceOnUse" x1="12.1113" y1="6.915" x2="12.8369" y2="6.915">
      <stop offset="0" style="stop-color:#FFFFFF;stop-opacity:0.35"/>
      <stop offset="1" style="stop-color:#FFFFFF;stop-opacity:0.35"/>
    </linearGradient>
    <path fill="url(#SVGID_78_)" d="M12.111,7.392c0,0,0.611-0.857,0.726-0.953C12.58,6.649,12.111,7.392,12.111,7.392z"/>
    <linearGradient id="SVGID_79_" gradientUnits="userSpaceOnUse" x1="27.5029" y1="6.5518" x2="27.7168" y2="6.5518">
      <stop offset="0" style="stop-color:#FFFFFF;stop-opacity:0.35"/>
      <stop offset="1" style="stop-color:#FFFFFF;stop-opacity:0.35"/>
    </linearGradient>
    <path fill="url(#SVGID_79_)" d="M27.503,6.438c0.282,0.283,0.204,0.221,0.204,0.221S27.761,6.649,27.503,6.438z"/>
    <linearGradient id="SVGID_80_" gradientUnits="userSpaceOnUse" x1="10.0664" y1="15.2295" x2="14.3555" y2="15.2295">
      <stop offset="0" style="stop-color:#FFFFFF;stop-opacity:0.35"/>
      <stop offset="1" style="stop-color:#FFFFFF;stop-opacity:0.35"/>
    </linearGradient>
    <polygon fill="url(#SVGID_80_)" points="10.066,13.989 10.066,14.29 12.212,16.476 14.355,14.302 14.355,13.983 12.212,16.128 &#x9;&#x9;&#xD;&#xA;&#x9;&#x9;&#x9;"/>
    <linearGradient id="SVGID_81_" gradientUnits="userSpaceOnUse" x1="15.3623" y1="15.2295" x2="19.6523" y2="15.2295">
      <stop offset="0" style="stop-color:#FFFFFF;stop-opacity:0.35"/>
      <stop offset="1" style="stop-color:#FFFFFF;stop-opacity:0.35"/>
    </linearGradient>
    <polygon fill="url(#SVGID_81_)" points="15.362,13.989 15.362,14.29 17.507,16.476 19.652,14.302 19.652,13.983 17.507,16.128 &#x9;&#x9;&#xD;&#xA;&#x9;&#x9;&#x9;"/>
    <linearGradient id="SVGID_82_" gradientUnits="userSpaceOnUse" x1="20.6836" y1="15.2295" x2="24.9736" y2="15.2295">
      <stop offset="0" style="stop-color:#FFFFFF;stop-opacity:0.35"/>
      <stop offset="1" style="stop-color:#FFFFFF;stop-opacity:0.35"/>
    </linearGradient>
    <polygon fill="url(#SVGID_82_)" points="20.684,13.989 20.684,14.29 22.828,16.476 24.974,14.302 24.974,13.983 22.828,16.128 &#x9;&#x9;&#xD;&#xA;&#x9;&#x9;&#x9;"/>
    <linearGradient id="SVGID_83_" gradientUnits="userSpaceOnUse" x1="25.9795" y1="15.2295" x2="30.2676" y2="15.2295">
      <stop offset="0" style="stop-color:#FFFFFF;stop-opacity:0.35"/>
      <stop offset="1" style="stop-color:#FFFFFF;stop-opacity:0.35"/>
    </linearGradient>
    <polygon fill="url(#SVGID_83_)" points="25.979,14.29 28.123,16.476 30.268,14.302 30.268,13.983 28.123,16.128 25.979,13.989 &#x9;&#x9;&#xD;&#xA;&#x9;&#x9;&#x9;"/>
    <linearGradient id="SVGID_84_" gradientUnits="userSpaceOnUse" x1="10.04" y1="20.5518" x2="14.3291" y2="20.5518">
      <stop offset="0" style="stop-color:#FFFFFF;stop-opacity:0.35"/>
      <stop offset="1" style="stop-color:#FFFFFF;stop-opacity:0.35"/>
    </linearGradient>
    <polygon fill="url(#SVGID_84_)" points="14.329,19.625 14.329,19.306 12.185,21.45 10.04,19.312 10.04,19.612 12.185,21.797 &#x9;&#x9;"/>
    <linearGradient id="SVGID_85_" gradientUnits="userSpaceOnUse" x1="15.3359" y1="20.5518" x2="19.625" y2="20.5518">
      <stop offset="0" style="stop-color:#FFFFFF;stop-opacity:0.35"/>
      <stop offset="1" style="stop-color:#FFFFFF;stop-opacity:0.35"/>
    </linearGradient>
    <polygon fill="url(#SVGID_85_)" points="19.625,19.625 19.625,19.306 17.479,21.45 15.336,19.312 15.336,19.612 17.479,21.797 &#x9;&#x9;&#xD;&#xA;&#x9;&#x9;&#x9;"/>
    <linearGradient id="SVGID_86_" gradientUnits="userSpaceOnUse" x1="20.6582" y1="20.5518" x2="24.9473" y2="20.5518">
      <stop offset="0" style="stop-color:#FFFFFF;stop-opacity:0.35"/>
      <stop offset="1" style="stop-color:#FFFFFF;stop-opacity:0.35"/>
    </linearGradient>
    <polygon fill="url(#SVGID_86_)" points="24.947,19.625 24.947,19.306 22.801,21.45 20.658,19.312 20.658,19.612 22.801,21.797 &#x9;&#x9;&#xD;&#xA;&#x9;&#x9;&#x9;"/>
    <linearGradient id="SVGID_87_" gradientUnits="userSpaceOnUse" x1="25.9512" y1="20.5518" x2="30.2432" y2="20.5518">
      <stop offset="0" style="stop-color:#FFFFFF;stop-opacity:0.35"/>
      <stop offset="1" style="stop-color:#FFFFFF;stop-opacity:0.35"/>
    </linearGradient>
    <polygon fill="url(#SVGID_87_)" points="30.243,19.625 30.243,19.306 28.098,21.45 25.951,19.312 25.951,19.612 28.098,21.797 &#x9;&#x9;&#xD;&#xA;&#x9;&#x9;&#x9;"/>
    <linearGradient id="SVGID_88_" gradientUnits="userSpaceOnUse" x1="7.3662" y1="17.9033" x2="11.6553" y2="17.9033">
      <stop offset="0" style="stop-color:#FFFFFF;stop-opacity:0.35"/>
      <stop offset="1" style="stop-color:#FFFFFF;stop-opacity:0.35"/>
    </linearGradient>
    <polygon fill="url(#SVGID_88_)" points="7.366,16.965 9.511,19.149 11.655,16.978 11.655,16.658 9.511,18.804 7.366,16.663 &#x9;&#x9;"/>
    <linearGradient id="SVGID_89_" gradientUnits="userSpaceOnUse" x1="12.6621" y1="17.9033" x2="16.9512" y2="17.9033">
      <stop offset="0" style="stop-color:#FFFFFF;stop-opacity:0.35"/>
      <stop offset="1" style="stop-color:#FFFFFF;stop-opacity:0.35"/>
    </linearGradient>
    <polygon fill="url(#SVGID_89_)" points="16.951,16.978 16.951,16.658 14.806,18.804 12.662,16.663 12.662,16.965 14.806,19.149 &#x9;&#x9;&#xD;&#xA;&#x9;&#x9;&#x9;"/>
    <linearGradient id="SVGID_90_" gradientUnits="userSpaceOnUse" x1="17.9834" y1="17.9033" x2="22.2734" y2="17.9033">
      <stop offset="0" style="stop-color:#FFFFFF;stop-opacity:0.35"/>
      <stop offset="1" style="stop-color:#FFFFFF;stop-opacity:0.35"/>
    </linearGradient>
    <polygon fill="url(#SVGID_90_)" points="22.273,16.978 22.273,16.658 20.128,18.804 17.983,16.663 17.983,16.965 20.128,19.149 &#x9;&#x9;&#xD;&#xA;&#x9;&#x9;&#x9;"/>
    <linearGradient id="SVGID_91_" gradientUnits="userSpaceOnUse" x1="23.2783" y1="17.9033" x2="27.5684" y2="17.9033">
      <stop offset="0" style="stop-color:#FFFFFF;stop-opacity:0.35"/>
      <stop offset="1" style="stop-color:#FFFFFF;stop-opacity:0.35"/>
    </linearGradient>
    <polygon fill="url(#SVGID_91_)" points="27.568,16.978 27.568,16.658 25.423,18.804 23.278,16.663 23.278,16.965 25.423,19.149 &#x9;&#x9;&#xD;&#xA;&#x9;&#x9;&#x9;"/>
    <linearGradient id="SVGID_92_" gradientUnits="userSpaceOnUse" x1="7.2598" y1="23.2256" x2="33.0215" y2="23.2256">
      <stop offset="0" style="stop-color:#FFFFFF;stop-opacity:0.35"/>
      <stop offset="1" style="stop-color:#FFFFFF;stop-opacity:0.35"/>
    </linearGradient>
    <polygon fill="url(#SVGID_92_)" points="32.862,22.272 32.862,21.953 30.719,24.099 28.573,21.959 28.573,22.26 30.51,24.231 &#xD;&#xA;&#x9;&#x9;&#x9;25.687,24.231 27.621,22.272 27.621,21.953 25.476,24.099 23.332,21.959 23.332,22.26 25.268,24.231 20.391,24.231 22.325,22.272 &#xD;&#xA;&#x9;&#x9;&#x9;22.325,21.953 20.182,24.099 18.036,21.959 18.036,22.26 19.973,24.231 15.068,24.231 17.004,22.272 17.004,21.953 14.858,24.099 &#xD;&#xA;&#x9;&#x9;&#x9;12.714,21.959 12.714,22.26 14.65,24.231 9.773,24.231 11.708,22.272 11.708,21.953 9.564,24.099 7.418,21.959 7.418,22.26 &#xD;&#xA;&#x9;&#x9;&#x9;9.354,24.231 7.26,24.231 7.26,24.497 33.021,24.497 33.021,24.231 30.929,24.231 &#x9;&#x9;"/>
    <linearGradient id="SVGID_93_" gradientUnits="userSpaceOnUse" x1="28.5732" y1="17.9033" x2="32.8623" y2="17.9033">
      <stop offset="0" style="stop-color:#FFFFFF;stop-opacity:0.35"/>
      <stop offset="1" style="stop-color:#FFFFFF;stop-opacity:0.35"/>
    </linearGradient>
    <polygon fill="url(#SVGID_93_)" points="32.862,16.978 32.862,16.658 30.719,18.804 28.573,16.663 28.573,16.965 30.719,19.149 &#x9;&#x9;&#xD;&#xA;&#x9;&#x9;&#x9;"/>
    <linearGradient id="SVGID_94_" gradientUnits="userSpaceOnUse" x1="28.6006" y1="12.6074" x2="32.8896" y2="12.6074">
      <stop offset="0" style="stop-color:#FFFFFF;stop-opacity:0.35"/>
      <stop offset="1" style="stop-color:#FFFFFF;stop-opacity:0.35"/>
    </linearGradient>
    <polygon fill="url(#SVGID_94_)" points="32.89,11.362 30.745,13.508 28.601,11.368 28.601,11.669 30.745,13.853 32.89,11.682 &#x9;&#x9;&#xD;&#xA;&#x9;&#x9;&#x9;"/>
    <linearGradient id="SVGID_95_" gradientUnits="userSpaceOnUse" x1="7.418" y1="12.6074" x2="11.708" y2="12.6074">
      <stop offset="0" style="stop-color:#FFFFFF;stop-opacity:0.35"/>
      <stop offset="1" style="stop-color:#FFFFFF;stop-opacity:0.35"/>
    </linearGradient>
    <polygon fill="url(#SVGID_95_)" points="7.418,11.368 7.418,11.669 9.564,13.853 11.708,11.682 11.708,11.362 9.564,13.508 &#x9;&#x9;"/>
    <linearGradient id="SVGID_96_" gradientUnits="userSpaceOnUse" x1="12.7139" y1="12.5576" x2="17.0039" y2="12.5576">
      <stop offset="0" style="stop-color:#FFFFFF;stop-opacity:0.35"/>
      <stop offset="1" style="stop-color:#FFFFFF;stop-opacity:0.35"/>
    </linearGradient>
    <polygon fill="url(#SVGID_96_)" points="14.858,13.454 12.714,11.315 12.714,11.616 14.858,13.801 17.004,11.628 16.63,11.683 &#x9;&#x9;&#xD;&#xA;&#x9;&#x9;&#x9;"/>
    <linearGradient id="SVGID_97_" gradientUnits="userSpaceOnUse" x1="18.0361" y1="12.708" x2="22.3252" y2="12.708">
      <stop offset="0" style="stop-color:#FFFFFF;stop-opacity:0.35"/>
      <stop offset="1" style="stop-color:#FFFFFF;stop-opacity:0.35"/>
    </linearGradient>
    <polygon fill="url(#SVGID_97_)" points="20.182,13.454 18.406,11.685 18.036,11.616 20.182,13.801 22.325,11.628 21.947,11.687 &#x9;&#x9;&#xD;&#xA;&#x9;&#x9;&#x9;"/>
    <linearGradient id="SVGID_98_" gradientUnits="userSpaceOnUse" x1="23.332" y1="12.5557" x2="27.6211" y2="12.5557">
      <stop offset="0" style="stop-color:#FFFFFF;stop-opacity:0.35"/>
      <stop offset="1" style="stop-color:#FFFFFF;stop-opacity:0.35"/>
    </linearGradient>
    <polygon fill="url(#SVGID_98_)" points="23.705,11.688 23.332,11.616 25.476,13.801 27.621,11.628 27.621,11.31 25.476,13.454 &#x9;&#x9;&#xD;&#xA;&#x9;&#x9;&#x9;"/>
    <linearGradient id="SVGID_99_" gradientUnits="userSpaceOnUse" x1="7.2598" y1="20.3789" x2="9.0342" y2="20.3789">
      <stop offset="0" style="stop-color:#FFFFFF;stop-opacity:0.35"/>
      <stop offset="1" style="stop-color:#FFFFFF;stop-opacity:0.35"/>
    </linearGradient>
    <polygon fill="url(#SVGID_99_)" points="7.26,21.452 9.034,19.625 9.034,19.306 7.26,21.106 &#x9;&#x9;"/>
    <linearGradient id="SVGID_100_" gradientUnits="userSpaceOnUse" x1="7.2598" y1="15.0566" x2="9.0342" y2="15.0566">
      <stop offset="0" style="stop-color:#FFFFFF;stop-opacity:0.35"/>
      <stop offset="1" style="stop-color:#FFFFFF;stop-opacity:0.35"/>
    </linearGradient>
    <polygon fill="url(#SVGID_100_)" points="7.26,16.13 9.034,14.302 9.034,13.983 7.26,15.784 &#x9;&#x9;"/>
    <linearGradient id="SVGID_101_" gradientUnits="userSpaceOnUse" x1="7.2598" y1="9.9482" x2="9.0342" y2="9.9482">
      <stop offset="0" style="stop-color:#FFFFFF;stop-opacity:0.35"/>
      <stop offset="1" style="stop-color:#FFFFFF;stop-opacity:0.35"/>
    </linearGradient>
    <polygon fill="url(#SVGID_101_)" points="7.26,10.862 9.034,9.034 8.693,9.061 7.26,10.516 &#x9;&#x9;"/>
    <linearGradient id="SVGID_102_" gradientUnits="userSpaceOnUse" x1="31.248" y1="20.3516" x2="33.0215" y2="20.3516">
      <stop offset="0" style="stop-color:#FFFFFF;stop-opacity:0.35"/>
      <stop offset="1" style="stop-color:#FFFFFF;stop-opacity:0.35"/>
    </linearGradient>
    <polygon fill="url(#SVGID_102_)" points="31.248,19.599 33.021,21.425 33.021,21.08 31.248,19.278 &#x9;&#x9;"/>
    <linearGradient id="SVGID_103_" gradientUnits="userSpaceOnUse" x1="31.248" y1="15.0303" x2="33.0215" y2="15.0303">
      <stop offset="0" style="stop-color:#FFFFFF;stop-opacity:0.35"/>
      <stop offset="1" style="stop-color:#FFFFFF;stop-opacity:0.35"/>
    </linearGradient>
    <polygon fill="url(#SVGID_103_)" points="31.248,14.276 33.021,16.104 33.021,15.758 31.248,13.957 &#x9;&#x9;"/>
    <linearGradient id="SVGID_104_" gradientUnits="userSpaceOnUse" x1="31.2383" y1="9.9346" x2="33.0215" y2="9.9346">
      <stop offset="0" style="stop-color:#FFFFFF;stop-opacity:0.35"/>
      <stop offset="1" style="stop-color:#FFFFFF;stop-opacity:0.35"/>
    </linearGradient>
    <polygon fill="url(#SVGID_104_)" points="31.238,9.05 33.021,10.835 33.021,10.489 31.59,9.034 &#x9;&#x9;"/>
    <linearGradient id="SVGID_105_" gradientUnits="userSpaceOnUse" x1="10.1445" y1="10.1201" x2="12.5752" y2="10.1201">
      <stop offset="0" style="stop-color:#FFFFFF;stop-opacity:0.35"/>
      <stop offset="1" style="stop-color:#FFFFFF;stop-opacity:0.35"/>
    </linearGradient>
    <polygon fill="url(#SVGID_105_)" points="10.145,9.065 12.212,11.179 12.575,10.81 12.453,10.591 12.212,10.834 10.434,9.061 &#x9;&#x9;&#xD;&#xA;&#x9;&#x9;&#x9;"/>
    <linearGradient id="SVGID_106_" gradientUnits="userSpaceOnUse" x1="27.7266" y1="10.1201" x2="30.2383" y2="10.1201">
      <stop offset="0" style="stop-color:#FFFFFF;stop-opacity:0.35"/>
      <stop offset="1" style="stop-color:#FFFFFF;stop-opacity:0.35"/>
    </linearGradient>
    <polygon fill="url(#SVGID_106_)" points="28.091,10.834 27.849,10.591 27.727,10.81 28.091,11.179 30.238,9.065 29.867,9.061 &#x9;&#x9;&#xD;&#xA;&#x9;&#x9;&#x9;"/>
  </g>
</svg>