<svg version="1.2" baseProfile="tiny" viewBox="0 0 40.281 35.06" xmlns:xlink="http://www.w3.org/1999/xlink" xmlns="http://www.w3.org/2000/svg">
<path style="fill:#ffffff;" d="M0.721,0.7201L0.721,33.34L1.6052,33.34C2.8922,33.34,3.017,34.3399,3.017,34.3399L20.1421,34.3399L37.266,34.3399C37.266,34.3399,37.392,33.34,38.679,33.34L39.562,33.34L39.562,0.7201L0.721,0.7201L0.721,0.7201M33.049,9.0609L33.049,10.4819L31.6278,9.0609L33.049,9.0609L33.049,9.0609M12.7211,16.6311L14.8649,14.4889L17.007,16.6311L14.8649,18.7729L12.7211,16.6311M14.359,19.2781L12.2148,21.421L10.0731,19.2781L12.2148,17.1359L14.359,19.2781M17.5122,17.137L19.6551,19.2791L17.5122,21.422L15.37,19.2791L17.5122,17.137M18.0169,16.6311L20.161,14.4889L22.302,16.6311L20.161,18.7729L18.0169,16.6311M22.8071,17.137L24.9501,19.2791L22.8071,21.422L20.6642,19.2791L22.8071,17.137M23.313,16.6311L25.456,14.4889L27.5981,16.6311L25.456,18.7729L23.313,16.6311M28.102,17.137L30.245,19.2791L28.102,21.422L25.9611,19.2791L28.102,17.137M28.608,16.6311L30.7501,14.4889L32.8931,16.6311L30.7501,18.7729L28.608,16.6311M28.102,16.1258L25.9611,13.983L28.102,11.8401L30.245,13.983L28.102,16.1258M25.4552,13.4781L23.6639,11.689L25.4552,11.6911C25.58,11.6911,25.7041,11.6771,25.8282,11.662C26.1069,11.6241,26.3828,11.5551,26.6439,11.4552C26.8912,11.3608,27.126,11.2381,27.3419,11.0821L27.5961,11.337L25.4552,13.4781M24.9488,13.983L22.8059,16.1258L20.6629,13.983L22.8059,11.8401L24.9488,13.983M20.1598,13.4781L18.3661,11.6851L21.9499,11.6869L20.1598,13.4781M19.6539,13.983L17.511,16.1258L15.3688,13.983L17.511,11.8401L19.6539,13.983M14.8641,13.4781L12.7199,11.3359L12.9761,11.0811C13.4551,11.4211,14.0339,11.6101,14.6152,11.6669C14.6969,11.675,14.7811,11.682,14.8641,11.682L16.659,11.683L14.8641,13.4781M14.359,13.983L12.2148,16.1258L10.0731,13.983L12.2148,11.8401L14.359,13.983M11.7109,16.6311L9.5679,18.7729L7.4258,16.6311L9.5679,14.4889L11.7109,16.6311M11.7109,21.9269L9.5679,24.0701L7.4258,21.9269L9.5679,19.784L11.7109,21.9269M12.216,22.4321L14.0162,24.2321L10.4159,24.2321L12.216,22.4321M12.7211,21.9269L14.8649,19.784L17.007,21.9269L14.8649,24.0701L12.7211,21.9269M17.5122,22.4321L19.3119,24.2321L15.7128,24.2321L17.5122,22.4321M18.0169,21.9269L20.161,19.784L22.302,21.9269L20.161,24.0701L18.0169,21.9269M22.8071,22.4321L24.6069,24.2321L21.0082,24.2321L22.8071,22.4321M23.313,21.9269L25.456,19.784L27.5981,21.9269L25.456,24.0701L23.313,21.9269M28.102,22.4321L29.903,24.2321L26.3031,24.2321L28.102,22.4321M28.608,21.9269L30.7501,19.784L32.8931,21.9269L30.7501,24.0701L28.608,21.9269M33.049,22.7809L33.049,24.231L31.598,24.231L33.049,22.7809M31.256,19.2781L33.049,17.4869L33.049,21.0721L31.256,19.2781M31.256,13.983L33.049,12.19L33.049,15.7759L31.256,13.983M32.8931,11.3359L30.7501,13.4781L28.608,11.3359L30.7501,9.1931L32.8931,11.3359M28.4392,9.0609L29.8732,9.0609L28.102,10.8311L27.862,10.5899C28.1532,10.2221,28.38,9.7281,28.4392,9.0609M12.5681,8.7159C12.5681,6.4921,14.7698,6.443,14.8641,6.443L25.454,6.4391C25.572,6.4391,25.6908,6.457,25.808,6.4749C25.9599,6.5008,26.1089,6.538,26.2539,6.585C26.5258,6.6779,26.7861,6.8101,27.01,6.9931C27.1192,7.0832,27.2199,7.1859,27.3069,7.2991C27.5591,7.622,27.6892,8.0231,27.7258,8.427L27.7258,8.7029C27.7258,8.8228,27.7202,8.941,27.7049,9.0599C27.4849,10.944,25.5321,10.979,25.4459,10.9801L14.8601,10.978C14.7191,10.978,14.5781,10.9548,14.4411,10.93C14.1479,10.876,13.8619,10.7841,13.6009,10.64C13.3898,10.525,13.1989,10.376,13.0422,10.1951C12.8879,10.0149,12.7711,9.8059,12.6921,9.584C12.6309,9.415,12.5939,9.238,12.5741,9.062C12.5608,8.948,12.556,8.833,12.554,8.717L12.5681,8.717L12.5681,8.717M11.87,9.0609C11.93,9.7309,12.1588,10.226,12.4541,10.593L12.216,10.83L10.4461,9.0599L11.87,9.0599L11.87,9.0599M11.7109,11.3359L9.5679,13.4781L7.4258,11.3359L9.5679,9.1931L11.7109,11.3359M7.286,9.0609L8.691,9.0609L7.286,10.4651L7.286,9.0609M7.286,12.2061L9.0628,13.983L7.286,15.7602L7.286,12.2061M7.286,17.503L9.0628,19.2781L7.286,21.0549L7.286,17.503M7.286,22.7981L8.7208,24.2321L7.286,24.2321L7.286,24.2321L7.286,22.7981M11.8728,9.0949C11.8849,9.218,11.9179,9.6078,11.8728,9.0949L11.8728,9.0949M27.3431,11.0811C27.3431,11.0811,27.321,11.0979,27.3029,11.1102C27.3121,11.1039,27.3182,11.0989,27.3431,11.0811M27.3029,11.1102C27.2811,11.1259,27.2851,11.1231,27.3029,11.1102L27.3029,11.1102M13.01,11.1039C13.0309,11.12,13.0422,11.128,13.01,11.1039L13.01,11.1039M11.87,9.0609C11.8708,9.076,11.872,9.0819,11.8728,9.0949C11.8708,9.0739,11.87,9.0609,11.87,9.0609M12.9769,11.0811C12.9971,11.0951,12.9999,11.0979,13.01,11.1039C12.993,11.093,12.9769,11.0811,12.9769,11.0811Z"/>
</svg>