<svg version="1.2" baseProfile="tiny" id="EdgeSVG_6Br00" x="0px" y="0px" width="69.406px" height="115.336px" viewBox="0 0 69.406 115.336" xmlns:xlink="http://www.w3.org/1999/xlink" xmlns="http://www.w3.org/2000/svg">
  <linearGradient id="SVGID_3_" gradientUnits="userSpaceOnUse" x1="2.0386" y1="57.668" x2="66.314" y2="57.668">
    <stop offset="0" style="stop-color:#000000;stop-opacity:0.15"/>
    <stop offset="0.1443" style="stop-color:#000000;stop-opacity:0.35"/>
    <stop offset="0.1684" style="stop-color:#0D0D0D;stop-opacity:0.3319"/>
    <stop offset="0.2136" style="stop-color:#313131;stop-opacity:0.298"/>
    <stop offset="0.2749" style="stop-color:#6A6A6A;stop-opacity:0.252"/>
    <stop offset="0.3491" style="stop-color:#B9B9B9;stop-opacity:0.1963"/>
    <stop offset="0.4107" style="stop-color:#FFFFFF;stop-opacity:0.15"/>
    <stop offset="0.5678" style="stop-color:#A0A0A0;stop-opacity:0.221"/>
    <stop offset="0.7655" style="stop-color:#2E2E2E;stop-opacity:0.3103"/>
    <stop offset="0.8534" style="stop-color:#000000;stop-opacity:0.35"/>
    <stop offset="0.9807" style="stop-color:#000000;stop-opacity:0.15"/>
  </linearGradient>
  <path fill="url(#SVGID_3_)" d="M66.841,3.797L2.565,3.738c0,4.612,0,105.013,0,107.86h64.275&#xD;&#xA;&#x9;&#x9;C66.841,108.792,66.841,8.109,66.841,3.797z"/>
  <linearGradient id="SVGID_4_" gradientUnits="userSpaceOnUse" x1="34.7031" y1="38.0596" x2="34.7031" y2="35.7568">
    <stop offset="0" style="stop-color:#000000;stop-opacity:0.15"/>
    <stop offset="0.1481" style="stop-color:#000000;stop-opacity:0.5"/>
    <stop offset="0.508" style="stop-color:#797979;stop-opacity:0.3363"/>
    <stop offset="0.9174" style="stop-color:#FFFFFF;stop-opacity:0.15"/>
    <stop offset="0.9467" style="stop-color:#A0A0A0;stop-opacity:0.15"/>
    <stop offset="0.9836" style="stop-color:#2E2E2E;stop-opacity:0.15"/>
    <stop offset="1" style="stop-color:#000000;stop-opacity:0.15"/>
  </linearGradient>
  <path fill="url(#SVGID_4_)" d="M67.906,36.89c0,0.635-0.515,1.151-1.151,1.151H2.652c-0.636,0-1.151-0.516-1.151-1.151l0,0&#xD;&#xA;&#x9;&#x9;c0-0.637,0.515-1.152,1.151-1.152h64.103C67.391,35.738,67.906,36.253,67.906,36.89L67.906,36.89z"/>
  <linearGradient id="SVGID_5_" gradientUnits="userSpaceOnUse" x1="0.9561" y1="36.8892" x2="67.3613" y2="36.8892">
    <stop offset="0" style="stop-color:#000000;stop-opacity:0.15"/>
    <stop offset="0.1443" style="stop-color:#000000;stop-opacity:0.25"/>
    <stop offset="0.1684" style="stop-color:#0D0D0D;stop-opacity:0.2409"/>
    <stop offset="0.2136" style="stop-color:#313131;stop-opacity:0.224"/>
    <stop offset="0.2749" style="stop-color:#6A6A6A;stop-opacity:0.201"/>
    <stop offset="0.3491" style="stop-color:#B9B9B9;stop-opacity:0.1731"/>
    <stop offset="0.4107" style="stop-color:#FFFFFF;stop-opacity:0.15"/>
    <stop offset="0.5678" style="stop-color:#A0A0A0;stop-opacity:0.1855"/>
    <stop offset="0.7655" style="stop-color:#2E2E2E;stop-opacity:0.2301"/>
    <stop offset="0.8534" style="stop-color:#000000;stop-opacity:0.25"/>
    <stop offset="0.9807" style="stop-color:#000000;stop-opacity:0.15"/>
  </linearGradient>
  <path fill="url(#SVGID_5_)" d="M67.906,36.889c0,0.636-0.515,1.151-1.151,1.151H2.652c-0.636,0-1.151-0.516-1.151-1.151l0,0&#xD;&#xA;&#x9;&#x9;c0-0.636,0.515-1.151,1.151-1.151h64.103C67.391,35.738,67.906,36.253,67.906,36.889L67.906,36.889z"/>
  <linearGradient id="SVGID_6_" gradientUnits="userSpaceOnUse" x1="34.7031" y1="3.8862" x2="34.7031" y2="1.583">
    <stop offset="0" style="stop-color:#000000;stop-opacity:0.15"/>
    <stop offset="0.1481" style="stop-color:#000000;stop-opacity:0.5"/>
    <stop offset="0.508" style="stop-color:#797979;stop-opacity:0.3363"/>
    <stop offset="0.9174" style="stop-color:#FFFFFF;stop-opacity:0.15"/>
    <stop offset="0.9467" style="stop-color:#A0A0A0;stop-opacity:0.15"/>
    <stop offset="0.9836" style="stop-color:#2E2E2E;stop-opacity:0.15"/>
    <stop offset="1" style="stop-color:#000000;stop-opacity:0.15"/>
  </linearGradient>
  <path fill="url(#SVGID_6_)" d="M67.906,2.716c0,0.635-0.515,1.151-1.151,1.151H2.652C2.016,3.867,1.5,3.351,1.5,2.716l0,0&#xD;&#xA;&#x9;&#x9;c0-0.637,0.515-1.152,1.151-1.152h64.103C67.391,1.564,67.906,2.079,67.906,2.716L67.906,2.716z"/>
  <linearGradient id="SVGID_7_" gradientUnits="userSpaceOnUse" x1="0.9561" y1="2.7153" x2="67.3613" y2="2.7153">
    <stop offset="0" style="stop-color:#000000;stop-opacity:0.15"/>
    <stop offset="0.1443" style="stop-color:#000000;stop-opacity:0.25"/>
    <stop offset="0.1684" style="stop-color:#0D0D0D;stop-opacity:0.2409"/>
    <stop offset="0.2136" style="stop-color:#313131;stop-opacity:0.224"/>
    <stop offset="0.2749" style="stop-color:#6A6A6A;stop-opacity:0.201"/>
    <stop offset="0.3491" style="stop-color:#B9B9B9;stop-opacity:0.1731"/>
    <stop offset="0.4107" style="stop-color:#FFFFFF;stop-opacity:0.15"/>
    <stop offset="0.5678" style="stop-color:#A0A0A0;stop-opacity:0.1855"/>
    <stop offset="0.7655" style="stop-color:#2E2E2E;stop-opacity:0.2301"/>
    <stop offset="0.8534" style="stop-color:#000000;stop-opacity:0.25"/>
    <stop offset="0.9807" style="stop-color:#000000;stop-opacity:0.15"/>
  </linearGradient>
  <path fill="url(#SVGID_7_)" d="M67.906,2.715c0,0.635-0.515,1.151-1.151,1.151H2.652C2.016,3.867,1.5,3.351,1.5,2.715l0,0&#xD;&#xA;&#x9;&#x9;c0-0.636,0.515-1.151,1.151-1.151h64.103C67.391,1.564,67.906,2.079,67.906,2.715L67.906,2.715z"/>
  <linearGradient id="SVGID_8_" gradientUnits="userSpaceOnUse" x1="0.9556" y1="112.749" x2="67.3608" y2="112.749">
    <stop offset="0" style="stop-color:#000000;stop-opacity:0.15"/>
    <stop offset="0.1443" style="stop-color:#000000;stop-opacity:0.5"/>
    <stop offset="0.1684" style="stop-color:#0D0D0D;stop-opacity:0.4683"/>
    <stop offset="0.2136" style="stop-color:#313131;stop-opacity:0.4089"/>
    <stop offset="0.2749" style="stop-color:#6A6A6A;stop-opacity:0.3284"/>
    <stop offset="0.3491" style="stop-color:#B9B9B9;stop-opacity:0.2309"/>
    <stop offset="0.4107" style="stop-color:#FFFFFF;stop-opacity:0.15"/>
    <stop offset="0.5678" style="stop-color:#A0A0A0;stop-opacity:0.2742"/>
    <stop offset="0.7655" style="stop-color:#2E2E2E;stop-opacity:0.4305"/>
    <stop offset="0.8534" style="stop-color:#000000;stop-opacity:0.5"/>
    <stop offset="0.9807" style="stop-color:#000000;stop-opacity:0.15"/>
  </linearGradient>
  <path fill="url(#SVGID_8_)" d="M67.905,112.749c0,0.636-0.515,1.152-1.151,1.152H2.652c-0.636,0-1.152-0.516-1.152-1.152l0,0&#xD;&#xA;&#x9;&#x9;c0-0.636,0.516-1.15,1.152-1.15h64.103C67.39,111.598,67.905,112.113,67.905,112.749L67.905,112.749z"/>
  <linearGradient id="SVGID_9_" gradientUnits="userSpaceOnUse" x1="34.7031" y1="76.4707" x2="34.7031" y2="74.1675">
    <stop offset="0" style="stop-color:#000000;stop-opacity:0.15"/>
    <stop offset="0.1481" style="stop-color:#000000;stop-opacity:0.5"/>
    <stop offset="0.508" style="stop-color:#797979;stop-opacity:0.3363"/>
    <stop offset="0.9174" style="stop-color:#FFFFFF;stop-opacity:0.15"/>
    <stop offset="0.9467" style="stop-color:#A0A0A0;stop-opacity:0.15"/>
    <stop offset="0.9836" style="stop-color:#2E2E2E;stop-opacity:0.15"/>
    <stop offset="1" style="stop-color:#000000;stop-opacity:0.15"/>
  </linearGradient>
  <path fill="url(#SVGID_9_)" d="M67.906,75.3c0,0.636-0.515,1.151-1.151,1.151H2.652c-0.636,0-1.151-0.515-1.151-1.151l0,0&#xD;&#xA;&#x9;&#x9;c0-0.635,0.515-1.152,1.151-1.152h64.103C67.391,74.148,67.906,74.665,67.906,75.3L67.906,75.3z"/>
  <linearGradient id="SVGID_10_" gradientUnits="userSpaceOnUse" x1="0.9561" y1="75.2998" x2="67.3613" y2="75.2998">
    <stop offset="0" style="stop-color:#000000;stop-opacity:0.15"/>
    <stop offset="0.1443" style="stop-color:#000000;stop-opacity:0.25"/>
    <stop offset="0.1684" style="stop-color:#0D0D0D;stop-opacity:0.2409"/>
    <stop offset="0.2136" style="stop-color:#313131;stop-opacity:0.224"/>
    <stop offset="0.2749" style="stop-color:#6A6A6A;stop-opacity:0.201"/>
    <stop offset="0.3491" style="stop-color:#B9B9B9;stop-opacity:0.1731"/>
    <stop offset="0.4107" style="stop-color:#FFFFFF;stop-opacity:0.15"/>
    <stop offset="0.5678" style="stop-color:#A0A0A0;stop-opacity:0.1855"/>
    <stop offset="0.7655" style="stop-color:#2E2E2E;stop-opacity:0.2301"/>
    <stop offset="0.8534" style="stop-color:#000000;stop-opacity:0.25"/>
    <stop offset="0.9807" style="stop-color:#000000;stop-opacity:0.15"/>
  </linearGradient>
  <path fill="url(#SVGID_10_)" d="M67.906,75.3c0,0.637-0.515,1.151-1.151,1.151H2.652c-0.636,0-1.151-0.515-1.151-1.151l0,0&#xD;&#xA;&#x9;&#x9;c0-0.635,0.515-1.151,1.151-1.151h64.103C67.391,74.148,67.906,74.665,67.906,75.3L67.906,75.3z"/>
  <linearGradient id="SVGID_11_" gradientUnits="userSpaceOnUse" x1="34.7026" y1="113.9194" x2="34.7026" y2="111.6167">
    <stop offset="0.1481" style="stop-color:#000000;stop-opacity:0.25"/>
    <stop offset="0.2667" style="stop-color:#090909;stop-opacity:0.2592"/>
    <stop offset="0.4622" style="stop-color:#222222;stop-opacity:0.2745"/>
    <stop offset="0.7091" style="stop-color:#4B4B4B;stop-opacity:0.2938"/>
    <stop offset="0.7892" style="stop-color:#595959;stop-opacity:0.3"/>
    <stop offset="0.7919" style="stop-color:#575757;stop-opacity:0.2987"/>
    <stop offset="0.8538" style="stop-color:#323232;stop-opacity:0.2693"/>
    <stop offset="0.9111" style="stop-color:#161616;stop-opacity:0.2422"/>
    <stop offset="0.9616" style="stop-color:#060606;stop-opacity:0.2182"/>
    <stop offset="1" style="stop-color:#000000;stop-opacity:0.2"/>
  </linearGradient>
  <path fill="url(#SVGID_11_)" d="M67.906,112.749c0,0.636-0.516,1.152-1.151,1.152H2.652c-0.636,0-1.152-0.516-1.152-1.152l0,0&#xD;&#xA;&#x9;&#x9;c0-0.636,0.516-1.151,1.152-1.151h64.103C67.39,111.598,67.906,112.113,67.906,112.749L67.906,112.749z"/>
  <rect x="2.565" y="35.606" fill="#FFFFFF" width="64.275" height="0.263"/>
  <g>
    <line fill="#FFFFFF" x1="2.565" y1="38.041" x2="66.841" y2="38.041"/>
    <rect x="2.565" y="37.909" width="64.275" height="0.263"/>
  </g>
  <rect x="2.565" y="74.018" fill="#FFFFFF" width="64.275" height="0.263"/>
  <g>
    <line fill="#FFFFFF" x1="2.565" y1="76.452" x2="66.841" y2="76.452"/>
    <rect x="2.565" y="76.32" width="64.275" height="0.263"/>
  </g>
  <rect x="2.565" y="111.467" fill="#FFFFFF" width="64.275" height="0.263"/>
  <g>
    <line fill="#FFFFFF" x1="2.565" y1="113.901" x2="66.841" y2="113.901"/>
    <rect x="2.565" y="113.769" width="64.275" height="0.263"/>
  </g>
  <rect x="2.565" y="1.5" fill="#FFFFFF" width="64.275" height="0.263"/>
  <g>
    <line fill="#FFFFFF" x1="2.565" y1="3.934" x2="66.841" y2="3.934"/>
    <rect x="2.565" y="3.802" width="64.275" height="0.263"/>
  </g>
</svg>