<svg version="1.2" baseProfile="tiny" id="EdgeSVG_6Br00" x="0px" y="0px" width="69.406px" height="115.336px" viewBox="0 0 69.406 115.336" xmlns:xlink="http://www.w3.org/1999/xlink" xmlns="http://www.w3.org/2000/svg">
  <linearGradient id="SVGID_1_" gradientUnits="userSpaceOnUse" x1="0" y1="57.668" x2="69.4058" y2="57.668">
    <stop offset="0" style="stop-color:#080808;stop-opacity:0.5153"/>
    <stop offset="1" style="stop-color:#000000;stop-opacity:0.5"/>
  </linearGradient>
  <path fill="url(#SVGID_1_)" d="M2.652,115.336c-1.462,0-2.652-1.189-2.652-2.651c0-0.868,0.419-1.64,1.066-2.124l0-33.208&#xD;&#xA;&#x9;&#x9;C0.418,76.867,0,76.094,0,75.236s0.417-1.63,1.065-2.116V38.941C0.418,38.455,0,37.682,0,36.825s0.417-1.629,1.065-2.115V4.767&#xD;&#xA;&#x9;&#x9;C0.418,4.281,0,3.508,0,2.651C0,1.189,1.19,0,2.652,0h64.103c1.462,0,2.651,1.189,2.651,2.651c0,0.857-0.417,1.629-1.065,2.115&#xD;&#xA;&#x9;&#x9;V34.71c0.647,0.486,1.065,1.258,1.065,2.115s-0.418,1.629-1.065,2.116v34.18c0.647,0.486,1.065,1.258,1.065,2.115&#xD;&#xA;&#x9;&#x9;c0,0.858-0.417,1.631-1.065,2.117v33.209c0.646,0.484,1.065,1.255,1.065,2.123c0,0.88-0.436,1.701-1.165,2.196&#xD;&#xA;&#x9;&#x9;c-0.442,0.298-0.955,0.455-1.487,0.455H2.652z"/>
</svg>