<svg version="1.2" baseProfile="tiny" viewBox="0 0 69.406 115.336" xmlns:xlink="http://www.w3.org/1999/xlink" xmlns="http://www.w3.org/2000/svg">
<path style="fill:#ffffff;" d="M67.9061,2.6516L67.9061,2.6516L67.9061,2.6516C67.9061,2.0149,67.3911,1.5005,66.7547,1.5005L2.652,1.5005L2.652,1.5005C2.0162,1.5005,1.4999,2.0149,1.4999,2.6516L1.4999,2.6516L1.4999,2.6516C1.4999,3.2571,1.9711,3.7496,2.5652,3.7934C2.5652,5.8671,2.5652,19.1273,2.5652,35.6815C1.9711,35.7265,1.4999,36.2178,1.4999,36.8245L1.4999,36.8245L1.4999,36.8245C1.4999,37.4323,1.9711,37.9236,2.5652,37.9686C2.5652,49.4803,2.5652,62.3622,2.5652,74.0942C1.9711,74.138,1.4999,74.6293,1.4999,75.236L1.4999,75.236L1.4999,75.236C1.4999,75.8415,1.9711,76.3351,2.5652,76.379C2.5652,95.143,2.5652,110.4469,2.5652,111.5334L2.6513,111.5334C2.0149,111.5334,1.4992,112.0489,1.4992,112.6844C1.4992,113.3199,2.0149,113.8355,2.6513,113.8355L66.754,113.8355C66.9921,113.8355,67.2142,113.7628,67.3981,113.6394C67.7042,113.4306,67.9047,113.0812,67.9047,112.6844C67.9047,112.0478,67.3891,111.5334,66.754,111.5334L66.8401,111.5334C66.8401,110.4642,66.8401,95.151,66.8401,76.379C67.4342,76.3351,67.9047,75.8415,67.9047,75.236L67.9047,75.236L67.9047,75.236C67.9047,74.6293,67.4342,74.138,66.8401,74.0942C66.8401,62.3599,66.8401,49.4757,66.8401,37.9686C67.4342,37.9236,67.9047,37.4323,67.9047,36.8245L67.9047,36.8245L67.9047,36.8245C67.9047,36.219,67.4342,35.7276,66.8401,35.6827C66.8401,18.9289,66.8401,5.5661,66.8401,3.7946C67.4349,3.7496,67.9061,3.2582,67.9061,2.6516Z"/>
</svg>