<svg version="1.2" baseProfile="tiny" id="EdgeSVG_gk5t0" x="0px" y="0px" width="203.249px" height="74.948px" viewBox="0 0 203.249 74.948" xmlns:xlink="http://www.w3.org/1999/xlink" xmlns="http://www.w3.org/2000/svg">
  <linearGradient id="SVGID_1_" gradientUnits="userSpaceOnUse" x1="0" y1="37.4736" x2="404.7247" y2="37.4736">
    <stop offset="0" style="stop-color:#010101;stop-opacity:0.5"/>
    <stop offset="1" style="stop-color:#010101;stop-opacity:0.5"/>
  </linearGradient>
  <path fill="url(#SVGID_1_)" d="M203.099,28.3c-0.194-0.525-0.565-0.974-1.049-1.266c-0.068-0.041-0.144-0.072-0.216-0.106&#xD;&#xA;&#x9;&#x9;c-0.057-0.027-0.108-0.059-0.167-0.082c-0.134-0.052-0.273-0.094-0.419-0.123l-0.098-0.02h-0.102&#xD;&#xA;&#x9;&#x9;c-0.099-0.012-0.196-0.03-0.298-0.03h-30.538V1.868c0-1.03-0.838-1.868-1.868-1.868h-0.192c-0.661,0-1.24,0.348-1.572,0.869H43.459&#xD;&#xA;&#x9;&#x9;c-0.316-0.412-0.852-0.734-1.685-0.804V0.042h-0.24l0,0.018c-1.52,0.099-2.062,1.109-2.062,1.955v0.372h-1.737v6.803h1.737v3.259&#xD;&#xA;&#x9;&#x9;H2.303C1.033,12.448,0,13.481,0,14.751v39.658c0,1.27,1.033,2.302,2.303,2.302h37.169v3.037h-1.737v6.803h1.737v0.594&#xD;&#xA;&#x9;&#x9;c0,1.125,0.807,1.9,2.063,1.99v0.019h0.24v-0.019c0.762-0.054,1.358-0.361,1.71-0.845h16.969v0.16c0,1.509,1.228,2.737,2.737,2.737&#xD;&#xA;&#x9;&#x9;h31.842c1.509,0,2.737-1.228,2.737-2.737v-0.16h8.646L111.202,71v0.211H108.8v3.737h42.204v-1.737v-2V68.29h15.576&#xD;&#xA;&#x9;&#x9;c0.332,0.521,0.911,0.87,1.572,0.87h0.192c1.03,0,1.868-0.838,1.868-1.869V41.479h15.216h2.943h12.379&#xD;&#xA;&#x9;&#x9;c1.377,0,2.497-1.105,2.497-2.463v-9.88C203.249,28.845,203.196,28.563,203.099,28.3z"/>
</svg>