<svg version="1.2" baseProfile="tiny" id="EdgeSVG_Brd4P" x="0px" y="0px" width="200px" height="101.359px" viewBox="0 0 200 101.359" xmlns:xlink="http://www.w3.org/1999/xlink" xmlns="http://www.w3.org/2000/svg">
  <linearGradient id="SVGID_3_" gradientUnits="userSpaceOnUse" x1="191.0776" y1="100.5142" x2="191.0776" y2="1.5313">
    <stop offset="0" style="stop-color:#FFFFFF;stop-opacity:0.2"/>
    <stop offset="0.2883" style="stop-color:#000000;stop-opacity:0.3"/>
    <stop offset="0.8098" style="stop-color:#FFFFFF;stop-opacity:0.5"/>
  </linearGradient>
  <path fill="url(#SVGID_3_)" d="M199.235,51.022c0,48.177-16.315,49.492-16.315,49.492V51.022V1.531&#xD;&#xA;&#x9;&#x9;C182.92,1.531,199.235,2.846,199.235,51.022z"/>
  <linearGradient id="SVGID_4_" gradientUnits="userSpaceOnUse" x1="17.3921" y1="51.0225" x2="1.0767" y2="51.0225">
    <stop offset="0.135" style="stop-color:#0A0A0A;stop-opacity:0.4"/>
    <stop offset="0.3129" style="stop-color:#000000;stop-opacity:0.2476"/>
    <stop offset="0.3285" style="stop-color:#0D0D0D;stop-opacity:0.2538"/>
    <stop offset="0.4016" style="stop-color:#454545;stop-opacity:0.2824"/>
    <stop offset="0.477" style="stop-color:#777777;stop-opacity:0.3119"/>
    <stop offset="0.553" style="stop-color:#A1A1A1;stop-opacity:0.3417"/>
    <stop offset="0.6298" style="stop-color:#C3C3C3;stop-opacity:0.3718"/>
    <stop offset="0.7077" style="stop-color:#DDDDDD;stop-opacity:0.4023"/>
    <stop offset="0.7871" style="stop-color:#F0F0F0;stop-opacity:0.4334"/>
    <stop offset="0.8689" style="stop-color:#FBFBFB;stop-opacity:0.4655"/>
    <stop offset="0.9571" style="stop-color:#FFFFFF;stop-opacity:0.5"/>
  </linearGradient>
  <path fill="url(#SVGID_4_)" d="M1.077,51.023c0-48.177,16.315-49.493,16.315-49.493v49.493v49.491&#xD;&#xA;&#x9;&#x9;C17.392,100.514,1.077,99.199,1.077,51.023z"/>
  <linearGradient id="SVGID_5_" gradientUnits="userSpaceOnUse" x1="182.9199" y1="51.0225" x2="199.2354" y2="51.0225">
    <stop offset="0.135" style="stop-color:#0A0A0A;stop-opacity:0.4"/>
    <stop offset="0.3006" style="stop-color:#000000;stop-opacity:0.2693"/>
    <stop offset="0.9571" style="stop-color:#FFFFFF;stop-opacity:0.5"/>
  </linearGradient>
  <path fill="url(#SVGID_5_)" d="M199.235,51.022c0,48.177-16.315,49.492-16.315,49.492V51.022V1.531&#xD;&#xA;&#x9;&#x9;C182.92,1.531,199.235,2.846,199.235,51.022z"/>
  <linearGradient id="SVGID_6_" gradientUnits="userSpaceOnUse" x1="182.9199" y1="100.6025" x2="182.9199" y2="1.5313">
    <stop offset="0" style="stop-color:#0A0A0A;stop-opacity:0"/>
    <stop offset="0.5153" style="stop-color:#FFFFFF;stop-opacity:0.5"/>
    <stop offset="0.5619" style="stop-color:#F9F9F9;stop-opacity:0.4507"/>
    <stop offset="0.6249" style="stop-color:#E8E8E8;stop-opacity:0.384"/>
    <stop offset="0.6973" style="stop-color:#CBCBCB;stop-opacity:0.3074"/>
    <stop offset="0.7768" style="stop-color:#A4A4A4;stop-opacity:0.2233"/>
    <stop offset="0.8619" style="stop-color:#717171;stop-opacity:0.1332"/>
    <stop offset="0.9505" style="stop-color:#343434;stop-opacity:0.0394"/>
    <stop offset="0.9877" style="stop-color:#181818;stop-opacity:0"/>
  </linearGradient>
  <rect x="182.333" y="1.531" fill="url(#SVGID_6_)" width="1.174" height="99.071"/>
  <linearGradient id="SVGID_7_" gradientUnits="userSpaceOnUse" x1="18.5347" y1="100.6025" x2="18.5347" y2="1.5308">
    <stop offset="0" style="stop-color:#0A0A0A;stop-opacity:0"/>
    <stop offset="0.5153" style="stop-color:#FFFFFF;stop-opacity:0.5"/>
    <stop offset="0.5619" style="stop-color:#F9F9F9;stop-opacity:0.4507"/>
    <stop offset="0.6249" style="stop-color:#E8E8E8;stop-opacity:0.384"/>
    <stop offset="0.6973" style="stop-color:#CBCBCB;stop-opacity:0.3074"/>
    <stop offset="0.7768" style="stop-color:#A4A4A4;stop-opacity:0.2233"/>
    <stop offset="0.8619" style="stop-color:#717171;stop-opacity:0.1332"/>
    <stop offset="0.9505" style="stop-color:#343434;stop-opacity:0.0394"/>
    <stop offset="0.9877" style="stop-color:#181818;stop-opacity:0"/>
  </linearGradient>
  <rect x="17.948" y="1.531" fill="url(#SVGID_7_)" width="1.174" height="99.072"/>
  <linearGradient id="SVGID_8_" gradientUnits="userSpaceOnUse" x1="99.8105" y1="35.019" x2="99.8105" y2="1.5718">
    <stop offset="0.0859" style="stop-color:#000000;stop-opacity:0"/>
    <stop offset="0.362" style="stop-color:#EEEEEF;stop-opacity:0.2"/>
  </linearGradient>
  <path fill="url(#SVGID_8_)" d="M180.989,1.572h-32.528h-8.32h-40.094h-0.473H59.48h-8.32H18.632c0,0-15.885,4.486-15.885,33.447&#xD;&#xA;&#x9;&#x9;c0,0,3.805-14.484,15.885-14.484H51.16h4.739c0.798,0.425,1.958,0.472,3.581,0h40.094h0.473h40.094&#xD;&#xA;&#x9;&#x9;c1.623,0.472,2.783,0.425,3.582,0h4.739h32.528c12.081,0,15.886,14.484,15.886,14.484C196.875,6.058,180.989,1.572,180.989,1.572z"/>
  <linearGradient id="SVGID_9_" gradientUnits="userSpaceOnUse" x1="100.7754" y1="1.3555" x2="100.7754" y2="100.6025">
    <stop offset="0" style="stop-color:#000000;stop-opacity:0.05"/>
    <stop offset="0.1779" style="stop-color:#FFFFFF;stop-opacity:0.6"/>
    <stop offset="0.2309" style="stop-color:#FCFCFC;stop-opacity:0.5166"/>
    <stop offset="0.2773" style="stop-color:#F1F1F1;stop-opacity:0.4435"/>
    <stop offset="0.3213" style="stop-color:#DFDFDF;stop-opacity:0.3741"/>
    <stop offset="0.3639" style="stop-color:#C5C5C5;stop-opacity:0.3071"/>
    <stop offset="0.4054" style="stop-color:#A5A5A5;stop-opacity:0.2418"/>
    <stop offset="0.4461" style="stop-color:#7D7D7D;stop-opacity:0.1777"/>
    <stop offset="0.4862" style="stop-color:#4D4D4D;stop-opacity:0.1146"/>
    <stop offset="0.5247" style="stop-color:#171717;stop-opacity:0.0539"/>
    <stop offset="0.5399" style="stop-color:#000000;stop-opacity:0.03"/>
    <stop offset="0.6933" style="stop-color:#000000;stop-opacity:0.05"/>
    <stop offset="0.9755" style="stop-color:#0A0A0A;stop-opacity:0.4"/>
    <stop offset="0.9823" style="stop-color:#060606;stop-opacity:0.2878"/>
    <stop offset="1" style="stop-color:#000000;stop-opacity:0"/>
  </linearGradient>
  <polygon fill="url(#SVGID_9_)" points="18.044,1.531 18.044,100.603 34.877,100.603 34.877,100.603 50.371,100.603 50.371,100.603 &#xD;&#xA;&#x9;&#x9;151.084,100.603 151.084,100.603 166.578,100.603 166.578,100.603 183.507,100.603 183.507,1.355 &#x9;"/>
  <linearGradient id="SVGID_10_" gradientUnits="userSpaceOnUse" x1="100.7754" y1="1.5308" x2="100.7754" y2="100.6025">
    <stop offset="0.7055" style="stop-color:#000000;stop-opacity:0"/>
    <stop offset="0.9448" style="stop-color:#0A0A0A;stop-opacity:0.2"/>
    <stop offset="0.9603" style="stop-color:#060606;stop-opacity:0.1439"/>
    <stop offset="1" style="stop-color:#000000;stop-opacity:0"/>
  </linearGradient>
  <polygon fill="url(#SVGID_10_)" points="18.044,1.531 18.044,100.603 50.371,100.603 151.084,100.603 182.92,100.514 &#xD;&#xA;&#x9;&#x9;183.507,1.531 &#x9;"/>
  <linearGradient id="SVGID_11_" gradientUnits="userSpaceOnUse" x1="100.0708" y1="90.7109" x2="100.0708" y2="57.2642">
    <stop offset="0.0859" style="stop-color:#000000;stop-opacity:0"/>
    <stop offset="0.362" style="stop-color:#EEEEEF;stop-opacity:0.1"/>
  </linearGradient>
  <path fill="url(#SVGID_11_)" d="M18.177,90.711h32.814h98.159h32.814c0,0,16.025-4.485,16.025-33.447&#xD;&#xA;&#x9;&#x9;c0,0-3.838,14.484-16.025,14.484H149.15H50.992H18.177c-12.187,0-16.025-14.484-16.025-14.484&#xD;&#xA;&#x9;&#x9;C2.152,86.226,18.177,90.711,18.177,90.711z"/>
</svg>