<svg version="1.2" baseProfile="tiny" id="EdgeSVG_ZtHwF" x="0px" y="0px" width="162.577px" height="240px" viewBox="0 0 162.577 240" xmlns:xlink="http://www.w3.org/1999/xlink" xmlns="http://www.w3.org/2000/svg">
  <linearGradient id="SVGID_1_" gradientUnits="userSpaceOnUse" x1="0" y1="120" x2="162.5771" y2="120">
    <stop offset="0" style="stop-color:#000000;stop-opacity:0.5"/>
    <stop offset="1" style="stop-color:#000000;stop-opacity:0.5"/>
  </linearGradient>
  <path fill="url(#SVGID_1_)" d="M75.251,239.973c-20.857-0.414-34.996-2.534-45.861-6.875c-7.826-3.126-12.801-7.698-13.009-7.891&#xD;&#xA;&#x9;&#x9;c-4.418-4.552-4.371-8.489-4.343-9.009V200.64C4.048,199.797,0,196.746,0,191.562V76.723c0-5.183,4.048-8.235,12.038-9.078V48.723&#xD;&#xA;&#x9;&#x9;h-0.467v-2.235H9.895v2.235H3.749v-2.235H0.434V35.592h3.315v-2.235h6.146v2.235h1.118v-2.235h0.685&#xD;&#xA;&#x9;&#x9;c3.491-14.414,25.934-19.556,44.364-19.556h36.176l2.446-9.034L92.625,4.21l0.313-1.159l0.243-0.948L93.75,0l3.438,0.935&#xD;&#xA;&#x9;&#x9;C98.001,0.637,100.186,0,104.021,0c4.439,0,9.648,0.828,15.482,2.46c14.159,3.961,19.22,8.811,20.304,10.014l3.132,0.844&#xD;&#xA;&#x9;&#x9;l-0.304,0.832l-0.905,3.356l-1.79-0.484l-0.983,3.634c6.066,3.301,9.892,7.668,11.13,12.702h0.611v2.235h1.676v-2.235h6.146v2.235&#xD;&#xA;&#x9;&#x9;h3.828v10.896h-3.828v2.235h-6.146v-2.235h-1.676v2.235h-0.159v18.922c7.99,0.843,12.038,3.895,12.038,9.078v114.839&#xD;&#xA;&#x9;&#x9;c0,5.183-4.048,8.234-12.038,9.078v15.587c0,0.191-0.05,4.734-4.428,9.207c-4.951,5.06-12.773,7.626-13.104,7.732&#xD;&#xA;&#x9;&#x9;c-11.137,4.249-27.116,6.554-47.445,6.833h-0.009L75.251,239.973z"/>
</svg>