<svg version="1.2" baseProfile="tiny" id="EdgeSVG_nR26u" x="0px" y="0px" width="109.282px" height="122.689px" viewBox="0 0 109.282 122.689" xmlns:xlink="http://www.w3.org/1999/xlink" xmlns="http://www.w3.org/2000/svg">
  <linearGradient id="SVGID_1_" gradientUnits="userSpaceOnUse" x1="0" y1="61.3447" x2="109.2793" y2="61.3447">
    <stop offset="0" style="stop-color:#000000;stop-opacity:0.5"/>
    <stop offset="1" style="stop-color:#000000;stop-opacity:0.5"/>
  </linearGradient>
  <path fill="url(#SVGID_1_)" d="M107.351,113.445c-0.023-0.04-0.042-0.11-0.042-0.156V56.854c0-0.046-0.021-0.084-0.047-0.084&#xD;&#xA;&#x9;&#x9;s-0.047-0.006-0.047-0.013s-0.038-0.012-0.084-0.012h-0.025c-0.046,0-0.084-0.038-0.084-0.084v-0.01c0-0.046,0-0.122,0-0.168&#xD;&#xA;&#x9;&#x9;V46.379c0-0.046,0-0.122,0-0.168v-0.001c0-0.046,0.018-0.084,0.04-0.084s0.059-0.033,0.08-0.074l2.05-3.724&#xD;&#xA;&#x9;&#x9;c0.021-0.041,0.04-0.111,0.04-0.158V15.808c0-0.046,0-0.122,0-0.168v-3.826c0-0.046,0-0.093,0-0.104s-0.038-0.02-0.084-0.02h-5.124&#xD;&#xA;&#x9;&#x9;c-0.046,0-0.084-0.024-0.084-0.054c0-0.03-0.037-0.063-0.082-0.073l-1.907-0.441c-0.045-0.011-0.082-0.057-0.082-0.103v-0.801&#xD;&#xA;&#x9;&#x9;c0-0.046-0.021-0.084-0.049-0.084c-0.026,0-0.048-0.038-0.048-0.084V5.175c0-0.046,0.038-0.084,0.084-0.084h7.292&#xD;&#xA;&#x9;&#x9;c0.046,0,0.084-0.038,0.084-0.084V0.084c0-0.046-0.038-0.084-0.084-0.084H0.084C0.038,0,0,0.038,0,0.084v4.923&#xD;&#xA;&#x9;&#x9;c0,0.046,0.038,0.084,0.084,0.084H7.27c0.046,0,0.084,0.038,0.084,0.084v4.875c0,0.046-0.021,0.084-0.048,0.084&#xD;&#xA;&#x9;&#x9;s-0.048,0.038-0.048,0.084v0.801c0,0.046-0.037,0.092-0.082,0.103l-1.914,0.441c-0.045,0.011-0.082,0.043-0.082,0.073&#xD;&#xA;&#x9;&#x9;c0,0.029-0.038,0.054-0.084,0.054H0.084C0.038,11.69,0,11.699,0,11.71s0,0.057,0,0.104v3.826c0,0.046,0,0.122,0,0.168V36.32&#xD;&#xA;&#x9;&#x9;c0,0.046,0,0.122,0,0.168v1.96c0,0.046,0,0.096,0,0.11s0.012,0.027,0.025,0.027c0.014,0,0.026,0.038,0.026,0.084v3.632&#xD;&#xA;&#x9;&#x9;c0,0.046,0.019,0.117,0.041,0.157l2.037,3.622c0.022,0.041,0.041,0.111,0.041,0.157v0.025c0,0.046,0,0.122,0,0.168v10.282&#xD;&#xA;&#x9;&#x9;c0,0.046-0.038,0.084-0.084,0.084H1.968c-0.046,0-0.084,0.038-0.084,0.084v56.571c0,0.046-0.019,0.117-0.042,0.156l-1.8,3.133&#xD;&#xA;&#x9;&#x9;C0.019,116.78,0,116.852,0,116.897v5.708c0,0.046,0.038,0.084,0.084,0.084h1.204c0.046,0,0.122,0,0.168,0h13.042&#xD;&#xA;&#x9;&#x9;c0.046,0,0.122,0,0.168,0h2.295c0.046,0,0.084-0.038,0.084-0.084v-3.508c0-0.046-0.018-0.117-0.04-0.157l-2.983-5.494&#xD;&#xA;&#x9;&#x9;c-0.022-0.04-0.04-0.111-0.04-0.157V56.906c0-0.046-0.021-0.084-0.047-0.084s-0.047-0.006-0.047-0.013s-0.038-0.013-0.084-0.013&#xD;&#xA;&#x9;&#x9;h-0.025c-0.046,0-0.084-0.038-0.084-0.084v-0.01c0-0.046,0-0.122,0-0.168V46.431c0-0.046,0-0.122,0-0.168v-0.001&#xD;&#xA;&#x9;&#x9;c0-0.046,0.038-0.084,0.084-0.084h0.009c0.046,0,0.102-0.033,0.124-0.074l3.144-5.787c0.022-0.041,0.04-0.111,0.04-0.158v-1.49&#xD;&#xA;&#x9;&#x9;c0-0.046,0.038-0.084,0.084-0.084h74.926c0.046,0,0.084,0.038,0.084,0.084v1.438c0,0.046,0.018,0.117,0.04,0.158l3.142,5.787&#xD;&#xA;&#x9;&#x9;c0.022,0.041,0.06,0.074,0.084,0.074c0.023,0,0.043,0.038,0.043,0.084v0.001c0,0.046,0,0.122,0,0.168v10.283&#xD;&#xA;&#x9;&#x9;c0,0.046-0.038,0.084-0.084,0.084h-0.118c-0.046,0-0.084,0.038-0.084,0.084v56.622c0,0.046-0.018,0.117-0.04,0.157l-2.896,5.332&#xD;&#xA;&#x9;&#x9;c-0.022,0.04-0.04,0.111-0.04,0.157v3.508c0,0.046,0.038,0.084,0.084,0.084h2.294c0.046,0,0.122,0,0.168,0h13.042&#xD;&#xA;&#x9;&#x9;c0.046,0,0.122,0,0.168,0h1.202c0.046,0,0.084-0.038,0.084-0.084v-5.78c0-0.046-0.019-0.116-0.042-0.156L107.351,113.445z&#xD;&#xA;&#x9;&#x9; M52.478,10.05c0,0.046-0.021,0.084-0.048,0.084s-0.048,0.038-0.048,0.084v0.801c0,0.046-0.037,0.092-0.082,0.103l-1.913,0.441&#xD;&#xA;&#x9;&#x9;c-0.045,0.011-0.082,0.043-0.082,0.073c0,0.029-0.038,0.054-0.084,0.054H13.632c-0.046,0-0.084-0.024-0.084-0.054&#xD;&#xA;&#x9;&#x9;c0-0.03-0.037-0.063-0.082-0.073l-1.909-0.441c-0.045-0.011-0.082-0.057-0.082-0.103v-0.801c0-0.046-0.021-0.084-0.048-0.084&#xD;&#xA;&#x9;&#x9;s-0.048-0.038-0.048-0.084V5.175c0-0.046,0.038-0.084,0.084-0.084h40.929c0.046,0,0.084,0.038,0.084,0.084V10.05z M97.746,10.05&#xD;&#xA;&#x9;&#x9;c0,0.046-0.021,0.084-0.048,0.084s-0.048,0.038-0.048,0.084v0.801c0,0.046-0.037,0.092-0.082,0.103l-1.912,0.441&#xD;&#xA;&#x9;&#x9;c-0.045,0.011-0.082,0.043-0.082,0.073c0,0.029-0.038,0.054-0.084,0.054H58.755c-0.046,0-0.084-0.024-0.084-0.054&#xD;&#xA;&#x9;&#x9;c0-0.03-0.037-0.063-0.082-0.073l-1.909-0.441c-0.045-0.011-0.082-0.057-0.082-0.103v-0.801c0-0.046-0.021-0.084-0.048-0.084&#xD;&#xA;&#x9;&#x9;s-0.048-0.038-0.048-0.084V5.175c0-0.046,0.038-0.084,0.084-0.084h41.076c0.046,0,0.084,0.038,0.084,0.084V10.05z"/>
</svg>