<svg version="1.2" baseProfile="tiny" id="EdgeSVG_LbqtS" x="0px" y="0px" width="163.753px" height="285px" viewBox="0 0 163.753 285" xmlns:xlink="http://www.w3.org/1999/xlink" xmlns="http://www.w3.org/2000/svg">
  <linearGradient id="SVGID_1_" gradientUnits="userSpaceOnUse" x1="0" y1="142.5005" x2="163.7529" y2="142.5005">
    <stop offset="0" style="stop-color:#000000;stop-opacity:0.5"/>
    <stop offset="1" style="stop-color:#000000;stop-opacity:0.5"/>
  </linearGradient>
  <path fill-rule="evenodd" fill="url(#SVGID_1_)" d="M137.377,285v-2.716h5.924v-61.998c-13.085,4.455-32.07,6.857-56.463,7.146&#xD;&#xA;&#x9;&#x9;v54.852h5.039V285H70.206v-2.716h4.783v-54.88c-23.623-0.382-42.051-2.79-54.813-7.16v62.04h6.2V285H0v-2.716h5.926v-69.629&#xD;&#xA;&#x9;&#x9;c-4.964-4.413-4.903-8.244-4.872-8.745V76.198c0-7.359,8.301-8.547,11.983-8.885V48.154h-0.465V45.93H10.56v2.224H4.785V45.93&#xD;&#xA;&#x9;&#x9;H1.486V35.429h3.299v-2.225h5.774v2.225h1.456v-2.225h0.647c1.428-6.059,6.581-11.071,14.951-14.525&#xD;&#xA;&#x9;&#x9;c7.72-3.186,18.044-4.94,29.071-4.94h36.143l2.514-9.287l-2.049-0.554l0.313-1.154l0.196-0.777l0.521-1.926l3.308,0.899&#xD;&#xA;&#x9;&#x9;C98.376,0.658,100.534,0,104.425,0c4.404,0,9.574,0.822,15.365,2.442c14.238,3.983,19.188,8.851,20.163,9.956l2.993,0.807&#xD;&#xA;&#x9;&#x9;l-0.253,0.674l-0.854,3.163l-1.78-0.482l-1.06,3.916c6.117,3.298,9.951,7.678,11.145,12.729h0.572v2.225h2.014v-2.225h5.772v2.225&#xD;&#xA;&#x9;&#x9;h3.812V45.93h-3.812v2.224h-5.772V45.93h-2.014v2.224h-0.157v19.159c3.682,0.338,11.982,1.526,11.982,8.885V203.91&#xD;&#xA;&#x9;&#x9;c0.031,0.503,0.094,4.391-4.989,8.85v69.525h6.201V285H137.377z"/>
</svg>