<svg version="1.2" baseProfile="tiny" id="EdgeSVG_TBTYm" x="0px" y="0px" width="159.749px" height="225px" viewBox="0 0 159.749 225" xmlns:xlink="http://www.w3.org/1999/xlink" xmlns="http://www.w3.org/2000/svg">
  <linearGradient id="SVGID_1_" gradientUnits="userSpaceOnUse" x1="0" y1="112.5" x2="159.749" y2="112.5">
    <stop offset="0.0061" style="stop-color:#000000;stop-opacity:0.5"/>
    <stop offset="1" style="stop-color:#000000;stop-opacity:0.5"/>
  </linearGradient>
  <path fill-rule="evenodd" fill="url(#SVGID_1_)" d="M79.875,225c-51.212,0-69.93-8.802-76.613-16.185&#xD;&#xA;&#x9;&#x9;c-3.333-3.682-3.283-6.676-3.256-7.113V75.373c0-7.279,8.211-8.455,11.854-8.789V47.632h-0.46v-2.201H9.407v2.201h-5.71v-2.201&#xD;&#xA;&#x9;&#x9;H0.433V35.045h3.265v-2.201h5.71v2.201h1.442v-2.201h0.64c1.411-5.993,6.509-10.951,14.79-14.369&#xD;&#xA;&#x9;&#x9;c7.636-3.151,17.848-4.887,28.757-4.887h35.75l2.486-9.186l-2.026-0.549l0.31-1.143l0.193-0.768l0.516-1.905l3.272,0.889&#xD;&#xA;&#x9;&#x9;C96.273,0.651,98.409,0,102.258,0c4.356,0,9.47,0.813,15.198,2.415c14.084,3.94,18.979,8.756,19.945,9.848l2.951,0.796&#xD;&#xA;&#x9;&#x9;l-0.236,0.652l-0.85,3.146l-1.762-0.477l-1.048,3.874c6.051,3.262,9.843,7.596,11.023,12.592h0.566v2.201h1.99v-2.201h5.712v2.201&#xD;&#xA;&#x9;&#x9;h3.771v10.387h-3.771v2.201h-5.712v-2.201h-1.99v2.201h-0.157v18.952c3.643,0.334,11.854,1.509,11.854,8.789v126.33&#xD;&#xA;&#x9;&#x9;c0.026,0.437,0.077,3.431-3.257,7.113C149.803,216.198,131.087,225,79.875,225z"/>
</svg>