<svg version="1.2" baseProfile="tiny" id="EdgeSVG_iKtt7" x="0px" y="0px" width="88.789px" height="140.411px" viewBox="0 0 88.789 140.411" xmlns:xlink="http://www.w3.org/1999/xlink" xmlns="http://www.w3.org/2000/svg">
  <linearGradient id="SVGID_2_" gradientUnits="userSpaceOnUse" x1="44.3872" y1="1.502" x2="44.3872" y2="138.9136">
    <stop offset="0" style="stop-color:#000000;stop-opacity:0"/>
    <stop offset="1" style="stop-color:#000000;stop-opacity:0.4"/>
  </linearGradient>
  <rect x="1.493" y="1.502" fill="url(#SVGID_2_)" width="85.789" height="137.411"/>
  <linearGradient id="SVGID_3_" gradientUnits="userSpaceOnUse" x1="6.1836" y1="63.6543" x2="81.9492" y2="63.6543">
    <stop offset="0" style="stop-color:#FFFFFF;stop-opacity:0.1"/>
    <stop offset="1" style="stop-color:#FFFFFF;stop-opacity:0.1"/>
  </linearGradient>
  <path fill="url(#SVGID_3_)" d="M81.949,120.911H6.184V6.397h75.766V120.911z"/>
  <g>
    <linearGradient id="SVGID_4_" gradientUnits="userSpaceOnUse" x1="44.0542" y1="5.9248" x2="44.0542" y2="123.4106">
      <stop offset="0" style="stop-color:#000000;stop-opacity:0.5"/>
      <stop offset="1" style="stop-color:#000000;stop-opacity:0.2"/>
    </linearGradient>
    <polygon fill="url(#SVGID_4_)" points="81.953,5.929 83.21,8.105 83.21,123.411 4.898,123.411 4.898,7.841 6.166,5.925 &#xD;&#xA;&#x9;&#x9;&#x9;6.166,120.911 81.953,120.911 &#x9;&#x9;"/>
  </g>
  <g>
    <g>
      <linearGradient id="SVGID_5_" gradientUnits="userSpaceOnUse" x1="6.0596" y1="6.1602" x2="81.9551" y2="6.1602">
        <stop offset="0" style="stop-color:#FFFFFF;stop-opacity:0.3"/>
        <stop offset="0.5052" style="stop-color:#FFFFFF;stop-opacity:0.6"/>
        <stop offset="1" style="stop-color:#FFFFFF;stop-opacity:0.3"/>
      </linearGradient>
      <rect x="6.06" y="5.91" fill="url(#SVGID_5_)" width="75.896" height="0.5"/>
    </g>
    <g>
      <linearGradient id="SVGID_6_" gradientUnits="userSpaceOnUse" x1="1.5" y1="1.8438" x2="87.2891" y2="1.8438">
        <stop offset="0" style="stop-color:#FFFFFF;stop-opacity:0.3"/>
        <stop offset="0.5052" style="stop-color:#FFFFFF;stop-opacity:0.6"/>
        <stop offset="1" style="stop-color:#FFFFFF;stop-opacity:0.3"/>
      </linearGradient>
      <rect x="1.5" y="1.5" fill="url(#SVGID_6_)" width="85.789" height="0.688"/>
    </g>
  </g>
  <g>
    <linearGradient id="SVGID_7_" gradientUnits="userSpaceOnUse" x1="1.75" y1="2.1875" x2="1.75" y2="138.9116">
      <stop offset="0" style="stop-color:#FFFFFF;stop-opacity:0.3"/>
      <stop offset="0.5052" style="stop-color:#999999;stop-opacity:0.3"/>
      <stop offset="1" style="stop-color:#999999;stop-opacity:0.6"/>
    </linearGradient>
    <rect x="1.359" y="2.188" fill="url(#SVGID_7_)" width="0.781" height="136.724"/>
    <linearGradient id="SVGID_8_" gradientUnits="userSpaceOnUse" x1="86.9258" y1="2.1875" x2="86.9258" y2="138.9116">
      <stop offset="0" style="stop-color:#FFFFFF;stop-opacity:0.3"/>
      <stop offset="0.5052" style="stop-color:#999999;stop-opacity:0.3"/>
      <stop offset="1" style="stop-color:#999999;stop-opacity:0.6"/>
    </linearGradient>
    <polyline fill="url(#SVGID_8_)" points="86.559,2.188 87.293,2.188 87.288,138.911 86.559,138.911 &#x9;&#x9;"/>
    <g>
      <linearGradient id="SVGID_9_" gradientUnits="userSpaceOnUse" x1="6.3721" y1="6.395" x2="6.3721" y2="120.9106">
        <stop offset="0" style="stop-color:#FFFFFF;stop-opacity:0.3"/>
        <stop offset="0.5052" style="stop-color:#999999;stop-opacity:0.3"/>
        <stop offset="1" style="stop-color:#999999;stop-opacity:0.6"/>
      </linearGradient>
      <rect x="6.06" y="6.395" fill="url(#SVGID_9_)" width="0.625" height="114.516"/>
    </g>
    <g>
      <linearGradient id="SVGID_10_" gradientUnits="userSpaceOnUse" x1="81.6763" y1="6.4004" x2="81.6763" y2="120.9287">
        <stop offset="0" style="stop-color:#FFFFFF;stop-opacity:0.3"/>
        <stop offset="0.5052" style="stop-color:#999999;stop-opacity:0.3"/>
        <stop offset="1" style="stop-color:#999999;stop-opacity:0.6"/>
      </linearGradient>
      <polygon fill="url(#SVGID_10_)" points="81.949,120.913 81.403,120.929 81.403,6.4 81.949,6.4 &#x9;&#x9;&#x9;"/>
    </g>
  </g>
  <g>
    <linearGradient id="SVGID_11_" gradientUnits="userSpaceOnUse" x1="6.0596" y1="121.4106" x2="82.0283" y2="121.4106">
      <stop offset="0" style="stop-color:#000000;stop-opacity:0.2"/>
      <stop offset="1" style="stop-color:#000000;stop-opacity:0.2"/>
    </linearGradient>
    <rect x="6.06" y="120.911" fill="url(#SVGID_11_)" width="75.969" height="1"/>
    <linearGradient id="SVGID_12_" gradientUnits="userSpaceOnUse" x1="1.3594" y1="138.2236" x2="86.5503" y2="138.2236">
      <stop offset="0" style="stop-color:#000000;stop-opacity:0.2"/>
      <stop offset="1" style="stop-color:#000000;stop-opacity:0.2"/>
    </linearGradient>
    <rect x="1.359" y="137.536" fill="url(#SVGID_12_)" width="85.191" height="1.375"/>
  </g>
  <g>
    <linearGradient id="SVGID_13_" gradientUnits="userSpaceOnUse" x1="6.1836" y1="63.6543" x2="81.9492" y2="63.6543">
      <stop offset="0" style="stop-color:#FFFFFF;stop-opacity:0.1"/>
      <stop offset="0.488" style="stop-color:#FFFFFF;stop-opacity:0.25"/>
      <stop offset="1" style="stop-color:#FFFFFF;stop-opacity:0.2"/>
    </linearGradient>
    <rect x="6.184" y="6.397" fill="url(#SVGID_13_)" width="75.766" height="114.513"/>
  </g>
  <g>
    <linearGradient id="SVGID_14_" gradientUnits="userSpaceOnUse" x1="74.0386" y1="58.2754" x2="74.0386" y2="84.2441">
      <stop offset="0" style="stop-color:#000000;stop-opacity:0.5"/>
      <stop offset="1" style="stop-color:#000000;stop-opacity:0.2"/>
    </linearGradient>
    <path fill="url(#SVGID_14_)" d="M76.314,60.537c0-1.249-1.019-2.262-2.275-2.262c-1.257,0-2.275,1.013-2.275,2.262v3.77h0&#xD;&#xA;&#x9;&#x9;&#x9;c0,0.009,0,0.018,0,0.028c0,0.539,0.19,1.034,0.507,1.422l0.673,17.397c0,0.602,0.49,1.09,1.096,1.09&#xD;&#xA;&#x9;&#x9;&#x9;c0.604,0,1.095-0.488,1.095-1.09l0.673-17.397c0.316-0.389,0.506-0.883,0.506-1.422c0-0.01,0-0.019,0-0.028h0V60.537z"/>
    <path fill="#333333" d="M76.064,59.051c0-1.119-0.907-2.025-2.025-2.025c-1.119,0-2.025,0.907-2.025,2.025v3.375h0&#xD;&#xA;&#x9;&#x9;&#x9;c0,0.009,0,0.017,0,0.025c0,1.118,0.907,2.025,2.025,2.025c1.118,0,2.025-0.907,2.025-2.025c0-0.009,0-0.017,0-0.025h0V59.051z"/>
    <linearGradient id="SVGID_15_" gradientUnits="userSpaceOnUse" x1="72.0137" y1="63.4961" x2="76.064" y2="63.4961">
      <stop offset="0" style="stop-color:#000000;stop-opacity:0.6"/>
      <stop offset="1" style="stop-color:#000000;stop-opacity:0.6"/>
    </linearGradient>
    <path fill="url(#SVGID_15_)" d="M74.039,64.509c1.119,0,2.025-0.907,2.025-2.025c0,0-0.246,1.719-2.025,1.719&#xD;&#xA;&#x9;&#x9;&#x9;s-2.025-1.719-2.025-1.719C72.014,63.602,72.92,64.509,74.039,64.509z"/>
    <path fill="#333333" d="M74.039,57.775c-0.912,0-1.65,0.739-1.65,1.65v2.325l0.675,17.552c0,0.539,0.437,0.976,0.976,0.976&#xD;&#xA;&#x9;&#x9;&#x9;c0.538,0,0.975-0.437,0.975-0.976l0.675-17.552v-2.325C75.689,58.515,74.95,57.775,74.039,57.775z"/>
    <linearGradient id="SVGID_16_" gradientUnits="userSpaceOnUse" x1="72.3887" y1="69.0269" x2="75.689" y2="69.0269">
      <stop offset="0" style="stop-color:#FFFFFF;stop-opacity:0"/>
      <stop offset="0.0519" style="stop-color:#FFFFFF;stop-opacity:0.0155"/>
      <stop offset="0.5017" style="stop-color:#FFFFFF;stop-opacity:0.15"/>
      <stop offset="0.9495" style="stop-color:#FFFFFF;stop-opacity:0.0152"/>
      <stop offset="1" style="stop-color:#FFFFFF;stop-opacity:0"/>
    </linearGradient>
    <path fill="url(#SVGID_16_)" d="M74.039,57.775c-0.912,0-1.65,0.739-1.65,1.65v2.325l0.675,17.552&#xD;&#xA;&#x9;&#x9;&#x9;c0,0.539,0.437,0.976,0.976,0.976c0.538,0,0.975-0.437,0.975-0.976l0.675-17.552v-2.325C75.689,58.515,74.95,57.775,74.039,57.775&#xD;&#xA;&#x9;&#x9;&#x9;z"/>
    <linearGradient id="SVGID_17_" gradientUnits="userSpaceOnUse" x1="74.0386" y1="57.7754" x2="74.0386" y2="80.2783">
      <stop offset="0" style="stop-color:#000000;stop-opacity:0"/>
      <stop offset="1" style="stop-color:#000000;stop-opacity:0.4"/>
    </linearGradient>
    <path fill="url(#SVGID_17_)" d="M74.039,57.775c-0.912,0-1.65,0.739-1.65,1.65v2.325l0.675,17.552&#xD;&#xA;&#x9;&#x9;&#x9;c0,0.539,0.437,0.976,0.976,0.976c0.538,0,0.975-0.437,0.975-0.976l0.675-17.552v-2.325C75.689,58.515,74.95,57.775,74.039,57.775&#xD;&#xA;&#x9;&#x9;&#x9;z"/>
    <g>
      <linearGradient id="SVGID_18_" gradientUnits="userSpaceOnUse" x1="72.3887" y1="58.6006" x2="75.689" y2="58.6006">
        <stop offset="0" style="stop-color:#FFFFFF;stop-opacity:0.3"/>
        <stop offset="0.5052" style="stop-color:#FFFFFF;stop-opacity:0.6"/>
        <stop offset="1" style="stop-color:#FFFFFF;stop-opacity:0.3"/>
      </linearGradient>
      <path fill="url(#SVGID_18_)" d="M74.039,57.775c-0.912,0-1.65,0.739-1.65,1.65c0,0,0.2-1.4,1.65-1.4s1.65,1.4,1.65,1.4&#xD;&#xA;&#x9;&#x9;&#x9;&#x9;C75.689,58.515,74.95,57.775,74.039,57.775z"/>
      <linearGradient id="SVGID_19_" gradientUnits="userSpaceOnUse" x1="72.0137" y1="58.0381" x2="76.064" y2="58.0381">
        <stop offset="0" style="stop-color:#FFFFFF;stop-opacity:0.3"/>
        <stop offset="0.5052" style="stop-color:#FFFFFF;stop-opacity:0.6"/>
        <stop offset="1" style="stop-color:#FFFFFF;stop-opacity:0.3"/>
      </linearGradient>
      <path fill="url(#SVGID_19_)" d="M74.039,57.025c-1.119,0-2.025,0.907-2.025,2.025c0,0,0.245-1.719,2.025-1.719&#xD;&#xA;&#x9;&#x9;&#x9;&#x9;c1.779,0,2.025,1.719,2.025,1.719C76.064,57.932,75.157,57.025,74.039,57.025z"/>
    </g>
    <g>
      <linearGradient id="SVGID_20_" gradientUnits="userSpaceOnUse" x1="72.0708" y1="58.6445" x2="72.0708" y2="62.8901">
        <stop offset="0" style="stop-color:#FFFFFF;stop-opacity:0.3"/>
        <stop offset="0.5052" style="stop-color:#999999;stop-opacity:0.3"/>
        <stop offset="1" style="stop-color:#999999;stop-opacity:0.6"/>
      </linearGradient>
      <polygon fill="url(#SVGID_20_)" points="72.014,59.051 72.014,62.451 72.128,62.89 72.128,58.645 &#x9;&#x9;&#x9;"/>
      <linearGradient id="SVGID_21_" gradientUnits="userSpaceOnUse" x1="76.0073" y1="58.645" x2="76.0073" y2="62.9648">
        <stop offset="0" style="stop-color:#FFFFFF;stop-opacity:0.3"/>
        <stop offset="0.5052" style="stop-color:#999999;stop-opacity:0.3"/>
        <stop offset="1" style="stop-color:#999999;stop-opacity:0.6"/>
      </linearGradient>
      <polygon fill="url(#SVGID_21_)" points="76.064,59.051 76.064,62.526 75.95,62.965 75.95,58.645 &#x9;&#x9;&#x9;"/>
      <linearGradient id="SVGID_22_" gradientUnits="userSpaceOnUse" x1="72.7261" y1="59.4258" x2="72.7261" y2="79.3027">
        <stop offset="0" style="stop-color:#FFFFFF;stop-opacity:0.3"/>
        <stop offset="0.5052" style="stop-color:#999999;stop-opacity:0.3"/>
        <stop offset="1" style="stop-color:#999999;stop-opacity:0.6"/>
      </linearGradient>
      <path fill="url(#SVGID_22_)" d="M72.389,59.426l0.675,19.877c0,0-0.3-13.814-0.425-16.502&#xD;&#xA;&#x9;&#x9;&#x9;&#x9;C72.514,60.113,72.389,59.426,72.389,59.426z"/>
      <linearGradient id="SVGID_23_" gradientUnits="userSpaceOnUse" x1="75.3511" y1="59.4258" x2="75.3511" y2="79.3027">
        <stop offset="0" style="stop-color:#FFFFFF;stop-opacity:0.3"/>
        <stop offset="0.5052" style="stop-color:#999999;stop-opacity:0.3"/>
        <stop offset="1" style="stop-color:#999999;stop-opacity:0.6"/>
      </linearGradient>
      <path fill="url(#SVGID_23_)" d="M75.689,59.426l-0.675,19.877c0,0,0.3-13.814,0.425-16.502&#xD;&#xA;&#x9;&#x9;&#x9;&#x9;C75.563,60.113,75.689,59.426,75.689,59.426z"/>
    </g>
    <linearGradient id="SVGID_24_" gradientUnits="userSpaceOnUse" x1="73.0635" y1="79.8091" x2="75.0137" y2="79.8091">
      <stop offset="0" style="stop-color:#000000;stop-opacity:0.6"/>
      <stop offset="1" style="stop-color:#000000;stop-opacity:0.6"/>
    </linearGradient>
    <path fill="url(#SVGID_24_)" d="M74.039,80.315c0.566,0,0.975-0.446,0.975-1.013c0,0-0.074,0.857-0.975,0.857&#xD;&#xA;&#x9;&#x9;&#x9;s-0.975-0.857-0.975-0.857C73.063,79.869,73.473,80.315,74.039,80.315z"/>
  </g>
</svg>