<svg version="1.2" baseProfile="tiny" viewBox="0 0 64.438 55.286" xmlns:xlink="http://www.w3.org/1999/xlink" xmlns="http://www.w3.org/2000/svg">
<path style="fill:#ffffff;" d="M59.2198,0.0C56.342,0.0,54.001,2.3408,54.001,5.219C54.001,8.0972,56.342,10.438,59.2198,10.438C62.0983,10.438,64.4393,8.0972,64.4393,5.219C64.4393,2.3408,62.0983,0.0,59.2198,0.0M59.2198,8.4377C57.4458,8.4377,56.0011,6.9942,56.0011,5.219C56.0011,3.4438,57.4452,2.0002,59.2198,2.0002C60.9951,2.0002,62.4391,3.4438,62.4391,5.219C62.4391,6.9942,60.9938,8.4377,59.2198,8.4377M58.2687,26.5782L10.3687,4.5462C10.0349,1.9892,7.8659,0.0,5.2188,0.0C2.341,0.0,0.0,2.3408,0.0,5.219C0.0,8.0972,2.341,10.438,5.2188,10.438C7.5889,10.438,9.5723,8.8408,10.2057,6.673L31.2221,16.3398L31.2221,33.2191C25.5903,33.725,21.1602,38.4658,21.1602,44.2271C21.1602,50.3252,26.1212,55.286,32.2203,55.286C38.3187,55.286,43.2798,50.3252,43.2798,44.2271C43.2798,38.4669,38.8523,33.7272,33.2223,33.218L33.2223,17.2592L57.4329,28.3949C57.5689,28.4568,57.71,28.4872,57.8499,28.4872C58.2288,28.4872,58.5909,28.271,58.7591,27.9039C58.9898,27.402,58.7707,26.8087,58.2687,26.5782M41.279,44.2271C41.279,49.2222,37.2149,53.2858,32.219,53.2858C27.2231,53.2858,23.159,49.2222,23.159,44.2271C23.159,39.2309,27.2231,35.1669,32.219,35.1669C37.2149,35.1669,41.279,39.2309,41.279,44.2271M5.2188,8.4377C3.4442,8.4377,2.0002,6.9942,2.0002,5.219C2.0002,3.4438,3.4442,2.0002,5.2188,2.0002C6.9941,2.0002,8.4382,3.4438,8.4382,5.219C8.4382,6.9942,6.9928,8.4377,5.2188,8.4377Z"/>
</svg>