<svg version="1.2" baseProfile="tiny" id="EdgeSVG_GQz22" x="0px" y="0px" width="25.896px" height="49.326px" viewBox="0 0 25.896 49.326" xmlns:xlink="http://www.w3.org/1999/xlink" xmlns="http://www.w3.org/2000/svg">
  <linearGradient id="SVGID_1_" gradientUnits="userSpaceOnUse" x1="0" y1="24.6626" x2="25.8965" y2="24.6626">
    <stop offset="0" style="stop-color:#000000;stop-opacity:0.5"/>
    <stop offset="1" style="stop-color:#000000;stop-opacity:0.5"/>
  </linearGradient>
  <path fill="url(#SVGID_1_)" d="M1.268,49.326v-0.299c-0.664-0.385-1.111-1.104-1.111-1.924c0-0.822,0.447-1.541,1.111-1.926v-0.596&#xD;&#xA;&#x9;&#x9;c-0.664-0.385-1.111-1.104-1.111-1.926c0-0.82,0.447-1.539,1.111-1.924v-0.596c-0.664-0.385-1.111-1.104-1.111-1.926&#xD;&#xA;&#x9;&#x9;c0-0.82,0.447-1.539,1.111-1.924v-0.598c-0.664-0.383-1.111-1.102-1.111-1.924s0.447-1.539,1.111-1.924v-0.598&#xD;&#xA;&#x9;&#x9;c-0.664-0.385-1.111-1.102-1.111-1.924s0.448-1.541,1.112-1.926l0.002-1.164C0.53,25.949,0,25.213,0,24.352&#xD;&#xA;&#x9;&#x9;c0-0.565,0.195-1.324,1.009-2.031c-0.006-0.008-0.013-0.015-0.02-0.022C0.327,21.557,0,20.758,0,19.905&#xD;&#xA;&#x9;&#x9;c0-0.483,0.078-0.963,0.23-1.431C0.078,17.901,0,17.345,0,16.816c0-0.731,0.079-1.462,0.234-2.177&#xD;&#xA;&#x9;&#x9;c-0.09-0.564-0.134-1.156-0.134-1.803C0.101,5.759,5.859,0,12.938,0s12.837,5.759,12.837,12.837c0,0.609-0.044,1.173-0.133,1.715&#xD;&#xA;&#x9;&#x9;c0.17,0.757,0.255,1.519,0.255,2.265c0,0.567-0.075,1.13-0.227,1.679c0.151,0.462,0.227,0.936,0.227,1.41&#xD;&#xA;&#x9;&#x9;c0,0.835-0.365,1.633-1.058,2.308c-0.011,0.013-0.023,0.024-0.035,0.036c0.884,0.727,1.093,1.517,1.093,2.103&#xD;&#xA;&#x9;&#x9;c0,0.843-0.538,1.562-1.289,1.832v1.213c0.664,0.383,1.111,1.102,1.111,1.924s-0.447,1.539-1.111,1.924v0.598&#xD;&#xA;&#x9;&#x9;c0.664,0.385,1.111,1.102,1.111,1.924s-0.447,1.541-1.111,1.924v0.598c0.664,0.385,1.111,1.104,1.111,1.924&#xD;&#xA;&#x9;&#x9;c0,0.822-0.447,1.541-1.111,1.926v0.596c0.664,0.385,1.111,1.104,1.111,1.924c0,0.822-0.447,1.541-1.111,1.926v0.596&#xD;&#xA;&#x9;&#x9;c0.664,0.385,1.111,1.104,1.111,1.926c0,0.82-0.447,1.539-1.111,1.924v0.299H1.268z"/>
</svg>