<svg version="1.2" baseProfile="tiny" viewBox="0 0 50.512 49.93" xmlns:xlink="http://www.w3.org/1999/xlink" xmlns="http://www.w3.org/2000/svg">
<path style="fill:#ffffff;" d="M0.7198,23.4761C0.7648,24.0148,1.2512,24.4492,1.829,24.4562C2.366,24.4622,2.7958,24.0952,2.906,23.6099C3.11,23.6309,3.455,23.6568,3.6581,23.6818C3.6742,23.901,3.7248,24.1062,3.9071,24.3249C4.0859,24.5381,4.3531,24.6799,4.6582,24.7158C5.1638,24.7748,5.6301,24.4892,5.8089,24.0378C5.9301,24.0478,6.2908,24.1062,6.4438,24.1302C6.4378,24.218,6.4438,24.3059,6.461,24.3918C6.5408,24.8022,6.8838,25.1502,7.3298,25.2511C7.4788,25.2841,7.6278,25.286,7.7698,25.2631C8.1168,25.2042,8.4032,24.986,8.5552,24.6729C8.6628,24.7059,8.7411,24.7298,8.8482,24.7648C8.8401,24.8352,8.8381,24.931,8.8441,25.001C8.882,25.4189,9.1861,25.7878,9.621,25.9331C10.111,26.0969,10.6161,25.8972,10.8808,25.4968C10.9778,25.5382,11.0768,25.5751,11.1727,25.6171C11.1581,25.687,11.1288,25.7529,11.1268,25.8218C11.1232,26.2442,11.3708,26.6541,11.788,26.8419C12.2668,27.0591,12.7962,26.9048,13.0978,26.5198C13.172,26.5568,13.2478,26.5942,13.321,26.6332C13.2781,26.8129,13.2639,26.9972,13.3129,27.1739C13.3902,27.444,13.57,27.6882,13.8342,27.841C14.2742,28.0961,14.799,28.0082,15.141,27.6822C15.244,27.7461,15.3501,27.811,15.4521,27.8769C15.2571,28.3358,15.3829,28.885,15.8138,29.1961C16.2538,29.5141,16.8291,29.4502,17.1998,29.1002C17.2822,29.1631,17.364,29.227,17.4458,29.2899C17.1549,29.7348,17.217,30.338,17.6388,30.7059C18.0692,31.0829,18.6879,31.06,19.092,30.694C19.2638,30.8662,19.4279,31.046,19.5951,31.2212C19.2441,31.6342,19.2592,32.2638,19.6628,32.6782C20.0371,33.0611,20.6008,33.1061,21.0221,32.842C21.1499,33.0012,21.2741,33.164,21.3989,33.3258C21.2549,33.492,21.1539,33.6848,21.1322,33.9C21.1069,34.1771,21.1852,34.4682,21.3742,34.7088C21.6878,35.1068,22.2041,35.2231,22.638,35.0489C22.7188,35.1742,22.7951,35.301,22.8749,35.4258C22.8102,35.4828,22.7339,35.5372,22.6859,35.6081C22.4541,35.9561,22.4359,36.4339,22.6809,36.8209C22.7642,36.9502,22.8678,37.057,22.985,37.1389C23.2709,37.3441,23.6341,37.3931,23.9639,37.2802C24.0169,37.3801,24.0639,37.483,24.1159,37.5848C24.0599,37.6283,23.9922,37.6632,23.9482,37.7181C23.679,38.0382,23.6139,38.513,23.8179,38.9249C24.0488,39.3878,24.5468,39.603,25.0161,39.5071C25.059,39.605,25.1009,39.7008,25.1398,39.7992C25.0802,39.8382,25.012,39.8631,24.961,39.912C24.66,40.2051,24.5458,40.672,24.7079,41.0999C24.8928,41.5922,25.3772,41.8558,25.8632,41.7969C25.8869,41.8768,25.9142,41.9552,25.9409,42.0351C25.7798,42.1309,25.6399,42.2518,25.551,42.412C25.4131,42.6562,25.3702,42.9568,25.4479,43.2519C25.5808,43.7442,26.0122,44.0532,26.4819,44.0632C26.5112,44.1821,26.538,44.3009,26.5648,44.4222C26.1021,44.608,25.802,45.0858,25.8879,45.6111C25.9738,46.1458,26.4248,46.5058,26.935,46.5218C26.9502,46.6251,26.9628,46.727,26.9749,46.8298C26.4552,46.9392,26.0738,47.41,26.1132,47.9668C26.1511,48.5429,26.6128,48.9718,27.1669,48.9898C27.1669,49.3318,27.1578,49.595,27.1628,49.932L48.2551,49.932C48.2491,49.1431,48.1708,48.4241,48.1288,47.6352L48.3632,47.6202C48.6602,47.5998,48.9229,47.459,49.1052,47.2458C49.2871,47.0331,49.3932,46.748,49.3719,46.4409C49.331,45.8322,48.8148,45.3669,48.2183,45.4058L47.9571,45.4238C47.8808,44.6739,47.7869,43.9259,47.6778,43.178L48.0061,43.125C48.5931,43.0292,48.9911,42.461,48.8951,41.8548C48.7951,41.2522,48.238,40.8372,47.65,40.9351L47.303,40.992C47.155,40.2321,46.9898,39.4742,46.8059,38.7212L47.2171,38.6119C47.7929,38.4601,48.1309,37.8559,47.9748,37.2618C47.8172,36.6721,47.2232,36.3151,46.6478,36.4679L46.2301,36.5792C46.02,35.8642,45.7932,35.1522,45.5502,34.4452L45.9088,34.3099C46.464,34.1032,46.7383,33.4681,46.521,32.8919C46.3079,32.3222,45.682,32.0251,45.1279,32.2338L44.7779,32.3661C44.49,31.6361,44.1839,30.9132,43.8611,30.1942L44.2202,30.0139C44.7491,29.7518,44.9572,29.0942,44.6839,28.543C44.4122,27.9958,43.7601,27.7641,43.2322,28.0292L42.8998,28.195C42.5331,27.476,42.1462,26.763,41.7441,26.058L42.0598,25.8573C42.5589,25.5432,42.6968,24.8651,42.37,24.3469C42.0442,23.8311,41.3708,23.6668,40.8728,23.9839L40.596,24.1621C40.1439,23.4531,39.6741,22.7521,39.1832,22.0641L39.5191,21.7979C39.9792,21.431,40.0439,20.7469,39.6651,20.2651C39.2872,19.7868,38.6038,19.6909,38.1441,20.0569L37.8542,20.2871C37.3001,19.5781,36.7248,18.883,36.1272,18.199L36.3772,17.9548C36.795,17.5479,36.7869,16.8589,36.3611,16.417C35.9352,15.9791,35.2468,15.9561,34.828,16.3651L34.678,16.5109C34.1219,15.9621,33.5511,15.4249,32.9672,14.9041L33.1222,14.7279C33.3182,14.5022,33.4031,14.2171,33.3829,13.937C33.3622,13.6579,33.2329,13.3822,33.002,13.179C32.5429,12.7771,31.8478,12.814,31.4548,13.2629L31.2831,13.4621C30.6992,12.9828,30.1031,12.5209,29.497,12.0711L29.691,11.8C30.041,11.3181,29.9188,10.6341,29.4212,10.2751C28.9252,9.9201,28.2372,10.021,27.8922,10.5048L27.6841,10.7899C27.0431,10.356,26.392,9.9381,25.7278,9.5341L25.942,9.1671C26.24,8.6509,26.0521,7.9848,25.5232,7.6772C24.9938,7.3702,24.322,7.5379,24.025,8.0522L23.8058,8.4272C23.1522,8.0692,22.4879,7.7272,21.8161,7.3991L21.9732,7.0491C22.2202,6.5099,21.9651,5.8648,21.406,5.6111C20.8488,5.36,20.1982,5.5912,19.9548,6.1319L19.8068,6.4699C19.087,6.1569,18.3591,5.8628,17.6221,5.5862L17.7499,5.2052C17.9378,4.644,17.6191,4.0318,17.0382,3.8361C16.4598,3.6429,15.835,3.94,15.6481,4.5002L15.5299,4.8532C14.7601,4.603,13.9848,4.3709,13.2018,4.1602L13.2831,3.7932C13.414,3.217,13.0321,2.6408,12.434,2.508C11.838,2.3732,11.248,2.7332,11.1192,3.3069L11.048,3.6299C10.2282,3.4472,9.3998,3.2849,8.5638,3.1451L8.6158,2.7202C8.681,2.137,8.2441,1.6052,7.6349,1.5319C7.0298,1.462,6.4782,1.8779,6.413,2.461L6.3691,2.828C5.477,2.7192,4.5779,2.6328,3.6712,2.5739L3.6747,2.2239C3.6849,1.6402,3.1929,1.1579,2.5791,1.1479C1.97,1.1399,1.4472,1.6132,1.4421,2.1969L1.4361,2.3882C1.088,2.3802,0.0182,2.3602,0.0,2.3602L0.0020,23.4501C0.247,23.4581,0.5228,23.4701,0.7198,23.4761M19.1082,30.683C19.1112,30.687,19.1168,30.691,19.1218,30.697L19.1112,30.707C19.1329,30.7269,19.1158,30.7109,19.094,30.691C19.0991,30.688,19.1041,30.687,19.1082,30.683Z"/>
</svg>