<svg version="1.2" baseProfile="tiny" id="EdgeSVG_uYkp4" x="0px" y="0px" width="50.512px" height="49.93px" viewBox="0 0 50.512 49.93" xmlns:xlink="http://www.w3.org/1999/xlink" xmlns="http://www.w3.org/2000/svg">
  <linearGradient id="SVGID_1_" gradientUnits="userSpaceOnUse" x1="0" y1="24.9648" x2="50.5117" y2="24.9648">
    <stop offset="0.2025" style="stop-color:#000000;stop-opacity:0.5"/>
    <stop offset="0.7783" style="stop-color:#000000;stop-opacity:0.5"/>
  </linearGradient>
  <path fill="url(#SVGID_1_)" d="M1.827,25.607c0.486,0,0.94-0.152,1.311-0.418c0.363,0.374,0.846,0.611,1.371,0.672&#xD;&#xA;&#x9;&#x9;c0.09,0.01,0.179,0.016,0.267,0.016c0.37,0,0.726-0.091,1.042-0.257c0.313,0.372,0.747,0.644,1.247,0.755&#xD;&#xA;&#x9;&#x9;c0.164,0.037,0.333,0.055,0.5,0.055c0.13,0,0.256-0.01,0.38-0.031c0.094-0.016,0.186-0.038,0.274-0.065&#xD;&#xA;&#x9;&#x9;c0.265,0.313,0.616,0.557,1.023,0.692c0.231,0.077,0.471,0.116,0.713,0.116c0.138,0,0.271-0.012,0.403-0.035&#xD;&#xA;&#x9;&#x9;c0.229,0.334,0.55,0.609,0.939,0.784c0.295,0.133,0.607,0.203,0.926,0.203c0.078,0,0.153-0.005,0.23-0.013&#xD;&#xA;&#x9;&#x9;c0.195,0.31,0.465,0.568,0.789,0.757c0.337,0.195,0.72,0.301,1.107,0.303c0.151,0.386,0.416,0.732,0.775,0.99&#xD;&#xA;&#x9;&#x9;c0.32,0.23,0.688,0.371,1.076,0.41c0.117,0.389,0.339,0.748,0.662,1.029c0.371,0.326,0.838,0.52,1.324,0.555&#xD;&#xA;&#x9;&#x9;c0.048,0.492,0.262,0.973,0.637,1.357c0.315,0.323,0.711,0.539,1.141,0.629c0.021,0.475,0.19,0.932,0.492,1.311&#xD;&#xA;&#x9;&#x9;c0.237,0.304,0.542,0.534,0.885,0.679c-0.023,0.461,0.094,0.93,0.354,1.336c0.162,0.253,0.366,0.469,0.605,0.638&#xD;&#xA;&#x9;&#x9;c0.075,0.055,0.156,0.105,0.239,0.15c-0.034,0.407,0.042,0.828,0.234,1.213c0.175,0.348,0.427,0.635,0.731,0.845&#xD;&#xA;&#x9;&#x9;c-0.072,0.399-0.039,0.821,0.11,1.218c0.146,0.387,0.383,0.711,0.685,0.955c-0.081,0.355-0.074,0.729,0.023,1.094&#xD;&#xA;&#x9;&#x9;c0.104,0.387,0.302,0.727,0.566,0.996c-0.164,0.381-0.221,0.811-0.15,1.246c0.063,0.395,0.229,0.754,0.471,1.051&#xD;&#xA;&#x9;&#x9;c-0.191,0.357-0.289,0.771-0.259,1.197c0.049,0.764,0.491,1.42,1.104,1.787c0.002,0.064,0,0.102,0,0.102h23.312&#xD;&#xA;&#x9;&#x9;c-0.003-0.49-0.042-0.919-0.063-1.411c0.248-0.129,0.469-0.306,0.656-0.523c0.391-0.451,0.584-1.032,0.544-1.633&#xD;&#xA;&#x9;&#x9;c-0.063-0.934-0.687-1.707-1.522-1.992c-0.016-0.129-0.031-0.256-0.048-0.385c0.775-0.455,1.234-1.365,1.08-2.319&#xD;&#xA;&#x9;&#x9;c-0.158-0.958-0.885-1.688-1.796-1.858c-0.025-0.123-0.052-0.246-0.08-0.371c0.296-0.192,0.541-0.455,0.72-0.773&#xD;&#xA;&#x9;&#x9;c0.29-0.516,0.366-1.119,0.212-1.701c-0.255-0.951-1.087-1.626-2.047-1.679c-0.028-0.091-0.058-0.181-0.087-0.271&#xD;&#xA;&#x9;&#x9;c0.249-0.209,0.451-0.475,0.592-0.781c0.251-0.552,0.271-1.172,0.057-1.746c-0.33-0.879-1.176-1.471-2.104-1.471&#xD;&#xA;&#x9;&#x9;c-0.008,0-0.016,0-0.023,0c-0.054-0.129-0.108-0.258-0.163-0.387c0.236-0.236,0.416-0.527,0.528-0.855&#xD;&#xA;&#x9;&#x9;c0.192-0.574,0.15-1.193-0.123-1.742c-0.381-0.768-1.172-1.263-2.018-1.263c-0.081,0-0.159,0.005-0.237,0.013&#xD;&#xA;&#x9;&#x9;c-0.079-0.147-0.158-0.293-0.239-0.44c0.213-0.268,0.361-0.586,0.433-0.934c0.117-0.578,0.008-1.173-0.311-1.676&#xD;&#xA;&#x9;&#x9;c-0.419-0.662-1.135-1.059-1.914-1.059c-0.136,0-0.271,0.012-0.403,0.037c-0.113-0.169-0.225-0.336-0.339-0.502&#xD;&#xA;&#x9;&#x9;c0.526-0.784,0.506-1.863-0.119-2.656c-0.436-0.552-1.085-0.869-1.781-0.869c-0.225,0-0.446,0.035-0.657,0.102&#xD;&#xA;&#x9;&#x9;c-0.17-0.208-0.341-0.413-0.51-0.616c0.395-0.82,0.252-1.848-0.433-2.553c-0.427-0.439-1.021-0.693-1.63-0.693&#xD;&#xA;&#x9;&#x9;c-0.255,0-0.503,0.043-0.734,0.124c-0.128-0.12-0.256-0.241-0.386-0.36c0.084-0.268,0.116-0.55,0.094-0.838&#xD;&#xA;&#x9;&#x9;c-0.047-0.594-0.317-1.139-0.771-1.537c-0.414-0.362-0.945-0.563-1.495-0.563c-0.347,0-0.685,0.082-0.989,0.23&#xD;&#xA;&#x9;&#x9;c-0.102-0.08-0.203-0.159-0.305-0.238c0.227-0.87-0.094-1.836-0.878-2.403c-0.391-0.279-0.849-0.428-1.325-0.428&#xD;&#xA;&#x9;&#x9;c-0.456,0-0.891,0.138-1.256,0.385c-0.107-0.07-0.216-0.14-0.322-0.208c0.189-0.917-0.223-1.903-1.09-2.409&#xD;&#xA;&#x9;&#x9;c-0.348-0.2-0.742-0.305-1.142-0.305c-0.561,0-1.092,0.209-1.493,0.568c-0.084-0.045-0.169-0.088-0.252-0.131&#xD;&#xA;&#x9;&#x9;c0.028-0.338-0.021-0.683-0.151-1.01c-0.216-0.551-0.636-0.99-1.18-1.236c-0.299-0.136-0.617-0.205-0.942-0.205&#xD;&#xA;&#x9;&#x9;c-0.614,0-1.188,0.25-1.6,0.668c-0.13-0.053-0.26-0.105-0.39-0.158c-0.003-0.93-0.604-1.806-1.553-2.125&#xD;&#xA;&#x9;&#x9;c-0.234-0.078-0.479-0.118-0.724-0.118c-0.701,0-1.34,0.317-1.753,0.831c-0.159-0.047-0.32-0.095-0.479-0.142&#xD;&#xA;&#x9;&#x9;c-0.037-0.325-0.148-0.641-0.328-0.926c-0.326-0.514-0.834-0.869-1.43-1.004c-0.166-0.037-0.335-0.056-0.505-0.056&#xD;&#xA;&#x9;&#x9;c-0.755,0-1.446,0.382-1.854,0.974c-0.2-0.041-0.398-0.08-0.596-0.117C9.531,1.261,8.755,0.511,7.752,0.392&#xD;&#xA;&#x9;&#x9;c-0.089-0.01-0.18-0.016-0.269-0.016c-0.867,0-1.627,0.482-2,1.199C5.218,1.548,4.953,1.523,4.689,1.5&#xD;&#xA;&#x9;&#x9;C4.58,1.185,4.398,0.896,4.149,0.651C3.731,0.24,3.173,0.008,2.546,0C1.635,0,0.844,0.539,0.489,1.305&#xD;&#xA;&#x9;&#x9;c-0.031,0-0.262,0.004-0.262,0.004S0.083,1.306,0,1.306V24.62c0.01-0.001,0.042,0.001,0.042,0.001&#xD;&#xA;&#x9;&#x9;c0.031,0.066,0.085,0.206,0.213,0.354C0.657,25.362,1.21,25.601,1.827,25.607z"/>
</svg>