<svg version="1.2" baseProfile="tiny" id="EdgeSVG_n30lJ" x="0px" y="0px" width="48.84px" height="25.529px" viewBox="0 0 48.84 25.529" xmlns:xlink="http://www.w3.org/1999/xlink" xmlns="http://www.w3.org/2000/svg">
  <linearGradient id="SVGID_1_" gradientUnits="userSpaceOnUse" x1="0" y1="12.7646" x2="48.8403" y2="12.7646">
    <stop offset="0.2025" style="stop-color:#000000;stop-opacity:0.5"/>
    <stop offset="0.7783" style="stop-color:#000000;stop-opacity:0.5"/>
  </linearGradient>
  <path fill="url(#SVGID_1_)" d="M46.621,25.529c-0.82,0-1.538-0.445-1.922-1.109h-0.598c-0.383,0.664-1.1,1.109-1.922,1.109&#xD;&#xA;&#x9;&#x9;c-0.82,0-1.537-0.445-1.922-1.109h-0.595c-0.384,0.664-1.102,1.109-1.922,1.109c-0.821,0-1.538-0.445-1.922-1.109h-0.597&#xD;&#xA;&#x9;&#x9;c-0.384,0.664-1.102,1.109-1.922,1.109s-1.538-0.445-1.922-1.109h-0.596c-0.385,0.664-1.102,1.109-1.922,1.109&#xD;&#xA;&#x9;&#x9;c-0.822,0-1.539-0.445-1.922-1.109h-0.597c-0.384,0.664-1.102,1.109-1.922,1.109s-1.539-0.445-1.922-1.109h-0.597&#xD;&#xA;&#x9;&#x9;c-0.383,0.664-1.102,1.109-1.922,1.109c-0.819,0-1.537-0.445-1.922-1.109h-0.595c-0.385,0.664-1.102,1.109-1.922,1.109&#xD;&#xA;&#x9;&#x9;s-1.538-0.445-1.922-1.109h-0.597c-0.384,0.664-1.102,1.109-1.922,1.109c-0.82,0-1.538-0.445-1.922-1.109H8.583&#xD;&#xA;&#x9;&#x9;c-0.385,0.664-1.103,1.109-1.922,1.109c-0.82,0-1.538-0.445-1.922-1.109H4.142c-0.384,0.664-1.102,1.109-1.922,1.109&#xD;&#xA;&#x9;&#x9;s-1.538-0.445-1.922-1.109H0V1.109h0.298C0.683,0.448,1.4,0,2.22,0s1.538,0.448,1.922,1.109h0.597C5.123,0.448,5.84,0,6.661,0&#xD;&#xA;&#x9;&#x9;c0.819,0,1.537,0.448,1.922,1.109h0.596C9.563,0.448,10.28,0,11.1,0c0.82,0,1.538,0.448,1.922,1.109h0.597&#xD;&#xA;&#x9;&#x9;C14.002,0.448,14.72,0,15.541,0s1.537,0.448,1.922,1.109h0.595C18.443,0.448,19.161,0,19.979,0c0.82,0,1.539,0.448,1.922,1.109&#xD;&#xA;&#x9;&#x9;h0.597C22.882,0.448,23.6,0,24.42,0s1.538,0.448,1.922,1.109h0.597C27.322,0.448,28.039,0,28.861,0c0.82,0,1.537,0.448,1.922,1.109&#xD;&#xA;&#x9;&#x9;h0.596C31.762,0.448,32.48,0,33.3,0s1.538,0.448,1.922,1.109h0.597C36.203,0.448,36.919,0,37.741,0c0.82,0,1.538,0.448,1.922,1.109&#xD;&#xA;&#x9;&#x9;h0.595C40.642,0.448,41.359,0,42.179,0c0.822,0,1.539,0.448,1.922,1.109h0.598C45.083,0.448,45.8,0,46.621,0&#xD;&#xA;&#x9;&#x9;s1.538,0.448,1.922,1.109h0.298V24.42h-0.298C48.159,25.084,47.441,25.529,46.621,25.529z"/>
</svg>