<svg version="1.2" baseProfile="tiny" id="EdgeSVG_GQz22" x="0px" y="0px" width="25.896px" height="49.326px" viewBox="0 0 25.896 49.326" xmlns:xlink="http://www.w3.org/1999/xlink" xmlns="http://www.w3.org/2000/svg">
  <g>
    <linearGradient id="SVGID_2_" gradientUnits="userSpaceOnUse" x1="12.937" y1="1.1113" x2="12.937" y2="14.6709">
      <stop offset="0" style="stop-color:#FFFFFF;stop-opacity:0.25"/>
      <stop offset="1" style="stop-color:#FFFFFF;stop-opacity:0.05"/>
    </linearGradient>
    <path fill="url(#SVGID_2_)" d="M24.663,12.837c0,0.59-0.045,1.168-0.155,1.745c-0.123-0.489-0.278-0.967-0.478-1.423&#xD;&#xA;&#x9;&#x9;&#x9;C24.018,7.058,19.039,2.09,12.938,2.09c-6.113,0-11.092,4.979-11.092,11.092v0.056c-0.2,0.456-0.355,0.934-0.479,1.434&#xD;&#xA;&#x9;&#x9;&#x9;c-0.11-0.601-0.155-1.211-0.155-1.834c0-6.457,5.257-11.726,11.726-11.726S24.663,6.38,24.663,12.837z"/>
  </g>
  <g>
    <linearGradient id="SVGID_3_" gradientUnits="userSpaceOnUse" x1="12.938" y1="2.0898" x2="12.938" y2="13.2373">
      <stop offset="0" style="stop-color:#FFFFFF;stop-opacity:0.1"/>
      <stop offset="1" style="stop-color:#FFFFFF;stop-opacity:0"/>
    </linearGradient>
    <path fill="url(#SVGID_3_)" d="M24.03,13.159c-0.278-0.655-0.634-1.277-1.057-1.867c-0.744-4.868-4.957-8.613-10.036-8.613&#xD;&#xA;&#x9;&#x9;&#x9;c-5.091,0-9.313,3.757-10.036,8.647v0.011c0,0,0,0.011-0.012,0.011c-0.422,0.589-0.767,1.223-1.044,1.89v-0.056&#xD;&#xA;&#x9;&#x9;&#x9;c0-6.112,4.979-11.092,11.092-11.092C19.039,2.09,24.018,7.058,24.03,13.159z"/>
  </g>
  <g>
    <linearGradient id="SVGID_4_" gradientUnits="userSpaceOnUse" x1="12.9478" y1="13.7373" x2="12.9478" y2="21.8066">
      <stop offset="0" style="stop-color:#FFFFFF;stop-opacity:0.25"/>
      <stop offset="1" style="stop-color:#FFFFFF;stop-opacity:0.05"/>
    </linearGradient>
    <path fill="url(#SVGID_4_)" d="M24.785,19.905c0,0.534-0.244,1.046-0.723,1.513c-0.121,0.133-0.3,0.211-0.478,0.233&#xD;&#xA;&#x9;&#x9;&#x9;c0.4-0.412,0.59-0.846,0.59-1.313c0-0.444-0.09-0.878-0.278-1.3c-0.256-0.623-0.7-1.2-1.3-1.734&#xD;&#xA;&#x9;&#x9;&#x9;c-1.945-1.689-5.502-2.812-9.648-2.812c-4.146,0-7.702,1.122-9.646,2.812c-0.601,0.534-1.045,1.111-1.301,1.724&#xD;&#xA;&#x9;&#x9;&#x9;c-0.178,0.422-0.277,0.866-0.277,1.311c0,0.523,0.199,1.001,0.589,1.468c-0.189-0.022-0.378-0.123-0.512-0.267&#xD;&#xA;&#x9;&#x9;&#x9;c-0.456-0.512-0.689-1.057-0.689-1.635c0-0.478,0.101-0.944,0.29-1.389c0.277-0.645,0.744-1.256,1.378-1.812&#xD;&#xA;&#x9;&#x9;&#x9;c2.045-1.789,5.802-2.968,10.169-2.968c4.369,0,8.125,1.179,10.17,2.968c0.634,0.556,1.101,1.167,1.379,1.822&#xD;&#xA;&#x9;&#x9;&#x9;C24.686,18.973,24.785,19.428,24.785,19.905z"/>
  </g>
  <g>
    <linearGradient id="SVGID_5_" gradientUnits="userSpaceOnUse" x1="12.9478" y1="21.0732" x2="12.9478" y2="25.207">
      <stop offset="0" style="stop-color:#FFFFFF;stop-opacity:0.25"/>
      <stop offset="1" style="stop-color:#FFFFFF;stop-opacity:0.05"/>
    </linearGradient>
    <path fill="url(#SVGID_5_)" d="M24.785,24.352c0,0.389-0.256,0.711-0.61,0.8c0.011-0.066,0.021-0.133,0.021-0.211&#xD;&#xA;&#x9;&#x9;&#x9;c0-3.012-10.103-3.112-11.248-3.112c-1.155,0-11.247,0.101-11.247,3.112c0,0.089,0.011,0.179,0.044,0.267&#xD;&#xA;&#x9;&#x9;&#x9;c-0.366-0.088-0.634-0.455-0.634-0.855c0-3.179,10.626-3.278,11.837-3.278S24.785,21.173,24.785,24.352z"/>
  </g>
  <radialGradient id="SVGID_6_" cx="13.1406" cy="13.1855" r="10.3897" gradientUnits="userSpaceOnUse">
    <stop offset="0" style="stop-color:#FFFFFF;stop-opacity:0.5"/>
    <stop offset="0.3025" style="stop-color:#ACACAC;stop-opacity:0.5"/>
    <stop offset="0.9" style="stop-color:#000000;stop-opacity:0.5"/>
    <stop offset="1" style="stop-color:#000000;stop-opacity:0.5"/>
  </radialGradient>
  <path fill="url(#SVGID_6_)" d="M2.901,11.337v-0.011c2.078-2.957,5.813-4.924,10.047-4.924c4.224,0,7.937,1.956,10.025,4.89&#xD;&#xA;&#x9;&#x9;c0.187,0.263,0.359,0.534,0.521,0.811C22.943,6.8,18.462,2.667,13.016,2.667c-5.355,0-9.767,3.997-10.438,9.169&#xD;&#xA;&#x9;&#x9;c0.103-0.164,0.201-0.33,0.313-0.489C2.901,11.348,2.901,11.337,2.901,11.337z"/>
  <radialGradient id="SVGID_7_" cx="13.1406" cy="13.1855" r="10.3897" gradientUnits="userSpaceOnUse">
    <stop offset="0" style="stop-color:#FFFFFF;stop-opacity:0.5"/>
    <stop offset="0.3025" style="stop-color:#ACACAC;stop-opacity:0.5"/>
    <stop offset="0.9" style="stop-color:#000000;stop-opacity:0.5"/>
    <stop offset="1" style="stop-color:#000000;stop-opacity:0.5"/>
  </radialGradient>
  <path fill="url(#SVGID_7_)" d="M20.018,10.537c-0.045-0.034-0.089-0.067-0.134-0.101c-0.134-0.111-0.267-0.223-0.411-0.312&#xD;&#xA;&#x9;&#x9;c-0.066-0.066-0.145-0.122-0.233-0.166c-0.145-0.089-0.278-0.179-0.422-0.268c-0.134-0.1-0.278-0.177-0.423-0.244&#xD;&#xA;&#x9;&#x9;c-0.288-0.178-0.589-0.322-0.9-0.444c-0.155-0.078-0.311-0.145-0.467-0.189c-0.311-0.133-0.622-0.233-0.955-0.322h-0.034&#xD;&#xA;&#x9;&#x9;c-0.277-0.089-0.556-0.155-0.844-0.199c-0.212-0.045-0.435-0.078-0.668-0.111c-0.211-0.033-0.433-0.056-0.655-0.078h-0.078&#xD;&#xA;&#x9;&#x9;c-0.278-0.022-0.545-0.033-0.822-0.033h-0.044c-0.3,0-0.59,0.011-0.878,0.033c-0.245,0.022-0.49,0.045-0.724,0.078&#xD;&#xA;&#x9;&#x9;c-0.065,0.011-0.122,0.011-0.177,0.021c-0.289,0.045-0.567,0.101-0.834,0.167c-0.011,0-0.011,0-0.022,0&#xD;&#xA;&#x9;&#x9;c-0.277,0.066-0.545,0.134-0.811,0.223C9.414,8.603,9.358,8.625,9.303,8.647c-0.211,0.066-0.411,0.144-0.61,0.222&#xD;&#xA;&#x9;&#x9;c-0.523,0.212-1.023,0.456-1.49,0.733c-1.528,0.891-2.768,2.138-3.614,3.602h18.69c-0.47-0.817-1.06-1.568-1.761-2.223&#xD;&#xA;&#x9;&#x9;C20.361,10.825,20.195,10.681,20.018,10.537z"/>
  <linearGradient id="SVGID_8_" gradientUnits="userSpaceOnUse" x1="12.9478" y1="6.4023" x2="12.9478" y2="28.0167">
    <stop offset="0" style="stop-color:#FFFFFF;stop-opacity:0.25"/>
    <stop offset="1" style="stop-color:#FFFFFF;stop-opacity:0.05"/>
  </linearGradient>
  <path fill="url(#SVGID_8_)" d="M24.508,14.582c-0.213-0.877-0.562-1.704-1.013-2.479c-0.162-0.276-0.335-0.547-0.521-0.811&#xD;&#xA;&#x9;&#x9;c-2.089-2.934-5.802-4.89-10.025-4.89c-4.234,0-7.969,1.967-10.047,4.924v0.011c0,0,0,0.011-0.012,0.011&#xD;&#xA;&#x9;&#x9;c-0.112,0.159-0.21,0.325-0.313,0.489c-0.548,0.879-0.966,1.823-1.21,2.834c-0.166,0.689-0.256,1.411-0.256,2.146&#xD;&#xA;&#x9;&#x9;c0,0.545,0.101,1.111,0.29,1.7c0.144-0.322,0.333-0.645,0.566-0.944c-0.022-0.178-0.033-0.345-0.033-0.512&#xD;&#xA;&#x9;&#x9;c0-0.678,0.089-1.355,0.244-2.001c0.155-0.647,0.394-1.264,0.688-1.855c0.212-0.425,0.449-0.839,0.723-1.233&#xD;&#xA;&#x9;&#x9;c0.012,0,0.012-0.012,0.012-0.012c0.967-1.378,2.322-2.522,3.923-3.334c1.601-0.8,3.457-1.256,5.424-1.256&#xD;&#xA;&#x9;&#x9;c3.924,0,7.381,1.822,9.325,4.557c0.294,0.406,0.546,0.834,0.768,1.278c0.282,0.565,0.511,1.156,0.667,1.778&#xD;&#xA;&#x9;&#x9;c0.155,0.678,0.255,1.367,0.255,2.078c0,0.178-0.011,0.345-0.034,0.522c0.233,0.3,0.423,0.622,0.568,0.944&#xD;&#xA;&#x9;&#x9;c0.199-0.577,0.288-1.155,0.288-1.711C24.785,16.049,24.686,15.305,24.508,14.582z"/>
  <linearGradient id="SVGID_9_" gradientUnits="userSpaceOnUse" x1="12.9487" y1="7.3691" x2="12.9487" y2="25.2481">
    <stop offset="0" style="stop-color:#FFFFFF;stop-opacity:0.1"/>
    <stop offset="1" style="stop-color:#FFFFFF;stop-opacity:0"/>
  </linearGradient>
  <path fill="url(#SVGID_9_)" d="M23.708,14.982c-0.156-0.623-0.385-1.213-0.667-1.778c-0.222-0.444-0.474-0.872-0.768-1.278&#xD;&#xA;&#x9;&#x9;c-1.944-2.734-5.401-4.557-9.325-4.557c-1.967,0-3.823,0.456-5.424,1.256c-1.601,0.812-2.956,1.956-3.923,3.334&#xD;&#xA;&#x9;&#x9;c0,0,0,0.012-0.012,0.012c-0.274,0.395-0.511,0.809-0.723,1.233c-0.295,0.592-0.533,1.208-0.688,1.855&#xD;&#xA;&#x9;&#x9;c-0.155,0.646-0.244,1.323-0.244,2.001c0,0.167,0.011,0.334,0.033,0.512c0.133-0.178,0.277-0.345,0.434-0.512&#xD;&#xA;&#x9;&#x9;c0.083-1.39,0.513-2.69,1.187-3.856c0.846-1.463,2.086-2.71,3.614-3.602c0.467-0.277,0.967-0.521,1.49-0.733&#xD;&#xA;&#x9;&#x9;c0.199-0.078,0.399-0.155,0.61-0.222c0.056-0.022,0.111-0.045,0.179-0.056c0.266-0.089,0.533-0.156,0.811-0.223&#xD;&#xA;&#x9;&#x9;c0.012,0,0.012,0,0.022,0c0.267-0.066,0.545-0.122,0.834-0.167c0.055-0.011,0.111-0.011,0.177-0.021&#xD;&#xA;&#x9;&#x9;c0.233-0.033,0.479-0.056,0.724-0.078c0.288-0.022,0.578-0.033,0.878-0.033h0.044c0.277,0,0.544,0.011,0.822,0.033h0.078&#xD;&#xA;&#x9;&#x9;c0.223,0.022,0.444,0.045,0.655,0.078c0.233,0.033,0.456,0.066,0.668,0.111c0.288,0.044,0.566,0.11,0.844,0.199h0.034&#xD;&#xA;&#x9;&#x9;c0.333,0.089,0.645,0.189,0.955,0.322c0.156,0.045,0.312,0.111,0.467,0.189c0.312,0.122,0.612,0.267,0.9,0.444&#xD;&#xA;&#x9;&#x9;c0.145,0.067,0.289,0.145,0.423,0.244c0.144,0.089,0.277,0.179,0.422,0.268c0.089,0.044,0.167,0.1,0.233,0.166&#xD;&#xA;&#x9;&#x9;c0.145,0.089,0.277,0.2,0.411,0.312c0.045,0.033,0.089,0.066,0.134,0.101c0.178,0.144,0.344,0.288,0.5,0.444&#xD;&#xA;&#x9;&#x9;c0.701,0.655,1.291,1.406,1.761,2.223c0.662,1.152,1.077,2.44,1.162,3.813c0.178,0.177,0.345,0.366,0.488,0.566&#xD;&#xA;&#x9;&#x9;c0.023-0.178,0.034-0.345,0.034-0.522C23.963,16.35,23.863,15.66,23.708,14.982z"/>
  <linearGradient id="SVGID_10_" gradientUnits="userSpaceOnUse" x1="12.9487" y1="14.4932" x2="12.9487" y2="21.8174">
    <stop offset="0" style="stop-color:#FFFFFF;stop-opacity:0.1"/>
    <stop offset="1" style="stop-color:#FFFFFF;stop-opacity:0"/>
  </linearGradient>
  <path fill="url(#SVGID_10_)" d="M23.585,21.651c0.4-0.412,0.59-0.846,0.59-1.313c0-0.444-0.09-0.878-0.278-1.3&#xD;&#xA;&#x9;&#x9;c-0.256-0.623-0.7-1.2-1.3-1.734c-1.945-1.689-5.502-2.812-9.648-2.812c-4.146,0-7.702,1.122-9.646,2.812&#xD;&#xA;&#x9;&#x9;c-0.601,0.534-1.045,1.111-1.301,1.724c-0.178,0.422-0.277,0.866-0.277,1.311c0,0.523,0.199,1.001,0.589,1.468&#xD;&#xA;&#x9;&#x9;c0.021,0.011,0.056,0.011,0.077,0.011v-1.233c0-0.056,0-0.101,0.012-0.155c0.066-1.145,0.866-2.179,2.189-3.013&#xD;&#xA;&#x9;&#x9;c0.145-0.089,0.3-0.188,0.467-0.277s0.333-0.178,0.522-0.268c0.688-0.333,1.467-0.61,2.323-0.844&#xD;&#xA;&#x9;&#x9;c0.288-0.078,0.589-0.156,0.899-0.223c0.522-0.1,1.067-0.189,1.634-0.256c0.2-0.022,0.411-0.044,0.623-0.066&#xD;&#xA;&#x9;&#x9;c0.1-0.011,0.211-0.011,0.322-0.022c0.222-0.022,0.444-0.033,0.678-0.033c0.289-0.011,0.578-0.022,0.867-0.022&#xD;&#xA;&#x9;&#x9;c0.311,0,0.611,0.012,0.91,0.022c0.179,0,0.356,0.011,0.534,0.022c0.189,0.011,0.378,0.033,0.566,0.044&#xD;&#xA;&#x9;&#x9;c0.089,0.012,0.167,0.022,0.244,0.033c0.301,0.022,0.59,0.067,0.879,0.111c0.334,0.045,0.656,0.1,0.967,0.167&#xD;&#xA;&#x9;&#x9;c0.022,0.012,0.044,0.012,0.067,0.012c0.622,0.133,1.188,0.288,1.723,0.466c0.288,0.09,0.566,0.189,0.822,0.301&#xD;&#xA;&#x9;&#x9;c0.255,0.1,0.511,0.211,0.744,0.333c0.501,0.245,0.955,0.522,1.345,0.812c0.2,0.155,0.378,0.312,0.533,0.467&#xD;&#xA;&#x9;&#x9;c0.078,0.066,0.156,0.145,0.223,0.233c0.59,0.601,0.945,1.278,0.978,2.001c0.013,0.055,0.013,0.1,0.013,0.155v1.078&#xD;&#xA;&#x9;&#x9;C23.507,21.662,23.552,21.662,23.585,21.651z"/>
  <linearGradient id="SVGID_11_" gradientUnits="userSpaceOnUse" x1="12.9487" y1="21.8281" x2="12.9487" y2="25.2412">
    <stop offset="0" style="stop-color:#FFFFFF;stop-opacity:0.1"/>
    <stop offset="1" style="stop-color:#FFFFFF;stop-opacity:0"/>
  </linearGradient>
  <path fill="url(#SVGID_11_)" d="M12.948,21.828c-1.155,0-11.247,0.101-11.247,3.112c0,0.089,0.011,0.179,0.044,0.267&#xD;&#xA;&#x9;&#x9;c0.056,0.022,0.123,0.034,0.189,0.034c0.166,0,0.322-0.045,0.455-0.134c0.034-0.011-0.011-0.256-0.011-0.345&#xD;&#xA;&#x9;&#x9;c0-0.967,3.557-1.778,8.303-1.967c0.723-0.045,1.478-0.056,2.256-0.056c0.845,0,1.667,0.022,2.445,0.056&#xD;&#xA;&#x9;&#x9;c4.656,0.211,8.113,1.011,8.113,1.967c0,0.078-0.021,0.267,0,0.278c0.134,0.1,0.289,0.144,0.456,0.144&#xD;&#xA;&#x9;&#x9;c0.078,0,0.155-0.011,0.223-0.033c0.011-0.066,0.021-0.133,0.021-0.211C24.196,21.929,14.094,21.828,12.948,21.828z"/>
  <g>
    <linearGradient id="SVGID_12_" gradientUnits="userSpaceOnUse" x1="12.937" y1="45.9917" x2="12.937" y2="48.2144">
      <stop offset="0" style="stop-color:#FFFFFF;stop-opacity:0"/>
      <stop offset="0.092" style="stop-color:#FFFFFF;stop-opacity:0.1"/>
      <stop offset="0.2025" style="stop-color:#FFFFFF;stop-opacity:0.05"/>
      <stop offset="0.5153" style="stop-color:#FFFFFF;stop-opacity:0.25"/>
      <stop offset="0.816" style="stop-color:#FFFFFF;stop-opacity:0.05"/>
      <stop offset="0.8834" style="stop-color:#FFFFFF;stop-opacity:0.1"/>
      <stop offset="1" style="stop-color:#FFFFFF;stop-opacity:0"/>
    </linearGradient>
    <path fill="url(#SVGID_12_)" d="M24.607,47.103c0,0.613-0.497,1.111-1.111,1.111H2.379c-0.614,0-1.111-0.498-1.111-1.111l0,0&#xD;&#xA;&#x9;&#x9;&#x9;c0-0.615,0.497-1.111,1.111-1.111h21.117C24.11,45.992,24.607,46.488,24.607,47.103L24.607,47.103z"/>
    <linearGradient id="SVGID_13_" gradientUnits="userSpaceOnUse" x1="12.937" y1="41.5444" x2="12.937" y2="43.769">
      <stop offset="0" style="stop-color:#FFFFFF;stop-opacity:0"/>
      <stop offset="0.092" style="stop-color:#FFFFFF;stop-opacity:0.1"/>
      <stop offset="0.2025" style="stop-color:#FFFFFF;stop-opacity:0.05"/>
      <stop offset="0.5153" style="stop-color:#FFFFFF;stop-opacity:0.25"/>
      <stop offset="0.816" style="stop-color:#FFFFFF;stop-opacity:0.05"/>
      <stop offset="0.8834" style="stop-color:#FFFFFF;stop-opacity:0.1"/>
      <stop offset="1" style="stop-color:#FFFFFF;stop-opacity:0"/>
    </linearGradient>
    <path fill="url(#SVGID_13_)" d="M24.607,42.656c0,0.615-0.497,1.113-1.111,1.113H2.379c-0.614,0-1.111-0.498-1.111-1.113l0,0&#xD;&#xA;&#x9;&#x9;&#x9;c0-0.613,0.497-1.111,1.111-1.111h21.117C24.11,41.544,24.607,42.042,24.607,42.656L24.607,42.656z"/>
    <linearGradient id="SVGID_14_" gradientUnits="userSpaceOnUse" x1="12.937" y1="37.0991" x2="12.937" y2="39.3218">
      <stop offset="0" style="stop-color:#FFFFFF;stop-opacity:0"/>
      <stop offset="0.092" style="stop-color:#FFFFFF;stop-opacity:0.1"/>
      <stop offset="0.2025" style="stop-color:#FFFFFF;stop-opacity:0.05"/>
      <stop offset="0.5153" style="stop-color:#FFFFFF;stop-opacity:0.25"/>
      <stop offset="0.816" style="stop-color:#FFFFFF;stop-opacity:0.05"/>
      <stop offset="0.8834" style="stop-color:#FFFFFF;stop-opacity:0.1"/>
      <stop offset="1" style="stop-color:#FFFFFF;stop-opacity:0"/>
    </linearGradient>
    <path fill="url(#SVGID_14_)" d="M24.607,38.21c0,0.615-0.497,1.111-1.111,1.111H2.379c-0.614,0-1.111-0.496-1.111-1.111l0,0&#xD;&#xA;&#x9;&#x9;&#x9;c0-0.613,0.497-1.111,1.111-1.111h21.117C24.11,37.099,24.607,37.597,24.607,38.21L24.607,38.21z"/>
    <linearGradient id="SVGID_15_" gradientUnits="userSpaceOnUse" x1="12.937" y1="32.6538" x2="12.937" y2="34.8765">
      <stop offset="0" style="stop-color:#FFFFFF;stop-opacity:0"/>
      <stop offset="0.092" style="stop-color:#FFFFFF;stop-opacity:0.1"/>
      <stop offset="0.2025" style="stop-color:#FFFFFF;stop-opacity:0.05"/>
      <stop offset="0.5153" style="stop-color:#FFFFFF;stop-opacity:0.25"/>
      <stop offset="0.816" style="stop-color:#FFFFFF;stop-opacity:0.05"/>
      <stop offset="0.8834" style="stop-color:#FFFFFF;stop-opacity:0.1"/>
      <stop offset="1" style="stop-color:#FFFFFF;stop-opacity:0"/>
    </linearGradient>
    <path fill="url(#SVGID_15_)" d="M24.607,33.765c0,0.615-0.497,1.111-1.111,1.111H2.379c-0.614,0-1.111-0.496-1.111-1.111l0,0&#xD;&#xA;&#x9;&#x9;&#x9;c0-0.613,0.497-1.111,1.111-1.111h21.117C24.11,32.654,24.607,33.152,24.607,33.765L24.607,33.765z"/>
    <linearGradient id="SVGID_16_" gradientUnits="userSpaceOnUse" x1="12.937" y1="28.2085" x2="12.937" y2="30.4312">
      <stop offset="0" style="stop-color:#FFFFFF;stop-opacity:0"/>
      <stop offset="0.092" style="stop-color:#FFFFFF;stop-opacity:0.1"/>
      <stop offset="0.2025" style="stop-color:#FFFFFF;stop-opacity:0.05"/>
      <stop offset="0.5153" style="stop-color:#FFFFFF;stop-opacity:0.25"/>
      <stop offset="0.816" style="stop-color:#FFFFFF;stop-opacity:0.05"/>
      <stop offset="0.8834" style="stop-color:#FFFFFF;stop-opacity:0.1"/>
      <stop offset="1" style="stop-color:#FFFFFF;stop-opacity:0"/>
    </linearGradient>
    <path fill="url(#SVGID_16_)" d="M24.607,29.32c0,0.613-0.497,1.111-1.111,1.111H2.379c-0.614,0-1.111-0.498-1.111-1.111l0,0&#xD;&#xA;&#x9;&#x9;&#x9;c0-0.615,0.497-1.111,1.111-1.111h21.117C24.11,28.208,24.607,28.705,24.607,29.32L24.607,29.32z"/>
  </g>
  <linearGradient id="SVGID_17_" gradientUnits="userSpaceOnUse" x1="12.937" y1="3.29" x2="12.937" y2="6.8799">
    <stop offset="0" style="stop-color:#FFFFFF;stop-opacity:0.1"/>
    <stop offset="1" style="stop-color:#FFFFFF;stop-opacity:0.05"/>
  </linearGradient>
  <path fill="url(#SVGID_17_)" d="M18.327,5.324c0,0.622-0.722,1.178-1.877,1.544c-1.101-0.3-2.278-0.466-3.502-0.466&#xD;&#xA;&#x9;&#x9;c-1.222,0-2.4,0.166-3.512,0.478c-1.156-0.378-1.89-0.934-1.89-1.556c0-1.123,2.412-2.034,5.391-2.034S18.327,4.201,18.327,5.324z"/>
  <g>
    <linearGradient id="SVGID_18_" gradientUnits="userSpaceOnUse" x1="2.3789" y1="40.4331" x2="23.4961" y2="40.4331">
      <stop offset="0" style="stop-color:#000000;stop-opacity:0.5"/>
      <stop offset="0.05" style="stop-color:#000000;stop-opacity:0.5"/>
      <stop offset="0.5" style="stop-color:#FFFFFF;stop-opacity:0.5"/>
      <stop offset="0.95" style="stop-color:#000000;stop-opacity:0.5"/>
      <stop offset="1" style="stop-color:#000000;stop-opacity:0.5"/>
    </linearGradient>
    <rect x="2.379" y="39.322" fill="url(#SVGID_18_)" width="21.117" height="2.223"/>
    <linearGradient id="SVGID_19_" gradientUnits="userSpaceOnUse" x1="2.3789" y1="31.5425" x2="23.4961" y2="31.5425">
      <stop offset="0" style="stop-color:#000000;stop-opacity:0.5"/>
      <stop offset="0.05" style="stop-color:#000000;stop-opacity:0.5"/>
      <stop offset="0.5" style="stop-color:#FFFFFF;stop-opacity:0.5"/>
      <stop offset="0.95" style="stop-color:#000000;stop-opacity:0.5"/>
      <stop offset="1" style="stop-color:#000000;stop-opacity:0.5"/>
    </linearGradient>
    <rect x="2.379" y="30.431" fill="url(#SVGID_19_)" width="21.117" height="2.223"/>
    <linearGradient id="SVGID_20_" gradientUnits="userSpaceOnUse" x1="2.3789" y1="35.9878" x2="23.4961" y2="35.9878">
      <stop offset="0" style="stop-color:#000000;stop-opacity:0.5"/>
      <stop offset="0.05" style="stop-color:#000000;stop-opacity:0.5"/>
      <stop offset="0.5" style="stop-color:#FFFFFF;stop-opacity:0.5"/>
      <stop offset="0.95" style="stop-color:#000000;stop-opacity:0.5"/>
      <stop offset="1" style="stop-color:#000000;stop-opacity:0.5"/>
    </linearGradient>
    <rect x="2.379" y="34.876" fill="url(#SVGID_20_)" width="21.117" height="2.223"/>
    <linearGradient id="SVGID_21_" gradientUnits="userSpaceOnUse" x1="2.3789" y1="15.147" x2="23.4404" y2="15.147">
      <stop offset="0" style="stop-color:#000000;stop-opacity:0.5"/>
      <stop offset="0.05" style="stop-color:#000000;stop-opacity:0.5"/>
      <stop offset="0.5" style="stop-color:#FFFFFF;stop-opacity:0.5"/>
      <stop offset="0.95" style="stop-color:#000000;stop-opacity:0.5"/>
      <stop offset="1" style="stop-color:#000000;stop-opacity:0.5"/>
    </linearGradient>
    <path fill="url(#SVGID_21_)" d="M2.379,17.087v0.003c0.126-0.131,0.257-0.26,0.4-0.385c2.045-1.789,5.802-2.968,10.169-2.968&#xD;&#xA;&#x9;&#x9;&#x9;c4.369,0,8.125,1.179,10.17,2.968c0.115,0.101,0.218,0.206,0.322,0.31c-0.085-1.372-0.5-2.659-1.162-3.811H3.588&#xD;&#xA;&#x9;&#x9;&#x9;c-0.674,1.166-1.104,2.467-1.187,3.856C2.393,17.069,2.387,17.079,2.379,17.087z"/>
    <linearGradient id="SVGID_22_" gradientUnits="userSpaceOnUse" x1="2.3789" y1="25.4741" x2="23.4961" y2="25.4741">
      <stop offset="0" style="stop-color:#000000;stop-opacity:0.5"/>
      <stop offset="0.05" style="stop-color:#000000;stop-opacity:0.5"/>
      <stop offset="0.5" style="stop-color:#FFFFFF;stop-opacity:0.5"/>
      <stop offset="0.95" style="stop-color:#000000;stop-opacity:0.5"/>
      <stop offset="1" style="stop-color:#000000;stop-opacity:0.5"/>
    </linearGradient>
    <path fill="url(#SVGID_22_)" d="M23.496,24.763c0-0.956-3.457-1.756-8.113-1.967c-0.778-0.033-1.601-0.056-2.445-0.056&#xD;&#xA;&#x9;&#x9;&#x9;c-0.778,0-1.533,0.011-2.256,0.056c-4.746,0.188-8.303,1-8.303,1.967c0,0.089,0.045,0.334,0.011,0.345&#xD;&#xA;&#x9;&#x9;&#x9;c-0.003,0.002-0.007,0.003-0.011,0.005v3.096h21.117v-3.167C23.475,25.029,23.496,24.841,23.496,24.763z"/>
    <linearGradient id="SVGID_23_" gradientUnits="userSpaceOnUse" x1="2.3789" y1="44.8804" x2="23.4961" y2="44.8804">
      <stop offset="0" style="stop-color:#000000;stop-opacity:0.5"/>
      <stop offset="0.05" style="stop-color:#000000;stop-opacity:0.5"/>
      <stop offset="0.5" style="stop-color:#FFFFFF;stop-opacity:0.5"/>
      <stop offset="0.95" style="stop-color:#000000;stop-opacity:0.5"/>
      <stop offset="1" style="stop-color:#000000;stop-opacity:0.5"/>
    </linearGradient>
    <rect x="2.379" y="43.769" fill="url(#SVGID_23_)" width="21.117" height="2.223"/>
    <linearGradient id="SVGID_24_" gradientUnits="userSpaceOnUse" x1="2.3789" y1="48.77" x2="23.4961" y2="48.77">
      <stop offset="0" style="stop-color:#000000;stop-opacity:0.5"/>
      <stop offset="0.05" style="stop-color:#000000;stop-opacity:0.5"/>
      <stop offset="0.5" style="stop-color:#FFFFFF;stop-opacity:0.5"/>
      <stop offset="0.95" style="stop-color:#000000;stop-opacity:0.5"/>
      <stop offset="1" style="stop-color:#000000;stop-opacity:0.5"/>
    </linearGradient>
    <rect x="2.379" y="48.214" fill="url(#SVGID_24_)" width="21.117" height="1.111"/>
    <linearGradient id="SVGID_25_" gradientUnits="userSpaceOnUse" x1="2.3789" y1="19.0542" x2="23.4961" y2="19.0542">
      <stop offset="0" style="stop-color:#000000;stop-opacity:0.5"/>
      <stop offset="0.05" style="stop-color:#000000;stop-opacity:0.5"/>
      <stop offset="0.5" style="stop-color:#FFFFFF;stop-opacity:0.5"/>
      <stop offset="0.95" style="stop-color:#000000;stop-opacity:0.5"/>
      <stop offset="1" style="stop-color:#000000;stop-opacity:0.5"/>
    </linearGradient>
    <path fill="url(#SVGID_25_)" d="M23.475,21.662v-1.078c0-0.056,0-0.101-0.013-0.155c-0.032-0.723-0.388-1.4-0.978-2.001&#xD;&#xA;&#x9;&#x9;&#x9;c-0.066-0.089-0.145-0.167-0.223-0.233c-0.155-0.155-0.333-0.312-0.533-0.467c-0.39-0.289-0.844-0.566-1.345-0.812&#xD;&#xA;&#x9;&#x9;&#x9;c-0.233-0.122-0.489-0.233-0.744-0.333c-0.256-0.111-0.534-0.211-0.822-0.301c-0.534-0.178-1.101-0.333-1.723-0.466&#xD;&#xA;&#x9;&#x9;&#x9;c-0.023,0-0.045,0-0.067-0.012c-0.311-0.067-0.633-0.122-0.967-0.167c-0.289-0.044-0.578-0.089-0.879-0.111&#xD;&#xA;&#x9;&#x9;&#x9;c-0.077-0.011-0.155-0.021-0.244-0.033c-0.188-0.011-0.377-0.033-0.566-0.044c-0.178-0.012-0.355-0.022-0.534-0.022&#xD;&#xA;&#x9;&#x9;&#x9;c-0.299-0.011-0.6-0.022-0.91-0.022c-0.289,0-0.578,0.012-0.867,0.022c-0.233,0-0.456,0.011-0.678,0.033&#xD;&#xA;&#x9;&#x9;&#x9;c-0.111,0.012-0.223,0.012-0.322,0.022c-0.212,0.022-0.423,0.044-0.623,0.066c-0.566,0.066-1.111,0.156-1.634,0.256&#xD;&#xA;&#x9;&#x9;&#x9;c-0.311,0.066-0.611,0.145-0.899,0.223c-0.856,0.233-1.635,0.511-2.323,0.844c-0.189,0.09-0.355,0.179-0.522,0.268&#xD;&#xA;&#x9;&#x9;&#x9;s-0.322,0.188-0.467,0.277c-1.323,0.834-2.123,1.868-2.189,3.013c-0.012,0.055-0.012,0.1-0.012,0.155v1.233&#xD;&#xA;&#x9;&#x9;&#x9;c-0.003,0-0.007-0.001-0.011-0.001v0.889c2.854-1.569,9.618-1.631,10.569-1.631c0.949,0,7.681,0.062,10.548,1.619V21.66&#xD;&#xA;&#x9;&#x9;&#x9;C23.489,21.66,23.48,21.662,23.475,21.662z"/>
  </g>
</svg>