<svg version="1.2" baseProfile="tiny" viewBox="0 0 25.896 49.326" xmlns:xlink="http://www.w3.org/1999/xlink" xmlns="http://www.w3.org/2000/svg">
<path style="fill:#ffffff;" d="M20.4571,10.9292L20.4571,15.109C18.4271,14.2488,15.817,13.7388,12.947,13.7388C10.0769,13.7388,7.4671,14.2488,5.4371,15.109L5.4371,10.8991C5.967,10.4088,6.567,9.9688,7.2071,9.5988C7.667,9.329,8.1671,9.0789,8.6969,8.8688C8.887,8.7889,9.0869,8.7189,9.307,8.6488C9.357,8.6291,9.4171,8.599,9.4769,8.5891C9.747,8.4989,10.0171,8.4392,10.2869,8.3691C10.3071,8.3691,10.3071,8.3691,10.317,8.3691C10.577,8.2991,10.8569,8.2488,11.1469,8.199C11.207,8.1891,11.257,8.1891,11.3269,8.1792C11.5571,8.1491,11.807,8.1289,12.0471,8.0988C12.3371,8.0791,12.6269,8.0692,12.927,8.0692L12.9669,8.0692C13.2471,8.0692,13.5169,8.0791,13.7969,8.0988L13.867,8.0988C14.096,8.1289,14.3171,8.1491,14.5269,8.1792C14.7561,8.2192,14.9871,8.2488,15.1971,8.2892C15.4871,8.3391,15.7569,8.3992,16.0369,8.489L16.077,8.489C16.4069,8.5788,16.7169,8.6789,17.0269,8.8091C17.1869,8.8589,17.3371,8.929,17.4969,8.999C17.8079,9.1288,18.107,9.2688,18.397,9.4489C18.5369,9.5189,18.6871,9.589,18.8171,9.6891C18.9569,9.7789,19.096,9.8691,19.2371,9.9589C19.327,9.9989,19.407,10.0591,19.4769,10.1291C19.617,10.2189,19.747,10.3289,19.8861,10.4389C19.9259,10.469,19.977,10.499,20.0171,10.539C20.1771,10.6589,20.317,10.7891,20.4571,10.9292M20.3869,16.9178C20.1481,16.798,19.898,16.6781,19.6369,16.578C19.387,16.468,19.1079,16.3678,18.8181,16.2781C18.288,16.1079,17.717,15.9481,17.0971,15.8179C17.0681,15.8179,17.0471,15.8179,17.0279,15.808C16.7169,15.738,16.3981,15.6778,16.0581,15.6378C15.7681,15.5979,15.4879,15.548,15.1771,15.5278C15.108,15.518,15.028,15.5081,14.9381,15.4879C14.748,15.478,14.558,15.4578,14.3679,15.4479C14.198,15.4381,14.018,15.4282,13.838,15.4282C13.5379,15.4178,13.238,15.408,12.9281,15.408C12.638,15.408,12.348,15.4178,12.058,15.4282C11.828,15.4282,11.6079,15.4381,11.3779,15.4578C11.2681,15.4681,11.1581,15.4681,11.0581,15.478C10.8481,15.5081,10.6381,15.5278,10.4379,15.548C9.8679,15.6181,9.328,15.7079,8.808,15.808C8.498,15.8682,8.1881,15.9481,7.9081,16.028C7.0481,16.2579,6.2681,16.538,5.578,16.868C5.528,16.8882,5.478,16.9178,5.4379,16.9381L5.4379,21.7182C8.5281,21.0982,12.2579,21.0681,12.948,21.0681C13.6371,21.0681,17.3679,21.0982,20.4581,21.7182L20.4581,16.9578C20.4379,16.9381,20.4071,16.9292,20.3869,16.9178M15.3869,22.799C14.6079,22.759,13.787,22.7388,12.9371,22.7388C12.1569,22.7388,11.4069,22.7492,10.6769,22.799C8.657,22.8892,6.8469,23.0688,5.4371,23.3391L5.4371,28.209L20.4571,28.209L20.4571,23.349C19.0869,23.0791,17.347,22.8789,15.3869,22.799M5.4371,30.4282L5.4371,32.6578L20.4571,32.6578L20.4571,30.4282L5.4371,30.4282L5.4371,30.4282M5.4371,34.8779L5.4371,37.0991L20.4571,37.0991L20.4571,34.8779L5.4371,34.8779L5.4371,34.8779M5.4371,39.3192L5.4371,41.5478L20.4571,41.5478L20.4571,39.3192L5.4371,39.3192L5.4371,39.3192M5.4371,43.7689L5.4371,45.9891L20.4571,45.9891L20.4571,43.7689L5.4371,43.7689L5.4371,43.7689M5.4371,48.2181L5.4371,49.328L20.4571,49.328L20.4571,48.2181L5.4371,48.2181L5.4371,48.2181M12.9519,6.4089C15.225,6.4089,17.4319,7.0038,19.233,7.9869C17.5161,6.5382,15.3721,5.4629,13.036,5.4629C10.7049,5.4629,8.5861,6.4331,6.8731,7.8779C8.6801,6.8958,10.68,6.4089,12.9519,6.4089Z"/>
</svg>