<svg version="1.2" baseProfile="tiny" viewBox="0 0 25.896 49.326" xmlns:xlink="http://www.w3.org/1999/xlink" xmlns="http://www.w3.org/2000/svg">
<path style="fill:#ffffff;" d="M24.0631,21.4178C24.5419,20.9512,24.7861,20.4392,24.7861,19.905C24.7861,19.427,24.6859,18.9718,24.4979,18.5268C24.697,17.9502,24.7861,17.3721,24.7861,16.8162C24.7861,16.0482,24.6859,15.3039,24.509,14.5822C24.6191,14.0051,24.6641,13.427,24.6641,12.8371C24.6641,6.3798,19.407,1.1108,12.9379,1.1108C6.4691,1.1108,1.2119,6.3798,1.2119,12.8371C1.2119,13.4601,1.257,14.0702,1.367,14.671C1.2011,15.3601,1.1109,16.0818,1.1109,16.8172C1.1109,17.3618,1.2119,17.928,1.401,18.517C1.2119,18.9609,1.1109,19.428,1.1109,19.906C1.1109,20.4841,1.344,21.0292,1.8,21.5412C1.9559,21.7069,2.1771,21.807,2.3871,21.8179L2.3871,22.6998C1.604,23.128,1.112,23.6681,1.112,24.3508C1.112,24.8179,1.468,25.2411,1.9349,25.2411C2.102,25.2411,2.2561,25.1992,2.384,25.1138L2.3801,28.209C1.7661,28.209,1.2689,28.7048,1.2689,29.3199C1.2689,29.933,1.7661,30.4312,2.3801,30.4312L2.3801,32.6538C1.7661,32.6538,1.2689,33.152,1.2689,33.7651C1.2689,34.3802,1.7661,34.8759,2.3801,34.8759L2.3801,37.0991C1.7661,37.0991,1.2689,37.5968,1.2689,38.2099C1.2689,38.825,1.7661,39.3212,2.3801,39.3212L2.3801,41.5438C1.7661,41.5438,1.2689,42.042,1.2689,42.6552C1.2689,43.2698,1.7661,43.7679,2.3801,43.7679L2.3801,45.9911C1.7661,45.9911,1.2689,46.4868,1.2689,47.1019C1.2689,47.715,1.7661,48.2132,2.3801,48.2132L2.3801,49.324L23.497,49.324L23.497,48.2132C24.111,48.2132,24.6079,47.715,24.6079,47.1019C24.6079,46.4868,24.111,45.9911,23.497,45.9911L23.497,43.7679C24.111,43.7679,24.6079,43.2698,24.6079,42.6552C24.6079,42.042,24.111,41.5438,23.497,41.5438L23.497,39.3212C24.111,39.3212,24.6079,38.825,24.6079,38.2099C24.6079,37.5968,24.111,37.0991,23.497,37.0991L23.497,34.8759C24.111,34.8759,24.6079,34.3802,24.6079,33.7651C24.6079,33.152,24.111,32.6538,23.497,32.6538L23.497,30.4312C24.111,30.4312,24.6079,29.933,24.6079,29.3199C24.6079,28.7048,24.111,28.209,23.497,28.209L23.497,25.0458C23.627,25.136,23.7821,25.1849,23.953,25.1849C24.4199,25.1849,24.7861,24.8189,24.7861,24.3522C24.7861,23.6651,24.2881,23.1221,23.497,22.6919L23.497,21.6581C23.699,21.6531,23.9121,21.5782,24.0631,21.4178Z"/>
</svg>