<svg version="1.2" baseProfile="tiny" viewBox="0 0 50.512 49.93" xmlns:xlink="http://www.w3.org/1999/xlink" xmlns="http://www.w3.org/2000/svg">
<path style="fill:#ffffff;" d="M35.4998,22.105L23.7629,31.4C23.5881,31.1858,23.4088,30.9551,23.2269,30.7409L34.0229,20.2331C34.483,20.7889,34.9791,21.412,35.4998,22.105M42.616,35.5422L29.009,40.662C29.0681,40.8288,29.104,40.9481,29.157,41.1119L43.1918,37.3831C43.0069,36.737,42.8221,36.1598,42.616,35.5422M41.0688,31.5762L27.9892,38.0841C28.069,38.2579,28.1109,38.4281,28.1862,38.5999L41.8679,33.4541C41.6138,32.804,41.3431,32.1899,41.0688,31.5762M36.7909,23.912L25.0908,33.152C25.2282,33.3448,25.3621,33.539,25.4919,33.7322L38.0138,25.7968C37.6042,25.1338,37.194,24.5031,36.7909,23.912M39.1382,27.7161L26.6729,35.5991C26.7759,35.7758,26.8461,35.9471,26.9441,36.1219L40.1242,29.569C39.7959,28.914,39.4761,28.3228,39.1382,27.7161M0.8178,20.4309L1.3249,5.4029C0.8951,5.3869,0.048,5.3939,0.0,5.3929L0.0,20.4159C0.047,20.4159,0.495,20.4229,0.8178,20.4309M44.8299,45.626C44.7491,45.0029,44.6082,44.3069,44.5238,43.6893L30.1648,46.032C30.187,46.2102,30.186,46.4189,30.2021,46.5852L44.8299,45.626M43.7651,39.5251L29.7758,43.2449C29.8182,43.4201,29.8652,43.6798,29.9001,43.848L44.1738,41.4998C44.0561,40.8612,43.9081,40.1432,43.7651,39.5251M30.2042,48.8101C30.1961,49.4781,30.2001,49.7792,30.2011,49.93L45.2239,49.93C45.236,49.187,45.1628,48.5879,45.087,47.8339L30.2042,48.8101M12.5219,7.167L9.2821,21.5538C9.4811,21.6082,9.6528,21.6771,9.8448,21.733L14.5308,7.7801C13.8362,7.5499,13.1892,7.3572,12.5219,7.167M8.1739,6.1359L6.2468,20.8962C6.4782,20.9352,6.8989,21.025,7.1272,21.07L10.3721,6.6062C9.6139,6.427,8.877,6.2702,8.1739,6.1359M31.0149,17.134L21.1029,28.4212C21.3489,28.6658,21.4989,28.8511,21.7338,29.0962L32.56,18.562C32.2272,18.203,31.2361,17.3572,31.0149,17.134M3.0358,20.5542C3.3171,20.5752,3.7652,20.6171,4.0399,20.6461L5.9831,5.7729C5.1249,5.6501,4.2708,5.5742,3.554,5.5078L3.0358,20.5542M16.6169,8.531L11.9698,22.3801C12.1512,22.448,12.2992,22.5359,12.476,22.6068L18.5101,9.294C17.8722,9.0149,17.2468,8.7732,16.6169,8.531M27.6659,14.605L19.1481,26.4379C19.289,26.5468,19.4289,26.7111,19.5588,26.8179L29.2101,15.8098C28.7211,15.3999,28.1609,14.982,27.6659,14.605M24.1463,12.2458L16.8841,24.7668C17.0362,24.8611,17.2519,25.0129,17.3978,25.1068L25.849,13.3628C25.3121,12.9958,24.6852,12.5819,24.1463,12.2458M20.516,10.2421L14.5151,23.4841C14.6742,23.56,14.7839,23.6189,14.9389,23.6968L22.2258,11.1359C21.6378,10.8118,21.1009,10.5332,20.516,10.2421Z"/>
</svg>