<svg version="1.2" baseProfile="tiny" viewBox="0 0 48.84 25.529" xmlns:xlink="http://www.w3.org/1999/xlink" xmlns="http://www.w3.org/2000/svg">
<path style="fill:#ffffff;" d="M23.3099,20.2769L21.0901,20.2769L21.0901,5.2521L23.3099,5.2521L23.3099,20.2769M18.8698,5.2521L16.651,5.2521L16.651,20.2769L18.8698,20.2769L18.8698,5.2521M14.4298,5.2521L12.21,5.2521L12.21,20.2769L14.4298,20.2769L14.4298,5.2521M9.9912,5.2521L7.77,5.2521L7.77,5.2521L7.77,20.2769L9.9912,20.2769L9.9912,5.2521M27.7499,5.2521L25.5311,5.2521L25.5311,20.2769L27.7499,20.2769L27.7499,5.2521M3.3309,20.2769L5.5502,20.2769L5.5502,20.2769L5.5502,5.2521L3.3309,5.2521L3.3309,5.2521L3.3309,20.2769M41.07,5.2521L38.8498,5.2521L38.8498,20.2769L41.07,20.2769L41.07,5.2521M47.7299,5.2521L47.7299,20.2769L48.84,20.2769L48.84,5.2521L47.7299,5.2521L47.7299,5.2521M1.1111,5.2521L0.0,5.2521L0.0,5.2521L0.0,20.2769L1.1111,20.2769L1.1111,5.2521M36.63,5.2521L34.4102,5.2521L34.4102,20.2769L36.63,20.2769L36.63,5.2521M32.19,5.2521L29.9702,5.2521L29.9702,20.2769L32.19,20.2769L32.19,5.2521M45.5101,5.2521L43.2898,5.2521L43.2898,20.2769L45.5101,20.2769L45.5101,5.2521Z"/>
</svg>