<svg version="1.2" baseProfile="tiny" id="EdgeSVG_uYkp4" x="0px" y="0px" width="50.512px" height="49.93px" viewBox="0 0 50.512 49.93" xmlns:xlink="http://www.w3.org/1999/xlink" xmlns="http://www.w3.org/2000/svg">
  <linearGradient id="SVGID_2_" gradientUnits="userSpaceOnUse" x1="24.5264" y1="21.2568" x2="26.1396" y2="22.6719">
    <stop offset="0" style="stop-color:#FFFFFF;stop-opacity:0"/>
    <stop offset="0.092" style="stop-color:#FFFFFF;stop-opacity:0.1"/>
    <stop offset="0.2025" style="stop-color:#FFFFFF;stop-opacity:0.05"/>
    <stop offset="0.5153" style="stop-color:#FFFFFF;stop-opacity:0.25"/>
    <stop offset="0.816" style="stop-color:#FFFFFF;stop-opacity:0.05"/>
    <stop offset="0.8834" style="stop-color:#FFFFFF;stop-opacity:0.1"/>
    <stop offset="1" style="stop-color:#FFFFFF;stop-opacity:0"/>
  </linearGradient>
  <path fill="url(#SVGID_2_)" d="M31.444,13.263c0.392-0.449,1.087-0.486,1.547-0.084c0.229,0.203,0.359,0.477,0.381,0.758&#xD;&#xA;&#x9;&#x9;c0.021,0.279-0.065,0.564-0.261,0.79L19.172,30.625c-0.396,0.448-1.087,0.485-1.548,0.081c-0.461-0.401-0.516-1.096-0.119-1.544&#xD;&#xA;&#x9;&#x9;L31.444,13.263z"/>
  <linearGradient id="SVGID_3_" gradientUnits="userSpaceOnUse" x1="21.7676" y1="19.125" x2="23.4922" y2="20.3818">
    <stop offset="0" style="stop-color:#FFFFFF;stop-opacity:0"/>
    <stop offset="0.092" style="stop-color:#FFFFFF;stop-opacity:0.1"/>
    <stop offset="0.2025" style="stop-color:#FFFFFF;stop-opacity:0.05"/>
    <stop offset="0.5153" style="stop-color:#FFFFFF;stop-opacity:0.25"/>
    <stop offset="0.816" style="stop-color:#FFFFFF;stop-opacity:0.05"/>
    <stop offset="0.8834" style="stop-color:#FFFFFF;stop-opacity:0.1"/>
    <stop offset="1" style="stop-color:#FFFFFF;stop-opacity:0"/>
  </linearGradient>
  <path fill="url(#SVGID_3_)" d="M27.88,10.505c0.347-0.484,1.034-0.586,1.531-0.232c0.497,0.359,0.617,1.044,0.269,1.527&#xD;&#xA;&#x9;&#x9;L17.329,28.968c-0.348,0.482-1.033,0.586-1.53,0.229c-0.497-0.357-0.619-1.041-0.271-1.525L27.88,10.505z"/>
  <linearGradient id="SVGID_4_" gradientUnits="userSpaceOnUse" x1="18.7686" y1="17.2393" x2="20.5955" y2="18.2983">
    <stop offset="0" style="stop-color:#FFFFFF;stop-opacity:0"/>
    <stop offset="0.092" style="stop-color:#FFFFFF;stop-opacity:0.1"/>
    <stop offset="0.2025" style="stop-color:#FFFFFF;stop-opacity:0.05"/>
    <stop offset="0.5153" style="stop-color:#FFFFFF;stop-opacity:0.25"/>
    <stop offset="0.816" style="stop-color:#FFFFFF;stop-opacity:0.05"/>
    <stop offset="0.8834" style="stop-color:#FFFFFF;stop-opacity:0.1"/>
    <stop offset="1" style="stop-color:#FFFFFF;stop-opacity:0"/>
  </linearGradient>
  <path fill="url(#SVGID_4_)" d="M13.398,26.352L24.013,8.052c0.297-0.514,0.971-0.682,1.5-0.375&#xD;&#xA;&#x9;&#x9;c0.528,0.307,0.716,0.975,0.418,1.489l-10.611,18.3c-0.299,0.514-0.969,0.682-1.5,0.375c-0.266-0.154-0.445-0.396-0.522-0.667&#xD;&#xA;&#x9;&#x9;C13.221,26.906,13.249,26.609,13.398,26.352z"/>
  <linearGradient id="SVGID_5_" gradientUnits="userSpaceOnUse" x1="15.6143" y1="15.7856" x2="17.5607" y2="16.6734">
    <stop offset="0" style="stop-color:#FFFFFF;stop-opacity:0"/>
    <stop offset="0.092" style="stop-color:#FFFFFF;stop-opacity:0.1"/>
    <stop offset="0.2025" style="stop-color:#FFFFFF;stop-opacity:0.05"/>
    <stop offset="0.5153" style="stop-color:#FFFFFF;stop-opacity:0.25"/>
    <stop offset="0.816" style="stop-color:#FFFFFF;stop-opacity:0.05"/>
    <stop offset="0.8834" style="stop-color:#FFFFFF;stop-opacity:0.1"/>
    <stop offset="1" style="stop-color:#FFFFFF;stop-opacity:0"/>
  </linearGradient>
  <path fill="url(#SVGID_5_)" d="M19.944,6.133c0.242-0.54,0.894-0.772,1.451-0.52c0.559,0.254,0.813,0.897,0.567,1.437&#xD;&#xA;&#x9;&#x9;l-8.735,19.272c-0.246,0.541-0.897,0.774-1.455,0.521c-0.416-0.188-0.666-0.598-0.661-1.019c0.003-0.139,0.031-0.281,0.094-0.416&#xD;&#xA;&#x9;&#x9;L19.944,6.133z"/>
  <linearGradient id="SVGID_6_" gradientUnits="userSpaceOnUse" x1="12.3457" y1="14.5615" x2="14.3321" y2="15.2268">
    <stop offset="0" style="stop-color:#FFFFFF;stop-opacity:0"/>
    <stop offset="0.092" style="stop-color:#FFFFFF;stop-opacity:0.1"/>
    <stop offset="0.2025" style="stop-color:#FFFFFF;stop-opacity:0.05"/>
    <stop offset="0.5153" style="stop-color:#FFFFFF;stop-opacity:0.25"/>
    <stop offset="0.816" style="stop-color:#FFFFFF;stop-opacity:0.05"/>
    <stop offset="0.8834" style="stop-color:#FFFFFF;stop-opacity:0.1"/>
    <stop offset="1" style="stop-color:#FFFFFF;stop-opacity:0"/>
  </linearGradient>
  <path fill="url(#SVGID_6_)" d="M15.632,4.5c0.186-0.56,0.811-0.857,1.391-0.664c0.581,0.197,0.899,0.81,0.711,1.37l-6.734,20.067&#xD;&#xA;&#x9;&#x9;c-0.189,0.561-0.813,0.855-1.393,0.662c-0.436-0.146-0.725-0.527-0.763-0.945c-0.011-0.139,0.005-0.281,0.052-0.422L15.632,4.5z"/>
  <linearGradient id="SVGID_7_" gradientUnits="userSpaceOnUse" x1="8.8896" y1="13.6611" x2="10.9473" y2="14.1219">
    <stop offset="0" style="stop-color:#FFFFFF;stop-opacity:0"/>
    <stop offset="0.092" style="stop-color:#FFFFFF;stop-opacity:0.1"/>
    <stop offset="0.2025" style="stop-color:#FFFFFF;stop-opacity:0.05"/>
    <stop offset="0.5153" style="stop-color:#FFFFFF;stop-opacity:0.25"/>
    <stop offset="0.816" style="stop-color:#FFFFFF;stop-opacity:0.05"/>
    <stop offset="0.8834" style="stop-color:#FFFFFF;stop-opacity:0.1"/>
    <stop offset="1" style="stop-color:#FFFFFF;stop-opacity:0"/>
  </linearGradient>
  <path fill="url(#SVGID_7_)" d="M11.104,3.308c0.128-0.574,0.719-0.934,1.315-0.8c0.597,0.134,0.979,0.71,0.849,1.287L8.633,24.451&#xD;&#xA;&#x9;&#x9;c-0.1,0.432-0.454,0.742-0.878,0.814c-0.144,0.023-0.292,0.021-0.44-0.013c-0.447-0.101-0.773-0.45-0.854-0.86&#xD;&#xA;&#x9;&#x9;c-0.026-0.137-0.026-0.281,0.007-0.424L11.104,3.308z"/>
  <linearGradient id="SVGID_8_" gradientUnits="userSpaceOnUse" x1="5.1133" y1="12.9927" x2="7.1573" y2="13.2611">
    <stop offset="0" style="stop-color:#FFFFFF;stop-opacity:0"/>
    <stop offset="0.092" style="stop-color:#FFFFFF;stop-opacity:0.1"/>
    <stop offset="0.2025" style="stop-color:#FFFFFF;stop-opacity:0.05"/>
    <stop offset="0.5153" style="stop-color:#FFFFFF;stop-opacity:0.25"/>
    <stop offset="0.816" style="stop-color:#FFFFFF;stop-opacity:0.05"/>
    <stop offset="0.8834" style="stop-color:#FFFFFF;stop-opacity:0.1"/>
    <stop offset="1" style="stop-color:#FFFFFF;stop-opacity:0"/>
  </linearGradient>
  <path fill="url(#SVGID_8_)" d="M7.619,1.535c0.609,0.072,1.047,0.604,0.981,1.187L5.872,23.789c-0.07,0.586-0.62,1-1.229,0.93&#xD;&#xA;&#x9;&#x9;c-0.305-0.035-0.565-0.186-0.742-0.4s-0.269-0.494-0.234-0.785l2.731-21.07C6.462,1.88,7.015,1.463,7.619,1.535z"/>
  <linearGradient id="SVGID_9_" gradientUnits="userSpaceOnUse" x1="1.1572" y1="12.772" x2="3.294" y2="12.8384">
    <stop offset="0" style="stop-color:#FFFFFF;stop-opacity:0"/>
    <stop offset="0.092" style="stop-color:#FFFFFF;stop-opacity:0.1"/>
    <stop offset="0.2025" style="stop-color:#FFFFFF;stop-opacity:0.05"/>
    <stop offset="0.5153" style="stop-color:#FFFFFF;stop-opacity:0.25"/>
    <stop offset="0.816" style="stop-color:#FFFFFF;stop-opacity:0.05"/>
    <stop offset="0.8834" style="stop-color:#FFFFFF;stop-opacity:0.1"/>
    <stop offset="1" style="stop-color:#FFFFFF;stop-opacity:0"/>
  </linearGradient>
  <path fill="url(#SVGID_9_)" d="M1.442,2.197c0.005-0.585,0.511-1.056,1.12-1.047c0.614,0.009,1.106,0.491,1.096,1.076L2.937,23.408&#xD;&#xA;&#x9;&#x9;c-0.01,0.588-0.513,1.059-1.124,1.051c-0.612-0.008-1.104-0.492-1.097-1.076L1.442,2.197z"/>
  <linearGradient id="SVGID_10_" gradientUnits="userSpaceOnUse" x1="37.6455" y1="46.2017" x2="37.8262" y2="48.3323">
    <stop offset="0" style="stop-color:#FFFFFF;stop-opacity:0"/>
    <stop offset="0.092" style="stop-color:#FFFFFF;stop-opacity:0.1"/>
    <stop offset="0.2025" style="stop-color:#FFFFFF;stop-opacity:0.05"/>
    <stop offset="0.5153" style="stop-color:#FFFFFF;stop-opacity:0.25"/>
    <stop offset="0.816" style="stop-color:#FFFFFF;stop-opacity:0.05"/>
    <stop offset="0.8834" style="stop-color:#FFFFFF;stop-opacity:0.1"/>
    <stop offset="1" style="stop-color:#FFFFFF;stop-opacity:0"/>
  </linearGradient>
  <path fill="url(#SVGID_10_)" d="M48.205,45.406c0.597-0.039,1.114,0.425,1.154,1.034c0.021,0.308-0.084,0.591-0.267,0.805&#xD;&#xA;&#x9;&#x9;c-0.182,0.214-0.445,0.354-0.742,0.374l-21.099,1.384c-0.597,0.039-1.112-0.425-1.151-1.036c-0.044-0.609,0.409-1.139,1.008-1.177&#xD;&#xA;&#x9;&#x9;L48.205,45.406z"/>
  <linearGradient id="SVGID_11_" gradientUnits="userSpaceOnUse" x1="37.1953" y1="42.6826" x2="37.5693" y2="44.8213">
    <stop offset="0" style="stop-color:#FFFFFF;stop-opacity:0"/>
    <stop offset="0.092" style="stop-color:#FFFFFF;stop-opacity:0.1"/>
    <stop offset="0.2025" style="stop-color:#FFFFFF;stop-opacity:0.05"/>
    <stop offset="0.5153" style="stop-color:#FFFFFF;stop-opacity:0.25"/>
    <stop offset="0.816" style="stop-color:#FFFFFF;stop-opacity:0.05"/>
    <stop offset="0.8834" style="stop-color:#FFFFFF;stop-opacity:0.1"/>
    <stop offset="1" style="stop-color:#FFFFFF;stop-opacity:0"/>
  </linearGradient>
  <path fill="url(#SVGID_11_)" d="M47.638,40.935c0.588-0.099,1.145,0.316,1.244,0.919c0.097,0.606-0.302,1.175-0.889,1.271&#xD;&#xA;&#x9;&#x9;l-20.871,3.406c-0.59,0.094-1.148-0.317-1.245-0.921c-0.099-0.604,0.297-1.172,0.888-1.271L47.638,40.935z"/>
  <linearGradient id="SVGID_12_" gradientUnits="userSpaceOnUse" x1="36.417" y1="39.2241" x2="36.9978" y2="41.3541">
    <stop offset="0" style="stop-color:#FFFFFF;stop-opacity:0"/>
    <stop offset="0.092" style="stop-color:#FFFFFF;stop-opacity:0.1"/>
    <stop offset="0.2025" style="stop-color:#FFFFFF;stop-opacity:0.05"/>
    <stop offset="0.5153" style="stop-color:#FFFFFF;stop-opacity:0.25"/>
    <stop offset="0.816" style="stop-color:#FFFFFF;stop-opacity:0.05"/>
    <stop offset="0.8834" style="stop-color:#FFFFFF;stop-opacity:0.1"/>
    <stop offset="1" style="stop-color:#FFFFFF;stop-opacity:0"/>
  </linearGradient>
  <path fill="url(#SVGID_12_)" d="M26.189,41.901l20.445-5.435c0.575-0.154,1.169,0.205,1.327,0.794&#xD;&#xA;&#x9;&#x9;c0.157,0.594-0.182,1.198-0.758,1.349L26.76,44.046c-0.573,0.151-1.166-0.203-1.325-0.796c-0.078-0.294-0.034-0.594,0.104-0.838&#xD;&#xA;&#x9;&#x9;C25.674,42.167,25.903,41.977,26.189,41.901z"/>
  <linearGradient id="SVGID_13_" gradientUnits="userSpaceOnUse" x1="35.2041" y1="35.9746" x2="35.9951" y2="38.001">
    <stop offset="0" style="stop-color:#FFFFFF;stop-opacity:0"/>
    <stop offset="0.092" style="stop-color:#FFFFFF;stop-opacity:0.1"/>
    <stop offset="0.2025" style="stop-color:#FFFFFF;stop-opacity:0.05"/>
    <stop offset="0.5153" style="stop-color:#FFFFFF;stop-opacity:0.25"/>
    <stop offset="0.816" style="stop-color:#FFFFFF;stop-opacity:0.05"/>
    <stop offset="0.8834" style="stop-color:#FFFFFF;stop-opacity:0.1"/>
    <stop offset="1" style="stop-color:#FFFFFF;stop-opacity:0"/>
  </linearGradient>
  <path fill="url(#SVGID_13_)" d="M45.116,32.232c0.553-0.209,1.18,0.088,1.394,0.658c0.216,0.576-0.06,1.211-0.614,1.417&#xD;&#xA;&#x9;&#x9;l-19.805,7.451c-0.555,0.21-1.18-0.086-1.396-0.659c-0.162-0.428-0.049-0.895,0.253-1.188c0.101-0.099,0.222-0.178,0.359-0.229&#xD;&#xA;&#x9;&#x9;L45.116,32.232z"/>
  <linearGradient id="SVGID_14_" gradientUnits="userSpaceOnUse" x1="33.748" y1="32.7632" x2="34.7557" y2="34.757">
    <stop offset="0" style="stop-color:#FFFFFF;stop-opacity:0"/>
    <stop offset="0.092" style="stop-color:#FFFFFF;stop-opacity:0.1"/>
    <stop offset="0.2025" style="stop-color:#FFFFFF;stop-opacity:0.05"/>
    <stop offset="0.5153" style="stop-color:#FFFFFF;stop-opacity:0.25"/>
    <stop offset="0.816" style="stop-color:#FFFFFF;stop-opacity:0.05"/>
    <stop offset="0.8834" style="stop-color:#FFFFFF;stop-opacity:0.1"/>
    <stop offset="1" style="stop-color:#FFFFFF;stop-opacity:0"/>
  </linearGradient>
  <path fill="url(#SVGID_14_)" d="M43.221,28.029c0.528-0.266,1.18-0.033,1.452,0.513c0.273,0.552,0.066,1.208-0.463,1.472&#xD;&#xA;&#x9;&#x9;L25.258,39.44c-0.53,0.263-1.181,0.031-1.454-0.516c-0.205-0.411-0.139-0.886,0.131-1.206c0.09-0.109,0.2-0.197,0.333-0.265&#xD;&#xA;&#x9;&#x9;L43.221,28.029z"/>
  <linearGradient id="SVGID_15_" gradientUnits="userSpaceOnUse" x1="31.9395" y1="29.6714" x2="33.1123" y2="31.5411">
    <stop offset="0" style="stop-color:#FFFFFF;stop-opacity:0"/>
    <stop offset="0.092" style="stop-color:#FFFFFF;stop-opacity:0.1"/>
    <stop offset="0.2025" style="stop-color:#FFFFFF;stop-opacity:0.05"/>
    <stop offset="0.5153" style="stop-color:#FFFFFF;stop-opacity:0.25"/>
    <stop offset="0.816" style="stop-color:#FFFFFF;stop-opacity:0.05"/>
    <stop offset="0.8834" style="stop-color:#FFFFFF;stop-opacity:0.1"/>
    <stop offset="1" style="stop-color:#FFFFFF;stop-opacity:0"/>
  </linearGradient>
  <path fill="url(#SVGID_15_)" d="M40.861,23.984c0.498-0.316,1.171-0.152,1.497,0.363c0.328,0.518,0.189,1.194-0.31,1.51&#xD;&#xA;&#x9;&#x9;l-17.884,11.33c-0.375,0.235-0.846,0.203-1.195-0.047c-0.117-0.083-0.221-0.189-0.304-0.32c-0.245-0.385-0.228-0.865,0.005-1.211&#xD;&#xA;&#x9;&#x9;c0.078-0.117,0.181-0.218,0.305-0.296L40.861,23.984z"/>
  <linearGradient id="SVGID_16_" gradientUnits="userSpaceOnUse" x1="29.8545" y1="26.6665" x2="31.1529" y2="28.301">
    <stop offset="0" style="stop-color:#FFFFFF;stop-opacity:0"/>
    <stop offset="0.092" style="stop-color:#FFFFFF;stop-opacity:0.1"/>
    <stop offset="0.2025" style="stop-color:#FFFFFF;stop-opacity:0.05"/>
    <stop offset="0.5153" style="stop-color:#FFFFFF;stop-opacity:0.25"/>
    <stop offset="0.816" style="stop-color:#FFFFFF;stop-opacity:0.05"/>
    <stop offset="0.8834" style="stop-color:#FFFFFF;stop-opacity:0.1"/>
    <stop offset="1" style="stop-color:#FFFFFF;stop-opacity:0"/>
  </linearGradient>
  <path fill="url(#SVGID_16_)" d="M39.653,20.265c0.379,0.482,0.313,1.167-0.146,1.533L22.885,34.921&#xD;&#xA;&#x9;&#x9;c-0.463,0.365-1.144,0.271-1.524-0.211c-0.191-0.24-0.27-0.531-0.242-0.809c0.027-0.277,0.157-0.539,0.389-0.721l16.625-13.124&#xD;&#xA;&#x9;&#x9;C38.591,19.691,39.275,19.789,39.653,20.265z"/>
  <linearGradient id="SVGID_17_" gradientUnits="userSpaceOnUse" x1="27.3066" y1="23.8364" x2="28.7627" y2="25.335">
    <stop offset="0" style="stop-color:#FFFFFF;stop-opacity:0"/>
    <stop offset="0.092" style="stop-color:#FFFFFF;stop-opacity:0.1"/>
    <stop offset="0.2025" style="stop-color:#FFFFFF;stop-opacity:0.05"/>
    <stop offset="0.5153" style="stop-color:#FFFFFF;stop-opacity:0.25"/>
    <stop offset="0.816" style="stop-color:#FFFFFF;stop-opacity:0.05"/>
    <stop offset="0.8834" style="stop-color:#FFFFFF;stop-opacity:0.1"/>
    <stop offset="1" style="stop-color:#FFFFFF;stop-opacity:0"/>
  </linearGradient>
  <path fill="url(#SVGID_17_)" d="M34.817,16.365c0.418-0.408,1.106-0.384,1.533,0.053c0.425,0.441,0.433,1.129,0.014,1.537&#xD;&#xA;&#x9;&#x9;l-15.18,14.774c-0.422,0.411-1.109,0.388-1.537-0.05c-0.428-0.439-0.435-1.132-0.015-1.539L34.817,16.365z"/>
  <radialGradient id="SVGID_18_" cx="-0.1318" cy="49.9492" r="48.3025" gradientUnits="userSpaceOnUse">
    <stop offset="0.549" style="stop-color:#000000;stop-opacity:0.5"/>
    <stop offset="0.5948" style="stop-color:#000000;stop-opacity:0.5"/>
    <stop offset="0.6005" style="stop-color:#0A0A0A;stop-opacity:0.5"/>
    <stop offset="0.6524" style="stop-color:#606060;stop-opacity:0.5"/>
    <stop offset="0.6982" style="stop-color:#A4A4A4;stop-opacity:0.5"/>
    <stop offset="0.7362" style="stop-color:#D5D5D5;stop-opacity:0.5"/>
    <stop offset="0.7649" style="stop-color:#F4F4F4;stop-opacity:0.5"/>
    <stop offset="0.781" style="stop-color:#FFFFFF;stop-opacity:0.5"/>
    <stop offset="0.9739" style="stop-color:#000000;stop-opacity:0.5"/>
    <stop offset="1" style="stop-color:#000000;stop-opacity:0.5"/>
  </radialGradient>
  <path fill="url(#SVGID_18_)" d="M43.849,30.193L25.258,39.44c-0.081,0.042-0.17,0.05-0.256,0.067&#xD;&#xA;&#x9;&#x9;c0.042,0.097,0.085,0.193,0.124,0.291c0.061-0.039,0.11-0.09,0.181-0.116l19.461-7.317C44.479,31.633,44.173,30.912,43.849,30.193z&#xD;&#xA;&#x9;&#x9;"/>
  <radialGradient id="SVGID_19_" cx="-0.1318" cy="49.9492" r="48.3036" gradientUnits="userSpaceOnUse">
    <stop offset="0.549" style="stop-color:#000000;stop-opacity:0.5"/>
    <stop offset="0.5948" style="stop-color:#000000;stop-opacity:0.5"/>
    <stop offset="0.6005" style="stop-color:#0A0A0A;stop-opacity:0.5"/>
    <stop offset="0.6524" style="stop-color:#606060;stop-opacity:0.5"/>
    <stop offset="0.6982" style="stop-color:#A4A4A4;stop-opacity:0.5"/>
    <stop offset="0.7362" style="stop-color:#D5D5D5;stop-opacity:0.5"/>
    <stop offset="0.7649" style="stop-color:#F4F4F4;stop-opacity:0.5"/>
    <stop offset="0.781" style="stop-color:#FFFFFF;stop-opacity:0.5"/>
    <stop offset="0.9739" style="stop-color:#000000;stop-opacity:0.5"/>
    <stop offset="1" style="stop-color:#000000;stop-opacity:0.5"/>
  </radialGradient>
  <path fill="url(#SVGID_19_)" d="M45.536,34.443l-19.445,7.315c-0.078,0.031-0.161,0.029-0.242,0.039&#xD;&#xA;&#x9;&#x9;c0.025,0.079,0.052,0.157,0.078,0.237c0.083-0.05,0.166-0.106,0.263-0.133l20.028-5.323C46.007,35.862,45.78,35.15,45.536,34.443z"/>
  <radialGradient id="SVGID_20_" cx="-0.127" cy="49.9521" r="48.298" gradientUnits="userSpaceOnUse">
    <stop offset="0.549" style="stop-color:#000000;stop-opacity:0.5"/>
    <stop offset="0.5948" style="stop-color:#000000;stop-opacity:0.5"/>
    <stop offset="0.6005" style="stop-color:#0A0A0A;stop-opacity:0.5"/>
    <stop offset="0.6524" style="stop-color:#606060;stop-opacity:0.5"/>
    <stop offset="0.6982" style="stop-color:#A4A4A4;stop-opacity:0.5"/>
    <stop offset="0.7362" style="stop-color:#D5D5D5;stop-opacity:0.5"/>
    <stop offset="0.7649" style="stop-color:#F4F4F4;stop-opacity:0.5"/>
    <stop offset="0.781" style="stop-color:#FFFFFF;stop-opacity:0.5"/>
    <stop offset="0.9739" style="stop-color:#000000;stop-opacity:0.5"/>
    <stop offset="1" style="stop-color:#000000;stop-opacity:0.5"/>
  </radialGradient>
  <path fill="url(#SVGID_20_)" d="M41.731,26.058L24.165,37.187c-0.069,0.042-0.143,0.068-0.215,0.094&#xD;&#xA;&#x9;&#x9;c0.052,0.1,0.099,0.203,0.151,0.305c0.056-0.044,0.101-0.099,0.166-0.132l18.62-9.258C42.521,27.476,42.135,26.763,41.731,26.058z"/>
  <radialGradient id="SVGID_21_" cx="-0.1299" cy="49.9517" r="48.3011" gradientUnits="userSpaceOnUse">
    <stop offset="0.549" style="stop-color:#000000;stop-opacity:0.5"/>
    <stop offset="0.5948" style="stop-color:#000000;stop-opacity:0.5"/>
    <stop offset="0.6005" style="stop-color:#0A0A0A;stop-opacity:0.5"/>
    <stop offset="0.6524" style="stop-color:#606060;stop-opacity:0.5"/>
    <stop offset="0.6982" style="stop-color:#A4A4A4;stop-opacity:0.5"/>
    <stop offset="0.7362" style="stop-color:#D5D5D5;stop-opacity:0.5"/>
    <stop offset="0.7649" style="stop-color:#F4F4F4;stop-opacity:0.5"/>
    <stop offset="0.781" style="stop-color:#FFFFFF;stop-opacity:0.5"/>
    <stop offset="0.9739" style="stop-color:#000000;stop-opacity:0.5"/>
    <stop offset="1" style="stop-color:#000000;stop-opacity:0.5"/>
  </radialGradient>
  <path fill="url(#SVGID_21_)" d="M36.114,18.198l-14.93,14.531c-0.053,0.052-0.117,0.076-0.178,0.114&#xD;&#xA;&#x9;&#x9;c0.128,0.158,0.252,0.321,0.378,0.484c0.042-0.049,0.069-0.106,0.122-0.148l16.334-12.893&#xD;&#xA;&#x9;&#x9;C37.288,19.578,36.713,18.882,36.114,18.198z"/>
  <radialGradient id="SVGID_22_" cx="-0.1279" cy="49.9517" r="48.299" gradientUnits="userSpaceOnUse">
    <stop offset="0.549" style="stop-color:#000000;stop-opacity:0.5"/>
    <stop offset="0.5948" style="stop-color:#000000;stop-opacity:0.5"/>
    <stop offset="0.6005" style="stop-color:#0A0A0A;stop-opacity:0.5"/>
    <stop offset="0.6524" style="stop-color:#606060;stop-opacity:0.5"/>
    <stop offset="0.6982" style="stop-color:#A4A4A4;stop-opacity:0.5"/>
    <stop offset="0.7362" style="stop-color:#D5D5D5;stop-opacity:0.5"/>
    <stop offset="0.7649" style="stop-color:#F4F4F4;stop-opacity:0.5"/>
    <stop offset="0.781" style="stop-color:#FFFFFF;stop-opacity:0.5"/>
    <stop offset="0.9739" style="stop-color:#000000;stop-opacity:0.5"/>
    <stop offset="1" style="stop-color:#000000;stop-opacity:0.5"/>
  </radialGradient>
  <path fill="url(#SVGID_22_)" d="M39.171,22.063L22.885,34.921c-0.079,0.063-0.172,0.094-0.261,0.128&#xD;&#xA;&#x9;&#x9;c0.08,0.125,0.156,0.253,0.236,0.378c0.04-0.037,0.068-0.084,0.115-0.115l17.607-11.151C40.132,23.453,39.663,22.751,39.171,22.063&#xD;&#xA;&#x9;&#x9;z"/>
  <radialGradient id="SVGID_23_" cx="-0.1895" cy="49.8804" r="48.4286" gradientUnits="userSpaceOnUse">
    <stop offset="0.549" style="stop-color:#000000;stop-opacity:0.5"/>
    <stop offset="0.5948" style="stop-color:#000000;stop-opacity:0.5"/>
    <stop offset="0.6005" style="stop-color:#0A0A0A;stop-opacity:0.5"/>
    <stop offset="0.6524" style="stop-color:#606060;stop-opacity:0.5"/>
    <stop offset="0.6982" style="stop-color:#A4A4A4;stop-opacity:0.5"/>
    <stop offset="0.7362" style="stop-color:#D5D5D5;stop-opacity:0.5"/>
    <stop offset="0.7649" style="stop-color:#F4F4F4;stop-opacity:0.5"/>
    <stop offset="0.781" style="stop-color:#FFFFFF;stop-opacity:0.5"/>
    <stop offset="0.9739" style="stop-color:#000000;stop-opacity:0.5"/>
    <stop offset="1" style="stop-color:#000000;stop-opacity:0.5"/>
  </radialGradient>
  <path fill="url(#SVGID_23_)" d="M48.116,47.633l-20.848,1.356c-0.034,0.004-0.063,0-0.098-0.001&#xD;&#xA;&#x9;&#x9;c0.005,0.345-0.009,0.605-0.004,0.942h21.092C48.253,49.141,48.158,48.422,48.116,47.633z"/>
  <radialGradient id="SVGID_24_" cx="-0.1309" cy="49.9521" r="48.3019" gradientUnits="userSpaceOnUse">
    <stop offset="0.549" style="stop-color:#000000;stop-opacity:0.5"/>
    <stop offset="0.5948" style="stop-color:#000000;stop-opacity:0.5"/>
    <stop offset="0.6005" style="stop-color:#0A0A0A;stop-opacity:0.5"/>
    <stop offset="0.6524" style="stop-color:#606060;stop-opacity:0.5"/>
    <stop offset="0.6982" style="stop-color:#A4A4A4;stop-opacity:0.5"/>
    <stop offset="0.7362" style="stop-color:#D5D5D5;stop-opacity:0.5"/>
    <stop offset="0.7649" style="stop-color:#F4F4F4;stop-opacity:0.5"/>
    <stop offset="0.781" style="stop-color:#FFFFFF;stop-opacity:0.5"/>
    <stop offset="0.9739" style="stop-color:#000000;stop-opacity:0.5"/>
    <stop offset="1" style="stop-color:#000000;stop-opacity:0.5"/>
  </radialGradient>
  <path fill="url(#SVGID_24_)" d="M46.794,38.719L26.76,44.046c-0.097,0.025-0.192,0.018-0.289,0.016&#xD;&#xA;&#x9;&#x9;c0.028,0.118,0.055,0.238,0.083,0.359c0.07-0.031,0.133-0.07,0.211-0.083l20.525-3.347C47.142,40.232,46.977,39.474,46.794,38.719z&#xD;&#xA;&#x9;&#x9;"/>
  <radialGradient id="SVGID_25_" cx="-0.1299" cy="49.9497" r="48.3007" gradientUnits="userSpaceOnUse">
    <stop offset="0.549" style="stop-color:#000000;stop-opacity:0.5"/>
    <stop offset="0.5948" style="stop-color:#000000;stop-opacity:0.5"/>
    <stop offset="0.6005" style="stop-color:#0A0A0A;stop-opacity:0.5"/>
    <stop offset="0.6524" style="stop-color:#606060;stop-opacity:0.5"/>
    <stop offset="0.6982" style="stop-color:#A4A4A4;stop-opacity:0.5"/>
    <stop offset="0.7362" style="stop-color:#D5D5D5;stop-opacity:0.5"/>
    <stop offset="0.7649" style="stop-color:#F4F4F4;stop-opacity:0.5"/>
    <stop offset="0.781" style="stop-color:#FFFFFF;stop-opacity:0.5"/>
    <stop offset="0.9739" style="stop-color:#000000;stop-opacity:0.5"/>
    <stop offset="1" style="stop-color:#000000;stop-opacity:0.5"/>
  </radialGradient>
  <path fill="url(#SVGID_25_)" d="M47.665,43.177l-20.543,3.354c-0.068,0.01-0.131-0.008-0.199-0.01&#xD;&#xA;&#x9;&#x9;c0.015,0.104,0.027,0.205,0.04,0.307c0.05-0.008,0.093-0.034,0.146-0.039l20.836-1.367C47.868,44.672,47.774,43.924,47.665,43.177z&#xD;&#xA;&#x9;&#x9;"/>
  <radialGradient id="SVGID_26_" cx="0.5156" cy="50.0684" r="48.4614" gradientUnits="userSpaceOnUse">
    <stop offset="0.549" style="stop-color:#000000;stop-opacity:0.5"/>
    <stop offset="0.5948" style="stop-color:#000000;stop-opacity:0.5"/>
    <stop offset="0.6005" style="stop-color:#0A0A0A;stop-opacity:0.5"/>
    <stop offset="0.6524" style="stop-color:#606060;stop-opacity:0.5"/>
    <stop offset="0.6982" style="stop-color:#A4A4A4;stop-opacity:0.5"/>
    <stop offset="0.7362" style="stop-color:#D5D5D5;stop-opacity:0.5"/>
    <stop offset="0.7649" style="stop-color:#F4F4F4;stop-opacity:0.5"/>
    <stop offset="0.781" style="stop-color:#FFFFFF;stop-opacity:0.5"/>
    <stop offset="0.9739" style="stop-color:#000000;stop-opacity:0.5"/>
    <stop offset="1" style="stop-color:#000000;stop-opacity:0.5"/>
  </radialGradient>
  <path fill="url(#SVGID_26_)" d="M0,2.36v21.09c0.07,0,0.461,0.019,0.72,0.026c-0.002-0.033-0.004-0.062-0.004-0.094l0.72-20.995&#xD;&#xA;&#x9;&#x9;C1.089,2.38,0.038,2.36,0,2.36z"/>
  <radialGradient id="SVGID_27_" cx="-0.1084" cy="49.9204" r="48.2593" gradientUnits="userSpaceOnUse">
    <stop offset="0.549" style="stop-color:#000000;stop-opacity:0.5"/>
    <stop offset="0.5948" style="stop-color:#000000;stop-opacity:0.5"/>
    <stop offset="0.6005" style="stop-color:#0A0A0A;stop-opacity:0.5"/>
    <stop offset="0.6524" style="stop-color:#606060;stop-opacity:0.5"/>
    <stop offset="0.6982" style="stop-color:#A4A4A4;stop-opacity:0.5"/>
    <stop offset="0.7362" style="stop-color:#D5D5D5;stop-opacity:0.5"/>
    <stop offset="0.7649" style="stop-color:#F4F4F4;stop-opacity:0.5"/>
    <stop offset="0.781" style="stop-color:#FFFFFF;stop-opacity:0.5"/>
    <stop offset="0.9739" style="stop-color:#000000;stop-opacity:0.5"/>
    <stop offset="1" style="stop-color:#000000;stop-opacity:0.5"/>
  </radialGradient>
  <path fill="url(#SVGID_27_)" d="M13.187,4.162L8.633,24.451c-0.019,0.08-0.044,0.152-0.077,0.223&#xD;&#xA;&#x9;&#x9;c0.108,0.033,0.186,0.057,0.293,0.092c0.01-0.07,0.023-0.127,0.047-0.197l6.617-19.713C14.744,4.605,13.969,4.373,13.187,4.162z"/>
  <radialGradient id="SVGID_28_" cx="-0.1279" cy="49.9497" r="48.2988" gradientUnits="userSpaceOnUse">
    <stop offset="0.549" style="stop-color:#000000;stop-opacity:0.5"/>
    <stop offset="0.5948" style="stop-color:#000000;stop-opacity:0.5"/>
    <stop offset="0.6005" style="stop-color:#0A0A0A;stop-opacity:0.5"/>
    <stop offset="0.6524" style="stop-color:#606060;stop-opacity:0.5"/>
    <stop offset="0.6982" style="stop-color:#A4A4A4;stop-opacity:0.5"/>
    <stop offset="0.7362" style="stop-color:#D5D5D5;stop-opacity:0.5"/>
    <stop offset="0.7649" style="stop-color:#F4F4F4;stop-opacity:0.5"/>
    <stop offset="0.781" style="stop-color:#FFFFFF;stop-opacity:0.5"/>
    <stop offset="0.9739" style="stop-color:#000000;stop-opacity:0.5"/>
    <stop offset="1" style="stop-color:#000000;stop-opacity:0.5"/>
  </radialGradient>
  <path fill="url(#SVGID_28_)" d="M17.606,5.587l-6.607,19.686c-0.029,0.086-0.086,0.154-0.133,0.227&#xD;&#xA;&#x9;&#x9;c0.097,0.04,0.195,0.078,0.292,0.119c0.016-0.07,0.016-0.142,0.047-0.21L19.79,6.472C19.07,6.16,18.343,5.865,17.606,5.587z"/>
  <radialGradient id="SVGID_29_" cx="-0.624" cy="49.9517" r="48.6452" gradientUnits="userSpaceOnUse">
    <stop offset="0.549" style="stop-color:#000000;stop-opacity:0.5"/>
    <stop offset="0.5948" style="stop-color:#000000;stop-opacity:0.5"/>
    <stop offset="0.6005" style="stop-color:#0A0A0A;stop-opacity:0.5"/>
    <stop offset="0.6524" style="stop-color:#606060;stop-opacity:0.5"/>
    <stop offset="0.6982" style="stop-color:#A4A4A4;stop-opacity:0.5"/>
    <stop offset="0.7362" style="stop-color:#D5D5D5;stop-opacity:0.5"/>
    <stop offset="0.7649" style="stop-color:#F4F4F4;stop-opacity:0.5"/>
    <stop offset="0.781" style="stop-color:#FFFFFF;stop-opacity:0.5"/>
    <stop offset="0.9739" style="stop-color:#000000;stop-opacity:0.5"/>
    <stop offset="1" style="stop-color:#000000;stop-opacity:0.5"/>
  </radialGradient>
  <path fill="url(#SVGID_29_)" d="M8.549,3.146l-2.68,20.643c-0.011,0.102-0.021,0.16-0.06,0.25c0.156,0.021,0.488,0.059,0.635,0.092&#xD;&#xA;&#x9;&#x9;c0.002-0.055,0.01-0.107,0.023-0.162l4.563-20.336C10.211,3.449,9.384,3.287,8.549,3.146z"/>
  <radialGradient id="SVGID_30_" cx="-0.4678" cy="49.937" r="48.4362" gradientUnits="userSpaceOnUse">
    <stop offset="0.549" style="stop-color:#000000;stop-opacity:0.5"/>
    <stop offset="0.5948" style="stop-color:#000000;stop-opacity:0.5"/>
    <stop offset="0.6005" style="stop-color:#0A0A0A;stop-opacity:0.5"/>
    <stop offset="0.6524" style="stop-color:#606060;stop-opacity:0.5"/>
    <stop offset="0.6982" style="stop-color:#A4A4A4;stop-opacity:0.5"/>
    <stop offset="0.7362" style="stop-color:#D5D5D5;stop-opacity:0.5"/>
    <stop offset="0.7649" style="stop-color:#F4F4F4;stop-opacity:0.5"/>
    <stop offset="0.781" style="stop-color:#FFFFFF;stop-opacity:0.5"/>
    <stop offset="0.9739" style="stop-color:#000000;stop-opacity:0.5"/>
    <stop offset="1" style="stop-color:#000000;stop-opacity:0.5"/>
  </radialGradient>
  <path fill="url(#SVGID_30_)" d="M6.353,2.83C5.46,2.72,4.562,2.634,3.655,2.576L2.937,23.408c-0.002,0.073-0.015,0.135-0.03,0.203&#xD;&#xA;&#x9;&#x9;c0.204,0.021,0.549,0.047,0.752,0.072c-0.003-0.064-0.001-0.084,0.007-0.15L6.353,2.83z"/>
  <radialGradient id="SVGID_31_" cx="-0.1299" cy="49.9492" r="48.3003" gradientUnits="userSpaceOnUse">
    <stop offset="0.549" style="stop-color:#000000;stop-opacity:0.5"/>
    <stop offset="0.5948" style="stop-color:#000000;stop-opacity:0.5"/>
    <stop offset="0.6005" style="stop-color:#0A0A0A;stop-opacity:0.5"/>
    <stop offset="0.6524" style="stop-color:#606060;stop-opacity:0.5"/>
    <stop offset="0.6982" style="stop-color:#A4A4A4;stop-opacity:0.5"/>
    <stop offset="0.7362" style="stop-color:#D5D5D5;stop-opacity:0.5"/>
    <stop offset="0.7649" style="stop-color:#F4F4F4;stop-opacity:0.5"/>
    <stop offset="0.781" style="stop-color:#FFFFFF;stop-opacity:0.5"/>
    <stop offset="0.9739" style="stop-color:#000000;stop-opacity:0.5"/>
    <stop offset="1" style="stop-color:#000000;stop-opacity:0.5"/>
  </radialGradient>
  <path fill="url(#SVGID_31_)" d="M25.718,9.535L15.319,27.466c-0.052,0.088-0.125,0.15-0.194,0.216&#xD;&#xA;&#x9;&#x9;c0.104,0.065,0.208,0.13,0.312,0.195c0.029-0.069,0.045-0.143,0.092-0.206l12.146-16.881C27.033,10.357,26.38,9.938,25.718,9.535z"/>
  <radialGradient id="SVGID_32_" cx="-0.127" cy="49.9487" r="48.2972" gradientUnits="userSpaceOnUse">
    <stop offset="0.549" style="stop-color:#000000;stop-opacity:0.5"/>
    <stop offset="0.5948" style="stop-color:#000000;stop-opacity:0.5"/>
    <stop offset="0.6005" style="stop-color:#0A0A0A;stop-opacity:0.5"/>
    <stop offset="0.6524" style="stop-color:#606060;stop-opacity:0.5"/>
    <stop offset="0.6982" style="stop-color:#A4A4A4;stop-opacity:0.5"/>
    <stop offset="0.7362" style="stop-color:#D5D5D5;stop-opacity:0.5"/>
    <stop offset="0.7649" style="stop-color:#F4F4F4;stop-opacity:0.5"/>
    <stop offset="0.781" style="stop-color:#FFFFFF;stop-opacity:0.5"/>
    <stop offset="0.9739" style="stop-color:#000000;stop-opacity:0.5"/>
    <stop offset="1" style="stop-color:#000000;stop-opacity:0.5"/>
  </radialGradient>
  <path fill="url(#SVGID_32_)" d="M32.955,14.904L19.172,30.625c-0.023,0.025-0.056,0.037-0.079,0.061&#xD;&#xA;&#x9;&#x9;c0.25,0.227,0.245,0.301,0.486,0.536l15.103-14.698C34.119,15.97,33.544,15.43,32.955,14.904z"/>
  <radialGradient id="SVGID_33_" cx="-0.127" cy="49.9502" r="48.298" gradientUnits="userSpaceOnUse">
    <stop offset="0.549" style="stop-color:#000000;stop-opacity:0.5"/>
    <stop offset="0.5948" style="stop-color:#000000;stop-opacity:0.5"/>
    <stop offset="0.6005" style="stop-color:#0A0A0A;stop-opacity:0.5"/>
    <stop offset="0.6524" style="stop-color:#606060;stop-opacity:0.5"/>
    <stop offset="0.6982" style="stop-color:#A4A4A4;stop-opacity:0.5"/>
    <stop offset="0.7362" style="stop-color:#D5D5D5;stop-opacity:0.5"/>
    <stop offset="0.7649" style="stop-color:#F4F4F4;stop-opacity:0.5"/>
    <stop offset="0.781" style="stop-color:#FFFFFF;stop-opacity:0.5"/>
    <stop offset="0.9739" style="stop-color:#000000;stop-opacity:0.5"/>
    <stop offset="1" style="stop-color:#000000;stop-opacity:0.5"/>
  </radialGradient>
  <path fill="url(#SVGID_33_)" d="M29.485,12.07L17.329,28.968c-0.04,0.055-0.098,0.086-0.145,0.133&#xD;&#xA;&#x9;&#x9;c0.081,0.063,0.164,0.125,0.245,0.189c0.028-0.041,0.039-0.09,0.075-0.129l13.766-15.701C30.688,12.984,30.093,12.521,29.485,12.07&#xD;&#xA;&#x9;&#x9;z"/>
  <radialGradient id="SVGID_34_" cx="-0.1289" cy="49.9492" r="48.3008" gradientUnits="userSpaceOnUse">
    <stop offset="0.549" style="stop-color:#000000;stop-opacity:0.5"/>
    <stop offset="0.5948" style="stop-color:#000000;stop-opacity:0.5"/>
    <stop offset="0.6005" style="stop-color:#0A0A0A;stop-opacity:0.5"/>
    <stop offset="0.6524" style="stop-color:#606060;stop-opacity:0.5"/>
    <stop offset="0.6982" style="stop-color:#A4A4A4;stop-opacity:0.5"/>
    <stop offset="0.7362" style="stop-color:#D5D5D5;stop-opacity:0.5"/>
    <stop offset="0.7649" style="stop-color:#F4F4F4;stop-opacity:0.5"/>
    <stop offset="0.781" style="stop-color:#FFFFFF;stop-opacity:0.5"/>
    <stop offset="0.9739" style="stop-color:#000000;stop-opacity:0.5"/>
    <stop offset="1" style="stop-color:#000000;stop-opacity:0.5"/>
  </radialGradient>
  <path fill="url(#SVGID_34_)" d="M21.805,7.398l-8.577,18.923c-0.035,0.078-0.095,0.135-0.145,0.199&#xD;&#xA;&#x9;&#x9;c0.073,0.037,0.148,0.073,0.222,0.112c0.023-0.094,0.041-0.192,0.094-0.281L23.796,8.427C23.141,8.07,22.477,7.728,21.805,7.398z"/>
</svg>