<svg version="1.2" baseProfile="tiny" viewBox="0 0 48.84 25.529" xmlns:xlink="http://www.w3.org/1999/xlink" xmlns="http://www.w3.org/2000/svg">
<path style="fill:#ffffff;" d="M47.7299,2.22C47.7299,1.6101,47.2312,1.11,46.6212,1.11C46.0112,1.11,45.5111,1.6101,45.5111,2.22L43.2908,2.22C43.2908,1.6101,42.7912,1.11,42.1802,1.11C41.5711,1.11,41.071,1.6101,41.071,2.22L38.8512,2.22C38.8512,1.6101,38.3521,1.11,37.7421,1.11C37.1321,1.11,36.632,1.6101,36.632,2.22L34.4122,2.22C34.4122,1.6101,33.9121,1.11,33.302,1.11C32.692,1.11,32.1919,1.6101,32.1919,2.22L29.9721,2.22C29.9721,1.6101,29.472,1.11,28.863,1.11C28.252,1.11,27.7519,1.6101,27.7519,2.22L25.5331,2.22C25.5331,1.6101,25.0329,1.11,24.4229,1.11C23.8129,1.11,23.3128,1.6101,23.3128,2.22L21.093,2.22C21.093,1.6101,20.5929,1.11,19.9819,1.11C19.3729,1.11,18.8732,1.6101,18.8732,2.22L16.654,2.22C16.654,1.6101,16.1538,1.11,15.5438,1.11C14.9328,1.11,14.4332,1.6101,14.4332,2.22L12.2129,2.22C12.2129,1.6101,11.7128,1.11,11.1028,1.11C10.4928,1.11,9.9941,1.6101,9.9941,2.22L7.77,2.22L7.77,2.22C7.77,1.6101,7.2708,1.11,6.6608,1.11C6.0498,1.11,5.5502,1.6101,5.5502,2.22L3.3309,2.22L3.3309,2.22C3.3309,1.6101,2.8308,1.11,2.2212,1.11C1.6098,1.11,1.1121,1.6101,1.1121,2.22L0.0,2.22L0.0,23.311L0.0,23.311L1.1111,23.311C1.1111,23.9199,1.6098,24.42,2.2198,24.42C2.8298,24.42,3.3299,23.9199,3.3299,23.311L5.5502,23.311L5.5502,23.311C5.5502,23.9199,6.0498,24.42,6.6608,24.42C7.2708,24.42,7.77,23.9199,7.77,23.311L9.9912,23.311C9.9912,23.9199,10.4899,24.42,11.0999,24.42C11.7099,24.42,12.21,23.9199,12.21,23.311L14.4298,23.311C14.4298,23.9199,14.9299,24.42,15.5409,24.42C16.1509,24.42,16.651,23.9199,16.651,23.311L18.8698,23.311C18.8698,23.9199,19.3699,24.42,19.979,24.42C20.59,24.42,21.0901,23.9199,21.0901,23.311L23.3099,23.311C23.3099,23.9199,23.81,24.42,24.42,24.42C25.03,24.42,25.5301,23.9199,25.5301,23.311L27.7489,23.311C27.7489,23.9199,28.2491,24.42,28.86,24.42C29.4691,24.42,29.9692,23.9199,29.9692,23.311L32.189,23.311C32.189,23.9199,32.6891,24.42,33.2991,24.42C33.9091,24.42,34.4088,23.9199,34.4088,23.311L36.629,23.311C36.629,23.9199,37.1291,24.42,37.7392,24.42C38.3492,24.42,38.8478,23.9199,38.8478,23.311L41.0681,23.311C41.0681,23.9199,41.5682,24.42,42.1768,24.42C42.7882,24.42,43.2879,23.9199,43.2879,23.311L45.5081,23.311C45.5081,23.9199,46.0078,24.42,46.6178,24.42C47.2278,24.42,47.7269,23.9199,47.7269,23.311L48.8371,23.311L48.8371,2.22L47.7299,2.22L47.7299,2.22Z"/>
</svg>