<svg version="1.2" baseProfile="tiny" viewBox="0 0 152.16 36.184" xmlns:xlink="http://www.w3.org/1999/xlink" xmlns="http://www.w3.org/2000/svg">
<path style="fill:#ffffff;" d="M151.0797,8.103L151.0797,3.08L149.0803,3.08L149.0803,1.1029L143.0806,1.1029L143.0806,1.0801L138.0806,1.0801L138.0806,3.08L136.0797,3.08L136.0797,7.0801L122.0795,7.0801L122.0795,2.0799L114.0804,2.0799L114.0804,7.0801L99.0805,7.0801L76.08,11.0799L67.0797,11.0799L67.0797,6.08L59.0807,6.08L59.0807,11.0799L50.0804,11.0799L27.0799,7.0801L16.0803,7.0801L16.0803,3.08L14.0794,3.08L14.0794,1.0801L8.0797,1.0801L3.0797,1.0801L3.0797,3.08L1.0803,3.08L1.0803,8.0799L3.0797,8.0799L3.0797,10.0801L1.0803,10.0801L1.0803,15.08L3.0797,15.08L3.0797,20.36L1.0803,20.36L1.0803,25.3599L3.0797,25.3599L3.0797,27.3602L1.0803,27.3602L1.0803,32.3601L3.0797,32.3601L3.0797,35.08L8.0797,35.08L14.0794,35.08L14.0794,32.3601L16.0803,32.3601L16.0803,29.08L27.0799,29.08L50.0804,25.0799L59.0807,25.0799L59.0807,30.0801L67.0797,30.0801L67.0797,25.0799L76.08,25.0799L99.0805,29.08L114.0804,29.08L114.0804,34.0799L122.0795,34.0799L122.0795,29.08L136.0797,29.08L136.0797,33.0801L138.0806,33.0801L138.0806,35.08L143.0806,35.08L143.0806,35.1039L149.0803,35.1039L149.0803,33.0801L151.0797,33.0801L151.0797,28.3129L149.0803,28.3129L149.0803,26.08L151.0797,26.08L151.0797,21.0801L149.0803,21.0801L149.0803,15.1039L151.0797,15.1039L151.0797,10.0801L149.0803,10.0801L149.0803,8.103Z"/>
</svg>