<svg version="1.2" baseProfile="tiny" id="EdgeSVG_GK6aT" x="0px" y="0px" width="152.16px" height="36.184px" viewBox="0 0 152.16 36.184" xmlns:xlink="http://www.w3.org/1999/xlink" xmlns="http://www.w3.org/2000/svg">
  <linearGradient id="SVGID_1_" gradientUnits="userSpaceOnUse" x1="0" y1="18.0918" x2="152.1602" y2="18.0918">
    <stop offset="0.1086" style="stop-color:#060606;stop-opacity:0.5"/>
    <stop offset="0.7828" style="stop-color:#060606;stop-opacity:0.5"/>
  </linearGradient>
  <polygon fill="url(#SVGID_1_)" points="142,36.184 142,36.16 137,36.16 137,34.16 135,34.16 135,30.16 123.16,30.16 123.16,35.16 &#xD;&#xA;&#x9;&#x9;113,35.16 113,30.16 98.987,30.16 75.987,26.16 68.16,26.16 68.16,31.16 58,31.16 58,26.16 50.173,26.16 27.173,30.16 17.16,30.16 &#xD;&#xA;&#x9;&#x9;17.16,33.44 15.16,33.44 15.16,36.16 2,36.16 2,33.44 0,33.44 0,19.28 2,19.28 2,16.16 0,16.16 0,2 2,2 2,0 15.16,0 15.16,2 &#xD;&#xA;&#x9;&#x9;17.16,2 17.16,6 27.173,6 50.173,10 58,10 58,5 68.16,5 68.16,10 75.987,10 98.987,6 113,6 113,1 123.16,1 123.16,6 135,6 135,2 &#xD;&#xA;&#x9;&#x9;137,2 137,0 144.16,0 144.16,0.023 150.16,0.023 150.16,2 152.16,2 152.16,16.184 150.16,16.184 150.16,20 152.16,20 152.16,34.16 &#xD;&#xA;&#x9;&#x9;150.16,34.16 150.16,36.184 &#x9;"/>
</svg>