<svg version="1.2" baseProfile="tiny" viewBox="0 0 283.083 161.469" xmlns:xlink="http://www.w3.org/1999/xlink" xmlns="http://www.w3.org/2000/svg">
<path style="fill:#ffffff;" d="M280.2239,93.2597L249.0819,93.2597L249.0819,74.4324L245.9369,69.7837L245.9369,51.1921L242.7918,46.5451L242.7918,42.3485C242.7918,41.5815,242.1633,40.9534,241.3962,40.9534L235.4486,40.9534C234.6815,40.9534,234.0559,41.5815,234.0559,42.3485C234.0559,41.5815,233.4274,40.9534,232.6603,40.9534L34.3691,40.9534L34.3691,40.9534C33.602,40.9534,32.9763,41.5815,32.9763,42.3485C32.9763,41.5815,32.3479,40.9534,31.5807,40.9534L31.241,40.9534L31.241,34.4639L27.9884,34.4639L27.9884,30.4208L26.5928,30.4208L26.5928,24.8565L37.6217,24.8565L37.6217,24.3931L39.9458,24.3931L39.9458,22.7607L51.5664,22.7607L51.5664,3.0986L39.9458,3.0986L39.9458,1.4645L37.6217,1.4645L37.6217,0.9995L7.3856,0.9995L7.3856,30.4208L7.3856,30.4208L5.9872,30.4208L5.9872,34.4623L5.9872,34.4623L2.7346,34.4623L2.7346,40.9534L2.7346,40.9534L2.3949,40.9534L2.3949,40.9534C1.6277,40.9534,0.9993,41.5815,0.9993,42.3485L0.9993,159.0744C0.9993,159.843,1.6277,160.4695,2.3949,160.4695L31.5807,160.4695C32.3479,160.4695,32.9763,159.843,32.9763,159.0744C32.9763,159.843,33.602,160.4695,34.3691,160.4695L232.6631,160.4695C233.4302,160.4695,234.0587,159.843,234.0587,159.0744C234.0587,159.843,234.6843,160.4695,235.4515,160.4695L241.399,160.4695C242.1662,160.4695,242.7946,159.843,242.7946,159.0744L242.7946,154.8778L245.9397,150.2308L245.9397,131.6392L249.0847,126.9921L249.0847,107.6691L280.2267,107.6691C281.2486,107.6691,282.0865,106.8327,282.0865,105.8106L282.0865,95.1181C282.0837,94.0944,281.2458,93.2597,280.2239,93.2597Z"/>
</svg>