<svg version="1.2" baseProfile="tiny" id="EdgeSVG_itqzN" x="0px" y="0px" width="283.083px" height="161.469px" viewBox="0 0 283.083 161.469" xmlns:xlink="http://www.w3.org/1999/xlink" xmlns="http://www.w3.org/2000/svg">
  <linearGradient id="SVGID_1_" gradientUnits="userSpaceOnUse" x1="0" y1="80.7344" x2="283.0835" y2="80.7344">
    <stop offset="0" style="stop-color:#000000;stop-opacity:0.5"/>
    <stop offset="1" style="stop-color:#000000;stop-opacity:0.5"/>
  </linearGradient>
  <path fill="url(#SVGID_1_)" d="M235.451,161.469c-0.52,0-1.001-0.166-1.394-0.449c-0.394,0.283-0.875,0.449-1.395,0.449H34.37&#xD;&#xA;&#x9;&#x9;c-0.52,0-1.001-0.166-1.394-0.449c-0.393,0.283-0.875,0.449-1.395,0.449H2.394c-1.32,0-2.394-1.074-2.394-2.395V42.348&#xD;&#xA;&#x9;&#x9;c0-1.092,0.734-2.015,1.735-2.302v-6.582h3.253V29.42h1.397V0h32.239v0.465h2.324v1.633h11.62V23.76h-11.62v1.633h-2.324v0.464&#xD;&#xA;&#x9;&#x9;H27.594v3.563h1.394v4.043h3.253v6.582c0.267,0.077,0.514,0.199,0.734,0.356c0.393-0.282,0.875-0.449,1.394-0.449h198.293&#xD;&#xA;&#x9;&#x9;c0.52,0,1.001,0.167,1.395,0.449c0.393-0.282,0.874-0.449,1.394-0.449h5.948c1.32,0,2.395,1.074,2.395,2.394v3.891l3.146,4.647&#xD;&#xA;&#x9;&#x9;v18.591l3.145,4.648v18.134h30.141c1.577,0,2.859,1.283,2.859,2.859v10.689c0,1.577-1.282,2.859-2.859,2.859h-30.141v18.63&#xD;&#xA;&#x9;&#x9;l-3.145,4.648v18.591l-3.146,4.647v3.891c0,1.32-1.074,2.395-2.395,2.395H235.451z"/>
</svg>