<svg version="1.2" baseProfile="tiny" id="EdgeSVG_KMFhc" x="0px" y="0px" width="7px" height="65px" viewBox="0 0 7 65" xmlns:xlink="http://www.w3.org/1999/xlink" xmlns="http://www.w3.org/2000/svg">
  <linearGradient id="SVGID_3_" gradientUnits="userSpaceOnUse" x1="3.5" y1="64" x2="3.5" y2="1">
    <stop offset="0" style="stop-color:#000000;stop-opacity:0.02"/>
    <stop offset="0.4601" style="stop-color:#000000;stop-opacity:0.1"/>
    <stop offset="1" style="stop-color:#000000;stop-opacity:0"/>
  </linearGradient>
  <path fill="url(#SVGID_3_)" d="M6,61.52C6,62.889,4.881,64,3.5,64C2.12,64,1,62.889,1,61.52V3.48C1,2.11,2.12,1,3.5,1&#xD;&#xA;&#x9;&#x9;C4.881,1,6,2.11,6,3.48V61.52z"/>
  <linearGradient id="SVGID_4_" gradientUnits="userSpaceOnUse" x1="1.3408" y1="32.5" x2="5.6602" y2="32.5">
    <stop offset="0" style="stop-color:#000000;stop-opacity:0.02"/>
    <stop offset="0.4601" style="stop-color:#000000;stop-opacity:0.05"/>
    <stop offset="1" style="stop-color:#000000;stop-opacity:0.02"/>
  </linearGradient>
  <path fill="url(#SVGID_4_)" d="M3.5,63.662c-1.19,0-2.159-0.961-2.159-2.142V3.48c0-1.181,0.969-2.142,2.159-2.142&#xD;&#xA;&#x9;&#x9;c1.191,0,2.16,0.961,2.16,2.142v58.04C5.66,62.701,4.691,63.662,3.5,63.662z"/>
  <linearGradient id="SVGID_5_" gradientUnits="userSpaceOnUse" x1="3.5" y1="63.6616" x2="3.5" y2="1.3379">
    <stop offset="0" style="stop-color:#000000;stop-opacity:0.02"/>
    <stop offset="0.4601" style="stop-color:#000000;stop-opacity:0.05"/>
    <stop offset="1" style="stop-color:#000000;stop-opacity:0.02"/>
  </linearGradient>
  <path fill="url(#SVGID_5_)" d="M3.5,63.662c-1.19,0-2.159-0.961-2.159-2.142V3.48c0-1.181,0.969-2.142,2.159-2.142&#xD;&#xA;&#x9;&#x9;c1.191,0,2.16,0.961,2.16,2.142v58.04C5.66,62.701,4.691,63.662,3.5,63.662z M4.9,61.52V3.48c0-1.181-0.628-2.142-1.4-2.142&#xD;&#xA;&#x9;&#x9;c-0.771,0-1.399,0.961-1.399,2.142v58.04c0,1.181,0.628,2.142,1.399,2.142C4.272,63.662,4.9,62.701,4.9,61.52z"/>
  <g>
    <linearGradient id="SVGID_6_" gradientUnits="userSpaceOnUse" x1="2.6113" y1="1.3374" x2="2.6113" y2="63.6616">
      <stop offset="0" style="stop-color:#FFFFFF;stop-opacity:0.25"/>
      <stop offset="0.0368" style="stop-color:#FFFFFF;stop-opacity:0.45"/>
      <stop offset="0.0859" style="stop-color:#FFFFFF;stop-opacity:0.25"/>
      <stop offset="1" style="stop-color:#FFFFFF;stop-opacity:0.15"/>
    </linearGradient>
    <path fill="url(#SVGID_6_)" d="M3.5,63.662c-0.979,0-1.777-0.96-1.777-2.142V3.479c0-1.18,0.798-2.142,1.777-2.142&#xD;&#xA;&#x9;&#x9;&#x9;c-0.41,0-0.745,0.962-0.745,2.142v58.04C2.755,62.702,3.09,63.662,3.5,63.662z"/>
    <linearGradient id="SVGID_7_" gradientUnits="userSpaceOnUse" x1="4.3887" y1="1.3374" x2="4.3887" y2="63.6616">
      <stop offset="0" style="stop-color:#FFFFFF;stop-opacity:0.25"/>
      <stop offset="0.0368" style="stop-color:#FFFFFF;stop-opacity:0.45"/>
      <stop offset="0.0859" style="stop-color:#FFFFFF;stop-opacity:0.25"/>
      <stop offset="1" style="stop-color:#FFFFFF;stop-opacity:0.15"/>
    </linearGradient>
    <path fill="url(#SVGID_7_)" d="M5.278,3.479v58.04c0,1.182-0.798,2.142-1.778,2.142c0.411,0,0.746-0.96,0.746-2.142V3.479&#xD;&#xA;&#x9;&#x9;&#x9;c0-1.18-0.335-2.142-0.746-2.142C4.48,1.337,5.278,2.299,5.278,3.479z"/>
  </g>
</svg>