<svg version="1.2" baseProfile="tiny" viewBox="0 0 7.0 65.0" xmlns:xlink="http://www.w3.org/1999/xlink" xmlns="http://www.w3.org/2000/svg">
<path style="fill:#ffffff;stroke:#333333;stroke-width:0.3583;" d="M4.932,63.0292L3.738,63.0292L3.738,63.0292M3.738,56.2497L4.931,56.2497M4.106,61.674L4.931,61.674M4.932,60.3181L4.106,60.3181L4.106,60.3181M4.106,58.9621L4.931,58.9621M4.106,57.6049L4.931,57.6049M3.738,49.4721L4.931,49.4721M4.106,54.8951L4.931,54.8951M4.106,53.5379L4.931,53.5379M4.106,52.1833L4.931,52.1833M4.932,50.8268L4.106,50.8268L4.106,50.8268M4.932,42.6907L3.738,42.6907L3.738,42.6907M4.932,48.115L4.106,48.115L4.106,48.115M4.106,46.7577L4.931,46.7577M4.932,45.4031L4.106,45.4031L4.106,45.4031M4.932,44.0472L4.106,44.0472L4.106,44.0472M4.932,35.9118L3.738,35.9118L3.738,35.9118M4.932,41.3361L4.106,41.3361L4.106,41.3361M4.932,39.9802L4.106,39.9802L4.106,39.9802M4.932,38.6243L4.106,38.6243L4.106,38.6243M4.106,37.2671L4.931,37.2671M4.932,29.1317L3.738,29.1317L3.738,29.1317M4.932,34.556L4.106,34.556L4.106,34.556M4.932,33.2007L4.106,33.2007L4.106,33.2007M4.932,31.8428L4.106,31.8428L4.106,31.8428M4.932,30.4882L4.106,30.4882L4.106,30.4882M3.738,22.3528L4.931,22.3528M4.932,27.7758L4.106,27.7758L4.106,27.7758M4.106,26.4199L4.931,26.4199M4.932,25.064L4.106,25.064L4.106,25.064M4.932,23.7087L4.106,23.7087L4.106,23.7087M4.932,15.5727L3.738,15.5727L3.738,15.5727M4.932,20.997L4.106,20.997L4.106,20.997M4.106,19.6411L4.931,19.6411M4.932,18.2851L4.106,18.2851L4.106,18.2851M4.932,16.9299L4.106,16.9299L4.106,16.9299M3.738,8.7951L4.931,8.7951M4.932,14.2181L4.106,14.2181L4.106,14.2181M4.106,12.8609L4.931,12.8609M4.106,11.5063L4.931,11.5063M4.932,10.151L4.106,10.151L4.106,10.151M3.738,2.015L4.931,2.015M4.932,7.4392L4.106,7.4392L4.106,7.4392M4.106,6.0827L4.931,6.0827M4.106,4.7268L4.931,4.7268M4.106,3.3702L4.931,3.3702"/>
</svg>