<svg version="1.2" baseProfile="tiny" viewBox="0 0 109.181 224.627" xmlns:xlink="http://www.w3.org/1999/xlink" xmlns="http://www.w3.org/2000/svg">
<path style="fill:#ffffff;" d="M85.8075,101.5943L93.9612,101.5943L93.9612,137.921C93.9612,144.0758,89.9335,153.2338,78.8374,153.2338L71.6904,153.2338L71.6904,157.1288L71.6904,157.1288L38.2767,157.1288L38.2767,153.2338L38.2767,153.2338L30.9976,153.2338C19.9015,153.2338,15.8727,144.078,15.8727,137.921L15.8727,101.5943L24.0275,101.5943L24.0275,137.921C24.0548,139.5765,24.64,145.0776,30.9976,145.0776L38.2767,145.0776L71.6904,145.0776L71.6904,145.0776L78.8374,145.0776C85.1928,145.0776,85.7791,139.5765,85.8075,137.921L85.8075,101.5943M106.363,26.2701L104.2253,26.2701L104.2253,11.6581C104.2253,8.0551,95.8686,5.135,92.2656,5.135L16.5955,5.135L16.5955,5.135C12.9925,5.135,4.6347,8.0551,4.6347,11.6581L4.6347,26.2701L2.7896,26.2701L2.7896,26.2701L1.7043,26.953L1.7043,29.0443L2.7896,29.7249L4.6522,29.7249C4.6413,30.6683,4.6336,31.7061,4.6336,32.8607L4.6336,47.9736C4.6336,51.5766,12.9914,54.4968,16.5933,54.4968L92.2645,54.4968C95.8675,54.4968,104.2242,51.5766,104.2242,47.9736L104.2242,32.8607C104.2242,31.7106,104.2165,30.6706,104.1991,29.7249L106.3619,29.7249L107.4494,29.0398L107.4494,26.935L106.363,26.2701Z"/>
</svg>