<svg version="1.2" baseProfile="tiny" viewBox="0 0 109.181 224.627" xmlns:xlink="http://www.w3.org/1999/xlink" xmlns="http://www.w3.org/2000/svg">
<path style="fill:#ffffff;" d="M107.6809,169.9056L107.6809,223.1063L103.3595,223.1063L103.3595,208.7751L103.3365,208.7751C103.3365,208.7751,103.2164,207.1578,101.1748,207.1578C98.0565,207.7934,84.4875,206.9781,79.8026,213.1373C73.8489,220.9656,63.6176,225.0246,53.8142,222.2572C44.4825,219.6268,38.5977,213.4585,38.4546,203.5997C38.4546,203.548,38.4546,203.5008,38.4546,203.4492L38.4546,200.4392C38.4546,200.4392,38.34,198.6691,36.6761,199.763C29.0662,204.7857,12.4051,206.4749,8.0084,206.8208L8.0084,206.8231C7.9822,206.8231,7.9593,206.8253,7.9331,206.8275C7.8043,206.8365,7.6743,206.8455,7.552,206.8523C5.8248,207.0791,5.8456,208.5594,5.8456,208.5594L5.8226,208.5594L5.8226,223.104L5.8226,223.104L1.5001,223.104L1.5001,169.69L1.5001,169.69L5.8226,169.69L5.8226,183.8482L5.8445,183.8482C5.8445,183.8482,5.9656,185.4655,8.0073,185.4655C11.1255,184.8276,25.6739,182.8149,28.9974,177.8956C31.6166,174.0141,35.4205,171.1343,39.7441,169.4811L39.7441,166.525L31.6603,166.525L31.6603,162.3312L31.6603,162.3312L41.5543,162.3312L41.5543,161.2305L31.6603,161.2305L31.6603,161.2305L31.6603,157.039L78.1605,157.039L78.1605,161.2305L68.2971,161.2305L68.2971,162.3312L78.1605,162.3312L78.1605,166.525L71.2199,166.525L71.2199,190.2905C71.2199,190.2905,71.2199,193.2825,73.8915,191.7753C81.0778,187.723,97.1154,186.1214,101.1737,185.8002L101.1737,185.798C101.1988,185.798,101.2217,185.7957,101.249,185.7957C101.3778,185.7845,101.5067,185.7755,101.63,185.7688C103.3584,185.5441,103.3354,184.0616,103.3354,184.0616L103.3584,184.0616L103.3584,169.9056L107.6809,169.9056L107.6809,169.9056M7.3741,98.49L7.3741,61.5635C7.3741,59.5554,8.4724,58.4592,10.4781,58.4592L16.4569,58.4592L34.1485,58.4592L34.1485,54.4968L75.8175,54.4968L75.8175,58.4592L93.3705,58.4592L99.3514,58.4592C101.3571,58.4592,102.4554,59.5576,102.4554,61.5635L102.4554,98.49C102.4554,100.4959,101.356,101.5921,99.3514,101.5921L93.3705,101.5921L16.4579,101.5921L16.4579,101.5921L10.4792,101.5921C8.4714,101.5943,7.3741,100.4959,7.3741,98.49M98.5893,63.0213L99.2095,64.1041L100.4443,64.1041L101.0634,63.0213L100.4443,61.9386L99.2095,61.9386L99.2095,61.9386L98.5893,63.0213M98.5893,97.2702L99.2095,98.3529L100.4443,98.3529L101.0634,97.2702L100.4443,96.1875L99.2095,96.1875L99.2095,96.1875L98.5893,97.2702M8.8939,63.0213L9.514,64.1041L10.7489,64.1041L11.3679,63.0213L10.7489,61.9386L9.5129,61.9386L9.5129,61.9386L8.8939,63.0213M8.8939,97.2702L9.514,98.3529L10.7489,98.3529L11.3679,97.2702L10.7489,96.1875L9.5129,96.1875L9.5129,96.1875L8.8939,97.2702Z"/>
</svg>