<svg version="1.2" baseProfile="tiny" viewBox="0 0 109.181 224.627" xmlns:xlink="http://www.w3.org/1999/xlink" xmlns="http://www.w3.org/2000/svg">
<path style="fill:#ffffff;" d="M64.8885,135.2928C65.3175,135.2928,65.6713,134.9402,65.6713,134.5111L65.6713,133.087C65.6713,132.6557,65.3175,132.3053,64.8885,132.3053L57.7884,132.3053L57.2807,105.532L62.3063,105.532C62.7365,105.532,63.0891,105.1793,63.0891,104.7503L63.0891,102.102C63.0891,101.6729,62.7365,101.3203,62.3063,101.3203L47.5625,101.3203L47.5625,101.3203C47.1323,101.3203,46.7808,101.6729,46.7808,102.102L46.7808,104.7503C46.7808,105.1793,47.1323,105.532,47.5625,105.532L52.6984,105.532L52.0815,132.3053L44.9815,132.3053C44.5513,132.3053,44.1976,132.658,44.1976,133.087L44.1976,134.5111C44.1976,134.9424,44.5513,135.2928,44.9815,135.2928L47.8682,135.2928L47.8682,137.4695L44.9804,137.4695L44.9804,137.4695C44.5502,137.4695,44.1965,137.8648,44.1965,138.3455L44.1965,144.2016C44.1965,144.6823,44.5502,145.0776,44.9804,145.0776L64.8885,145.0776C65.3175,145.0776,65.6713,144.6823,65.6713,144.2016L65.6713,138.3455C65.6713,137.8648,65.3175,137.4695,64.8885,137.4695L62.0017,137.4695L62.0017,135.2928L64.8885,135.2928L64.8885,135.2928Z"/>
</svg>