<svg version="1.2" baseProfile="tiny" id="EdgeSVG_2zlgn" x="0px" y="0px" width="403.519px" height="279.471px" viewBox="0 0 403.519 279.471" xmlns:xlink="http://www.w3.org/1999/xlink" xmlns="http://www.w3.org/2000/svg">
  <linearGradient id="SVGID_1_" gradientUnits="userSpaceOnUse" x1="0.0078" y1="139.7358" x2="403.5078" y2="139.7358">
    <stop offset="0" style="stop-color:#000000;stop-opacity:0.5"/>
    <stop offset="1" style="stop-color:#000000;stop-opacity:0.5"/>
  </linearGradient>
  <path fill="url(#SVGID_1_)" d="M339.174,279.471v-3.313H64.702v3.313h-8.986v-3.313h-3.758v-38.705H0.008v-24h51.95v-2.674&#xD;&#xA;&#x9;&#x9;l-37.399-2.969c-3.196-0.253-6.103-1.736-8.184-4.174c-2.081-2.438-3.087-5.54-2.834-8.732c0.494-6.197,5.751-11.051,11.967-11.051&#xD;&#xA;&#x9;&#x9;h36.45v-2.674l-37.399-2.969c-3.196-0.253-6.103-1.736-8.184-4.174c-2.081-2.438-3.087-5.54-2.834-8.732&#xD;&#xA;&#x9;&#x9;c0.494-6.197,5.742-11.051,11.947-11.051h36.47v-2.674l-37.399-2.969c-3.196-0.253-6.103-1.736-8.184-4.174&#xD;&#xA;&#x9;&#x9;s-3.087-5.539-2.834-8.732c0.494-6.197,5.742-11.051,11.948-11.051h36.469v-2.674l-37.399-2.969&#xD;&#xA;&#x9;&#x9;c-3.196-0.253-6.103-1.736-8.184-4.174c-2.081-2.438-3.087-5.539-2.834-8.732c0.494-6.197,5.751-11.051,11.967-11.051h36.45v-2.674&#xD;&#xA;&#x9;&#x9;L14.559,89.41c-3.197-0.253-6.104-1.734-8.184-4.17c-2.081-2.437-3.087-5.539-2.834-8.736c0.494-6.197,5.742-11.051,11.947-11.051&#xD;&#xA;&#x9;&#x9;h36.47v-2.665L14.559,59.82c-6.598-0.534-11.54-6.328-11.018-12.917c0.494-6.197,5.742-11.051,11.947-11.051h36.47V0h299.96v35.853&#xD;&#xA;&#x9;&#x9;h51.59v24h-51.59v2.664l37.399,2.969c6.597,0.523,11.539,6.317,11.018,12.916c-0.495,6.197-5.747,11.051-11.957,11.051h-36.46&#xD;&#xA;&#x9;&#x9;v2.664l37.399,2.969c6.597,0.523,11.539,6.317,11.018,12.916c-0.495,6.198-5.747,11.052-11.957,11.052h-36.46v2.664l37.399,2.969&#xD;&#xA;&#x9;&#x9;c6.597,0.523,11.539,6.317,11.018,12.916c-0.495,6.197-5.747,11.051-11.957,11.051h-36.46v2.664l37.399,2.969&#xD;&#xA;&#x9;&#x9;c6.597,0.523,11.539,6.317,11.018,12.916c-0.495,6.197-5.747,11.051-11.957,11.051h-36.46v2.664l37.399,2.969&#xD;&#xA;&#x9;&#x9;c6.597,0.523,11.539,6.317,11.018,12.916c-0.495,6.197-5.747,11.051-11.957,11.051h-36.46v2.664l37.399,2.969&#xD;&#xA;&#x9;&#x9;c6.597,0.523,11.539,6.317,11.018,12.916c-0.495,6.197-5.747,11.051-11.957,11.051h-36.46v38.705h-3.758v3.313H339.174z&#xD;&#xA;&#x9;&#x9; M335.417,259.331v-21.878H68.46v21.878H335.417z M85.646,213.453l-17.186-1.364v1.364H85.646z M335.417,209.207v-1.354h-17.056&#xD;&#xA;&#x9;&#x9;L335.417,209.207z M85.646,183.853l-17.186-1.364v1.364H85.646z M335.417,179.607v-1.354h-17.056L335.417,179.607z M85.646,154.253&#xD;&#xA;&#x9;&#x9;l-17.186-1.364v1.364H85.646z M335.417,150.007v-1.354h-17.056L335.417,150.007z M85.642,124.653l-17.182-1.364v1.364H85.642z&#xD;&#xA;&#x9;&#x9; M335.417,120.407v-1.354h-17.056L335.417,120.407z M85.646,95.053L68.46,93.689v1.364H85.646z M335.417,90.807v-1.354h-17.056&#xD;&#xA;&#x9;&#x9;L335.417,90.807z M85.539,65.453L68.46,64.098v1.355H85.539z M335.417,61.207v-1.354h-17.056L335.417,61.207z M335.417,35.853&#xD;&#xA;&#x9;&#x9;V16.827H68.46v19.026H335.417z"/>
</svg>