<svg version="1.2" baseProfile="tiny" viewBox="0 0 403.519 279.471" xmlns:xlink="http://www.w3.org/1999/xlink" xmlns="http://www.w3.org/2000/svg">
<path style="fill:#ffffff;" d="M350.9163,236.452L350.9163,233.5092L387.4993,236.4129C387.7979,236.4436,388.0764,236.452,388.3669,236.452L350.9163,236.452L350.9163,236.452M388.3669,206.8533C388.0764,206.8533,387.7979,206.8421,387.4993,206.8141L350.9163,203.9076L350.9163,206.8533L388.3669,206.8533L388.3669,206.8533M15.9269,184.8533C16.0762,184.8617,16.2295,184.8729,16.3788,184.884L52.9578,187.7878L52.9578,184.8533L15.9269,184.8533L15.9269,184.8533M15.5072,155.2517C15.7978,155.2517,16.0883,155.2629,16.3788,155.2825L52.9578,158.1862L52.9578,155.2517L15.5072,155.2517L15.5072,155.2517M388.3669,177.2517C388.0764,177.2517,387.7979,177.2433,387.4993,177.2126L350.9163,174.3089L350.9163,177.2517L388.3669,177.2517L388.3669,177.2517M388.3669,147.6529C388.0764,147.6529,387.7979,147.6417,387.4993,147.6138L350.9163,144.7101L350.9163,147.6529L388.3669,147.6529L388.3669,147.6529M15.5072,125.653C15.7978,125.653,16.0883,125.6641,16.3788,125.6837L52.9578,128.5874L52.9578,125.653L15.5072,125.653L15.5072,125.653M388.3669,118.0541C388.0764,118.0541,387.7979,118.043,387.4993,118.0122L350.9163,115.1085L350.9163,118.0541L388.3669,118.0541L388.3669,118.0541M15.9269,96.0542C16.0762,96.0626,16.2295,96.0737,16.3788,96.0821L52.9578,98.9858L52.9578,96.0542L15.9269,96.0542L15.9269,96.0542M388.3669,88.4526C388.0764,88.4526,387.7979,88.4442,387.4993,88.4134L350.9163,85.5098L350.9163,88.4526L388.3669,88.4526L388.3669,88.4526M15.5072,66.4526C15.7978,66.4526,16.0883,66.4638,16.3788,66.4834L52.9578,69.3871L52.9578,66.4526L15.5072,66.4526L15.5072,66.4526M15.5072,36.8538C15.7978,36.8538,16.0883,36.8622,16.3788,36.8818L52.9578,39.7883L52.9578,36.8538L15.5072,36.8538L15.5072,36.8538M0.0081,214.4521L0.0081,236.452L52.9578,236.452L52.9578,214.4521L0.0081,214.4521L0.0081,214.4521M403.5069,36.8538L350.9163,36.8538L350.9163,58.8538L403.5069,58.8538L403.5069,36.8538M110.879,214.4521L67.4603,214.4521L67.4603,236.452L67.4603,236.452L336.4178,236.452L336.4178,232.3578L110.879,214.4521M110.879,184.8533L67.4603,184.8533L67.4603,188.9392L67.4603,188.9392L293.1283,206.8533L336.4178,206.8533L336.4178,202.7562L110.879,184.8533M110.879,155.2517L67.4603,155.2517L67.4603,159.3376L67.4603,159.3376L293.1283,177.2517L336.4178,177.2517L336.4178,173.1574L110.879,155.2517M110.879,125.653L67.4603,125.653L67.4603,129.7388L67.4603,129.7388L293.1283,147.6529L336.4178,147.6529L336.4178,143.5559L110.879,125.653M110.879,96.0542L67.4603,96.0542L67.4603,100.1373L67.4603,100.1373L293.1283,118.0541L336.4178,118.0541L336.4178,113.9571L110.879,96.0542M110.7781,66.4526L67.4603,66.4526L67.4603,70.5385L67.4603,70.5385L293.1283,88.4526L336.4178,88.4526L336.4178,84.3583L110.7781,66.4526M67.4603,36.8538L67.4603,40.9369L293.1283,58.8538L336.4178,58.8538L336.4178,36.8538L67.4603,36.8538L67.4603,36.8538M389.2385,214.4828L293.1283,206.8533C293.1283,206.8533,16.0762,184.8617,15.9269,184.8533L15.5072,184.8533C9.8378,184.8533,4.9996,189.213,4.5396,194.9841C4.0594,201.0319,8.5788,206.3335,14.6397,206.8141L110.879,214.4521C110.879,214.4521,388.0764,236.452,388.3669,236.452L388.379,236.452C394.0565,236.452,398.8785,232.0839,399.3386,226.324C399.8188,220.2623,395.2993,214.9635,389.2385,214.4828M389.2385,184.884L293.1283,177.2517C293.1283,177.2517,15.7978,155.2517,15.5072,155.2517C9.8378,155.2434,4.9996,159.6143,4.5396,165.3826C4.0594,171.4331,8.5788,176.7319,14.6397,177.2126L110.879,184.8533C110.879,184.8533,388.0764,206.8533,388.3669,206.8533L388.379,206.8533C394.0565,206.8533,398.8785,202.4823,399.3386,196.7224C399.8188,190.6635,395.2993,185.3619,389.2385,184.884M389.2385,155.2825L293.1283,147.6529C293.1283,147.6529,15.7978,125.653,15.5072,125.653C9.8378,125.6418,4.9996,130.0127,4.5396,135.7838C4.0594,141.8343,8.5788,147.1331,14.6397,147.6138L110.879,155.2517C110.879,155.2517,388.0764,177.2517,388.3669,177.2517L388.379,177.2517C394.0565,177.2517,398.8785,172.8836,399.3386,167.1237C399.8188,161.0619,395.2993,155.7632,389.2385,155.2825M389.2385,125.6837L293.1283,118.0541C293.1283,118.0541,16.0762,96.0626,15.9269,96.0542L15.5072,96.0542C9.8378,96.0542,4.9996,100.4139,4.5396,106.1822C4.0594,112.2328,8.5788,117.5343,14.6397,118.0122L110.879,125.653C110.879,125.653,388.0764,147.6529,388.3669,147.6529L388.379,147.6529C394.0565,147.6529,398.8785,143.282,399.3386,137.5221C399.8188,131.4632,395.2993,126.1644,389.2385,125.6837M389.2385,96.0821L293.1283,88.4526C293.1283,88.4526,15.7978,66.4526,15.5072,66.4526C9.8378,66.4442,4.9996,70.8124,4.5396,76.5834C4.0594,82.6424,8.5788,87.9328,14.6397,88.4134L110.879,96.0542C110.879,96.0542,388.0764,118.0541,388.3669,118.0541L388.379,118.0541C394.0565,118.0541,398.8785,113.6832,399.3386,107.9233C399.8188,101.8644,395.2993,96.5628,389.2385,96.0821M389.2385,66.4834L293.1283,58.8538C293.1283,58.8538,15.7978,36.8538,15.5072,36.8538C9.8378,36.8427,4.9996,41.2136,4.5396,46.9819C4.0594,53.0436,8.5788,58.334,14.6397,58.8231L110.7781,66.4526C110.7781,66.4526,388.0804,88.4526,388.3709,88.4526L388.379,88.4526C394.0605,88.4526,398.8785,84.0816,399.3386,78.3218C399.8188,72.2628,395.2993,66.9641,389.2385,66.4834Z"/>
</svg>