<svg version="1.2" baseProfile="tiny" id="EdgeSVG_2zlgn" x="0px" y="0px" width="403.519px" height="279.471px" viewBox="0 0 403.519 279.471" xmlns:xlink="http://www.w3.org/1999/xlink" xmlns="http://www.w3.org/2000/svg">
  <g>
    <linearGradient id="SVGID_28_" gradientUnits="userSpaceOnUse" x1="26.4824" y1="214.4531" x2="26.4824" y2="236.4531">
      <stop offset="0" style="stop-color:#000000;stop-opacity:0.5"/>
      <stop offset="0.05" style="stop-color:#000000;stop-opacity:0.5"/>
      <stop offset="0.1266" style="stop-color:#393939;stop-opacity:0.5"/>
      <stop offset="0.2286" style="stop-color:#7F7F7F;stop-opacity:0.5"/>
      <stop offset="0.3207" style="stop-color:#B6B6B6;stop-opacity:0.5"/>
      <stop offset="0.3994" style="stop-color:#DEDEDE;stop-opacity:0.5"/>
      <stop offset="0.4618" style="stop-color:#F6F6F6;stop-opacity:0.5"/>
      <stop offset="0.5" style="stop-color:#FFFFFF;stop-opacity:0.5"/>
      <stop offset="0.5382" style="stop-color:#F6F6F6;stop-opacity:0.5"/>
      <stop offset="0.6006" style="stop-color:#DEDEDE;stop-opacity:0.5"/>
      <stop offset="0.6793" style="stop-color:#B6B6B6;stop-opacity:0.5"/>
      <stop offset="0.7714" style="stop-color:#7F7F7F;stop-opacity:0.5"/>
      <stop offset="0.8734" style="stop-color:#393939;stop-opacity:0.5"/>
      <stop offset="0.95" style="stop-color:#000000;stop-opacity:0.5"/>
      <stop offset="1" style="stop-color:#000000;stop-opacity:0.5"/>
    </linearGradient>
    <rect x="0.008" y="214.453" fill="url(#SVGID_28_)" width="52.95" height="22"/>
    <linearGradient id="SVGID_29_" gradientUnits="userSpaceOnUse" x1="377.2129" y1="36.853" x2="377.2129" y2="58.853">
      <stop offset="0" style="stop-color:#000000;stop-opacity:0.5"/>
      <stop offset="0.05" style="stop-color:#000000;stop-opacity:0.5"/>
      <stop offset="0.1266" style="stop-color:#393939;stop-opacity:0.5"/>
      <stop offset="0.2286" style="stop-color:#7F7F7F;stop-opacity:0.5"/>
      <stop offset="0.3207" style="stop-color:#B6B6B6;stop-opacity:0.5"/>
      <stop offset="0.3994" style="stop-color:#DEDEDE;stop-opacity:0.5"/>
      <stop offset="0.4618" style="stop-color:#F6F6F6;stop-opacity:0.5"/>
      <stop offset="0.5" style="stop-color:#FFFFFF;stop-opacity:0.5"/>
      <stop offset="0.5382" style="stop-color:#F6F6F6;stop-opacity:0.5"/>
      <stop offset="0.6006" style="stop-color:#DEDEDE;stop-opacity:0.5"/>
      <stop offset="0.6793" style="stop-color:#B6B6B6;stop-opacity:0.5"/>
      <stop offset="0.7714" style="stop-color:#7F7F7F;stop-opacity:0.5"/>
      <stop offset="0.8734" style="stop-color:#393939;stop-opacity:0.5"/>
      <stop offset="0.95" style="stop-color:#000000;stop-opacity:0.5"/>
      <stop offset="1" style="stop-color:#000000;stop-opacity:0.5"/>
    </linearGradient>
    <rect x="350.918" y="36.853" fill="url(#SVGID_29_)" width="52.59" height="22"/>
    <linearGradient id="SVGID_30_" gradientUnits="userSpaceOnUse" x1="201.9385" y1="214.4531" x2="201.9385" y2="236.4531">
      <stop offset="0" style="stop-color:#000000;stop-opacity:0.5"/>
      <stop offset="0.05" style="stop-color:#000000;stop-opacity:0.5"/>
      <stop offset="0.1266" style="stop-color:#393939;stop-opacity:0.5"/>
      <stop offset="0.2286" style="stop-color:#7F7F7F;stop-opacity:0.5"/>
      <stop offset="0.3207" style="stop-color:#B6B6B6;stop-opacity:0.5"/>
      <stop offset="0.3994" style="stop-color:#DEDEDE;stop-opacity:0.5"/>
      <stop offset="0.4618" style="stop-color:#F6F6F6;stop-opacity:0.5"/>
      <stop offset="0.5" style="stop-color:#FFFFFF;stop-opacity:0.5"/>
      <stop offset="0.5382" style="stop-color:#F6F6F6;stop-opacity:0.5"/>
      <stop offset="0.6006" style="stop-color:#DEDEDE;stop-opacity:0.5"/>
      <stop offset="0.6793" style="stop-color:#B6B6B6;stop-opacity:0.5"/>
      <stop offset="0.7714" style="stop-color:#7F7F7F;stop-opacity:0.5"/>
      <stop offset="0.8734" style="stop-color:#393939;stop-opacity:0.5"/>
      <stop offset="0.95" style="stop-color:#000000;stop-opacity:0.5"/>
      <stop offset="1" style="stop-color:#000000;stop-opacity:0.5"/>
    </linearGradient>
    <polygon fill="url(#SVGID_30_)" points="110.878,214.453 67.46,214.453 67.46,236.453 336.417,236.453 336.417,232.358 &#x9;&#x9;"/>
    <linearGradient id="SVGID_31_" gradientUnits="userSpaceOnUse" x1="201.9385" y1="184.853" x2="201.9385" y2="206.853">
      <stop offset="0" style="stop-color:#000000;stop-opacity:0.5"/>
      <stop offset="0.05" style="stop-color:#000000;stop-opacity:0.5"/>
      <stop offset="0.1266" style="stop-color:#393939;stop-opacity:0.5"/>
      <stop offset="0.2286" style="stop-color:#7F7F7F;stop-opacity:0.5"/>
      <stop offset="0.3207" style="stop-color:#B6B6B6;stop-opacity:0.5"/>
      <stop offset="0.3994" style="stop-color:#DEDEDE;stop-opacity:0.5"/>
      <stop offset="0.4618" style="stop-color:#F6F6F6;stop-opacity:0.5"/>
      <stop offset="0.5" style="stop-color:#FFFFFF;stop-opacity:0.5"/>
      <stop offset="0.5382" style="stop-color:#F6F6F6;stop-opacity:0.5"/>
      <stop offset="0.6006" style="stop-color:#DEDEDE;stop-opacity:0.5"/>
      <stop offset="0.6793" style="stop-color:#B6B6B6;stop-opacity:0.5"/>
      <stop offset="0.7714" style="stop-color:#7F7F7F;stop-opacity:0.5"/>
      <stop offset="0.8734" style="stop-color:#393939;stop-opacity:0.5"/>
      <stop offset="0.95" style="stop-color:#000000;stop-opacity:0.5"/>
      <stop offset="1" style="stop-color:#000000;stop-opacity:0.5"/>
    </linearGradient>
    <polygon fill="url(#SVGID_31_)" points="110.878,184.853 67.46,184.853 67.46,188.938 293.128,206.853 336.417,206.853 &#xD;&#xA;&#x9;&#x9;&#x9;336.417,202.757 &#x9;&#x9;"/>
    <linearGradient id="SVGID_32_" gradientUnits="userSpaceOnUse" x1="201.9385" y1="155.2529" x2="201.9385" y2="177.2529">
      <stop offset="0" style="stop-color:#000000;stop-opacity:0.5"/>
      <stop offset="0.05" style="stop-color:#000000;stop-opacity:0.5"/>
      <stop offset="0.1266" style="stop-color:#393939;stop-opacity:0.5"/>
      <stop offset="0.2286" style="stop-color:#7F7F7F;stop-opacity:0.5"/>
      <stop offset="0.3207" style="stop-color:#B6B6B6;stop-opacity:0.5"/>
      <stop offset="0.3994" style="stop-color:#DEDEDE;stop-opacity:0.5"/>
      <stop offset="0.4618" style="stop-color:#F6F6F6;stop-opacity:0.5"/>
      <stop offset="0.5" style="stop-color:#FFFFFF;stop-opacity:0.5"/>
      <stop offset="0.5382" style="stop-color:#F6F6F6;stop-opacity:0.5"/>
      <stop offset="0.6006" style="stop-color:#DEDEDE;stop-opacity:0.5"/>
      <stop offset="0.6793" style="stop-color:#B6B6B6;stop-opacity:0.5"/>
      <stop offset="0.7714" style="stop-color:#7F7F7F;stop-opacity:0.5"/>
      <stop offset="0.8734" style="stop-color:#393939;stop-opacity:0.5"/>
      <stop offset="0.95" style="stop-color:#000000;stop-opacity:0.5"/>
      <stop offset="1" style="stop-color:#000000;stop-opacity:0.5"/>
    </linearGradient>
    <polygon fill="url(#SVGID_32_)" points="110.878,155.253 67.46,155.253 67.46,159.338 293.128,177.253 336.417,177.253 &#xD;&#xA;&#x9;&#x9;&#x9;336.417,173.158 &#x9;&#x9;"/>
    <linearGradient id="SVGID_33_" gradientUnits="userSpaceOnUse" x1="201.9385" y1="125.6528" x2="201.9385" y2="147.6528">
      <stop offset="0" style="stop-color:#000000;stop-opacity:0.5"/>
      <stop offset="0.05" style="stop-color:#000000;stop-opacity:0.5"/>
      <stop offset="0.1266" style="stop-color:#393939;stop-opacity:0.5"/>
      <stop offset="0.2286" style="stop-color:#7F7F7F;stop-opacity:0.5"/>
      <stop offset="0.3207" style="stop-color:#B6B6B6;stop-opacity:0.5"/>
      <stop offset="0.3994" style="stop-color:#DEDEDE;stop-opacity:0.5"/>
      <stop offset="0.4618" style="stop-color:#F6F6F6;stop-opacity:0.5"/>
      <stop offset="0.5" style="stop-color:#FFFFFF;stop-opacity:0.5"/>
      <stop offset="0.5382" style="stop-color:#F6F6F6;stop-opacity:0.5"/>
      <stop offset="0.6006" style="stop-color:#DEDEDE;stop-opacity:0.5"/>
      <stop offset="0.6793" style="stop-color:#B6B6B6;stop-opacity:0.5"/>
      <stop offset="0.7714" style="stop-color:#7F7F7F;stop-opacity:0.5"/>
      <stop offset="0.8734" style="stop-color:#393939;stop-opacity:0.5"/>
      <stop offset="0.95" style="stop-color:#000000;stop-opacity:0.5"/>
      <stop offset="1" style="stop-color:#000000;stop-opacity:0.5"/>
    </linearGradient>
    <polygon fill="url(#SVGID_33_)" points="110.878,125.653 67.46,125.653 67.46,129.738 293.128,147.653 336.417,147.653 &#xD;&#xA;&#x9;&#x9;&#x9;336.417,143.557 &#x9;&#x9;"/>
    <linearGradient id="SVGID_34_" gradientUnits="userSpaceOnUse" x1="201.9385" y1="96.0532" x2="201.9385" y2="118.0532">
      <stop offset="0" style="stop-color:#000000;stop-opacity:0.5"/>
      <stop offset="0.05" style="stop-color:#000000;stop-opacity:0.5"/>
      <stop offset="0.1266" style="stop-color:#393939;stop-opacity:0.5"/>
      <stop offset="0.2286" style="stop-color:#7F7F7F;stop-opacity:0.5"/>
      <stop offset="0.3207" style="stop-color:#B6B6B6;stop-opacity:0.5"/>
      <stop offset="0.3994" style="stop-color:#DEDEDE;stop-opacity:0.5"/>
      <stop offset="0.4618" style="stop-color:#F6F6F6;stop-opacity:0.5"/>
      <stop offset="0.5" style="stop-color:#FFFFFF;stop-opacity:0.5"/>
      <stop offset="0.5382" style="stop-color:#F6F6F6;stop-opacity:0.5"/>
      <stop offset="0.6006" style="stop-color:#DEDEDE;stop-opacity:0.5"/>
      <stop offset="0.6793" style="stop-color:#B6B6B6;stop-opacity:0.5"/>
      <stop offset="0.7714" style="stop-color:#7F7F7F;stop-opacity:0.5"/>
      <stop offset="0.8734" style="stop-color:#393939;stop-opacity:0.5"/>
      <stop offset="0.95" style="stop-color:#000000;stop-opacity:0.5"/>
      <stop offset="1" style="stop-color:#000000;stop-opacity:0.5"/>
    </linearGradient>
    <polygon fill="url(#SVGID_34_)" points="110.878,96.053 67.46,96.053 67.46,100.138 293.128,118.053 336.417,118.053 &#xD;&#xA;&#x9;&#x9;&#x9;336.417,113.958 &#x9;&#x9;"/>
    <linearGradient id="SVGID_35_" gradientUnits="userSpaceOnUse" x1="201.9385" y1="66.4531" x2="201.9385" y2="88.4531">
      <stop offset="0" style="stop-color:#000000;stop-opacity:0.5"/>
      <stop offset="0.05" style="stop-color:#000000;stop-opacity:0.5"/>
      <stop offset="0.1266" style="stop-color:#393939;stop-opacity:0.5"/>
      <stop offset="0.2286" style="stop-color:#7F7F7F;stop-opacity:0.5"/>
      <stop offset="0.3207" style="stop-color:#B6B6B6;stop-opacity:0.5"/>
      <stop offset="0.3994" style="stop-color:#DEDEDE;stop-opacity:0.5"/>
      <stop offset="0.4618" style="stop-color:#F6F6F6;stop-opacity:0.5"/>
      <stop offset="0.5" style="stop-color:#FFFFFF;stop-opacity:0.5"/>
      <stop offset="0.5382" style="stop-color:#F6F6F6;stop-opacity:0.5"/>
      <stop offset="0.6006" style="stop-color:#DEDEDE;stop-opacity:0.5"/>
      <stop offset="0.6793" style="stop-color:#B6B6B6;stop-opacity:0.5"/>
      <stop offset="0.7714" style="stop-color:#7F7F7F;stop-opacity:0.5"/>
      <stop offset="0.8734" style="stop-color:#393939;stop-opacity:0.5"/>
      <stop offset="0.95" style="stop-color:#000000;stop-opacity:0.5"/>
      <stop offset="1" style="stop-color:#000000;stop-opacity:0.5"/>
    </linearGradient>
    <polygon fill="url(#SVGID_35_)" points="110.777,66.453 67.46,66.453 67.46,70.539 293.128,88.453 336.417,88.453 336.417,84.359 &#xD;&#xA;&#x9;&#x9;&#x9;&#x9;&#x9;"/>
    <linearGradient id="SVGID_36_" gradientUnits="userSpaceOnUse" x1="201.9385" y1="36.853" x2="201.9385" y2="58.853">
      <stop offset="0" style="stop-color:#000000;stop-opacity:0.5"/>
      <stop offset="0.05" style="stop-color:#000000;stop-opacity:0.5"/>
      <stop offset="0.1266" style="stop-color:#393939;stop-opacity:0.5"/>
      <stop offset="0.2286" style="stop-color:#7F7F7F;stop-opacity:0.5"/>
      <stop offset="0.3207" style="stop-color:#B6B6B6;stop-opacity:0.5"/>
      <stop offset="0.3994" style="stop-color:#DEDEDE;stop-opacity:0.5"/>
      <stop offset="0.4618" style="stop-color:#F6F6F6;stop-opacity:0.5"/>
      <stop offset="0.5" style="stop-color:#FFFFFF;stop-opacity:0.5"/>
      <stop offset="0.5382" style="stop-color:#F6F6F6;stop-opacity:0.5"/>
      <stop offset="0.6006" style="stop-color:#DEDEDE;stop-opacity:0.5"/>
      <stop offset="0.6793" style="stop-color:#B6B6B6;stop-opacity:0.5"/>
      <stop offset="0.7714" style="stop-color:#7F7F7F;stop-opacity:0.5"/>
      <stop offset="0.8734" style="stop-color:#393939;stop-opacity:0.5"/>
      <stop offset="0.95" style="stop-color:#000000;stop-opacity:0.5"/>
      <stop offset="1" style="stop-color:#000000;stop-opacity:0.5"/>
    </linearGradient>
    <polygon fill="url(#SVGID_36_)" points="67.46,36.853 67.46,40.938 293.128,58.853 336.417,58.853 336.417,36.853 &#x9;&#x9;"/>
  </g>
  <g>
    <linearGradient id="SVGID_37_" gradientUnits="userSpaceOnUse" x1="0.0078" y1="225.4531" x2="52.958" y2="225.4531">
      <stop offset="0" style="stop-color:#000000;stop-opacity:0"/>
      <stop offset="1" style="stop-color:#000000;stop-opacity:0.2"/>
    </linearGradient>
    <rect x="0.008" y="214.453" fill="url(#SVGID_37_)" width="52.95" height="22"/>
    <linearGradient id="SVGID_38_" gradientUnits="userSpaceOnUse" x1="67.46" y1="225.4531" x2="336.417" y2="225.4531">
      <stop offset="0" style="stop-color:#000000;stop-opacity:0.2"/>
      <stop offset="1" style="stop-color:#000000;stop-opacity:0.45"/>
    </linearGradient>
    <polygon fill="url(#SVGID_38_)" points="110.878,214.453 67.46,214.453 67.46,236.453 336.417,236.453 336.417,232.358 &#x9;&#x9;"/>
    <g>
      <linearGradient id="SVGID_39_" gradientUnits="userSpaceOnUse" x1="350.918" y1="234.981" x2="388.3682" y2="234.981">
        <stop offset="0" style="stop-color:#000000;stop-opacity:0.45"/>
        <stop offset="1" style="stop-color:#000000;stop-opacity:0.45"/>
      </linearGradient>
      <path fill="url(#SVGID_39_)" d="M388.368,236.453c-0.29,0-0.57-0.01-0.87-0.04l-36.58-2.904v2.944H388.368z"/>
      <linearGradient id="SVGID_40_" gradientUnits="userSpaceOnUse" x1="350.918" y1="205.3809" x2="388.3682" y2="205.3809">
        <stop offset="0" style="stop-color:#000000;stop-opacity:0.45"/>
        <stop offset="1" style="stop-color:#000000;stop-opacity:0.45"/>
      </linearGradient>
      <path fill="url(#SVGID_40_)" d="M388.368,206.853c-0.29,0-0.57-0.01-0.87-0.04l-36.58-2.904v2.944H388.368z"/>
      <linearGradient id="SVGID_41_" gradientUnits="userSpaceOnUse" x1="350.918" y1="175.7808" x2="388.3682" y2="175.7808">
        <stop offset="0" style="stop-color:#000000;stop-opacity:0.45"/>
        <stop offset="1" style="stop-color:#000000;stop-opacity:0.45"/>
      </linearGradient>
      <path fill="url(#SVGID_41_)" d="M388.368,177.253c-0.29,0-0.57-0.01-0.87-0.04l-36.58-2.904v2.944H388.368z"/>
      <linearGradient id="SVGID_42_" gradientUnits="userSpaceOnUse" x1="350.918" y1="146.1807" x2="388.3682" y2="146.1807">
        <stop offset="0" style="stop-color:#000000;stop-opacity:0.45"/>
        <stop offset="1" style="stop-color:#000000;stop-opacity:0.45"/>
      </linearGradient>
      <path fill="url(#SVGID_42_)" d="M388.368,147.653c-0.29,0-0.57-0.01-0.87-0.04l-36.58-2.904v2.944H388.368z"/>
      <linearGradient id="SVGID_43_" gradientUnits="userSpaceOnUse" x1="350.918" y1="116.5811" x2="388.3682" y2="116.5811">
        <stop offset="0" style="stop-color:#000000;stop-opacity:0.45"/>
        <stop offset="1" style="stop-color:#000000;stop-opacity:0.45"/>
      </linearGradient>
      <path fill="url(#SVGID_43_)" d="M388.368,118.053c-0.29,0-0.57-0.01-0.87-0.04l-36.58-2.904v2.944H388.368z"/>
      <linearGradient id="SVGID_44_" gradientUnits="userSpaceOnUse" x1="350.918" y1="86.9819" x2="388.3682" y2="86.9819">
        <stop offset="0" style="stop-color:#000000;stop-opacity:0.45"/>
        <stop offset="1" style="stop-color:#000000;stop-opacity:0.45"/>
      </linearGradient>
      <path fill="url(#SVGID_44_)" d="M388.368,88.453c-0.29,0-0.57-0.01-0.87-0.04l-36.58-2.903v2.943H388.368z"/>
      <linearGradient id="SVGID_45_" gradientUnits="userSpaceOnUse" x1="15.9277" y1="186.3198" x2="52.958" y2="186.3198">
        <stop offset="0" style="stop-color:#000000;stop-opacity:0.45"/>
        <stop offset="1" style="stop-color:#000000;stop-opacity:0.45"/>
      </linearGradient>
      <path fill="url(#SVGID_45_)" d="M15.928,184.853c0.15,0.01,0.3,0.02,0.45,0.03l36.58,2.904v-2.934H15.928z"/>
      <linearGradient id="SVGID_46_" gradientUnits="userSpaceOnUse" x1="15.5078" y1="156.7202" x2="52.958" y2="156.7202">
        <stop offset="0" style="stop-color:#000000;stop-opacity:0.45"/>
        <stop offset="1" style="stop-color:#000000;stop-opacity:0.45"/>
      </linearGradient>
      <path fill="url(#SVGID_46_)" d="M15.508,155.253c0.29,0,0.58,0.01,0.87,0.03l36.58,2.904v-2.934H15.508z"/>
      <linearGradient id="SVGID_47_" gradientUnits="userSpaceOnUse" x1="15.5078" y1="127.1196" x2="52.958" y2="127.1196">
        <stop offset="0" style="stop-color:#000000;stop-opacity:0.45"/>
        <stop offset="1" style="stop-color:#000000;stop-opacity:0.45"/>
      </linearGradient>
      <path fill="url(#SVGID_47_)" d="M15.508,125.653c0.29,0,0.58,0.01,0.87,0.03l36.58,2.904v-2.934H15.508z"/>
      <linearGradient id="SVGID_48_" gradientUnits="userSpaceOnUse" x1="15.9277" y1="97.52" x2="52.958" y2="97.52">
        <stop offset="0" style="stop-color:#000000;stop-opacity:0.45"/>
        <stop offset="1" style="stop-color:#000000;stop-opacity:0.45"/>
      </linearGradient>
      <path fill="url(#SVGID_48_)" d="M15.928,96.053c0.15,0.01,0.3,0.02,0.45,0.03l36.58,2.904v-2.934H15.928z"/>
      <linearGradient id="SVGID_49_" gradientUnits="userSpaceOnUse" x1="15.5078" y1="67.9204" x2="52.958" y2="67.9204">
        <stop offset="0" style="stop-color:#000000;stop-opacity:0.45"/>
        <stop offset="1" style="stop-color:#000000;stop-opacity:0.45"/>
      </linearGradient>
      <path fill="url(#SVGID_49_)" d="M15.508,66.453c0.29,0,0.58,0.01,0.87,0.03l36.58,2.904v-2.934H15.508z"/>
      <linearGradient id="SVGID_50_" gradientUnits="userSpaceOnUse" x1="15.5078" y1="38.3198" x2="52.958" y2="38.3198">
        <stop offset="0" style="stop-color:#000000;stop-opacity:0.45"/>
        <stop offset="1" style="stop-color:#000000;stop-opacity:0.45"/>
      </linearGradient>
      <path fill="url(#SVGID_50_)" d="M15.508,36.853c0.29,0,0.58,0.01,0.87,0.03l36.58,2.904v-2.934H15.508z"/>
      <linearGradient id="SVGID_51_" gradientUnits="userSpaceOnUse" x1="67.46" y1="195.853" x2="336.417" y2="195.853">
        <stop offset="0" style="stop-color:#000000;stop-opacity:0.45"/>
        <stop offset="1" style="stop-color:#000000;stop-opacity:0.45"/>
      </linearGradient>
      <polygon fill="url(#SVGID_51_)" points="110.878,184.853 67.46,184.853 67.46,188.938 293.128,206.853 336.417,206.853 &#xD;&#xA;&#x9;&#x9;&#x9;&#x9;336.417,202.757 &#x9;&#x9;&#x9;"/>
      <linearGradient id="SVGID_52_" gradientUnits="userSpaceOnUse" x1="67.46" y1="166.2529" x2="336.417" y2="166.2529">
        <stop offset="0" style="stop-color:#000000;stop-opacity:0.45"/>
        <stop offset="1" style="stop-color:#000000;stop-opacity:0.45"/>
      </linearGradient>
      <polygon fill="url(#SVGID_52_)" points="110.878,155.253 67.46,155.253 67.46,159.338 293.128,177.253 336.417,177.253 &#xD;&#xA;&#x9;&#x9;&#x9;&#x9;336.417,173.158 &#x9;&#x9;&#x9;"/>
      <linearGradient id="SVGID_53_" gradientUnits="userSpaceOnUse" x1="67.46" y1="136.6528" x2="336.417" y2="136.6528">
        <stop offset="0" style="stop-color:#000000;stop-opacity:0.45"/>
        <stop offset="1" style="stop-color:#000000;stop-opacity:0.45"/>
      </linearGradient>
      <polygon fill="url(#SVGID_53_)" points="110.878,125.653 67.46,125.653 67.46,129.738 293.128,147.653 336.417,147.653 &#xD;&#xA;&#x9;&#x9;&#x9;&#x9;336.417,143.557 &#x9;&#x9;&#x9;"/>
      <linearGradient id="SVGID_54_" gradientUnits="userSpaceOnUse" x1="67.46" y1="107.0532" x2="336.417" y2="107.0532">
        <stop offset="0" style="stop-color:#000000;stop-opacity:0.45"/>
        <stop offset="1" style="stop-color:#000000;stop-opacity:0.45"/>
      </linearGradient>
      <polygon fill="url(#SVGID_54_)" points="110.878,96.053 67.46,96.053 67.46,100.138 293.128,118.053 336.417,118.053 &#xD;&#xA;&#x9;&#x9;&#x9;&#x9;336.417,113.958 &#x9;&#x9;&#x9;"/>
      <linearGradient id="SVGID_55_" gradientUnits="userSpaceOnUse" x1="67.46" y1="77.4531" x2="336.417" y2="77.4531">
        <stop offset="0" style="stop-color:#000000;stop-opacity:0.45"/>
        <stop offset="1" style="stop-color:#000000;stop-opacity:0.45"/>
      </linearGradient>
      <polygon fill="url(#SVGID_55_)" points="110.777,66.453 67.46,66.453 67.46,70.539 293.128,88.453 336.417,88.453 &#xD;&#xA;&#x9;&#x9;&#x9;&#x9;336.417,84.359 &#x9;&#x9;&#x9;"/>
    </g>
    <linearGradient id="SVGID_56_" gradientUnits="userSpaceOnUse" x1="67.46" y1="47.853" x2="336.417" y2="47.853">
      <stop offset="0" style="stop-color:#000000;stop-opacity:0.45"/>
      <stop offset="1" style="stop-color:#000000;stop-opacity:0"/>
    </linearGradient>
    <polygon fill="url(#SVGID_56_)" points="67.46,36.853 67.46,40.938 293.128,58.853 336.417,58.853 336.417,36.853 &#x9;&#x9;"/>
  </g>
  <g>
    <linearGradient id="SVGID_57_" gradientUnits="userSpaceOnUse" x1="369.6426" y1="233.5093" x2="369.6426" y2="236.4531">
      <stop offset="0" style="stop-color:#000000;stop-opacity:0.25"/>
      <stop offset="1" style="stop-color:#000000;stop-opacity:0.5"/>
    </linearGradient>
    <path fill="url(#SVGID_57_)" d="M388.368,236.453c-0.29,0-0.57-0.01-0.87-0.04l-36.58-2.904v2.944H388.368z"/>
    <linearGradient id="SVGID_58_" gradientUnits="userSpaceOnUse" x1="369.6426" y1="203.9087" x2="369.6426" y2="206.853">
      <stop offset="0" style="stop-color:#000000;stop-opacity:0.25"/>
      <stop offset="1" style="stop-color:#000000;stop-opacity:0.5"/>
    </linearGradient>
    <path fill="url(#SVGID_58_)" d="M388.368,206.853c-0.29,0-0.57-0.01-0.87-0.04l-36.58-2.904v2.944H388.368z"/>
    <linearGradient id="SVGID_59_" gradientUnits="userSpaceOnUse" x1="369.6426" y1="174.3091" x2="369.6426" y2="177.2529">
      <stop offset="0" style="stop-color:#000000;stop-opacity:0.25"/>
      <stop offset="1" style="stop-color:#000000;stop-opacity:0.5"/>
    </linearGradient>
    <path fill="url(#SVGID_59_)" d="M388.368,177.253c-0.29,0-0.57-0.01-0.87-0.04l-36.58-2.904v2.944H388.368z"/>
    <linearGradient id="SVGID_60_" gradientUnits="userSpaceOnUse" x1="369.6426" y1="144.7085" x2="369.6426" y2="147.6528">
      <stop offset="0" style="stop-color:#000000;stop-opacity:0.25"/>
      <stop offset="1" style="stop-color:#000000;stop-opacity:0.5"/>
    </linearGradient>
    <path fill="url(#SVGID_60_)" d="M388.368,147.653c-0.29,0-0.57-0.01-0.87-0.04l-36.58-2.904v2.944H388.368z"/>
    <linearGradient id="SVGID_61_" gradientUnits="userSpaceOnUse" x1="369.6426" y1="115.1089" x2="369.6426" y2="118.0532">
      <stop offset="0" style="stop-color:#000000;stop-opacity:0.25"/>
      <stop offset="1" style="stop-color:#000000;stop-opacity:0.5"/>
    </linearGradient>
    <path fill="url(#SVGID_61_)" d="M388.368,118.053c-0.29,0-0.57-0.01-0.87-0.04l-36.58-2.904v2.944H388.368z"/>
    <linearGradient id="SVGID_62_" gradientUnits="userSpaceOnUse" x1="369.6426" y1="85.5103" x2="369.6426" y2="88.4531">
      <stop offset="0" style="stop-color:#000000;stop-opacity:0.25"/>
      <stop offset="1" style="stop-color:#000000;stop-opacity:0.5"/>
    </linearGradient>
    <path fill="url(#SVGID_62_)" d="M388.368,88.453c-0.29,0-0.57-0.01-0.87-0.04l-36.58-2.903v2.943H388.368z"/>
  </g>
  <g>
    <linearGradient id="SVGID_63_" gradientUnits="userSpaceOnUse" x1="34.4434" y1="184.853" x2="34.4434" y2="187.7866">
      <stop offset="0" style="stop-color:#000000;stop-opacity:0.5"/>
      <stop offset="1" style="stop-color:#000000;stop-opacity:0"/>
    </linearGradient>
    <path fill="url(#SVGID_63_)" d="M15.928,184.853c0.15,0.01,0.3,0.02,0.45,0.03l36.58,2.904v-2.934H15.928z"/>
    <linearGradient id="SVGID_64_" gradientUnits="userSpaceOnUse" x1="34.2324" y1="155.2529" x2="34.2324" y2="158.187">
      <stop offset="0" style="stop-color:#000000;stop-opacity:0.5"/>
      <stop offset="1" style="stop-color:#000000;stop-opacity:0"/>
    </linearGradient>
    <path fill="url(#SVGID_64_)" d="M15.508,155.253c0.29,0,0.58,0.01,0.87,0.03l36.58,2.904v-2.934H15.508z"/>
    <linearGradient id="SVGID_65_" gradientUnits="userSpaceOnUse" x1="34.2324" y1="125.6528" x2="34.2324" y2="128.5869">
      <stop offset="0" style="stop-color:#000000;stop-opacity:0.5"/>
      <stop offset="1" style="stop-color:#000000;stop-opacity:0"/>
    </linearGradient>
    <path fill="url(#SVGID_65_)" d="M15.508,125.653c0.29,0,0.58,0.01,0.87,0.03l36.58,2.904v-2.934H15.508z"/>
    <linearGradient id="SVGID_66_" gradientUnits="userSpaceOnUse" x1="34.4434" y1="96.0532" x2="34.4434" y2="98.9868">
      <stop offset="0" style="stop-color:#000000;stop-opacity:0.5"/>
      <stop offset="1" style="stop-color:#000000;stop-opacity:0"/>
    </linearGradient>
    <path fill="url(#SVGID_66_)" d="M15.928,96.053c0.15,0.01,0.3,0.02,0.45,0.03l36.58,2.904v-2.934H15.928z"/>
    <linearGradient id="SVGID_67_" gradientUnits="userSpaceOnUse" x1="34.2324" y1="66.4531" x2="34.2324" y2="69.3872">
      <stop offset="0" style="stop-color:#000000;stop-opacity:0.5"/>
      <stop offset="1" style="stop-color:#000000;stop-opacity:0"/>
    </linearGradient>
    <path fill="url(#SVGID_67_)" d="M15.508,66.453c0.29,0,0.58,0.01,0.87,0.03l36.58,2.904v-2.934H15.508z"/>
    <linearGradient id="SVGID_68_" gradientUnits="userSpaceOnUse" x1="34.2324" y1="36.853" x2="34.2324" y2="39.7866">
      <stop offset="0" style="stop-color:#000000;stop-opacity:0.5"/>
      <stop offset="1" style="stop-color:#000000;stop-opacity:0"/>
    </linearGradient>
    <path fill="url(#SVGID_68_)" d="M15.508,36.853c0.29,0,0.58,0.01,0.87,0.03l36.58,2.904v-2.934H15.508z"/>
  </g>
  <g>
    <linearGradient id="SVGID_69_" gradientUnits="userSpaceOnUse" x1="202.8838" y1="199.1621" x2="200.9951" y2="222.1349">
      <stop offset="0" style="stop-color:#000000;stop-opacity:0.5"/>
      <stop offset="0.05" style="stop-color:#000000;stop-opacity:0.5"/>
      <stop offset="0.1266" style="stop-color:#393939;stop-opacity:0.5"/>
      <stop offset="0.2286" style="stop-color:#7F7F7F;stop-opacity:0.5"/>
      <stop offset="0.3207" style="stop-color:#B6B6B6;stop-opacity:0.5"/>
      <stop offset="0.3994" style="stop-color:#DEDEDE;stop-opacity:0.5"/>
      <stop offset="0.4618" style="stop-color:#F6F6F6;stop-opacity:0.5"/>
      <stop offset="0.5" style="stop-color:#FFFFFF;stop-opacity:0.5"/>
      <stop offset="0.5382" style="stop-color:#F6F6F6;stop-opacity:0.5"/>
      <stop offset="0.6006" style="stop-color:#DEDEDE;stop-opacity:0.5"/>
      <stop offset="0.6793" style="stop-color:#B6B6B6;stop-opacity:0.5"/>
      <stop offset="0.7714" style="stop-color:#7F7F7F;stop-opacity:0.5"/>
      <stop offset="0.8734" style="stop-color:#393939;stop-opacity:0.5"/>
      <stop offset="0.95" style="stop-color:#000000;stop-opacity:0.5"/>
      <stop offset="1" style="stop-color:#000000;stop-opacity:0.5"/>
    </linearGradient>
    <path fill="url(#SVGID_69_)" d="M399.338,226.323c-0.46,5.76-5.28,10.13-10.96,10.13h-0.01c-0.29,0-277.49-22-277.49-22&#xD;&#xA;&#x9;&#x9;&#x9;l-96.24-7.64c-6.06-0.48-10.58-5.78-10.1-11.83c0.46-5.77,5.3-10.13,10.97-10.13h0.42c0.15,0.01,277.2,22,277.2,22l96.11,7.63&#xD;&#xA;&#x9;&#x9;&#x9;C395.298,214.963,399.817,220.263,399.338,226.323z"/>
    <linearGradient id="SVGID_70_" gradientUnits="userSpaceOnUse" x1="202.8838" y1="169.562" x2="200.9951" y2="192.5348">
      <stop offset="0" style="stop-color:#000000;stop-opacity:0.5"/>
      <stop offset="0.05" style="stop-color:#000000;stop-opacity:0.5"/>
      <stop offset="0.1266" style="stop-color:#393939;stop-opacity:0.5"/>
      <stop offset="0.2286" style="stop-color:#7F7F7F;stop-opacity:0.5"/>
      <stop offset="0.3207" style="stop-color:#B6B6B6;stop-opacity:0.5"/>
      <stop offset="0.3994" style="stop-color:#DEDEDE;stop-opacity:0.5"/>
      <stop offset="0.4618" style="stop-color:#F6F6F6;stop-opacity:0.5"/>
      <stop offset="0.5" style="stop-color:#FFFFFF;stop-opacity:0.5"/>
      <stop offset="0.5382" style="stop-color:#F6F6F6;stop-opacity:0.5"/>
      <stop offset="0.6006" style="stop-color:#DEDEDE;stop-opacity:0.5"/>
      <stop offset="0.6793" style="stop-color:#B6B6B6;stop-opacity:0.5"/>
      <stop offset="0.7714" style="stop-color:#7F7F7F;stop-opacity:0.5"/>
      <stop offset="0.8734" style="stop-color:#393939;stop-opacity:0.5"/>
      <stop offset="0.95" style="stop-color:#000000;stop-opacity:0.5"/>
      <stop offset="1" style="stop-color:#000000;stop-opacity:0.5"/>
    </linearGradient>
    <path fill="url(#SVGID_70_)" d="M399.338,196.723c-0.46,5.76-5.28,10.13-10.96,10.13h-0.01c-0.29,0-277.49-22-277.49-22&#xD;&#xA;&#x9;&#x9;&#x9;l-96.24-7.64c-6.06-0.48-10.58-5.78-10.1-11.83c0.46-5.77,5.3-10.14,10.97-10.13c0.29,0,277.62,22,277.62,22l96.11,7.63&#xD;&#xA;&#x9;&#x9;&#x9;C395.298,185.363,399.817,190.663,399.338,196.723z"/>
    <linearGradient id="SVGID_71_" gradientUnits="userSpaceOnUse" x1="202.8828" y1="139.9624" x2="200.9941" y2="162.9347">
      <stop offset="0" style="stop-color:#000000;stop-opacity:0.5"/>
      <stop offset="0.05" style="stop-color:#000000;stop-opacity:0.5"/>
      <stop offset="0.1266" style="stop-color:#393939;stop-opacity:0.5"/>
      <stop offset="0.2286" style="stop-color:#7F7F7F;stop-opacity:0.5"/>
      <stop offset="0.3207" style="stop-color:#B6B6B6;stop-opacity:0.5"/>
      <stop offset="0.3994" style="stop-color:#DEDEDE;stop-opacity:0.5"/>
      <stop offset="0.4618" style="stop-color:#F6F6F6;stop-opacity:0.5"/>
      <stop offset="0.5" style="stop-color:#FFFFFF;stop-opacity:0.5"/>
      <stop offset="0.5382" style="stop-color:#F6F6F6;stop-opacity:0.5"/>
      <stop offset="0.6006" style="stop-color:#DEDEDE;stop-opacity:0.5"/>
      <stop offset="0.6793" style="stop-color:#B6B6B6;stop-opacity:0.5"/>
      <stop offset="0.7714" style="stop-color:#7F7F7F;stop-opacity:0.5"/>
      <stop offset="0.8734" style="stop-color:#393939;stop-opacity:0.5"/>
      <stop offset="0.95" style="stop-color:#000000;stop-opacity:0.5"/>
      <stop offset="1" style="stop-color:#000000;stop-opacity:0.5"/>
    </linearGradient>
    <path fill="url(#SVGID_71_)" d="M399.338,167.123c-0.46,5.76-5.28,10.13-10.96,10.13h-0.01c-0.29,0-277.49-22-277.49-22&#xD;&#xA;&#x9;&#x9;&#x9;l-96.24-7.64c-6.06-0.48-10.58-5.78-10.1-11.83c0.46-5.77,5.3-10.14,10.97-10.13c0.29,0,277.62,22,277.62,22l96.11,7.63&#xD;&#xA;&#x9;&#x9;&#x9;C395.298,155.763,399.817,161.063,399.338,167.123z"/>
    <linearGradient id="SVGID_72_" gradientUnits="userSpaceOnUse" x1="202.8828" y1="110.3623" x2="200.9941" y2="133.3351">
      <stop offset="0" style="stop-color:#000000;stop-opacity:0.5"/>
      <stop offset="0.05" style="stop-color:#000000;stop-opacity:0.5"/>
      <stop offset="0.1266" style="stop-color:#393939;stop-opacity:0.5"/>
      <stop offset="0.2286" style="stop-color:#7F7F7F;stop-opacity:0.5"/>
      <stop offset="0.3207" style="stop-color:#B6B6B6;stop-opacity:0.5"/>
      <stop offset="0.3994" style="stop-color:#DEDEDE;stop-opacity:0.5"/>
      <stop offset="0.4618" style="stop-color:#F6F6F6;stop-opacity:0.5"/>
      <stop offset="0.5" style="stop-color:#FFFFFF;stop-opacity:0.5"/>
      <stop offset="0.5382" style="stop-color:#F6F6F6;stop-opacity:0.5"/>
      <stop offset="0.6006" style="stop-color:#DEDEDE;stop-opacity:0.5"/>
      <stop offset="0.6793" style="stop-color:#B6B6B6;stop-opacity:0.5"/>
      <stop offset="0.7714" style="stop-color:#7F7F7F;stop-opacity:0.5"/>
      <stop offset="0.8734" style="stop-color:#393939;stop-opacity:0.5"/>
      <stop offset="0.95" style="stop-color:#000000;stop-opacity:0.5"/>
      <stop offset="1" style="stop-color:#000000;stop-opacity:0.5"/>
    </linearGradient>
    <path fill="url(#SVGID_72_)" d="M399.338,137.523c-0.46,5.76-5.28,10.13-10.96,10.13h-0.01c-0.29,0-277.49-22-277.49-22&#xD;&#xA;&#x9;&#x9;&#x9;l-96.24-7.64c-6.06-0.48-10.58-5.78-10.1-11.83c0.46-5.77,5.3-10.13,10.97-10.13h0.42c0.15,0.01,277.2,22,277.2,22l96.11,7.63&#xD;&#xA;&#x9;&#x9;&#x9;C395.298,126.163,399.817,131.463,399.338,137.523z"/>
    <linearGradient id="SVGID_73_" gradientUnits="userSpaceOnUse" x1="202.8828" y1="80.7622" x2="200.9941" y2="103.7345">
      <stop offset="0" style="stop-color:#000000;stop-opacity:0.5"/>
      <stop offset="0.05" style="stop-color:#000000;stop-opacity:0.5"/>
      <stop offset="0.1266" style="stop-color:#393939;stop-opacity:0.5"/>
      <stop offset="0.2286" style="stop-color:#7F7F7F;stop-opacity:0.5"/>
      <stop offset="0.3207" style="stop-color:#B6B6B6;stop-opacity:0.5"/>
      <stop offset="0.3994" style="stop-color:#DEDEDE;stop-opacity:0.5"/>
      <stop offset="0.4618" style="stop-color:#F6F6F6;stop-opacity:0.5"/>
      <stop offset="0.5" style="stop-color:#FFFFFF;stop-opacity:0.5"/>
      <stop offset="0.5382" style="stop-color:#F6F6F6;stop-opacity:0.5"/>
      <stop offset="0.6006" style="stop-color:#DEDEDE;stop-opacity:0.5"/>
      <stop offset="0.6793" style="stop-color:#B6B6B6;stop-opacity:0.5"/>
      <stop offset="0.7714" style="stop-color:#7F7F7F;stop-opacity:0.5"/>
      <stop offset="0.8734" style="stop-color:#393939;stop-opacity:0.5"/>
      <stop offset="0.95" style="stop-color:#000000;stop-opacity:0.5"/>
      <stop offset="1" style="stop-color:#000000;stop-opacity:0.5"/>
    </linearGradient>
    <path fill="url(#SVGID_73_)" d="M399.338,107.923c-0.46,5.76-5.28,10.13-10.96,10.13h-0.01c-0.29,0-277.49-22-277.49-22&#xD;&#xA;&#x9;&#x9;&#x9;l-96.24-7.64c-6.06-0.48-10.58-5.77-10.1-11.83c0.46-5.77,5.3-10.14,10.97-10.13c0.29,0,277.62,22,277.62,22l96.11,7.63&#xD;&#xA;&#x9;&#x9;&#x9;C395.298,96.563,399.817,101.863,399.338,107.923z"/>
    <linearGradient id="SVGID_74_" gradientUnits="userSpaceOnUse" x1="202.8838" y1="51.1621" x2="200.9943" y2="74.1446">
      <stop offset="0" style="stop-color:#000000;stop-opacity:0.5"/>
      <stop offset="0.05" style="stop-color:#000000;stop-opacity:0.5"/>
      <stop offset="0.1266" style="stop-color:#393939;stop-opacity:0.5"/>
      <stop offset="0.2286" style="stop-color:#7F7F7F;stop-opacity:0.5"/>
      <stop offset="0.3207" style="stop-color:#B6B6B6;stop-opacity:0.5"/>
      <stop offset="0.3994" style="stop-color:#DEDEDE;stop-opacity:0.5"/>
      <stop offset="0.4618" style="stop-color:#F6F6F6;stop-opacity:0.5"/>
      <stop offset="0.5" style="stop-color:#FFFFFF;stop-opacity:0.5"/>
      <stop offset="0.5382" style="stop-color:#F6F6F6;stop-opacity:0.5"/>
      <stop offset="0.6006" style="stop-color:#DEDEDE;stop-opacity:0.5"/>
      <stop offset="0.6793" style="stop-color:#B6B6B6;stop-opacity:0.5"/>
      <stop offset="0.7714" style="stop-color:#7F7F7F;stop-opacity:0.5"/>
      <stop offset="0.8734" style="stop-color:#393939;stop-opacity:0.5"/>
      <stop offset="0.95" style="stop-color:#000000;stop-opacity:0.5"/>
      <stop offset="1" style="stop-color:#000000;stop-opacity:0.5"/>
    </linearGradient>
    <path fill="url(#SVGID_74_)" d="M399.338,78.323c-0.46,5.76-5.28,10.13-10.96,10.13h-0.01c-0.29,0-277.591-22-277.591-22&#xD;&#xA;&#x9;&#x9;&#x9;l-96.14-7.63c-6.06-0.49-10.58-5.78-10.1-11.84c0.46-5.77,5.3-10.14,10.97-10.13c0.29,0,277.62,22,277.62,22l96.11,7.63&#xD;&#xA;&#x9;&#x9;&#x9;C395.298,66.963,399.817,72.263,399.338,78.323z"/>
  </g>
</svg>