<svg version="1.2" baseProfile="tiny" id="EdgeSVG_2zlgn" x="0px" y="0px" width="403.519px" height="279.471px" viewBox="0 0 403.519 279.471" xmlns:xlink="http://www.w3.org/1999/xlink" xmlns="http://www.w3.org/2000/svg">
  <linearGradient id="SVGID_2_" gradientUnits="userSpaceOnUse" x1="52.958" y1="140.2358" x2="350.918" y2="140.2358">
    <stop offset="0" style="stop-color:#000000;stop-opacity:0"/>
    <stop offset="1" style="stop-color:#000000;stop-opacity:0.1"/>
  </linearGradient>
  <path fill="url(#SVGID_2_)" d="M52.958,1v274.158h3.758v4.313h6.986v-4.313h276.472v4.313h6.986v-4.313h3.758V1H52.958z&#xD;&#xA;&#x9;&#x9; M336.417,260.331H67.46V15.827h268.957V260.331z"/>
  <linearGradient id="SVGID_3_" gradientUnits="userSpaceOnUse" x1="201.9375" y1="1" x2="201.9375" y2="279.4712">
    <stop offset="0" style="stop-color:#000000;stop-opacity:0"/>
    <stop offset="1" style="stop-color:#000000;stop-opacity:0.2"/>
  </linearGradient>
  <path fill="url(#SVGID_3_)" d="M52.958,1v274.158h3.758v4.313h6.986v-4.313h276.472v4.313h6.986v-4.313h3.758V1H52.958z&#xD;&#xA;&#x9;&#x9; M336.417,260.331H67.46V15.827h268.957V260.331z"/>
  <g>
    <linearGradient id="SVGID_4_" gradientUnits="userSpaceOnUse" x1="56.7158" y1="277.3145" x2="63.7021" y2="277.3145">
      <stop offset="0" style="stop-color:#000000;stop-opacity:0.15"/>
      <stop offset="0.0643" style="stop-color:#424242;stop-opacity:0.1583"/>
      <stop offset="0.1284" style="stop-color:#7B7B7B;stop-opacity:0.1666"/>
      <stop offset="0.1895" style="stop-color:#ABABAB;stop-opacity:0.1745"/>
      <stop offset="0.2474" style="stop-color:#CFCFCF;stop-opacity:0.182"/>
      <stop offset="0.301" style="stop-color:#EAEAEA;stop-opacity:0.1889"/>
      <stop offset="0.349" style="stop-color:#F9F9F9;stop-opacity:0.1951"/>
      <stop offset="0.3865" style="stop-color:#FFFFFF;stop-opacity:0.2"/>
      <stop offset="0.6871" style="stop-color:#000000;stop-opacity:0.2"/>
      <stop offset="0.9571" style="stop-color:#000000;stop-opacity:0.6"/>
      <stop offset="0.9939" style="stop-color:#000000;stop-opacity:0.7"/>
    </linearGradient>
    <rect x="56.716" y="275.158" fill="url(#SVGID_4_)" width="6.986" height="4.313"/>
    <linearGradient id="SVGID_5_" gradientUnits="userSpaceOnUse" x1="340.1738" y1="277.3145" x2="347.1602" y2="277.3145">
      <stop offset="0" style="stop-color:#000000;stop-opacity:0.15"/>
      <stop offset="0.0643" style="stop-color:#424242;stop-opacity:0.1583"/>
      <stop offset="0.1284" style="stop-color:#7B7B7B;stop-opacity:0.1666"/>
      <stop offset="0.1895" style="stop-color:#ABABAB;stop-opacity:0.1745"/>
      <stop offset="0.2474" style="stop-color:#CFCFCF;stop-opacity:0.182"/>
      <stop offset="0.301" style="stop-color:#EAEAEA;stop-opacity:0.1889"/>
      <stop offset="0.349" style="stop-color:#F9F9F9;stop-opacity:0.1951"/>
      <stop offset="0.3865" style="stop-color:#FFFFFF;stop-opacity:0.2"/>
      <stop offset="0.6871" style="stop-color:#000000;stop-opacity:0.2"/>
      <stop offset="0.9571" style="stop-color:#000000;stop-opacity:0.6"/>
      <stop offset="0.9939" style="stop-color:#000000;stop-opacity:0.7"/>
    </linearGradient>
    <rect x="340.174" y="275.158" fill="url(#SVGID_5_)" width="6.986" height="4.313"/>
  </g>
  <g>
    <linearGradient id="SVGID_6_" gradientUnits="userSpaceOnUse" x1="65.9492" y1="260.0513" x2="65.9492" y2="274.8779">
      <stop offset="0" style="stop-color:#000000;stop-opacity:0.2"/>
      <stop offset="1" style="stop-color:#000000;stop-opacity:0.2"/>
    </linearGradient>
    <polygon fill="url(#SVGID_6_)" points="64.438,271.859 67.46,274.878 67.46,260.051 64.438,263.234 &#x9;&#x9;"/>
    <linearGradient id="SVGID_7_" gradientUnits="userSpaceOnUse" x1="54.4219" y1="260.0513" x2="54.4219" y2="274.8779">
      <stop offset="0" style="stop-color:#000000;stop-opacity:0.2"/>
      <stop offset="1" style="stop-color:#000000;stop-opacity:0.2"/>
    </linearGradient>
    <polygon fill="url(#SVGID_7_)" points="55.886,263.234 52.958,260.051 52.958,274.878 55.886,271.859 &#x9;&#x9;"/>
    <linearGradient id="SVGID_8_" gradientUnits="userSpaceOnUse" x1="349.4072" y1="260.0513" x2="349.4072" y2="274.8779">
      <stop offset="0" style="stop-color:#000000;stop-opacity:0.2"/>
      <stop offset="1" style="stop-color:#000000;stop-opacity:0.2"/>
    </linearGradient>
    <polygon fill="url(#SVGID_8_)" points="347.896,271.859 350.918,274.878 350.918,260.051 347.896,263.234 &#x9;&#x9;"/>
    <linearGradient id="SVGID_9_" gradientUnits="userSpaceOnUse" x1="337.8799" y1="260.0513" x2="337.8799" y2="274.8779">
      <stop offset="0" style="stop-color:#000000;stop-opacity:0.2"/>
      <stop offset="1" style="stop-color:#000000;stop-opacity:0.2"/>
    </linearGradient>
    <polygon fill="url(#SVGID_9_)" points="339.344,263.234 336.416,260.051 336.416,274.878 339.344,271.859 &#x9;&#x9;"/>
    <linearGradient id="SVGID_10_" gradientUnits="userSpaceOnUse" x1="54.4219" y1="0.7202" x2="54.4219" y2="260.0513">
      <stop offset="0" style="stop-color:#000000;stop-opacity:0.2"/>
      <stop offset="1" style="stop-color:#000000;stop-opacity:0.2"/>
    </linearGradient>
    <polygon fill="url(#SVGID_10_)" points="55.886,260.051 52.958,260.051 52.958,0.72 55.886,3.221 &#x9;&#x9;"/>
    <linearGradient id="SVGID_11_" gradientUnits="userSpaceOnUse" x1="65.9492" y1="12.2207" x2="65.9492" y2="260.0513">
      <stop offset="0" style="stop-color:#000000;stop-opacity:0.2"/>
      <stop offset="1" style="stop-color:#000000;stop-opacity:0.2"/>
    </linearGradient>
    <polygon fill="url(#SVGID_11_)" points="64.438,260.051 67.46,260.051 67.46,15.547 64.438,12.221 &#x9;&#x9;"/>
    <linearGradient id="SVGID_12_" gradientUnits="userSpaceOnUse" x1="337.8809" y1="12.2207" x2="337.8809" y2="260.0513">
      <stop offset="0" style="stop-color:#000000;stop-opacity:0.2"/>
      <stop offset="1" style="stop-color:#000000;stop-opacity:0.2"/>
    </linearGradient>
    <polygon fill="url(#SVGID_12_)" points="336.417,260.051 339.344,260.051 339.344,12.221 336.417,15.547 &#x9;&#x9;"/>
    <linearGradient id="SVGID_13_" gradientUnits="userSpaceOnUse" x1="349.4072" y1="0.7202" x2="349.4072" y2="260.0513">
      <stop offset="0" style="stop-color:#000000;stop-opacity:0.2"/>
      <stop offset="1" style="stop-color:#000000;stop-opacity:0.2"/>
    </linearGradient>
    <polygon fill="url(#SVGID_13_)" points="347.896,260.051 350.918,260.051 350.918,0.72 347.896,3.221 &#x9;&#x9;"/>
  </g>
  <g>
    <linearGradient id="SVGID_14_" gradientUnits="userSpaceOnUse" x1="52.958" y1="261.9224" x2="67.46" y2="261.9224">
      <stop offset="0" style="stop-color:#FFFFFF;stop-opacity:0.2"/>
      <stop offset="0.5092" style="stop-color:#FFFFFF;stop-opacity:0.35"/>
      <stop offset="1" style="stop-color:#FFFFFF;stop-opacity:0.2"/>
    </linearGradient>
    <polygon fill="url(#SVGID_14_)" points="64.438,263.514 55.886,263.514 52.958,260.331 67.46,260.331 &#x9;&#x9;"/>
    <linearGradient id="SVGID_15_" gradientUnits="userSpaceOnUse" x1="336.416" y1="261.9224" x2="350.918" y2="261.9224">
      <stop offset="0" style="stop-color:#FFFFFF;stop-opacity:0.2"/>
      <stop offset="0.5092" style="stop-color:#FFFFFF;stop-opacity:0.35"/>
      <stop offset="1" style="stop-color:#FFFFFF;stop-opacity:0.2"/>
    </linearGradient>
    <polygon fill="url(#SVGID_15_)" points="347.896,263.514 339.344,263.514 336.416,260.331 350.918,260.331 &#x9;&#x9;"/>
    <linearGradient id="SVGID_16_" gradientUnits="userSpaceOnUse" x1="52.958" y1="2.2505" x2="350.918" y2="2.2505">
      <stop offset="0" style="stop-color:#FFFFFF;stop-opacity:0.2"/>
      <stop offset="0.5092" style="stop-color:#FFFFFF;stop-opacity:0.35"/>
      <stop offset="1" style="stop-color:#FFFFFF;stop-opacity:0.2"/>
    </linearGradient>
    <polygon fill="url(#SVGID_16_)" points="347.896,3.5 55.886,3.5 52.958,1 350.918,1 &#x9;&#x9;"/>
    <linearGradient id="SVGID_17_" gradientUnits="userSpaceOnUse" x1="67.46" y1="261.9224" x2="336.417" y2="261.9224">
      <stop offset="0" style="stop-color:#FFFFFF;stop-opacity:0.2"/>
      <stop offset="0.5092" style="stop-color:#FFFFFF;stop-opacity:0.35"/>
      <stop offset="1" style="stop-color:#FFFFFF;stop-opacity:0.2"/>
    </linearGradient>
    <rect x="67.46" y="260.331" fill="url(#SVGID_17_)" width="268.957" height="3.183"/>
  </g>
  <g>
    <linearGradient id="SVGID_18_" gradientUnits="userSpaceOnUse" x1="60.209" y1="272.1387" x2="60.209" y2="275.1577">
      <stop offset="0" style="stop-color:#000000;stop-opacity:0.35"/>
      <stop offset="1" style="stop-color:#000000;stop-opacity:0.35"/>
    </linearGradient>
    <polygon fill="url(#SVGID_18_)" points="64.438,272.139 55.886,272.139 52.958,275.158 67.46,275.158 &#x9;&#x9;"/>
    <linearGradient id="SVGID_19_" gradientUnits="userSpaceOnUse" x1="343.667" y1="272.1387" x2="343.667" y2="275.1577">
      <stop offset="0" style="stop-color:#000000;stop-opacity:0.35"/>
      <stop offset="1" style="stop-color:#000000;stop-opacity:0.35"/>
    </linearGradient>
    <polygon fill="url(#SVGID_19_)" points="347.896,272.139 339.344,272.139 336.416,275.158 350.918,275.158 &#x9;&#x9;"/>
    <linearGradient id="SVGID_20_" gradientUnits="userSpaceOnUse" x1="201.8906" y1="12.5005" x2="201.8906" y2="15.8267">
      <stop offset="0" style="stop-color:#000000;stop-opacity:0.35"/>
      <stop offset="1" style="stop-color:#000000;stop-opacity:0.35"/>
    </linearGradient>
    <polygon fill="url(#SVGID_20_)" points="339.344,12.5 64.438,12.5 67.46,15.827 336.417,15.827 &#x9;&#x9;"/>
    <linearGradient id="SVGID_21_" gradientUnits="userSpaceOnUse" x1="201.9375" y1="272.1392" x2="201.9375" y2="275.1577">
      <stop offset="0" style="stop-color:#000000;stop-opacity:0.35"/>
      <stop offset="1" style="stop-color:#000000;stop-opacity:0.35"/>
    </linearGradient>
    <rect x="67.46" y="272.139" fill="url(#SVGID_21_)" width="268.956" height="3.019"/>
  </g>
  <g>
    <linearGradient id="SVGID_22_" gradientUnits="userSpaceOnUse" x1="56.7158" y1="276.5229" x2="63.7021" y2="276.5229">
      <stop offset="0" style="stop-color:#000000;stop-opacity:0.45"/>
      <stop offset="1" style="stop-color:#000000;stop-opacity:0.45"/>
    </linearGradient>
    <path fill="url(#SVGID_22_)" d="M56.716,275.158v2.731c0,0,1.014-1.365,3.493-1.365s3.493,1.365,3.493,1.365v-2.731H56.716z"/>
    <linearGradient id="SVGID_23_" gradientUnits="userSpaceOnUse" x1="340.1738" y1="276.5229" x2="347.1602" y2="276.5229">
      <stop offset="0" style="stop-color:#000000;stop-opacity:0.45"/>
      <stop offset="1" style="stop-color:#000000;stop-opacity:0.45"/>
    </linearGradient>
    <path fill="url(#SVGID_23_)" d="M340.174,275.158v2.731c0,0,1.014-1.365,3.493-1.365s3.493,1.365,3.493,1.365v-2.731H340.174z"/>
    <linearGradient id="SVGID_24_" gradientUnits="userSpaceOnUse" x1="67.46" y1="267.7446" x2="70.4385" y2="267.7446">
      <stop offset="0" style="stop-color:#000000;stop-opacity:0.45"/>
      <stop offset="1" style="stop-color:#000000;stop-opacity:0.45"/>
    </linearGradient>
    <polygon fill="url(#SVGID_24_)" points="67.46,260.331 70.438,275.158 67.46,275.158 &#x9;&#x9;"/>
    <linearGradient id="SVGID_25_" gradientUnits="userSpaceOnUse" x1="333.4375" y1="267.7446" x2="336.416" y2="267.7446">
      <stop offset="0" style="stop-color:#000000;stop-opacity:0.45"/>
      <stop offset="1" style="stop-color:#000000;stop-opacity:0.45"/>
    </linearGradient>
    <polygon fill="url(#SVGID_25_)" points="336.416,260.331 333.438,275.158 336.416,275.158 &#x9;&#x9;"/>
  </g>
  <g>
    <linearGradient id="SVGID_26_" gradientUnits="userSpaceOnUse" x1="52.958" y1="141.5229" x2="67.46" y2="141.5229">
      <stop offset="0" style="stop-color:#000000;stop-opacity:0.45"/>
      <stop offset="1" style="stop-color:#000000;stop-opacity:0.45"/>
    </linearGradient>
    <polygon fill="url(#SVGID_26_)" points="67.46,221.833 52.958,220.393 52.958,61.212 67.46,62.653 &#x9;&#x9;"/>
    <linearGradient id="SVGID_27_" gradientUnits="userSpaceOnUse" x1="336.416" y1="163.144" x2="350.918" y2="163.144">
      <stop offset="0" style="stop-color:#000000;stop-opacity:0.45"/>
      <stop offset="1" style="stop-color:#000000;stop-opacity:0.45"/>
    </linearGradient>
    <polyline fill="url(#SVGID_27_)" points="350.918,243.455 336.416,242.014 336.416,82.833 350.918,84.274 &#x9;&#x9;"/>
  </g>
</svg>