<svg version="1.2" baseProfile="tiny" viewBox="0 0 403.519 279.471" xmlns:xlink="http://www.w3.org/1999/xlink" xmlns="http://www.w3.org/2000/svg">
<path style="fill:#ffffff;" d="M0.0202,217.8952L52.9578,218.0321L52.9578,232.8944L0.0,233.0006C0.0121,233.0006,0.0202,217.8952,0.0202,217.8952M179.0172,219.8319C176.5799,219.6335,116.3386,218.102,67.4563,218.0517L67.4563,232.8944L325.3776,231.4551C323.8886,231.3321,190.3883,220.7318,179.0172,219.8319M325.3574,83.4528C325.0265,83.4277,175.6518,71.4524,174.1144,71.4524C172.0403,71.4524,85.429,71.4524,79.348,71.4524C79.8161,71.4915,229.1383,83.4528,230.5869,83.4528C232.661,83.4528,319.2723,83.4528,325.3574,83.4528L325.3574,83.4528M79.348,41.8536C80.7199,41.9626,229.3683,53.8541,231.3374,53.8541L336.4178,55.2933L336.4178,40.4143L79.348,41.8536M403.519,40.2997L350.9163,40.4143L350.9163,55.2933L403.4908,55.4051L403.519,40.2997M394.5488,77.433C394.5488,73.9369,391.704,71.6871,388.4557,71.4272C387.3298,71.3378,16.8994,41.9318,16.3546,41.8899C13.9416,41.6971,11.6213,42.8178,10.435,44.9641C8.5062,48.4519,10.6327,53.0939,14.6276,53.7535C14.9827,53.8317,387.6647,83.3997,388.0481,83.4305C391.5063,83.7044,394.5488,80.8957,394.5488,77.433C394.5488,77.2318,394.5488,77.5923,394.5488,77.433M325.3574,113.0488C325.0265,113.0237,175.6518,101.0483,174.1144,101.0483C172.0403,101.0483,85.429,101.0483,79.348,101.0483C79.8161,101.0875,229.1383,113.0488,230.5869,113.0488C232.661,113.0488,319.2723,113.0488,325.3574,113.0488L325.3574,113.0488M394.5488,107.029C394.5488,103.5328,391.704,101.2831,388.4557,101.0232C387.3298,100.9338,16.8994,71.5278,16.3546,71.4859C13.9416,71.2931,11.6213,72.4137,10.435,74.5601C8.5062,78.0479,10.6327,82.6899,14.6276,83.3494C14.9827,83.4277,387.6647,112.9957,388.0481,113.0265C391.5063,113.3003,394.5488,110.4945,394.5488,107.029C394.5488,106.8278,394.5488,107.1883,394.5488,107.029M325.3574,142.6839C325.0265,142.6588,175.6518,130.6862,174.1144,130.6862C172.0403,130.6862,85.429,130.6862,79.348,130.6862C79.8161,130.7226,229.1383,142.6839,230.5869,142.6839C232.661,142.6839,319.2723,142.6839,325.3574,142.6839L325.3574,142.6839M394.5488,136.6641C394.5488,133.1707,391.704,130.9182,388.4557,130.6611C387.3298,130.5717,16.8994,101.1629,16.3546,101.121C13.9416,100.9282,11.6213,102.0488,10.435,104.1952C8.5062,107.683,10.6327,112.325,14.6276,112.9845C14.9827,113.0656,387.6647,142.6308,388.0481,142.6644C391.5063,142.9382,394.5488,140.1296,394.5488,136.6641C394.5488,136.4657,394.5488,136.8262,394.5488,136.6641M325.3574,172.2492C325.0265,172.224,175.6518,160.2487,174.1144,160.2487C172.0403,160.2487,85.429,160.2487,79.348,160.2487C79.8161,160.2878,229.1383,172.2492,230.5869,172.2492C232.661,172.2492,319.2723,172.2492,325.3574,172.2492L325.3574,172.2492M394.5488,166.2294C394.5488,162.736,391.704,160.4834,388.4557,160.2263C387.3298,160.1369,16.8994,130.7281,16.3546,130.6862C13.9416,130.4934,11.6213,131.6141,10.435,133.7604C8.5062,137.2482,10.6327,141.8902,14.6276,142.5498C14.9827,142.6308,387.6647,172.1961,388.0481,172.2268C391.5063,172.5035,394.5488,169.6948,394.5488,166.2294C394.5488,166.0309,394.5488,166.3914,394.5488,166.2294M325.3574,201.8479C325.0265,201.8228,175.6518,189.8502,174.1144,189.8502C172.0403,189.8502,85.429,189.8502,79.348,189.8502C79.8161,189.8866,229.1383,201.8479,230.5869,201.8479C232.661,201.8479,319.2723,201.8479,325.3574,201.8479L325.3574,201.8479M394.5488,195.8281C394.5488,192.3347,391.704,190.0822,388.4557,189.8251C387.3298,189.7357,16.8994,160.3269,16.3546,160.285C13.9416,160.0922,11.6213,161.2128,10.435,163.3592C8.5062,166.847,10.6327,171.489,14.6276,172.1486C14.9827,172.2296,387.6647,201.7948,388.0481,201.8284C391.5063,202.1023,394.5488,199.2936,394.5488,195.8281C394.5488,195.6297,394.5488,195.9902,394.5488,195.8281M394.5488,225.4297C394.5488,221.9363,391.704,219.6838,388.4557,219.4267C387.3298,219.3372,16.8994,189.9313,16.3546,189.8866C13.9416,189.6937,11.6213,190.8144,10.435,192.9608C8.5062,196.4485,10.6327,201.0934,14.6276,201.7501C14.9827,201.8312,387.6647,231.3992,388.0481,231.4299C391.5063,231.7038,394.5488,228.8951,394.5488,225.4297C394.5488,225.2313,394.5488,225.5918,394.5488,225.4297Z"/>
</svg>