<svg version="1.2" baseProfile="tiny" viewBox="0 0 114.831 34.66" xmlns:xlink="http://www.w3.org/1999/xlink" xmlns="http://www.w3.org/2000/svg">
<path style="fill:#ffffff;" d="M114.1902,30.5351C113.5059,30.5351,112.8777,30.2499,112.1681,29.721L113.4174,28.391L99.9213,15.7259L98.6238,17.1078C98.285,16.7879,97.9463,16.4649,97.6075,16.145C92.6365,11.4291,87.9204,6.975,86.6331,5.86L86.5321,5.8111C84.0207,3.8798,82.1788,3.3509,76.8989,3.3509L76.8989,2.814C76.8989,2.814,76.7335,1.9261,75.0845,1.9579C73.4356,1.9898,25.0906,0.9999,15.6848,0.9999C6.2801,0.9999,1.0002,3.145,1.0002,4.6299C1.0002,6.1151,1.8247,8.0948,15.1898,8.0948C28.555,8.0948,73.1049,7.2699,74.755,7.2699C76.404,7.2699,76.9,7.3521,76.9,6.3209C76.9,6.2159,76.9,6.104,76.9,5.992C81.8504,5.992,83.0423,6.4641,84.8923,7.881C86.1795,9.0029,91.1172,13.6072,95.8115,18.061C96.1526,18.384,96.4913,18.705,96.8278,19.0238L95.405,20.5409L108.9011,33.205L110.3526,31.6581C111.5043,32.5631,112.7043,33.1769,114.1902,33.1769"/>
</svg>