<svg version="1.2" baseProfile="tiny" id="EdgeSVG_GK8eC" x="0px" y="0px" width="114.831px" height="34.66px" viewBox="0 0 114.831 34.66" xmlns:xlink="http://www.w3.org/1999/xlink" xmlns="http://www.w3.org/2000/svg">
  <linearGradient id="SVGID_2_" gradientUnits="userSpaceOnUse" x1="106.7178" y1="22.0332" x2="102.1034" y2="26.8957">
    <stop offset="0.0859" style="stop-color:#FFFFFF;stop-opacity:0.2"/>
    <stop offset="0.1963" style="stop-color:#000000;stop-opacity:0.2"/>
    <stop offset="0.8098" style="stop-color:#000000;stop-opacity:0"/>
    <stop offset="0.9448" style="stop-color:#000000;stop-opacity:0.35"/>
  </linearGradient>
  <polygon fill="url(#SVGID_2_)" points="108.901,33.203 95.405,20.539 99.921,15.726 113.417,28.391 &#x9;"/>
  <linearGradient id="SVGID_3_" gradientUnits="userSpaceOnUse" x1="76.8999" y1="11.1865" x2="98.6245" y2="11.1865">
    <stop offset="0" style="stop-color:#000000;stop-opacity:0"/>
    <stop offset="1" style="stop-color:#000000;stop-opacity:0.05"/>
  </linearGradient>
  <path fill="url(#SVGID_3_)" d="M96.828,19.022l1.797-1.915c-0.339-0.32-0.678-0.643-1.016-0.963&#xD;&#xA;&#x9;&#x9;c-4.972-4.716-9.688-9.17-10.975-10.285l-0.101-0.049c-2.511-1.931-4.353-2.46-9.633-2.46v2.641c4.95,0,6.142,0.472,7.992,1.889&#xD;&#xA;&#x9;&#x9;c1.287,1.122,6.225,5.726,10.92,10.18C96.153,18.383,96.491,18.703,96.828,19.022z"/>
  <linearGradient id="SVGID_4_" gradientUnits="userSpaceOnUse" x1="76.8999" y1="12.3418" x2="97.0532" y2="12.3418">
    <stop offset="0" style="stop-color:#000000;stop-opacity:0.25"/>
    <stop offset="1" style="stop-color:#000000;stop-opacity:0.25"/>
  </linearGradient>
  <path fill="url(#SVGID_4_)" d="M96.828,19.022l0.226-0.24c-0.327-0.31-0.655-0.622-0.986-0.936L96.04,17.82&#xD;&#xA;&#x9;&#x9;c-4.754-4.509-9.657-9.08-10.931-10.189c-1.951-1.494-3.581-1.949-8.209-1.969v0.329c4.95,0,6.142,0.472,7.992,1.889&#xD;&#xA;&#x9;&#x9;c1.287,1.122,6.225,5.726,10.92,10.18C96.153,18.383,96.491,18.703,96.828,19.022z"/>
  <linearGradient id="SVGID_5_" gradientUnits="userSpaceOnUse" x1="76.8999" y1="10.3496" x2="98.6245" y2="10.3496">
    <stop offset="0" style="stop-color:#FFFFFF;stop-opacity:0.25"/>
    <stop offset="1" style="stop-color:#FFFFFF;stop-opacity:0.2"/>
  </linearGradient>
  <path fill="url(#SVGID_5_)" d="M98.399,17.349l0.226-0.241c-0.339-0.32-0.678-0.643-1.016-0.963&#xD;&#xA;&#x9;&#x9;c-4.972-4.716-9.688-9.17-10.975-10.285l-0.101-0.049c-2.511-1.931-4.353-2.46-9.633-2.46v0.331&#xD;&#xA;&#x9;&#x9;c4.833,0.021,6.987,0.511,9.432,2.391l0.027,0.021l0.092,0.044c1.399,1.219,6.57,6.109,10.931,10.246&#xD;&#xA;&#x9;&#x9;C97.719,16.703,98.058,17.025,98.399,17.349z"/>
  <linearGradient id="SVGID_6_" gradientUnits="userSpaceOnUse" x1="112.9629" y1="30.3291" x2="111.0632" y2="32.3309">
    <stop offset="0.3374" style="stop-color:#000000;stop-opacity:0.4"/>
    <stop offset="0.5951" style="stop-color:#000000;stop-opacity:0.4"/>
  </linearGradient>
  <path fill="url(#SVGID_6_)" d="M112.699,30.078l-0.633,2.641c0,0-0.741-0.258-1.713-1.063l1.815-1.936L112.699,30.078z"/>
  <linearGradient id="SVGID_7_" gradientUnits="userSpaceOnUse" x1="97.6851" y1="18.082" x2="111.1371" y2="30.8475">
    <stop offset="0" style="stop-color:#FFFFFF;stop-opacity:0.3"/>
    <stop offset="0.0184" style="stop-color:#FFFFFF;stop-opacity:0"/>
    <stop offset="0.9755" style="stop-color:#000000;stop-opacity:0"/>
    <stop offset="1" style="stop-color:#000000;stop-opacity:0.35"/>
  </linearGradient>
  <polygon fill="url(#SVGID_7_)" points="108.901,33.203 95.405,20.539 99.921,15.726 113.417,28.391 &#x9;"/>
  <linearGradient id="SVGID_8_" gradientUnits="userSpaceOnUse" x1="1" y1="4.5469" x2="76.8999" y2="4.5469">
    <stop offset="0" style="stop-color:#FFFFFF;stop-opacity:0"/>
    <stop offset="0.092" style="stop-color:#FFFFFF;stop-opacity:0.35"/>
    <stop offset="0.2086" style="stop-color:#FFFFFF;stop-opacity:0"/>
    <stop offset="0.3681" style="stop-color:#000000;stop-opacity:0"/>
    <stop offset="0.7975" style="stop-color:#000000;stop-opacity:0"/>
    <stop offset="0.9877" style="stop-color:#000000;stop-opacity:0"/>
    <stop offset="1" style="stop-color:#000000;stop-opacity:0.3"/>
  </linearGradient>
  <path fill="url(#SVGID_8_)" d="M76.9,3.805v-0.99c0,0-0.165-0.888-1.814-0.856C73.435,1.99,25.09,1,15.685,1S1,3.145,1,4.63&#xD;&#xA;&#x9;&#x9;s0.825,3.465,14.19,3.465c13.365,0,57.915-0.825,59.565-0.825c1.649,0,2.145,0.082,2.145-0.949S76.9,3.805,76.9,3.805z"/>
  <linearGradient id="SVGID_9_" gradientUnits="userSpaceOnUse" x1="38.9502" y1="1" x2="38.9502" y2="8.0947">
    <stop offset="0.0307" style="stop-color:#FFFFFF;stop-opacity:0.3"/>
    <stop offset="0.1902" style="stop-color:#FFFFFF;stop-opacity:0"/>
    <stop offset="0.3252" style="stop-color:#000000;stop-opacity:0"/>
    <stop offset="0.4724" style="stop-color:#000000;stop-opacity:0.2"/>
    <stop offset="0.638" style="stop-color:#000000;stop-opacity:0.18"/>
    <stop offset="0.7178" style="stop-color:#000000;stop-opacity:0.4"/>
    <stop offset="0.8712" style="stop-color:#000000;stop-opacity:0.55"/>
    <stop offset="0.9755" style="stop-color:#000000;stop-opacity:0.6"/>
  </linearGradient>
  <path fill="url(#SVGID_9_)" d="M76.9,3.805v-0.99c0,0-0.165-0.888-1.814-0.856C73.435,1.99,25.09,1,15.685,1S1,3.145,1,4.63&#xD;&#xA;&#x9;&#x9;s0.825,3.465,14.19,3.465c13.365,0,57.915-0.825,59.565-0.825c1.649,0,2.145,0.082,2.145-0.949S76.9,3.805,76.9,3.805z"/>
  <linearGradient id="SVGID_10_" gradientUnits="userSpaceOnUse" x1="3.1445" y1="3.168" x2="75.5098" y2="3.168">
    <stop offset="0" style="stop-color:#FFFFFF;stop-opacity:0.45"/>
    <stop offset="1" style="stop-color:#FFFFFF;stop-opacity:0.35"/>
  </linearGradient>
  <path fill="url(#SVGID_10_)" d="M3.248,3.377c3.05-1.165,7.487-1.305,14.17-1.246C24.1,2.188,47.448,2.82,55.12,2.881&#xD;&#xA;&#x9;&#x9;c7.672,0.062,20.047-0.402,20.377,0.496S69.64,3.812,48.85,3.928C28.06,4.043,9.745,4.217,6.033,4.217&#xD;&#xA;&#x9;&#x9;C2.32,4.217,3.248,3.377,3.248,3.377z"/>
  <linearGradient id="SVGID_11_" gradientUnits="userSpaceOnUse" x1="3.4746" y1="6.9795" x2="75.8398" y2="6.9795">
    <stop offset="0" style="stop-color:#FFFFFF;stop-opacity:0.2"/>
    <stop offset="1" style="stop-color:#FFFFFF;stop-opacity:0.15"/>
  </linearGradient>
  <path fill="url(#SVGID_11_)" d="M3.578,6.687c3.049,0.341,7.487,0.848,14.17,0.831C24.43,7.5,47.778,6.85,55.45,6.832&#xD;&#xA;&#x9;&#x9;s20.047,0.117,20.377-0.146S69.97,6.561,49.18,6.526S10.075,6.441,6.363,6.441C2.65,6.441,3.578,6.687,3.578,6.687z"/>
</svg>