<svg version="1.2" baseProfile="tiny" id="EdgeSVG_GK8eC" x="0px" y="0px" width="114.831px" height="34.66px" viewBox="0 0 114.831 34.66" xmlns:xlink="http://www.w3.org/1999/xlink" xmlns="http://www.w3.org/2000/svg">
  <radialGradient id="SVGID_1_" cx="57.4155" cy="17.3301" r="42.4077" gradientUnits="userSpaceOnUse">
    <stop offset="0" style="stop-color:#000000;stop-opacity:0.5"/>
    <stop offset="0.9755" style="stop-color:#000000;stop-opacity:0.5"/>
  </radialGradient>
  <path fill="url(#SVGID_1_)" d="M93.991,20.584l1.426-1.521l-0.293-0.278c-4.727-4.484-9.612-9.038-10.889-10.151&#xD;&#xA;&#x9;&#x9;c-1.471-1.124-2.435-1.58-6.413-1.637c-0.33,1.274-1.63,1.274-2.451,1.274L74.755,8.27c-0.421,0-3.881,0.058-8.67,0.139&#xD;&#xA;&#x9;&#x9;C51.758,8.647,25.088,9.095,15.19,9.095C2.541,9.095,0,7.387,0,4.63C0,1.99,6.743,0,15.685,0c5.88,0,26.942,0.386,42.322,0.668&#xD;&#xA;&#x9;&#x9;c8.855,0.162,15.85,0.291,16.964,0.291l0.199-0.002c1.637,0,2.383,0.785,2.631,1.399c4.676,0.063,6.702,0.652,9.259,2.599&#xD;&#xA;&#x9;&#x9;l0.128,0.063l0.1,0.086c1.366,1.184,6.601,6.135,11.008,10.315l0.287,0.271l1.293-1.378l14.954,14.033l-1.059,1.036&#xD;&#xA;&#x9;&#x9;c0.131,0.038,0.413,0.063,0.413,0.063l0.016,4.906c0,0-2.156-0.047-3.721-1.279l-1.533,1.588L93.991,20.584z"/>
</svg>