<svg version="1.2" baseProfile="tiny" id="EdgeSVG_SstjJ" x="0px" y="0px" width="43.52px" height="99.849px" viewBox="0 0 43.52 99.849" xmlns:xlink="http://www.w3.org/1999/xlink" xmlns="http://www.w3.org/2000/svg">
  <g id="group">
    <linearGradient id="SVGID_39_" gradientUnits="userSpaceOnUse" x1="21.7583" y1="28.7319" x2="21.7583" y2="33.8916">
      <stop offset="0.0061" style="stop-color:#FFFFFF;stop-opacity:0.35"/>
      <stop offset="0.1098" style="stop-color:#FFFFFF;stop-opacity:0.1"/>
      <stop offset="1" style="stop-color:#FFFFFF;stop-opacity:0"/>
    </linearGradient>
    <path style="fill:url(#SVGID_39_);" d="M34.809,29.333c0-0.362,0-0.601-0.241-0.601H8.95c-0.242,0-0.242,0.239-0.242,0.601v3.959&#xD;&#xA;&#x9;&#x9;&#x9;c0,0.361,0,0.6,0.242,0.6h25.618c0.241,0,0.241-0.238,0.241-0.6V29.333z"/>
    <radialGradient id="SVGID_40_" cx="21.8188" cy="11.0029" r="7.8811" gradientUnits="userSpaceOnUse">
      <stop offset="0.0305" style="stop-color:#FFFFFF;stop-opacity:0.9"/>
      <stop offset="0.3841" style="stop-color:#FFFFFF;stop-opacity:0.4"/>
      <stop offset="1" style="stop-color:#FFFFFF;stop-opacity:0"/>
    </radialGradient>
    <path style="fill:url(#SVGID_40_);" d="M34.309,24.803c0,0.132-0.108,0.24-0.24,0.24H9.449c-0.132,0-0.24-0.108-0.24-0.24V8.483&#xD;&#xA;&#x9;&#x9;&#x9;c0-0.132,0.108-0.24,0.24-0.24h24.62c0.132,0,0.24,0.108,0.24,0.24V24.803z"/>
    <radialGradient id="SVGID_41_" cx="21.6987" cy="18.8032" r="6.895" gradientUnits="userSpaceOnUse">
      <stop offset="0.0305" style="stop-color:#FFFFFF;stop-opacity:0.9"/>
      <stop offset="0.3841" style="stop-color:#FFFFFF;stop-opacity:0.4"/>
      <stop offset="1" style="stop-color:#FFFFFF;stop-opacity:0"/>
    </radialGradient>
    <path style="fill:url(#SVGID_41_);" d="M34.309,24.803c0,0.132-0.108,0.24-0.24,0.24H9.449c-0.132,0-0.24-0.108-0.24-0.24V8.483&#xD;&#xA;&#x9;&#x9;&#x9;c0-0.132,0.108-0.24,0.24-0.24h24.62c0.132,0,0.24,0.108,0.24,0.24V24.803z"/>
    <radialGradient id="SVGID_42_" cx="21.7588" cy="14.3032" r="12.0553" gradientUnits="userSpaceOnUse">
      <stop offset="0.0305" style="stop-color:#FFFFFF;stop-opacity:0.9"/>
      <stop offset="0.3841" style="stop-color:#FFFFFF;stop-opacity:0.4"/>
      <stop offset="1" style="stop-color:#FFFFFF;stop-opacity:0"/>
    </radialGradient>
    <path style="fill:url(#SVGID_42_);" d="M34.309,24.803c0,0.132-0.108,0.24-0.24,0.24H9.449c-0.132,0-0.24-0.108-0.24-0.24V8.483&#xD;&#xA;&#x9;&#x9;&#x9;c0-0.132,0.108-0.24,0.24-0.24h24.62c0.132,0,0.24,0.108,0.24,0.24V24.803z"/>
    <radialGradient id="SVGID_43_" cx="21.7588" cy="16.6431" r="14.5753" gradientUnits="userSpaceOnUse">
      <stop offset="0" style="stop-color:#FFFFFF;stop-opacity:0.4"/>
      <stop offset="1" style="stop-color:#FFFFFF;stop-opacity:0"/>
    </radialGradient>
    <path style="fill:url(#SVGID_43_);" d="M34.309,24.803c0,0.132-0.108,0.24-0.24,0.24H9.449c-0.132,0-0.24-0.108-0.24-0.24V8.483&#xD;&#xA;&#x9;&#x9;&#x9;c0-0.132,0.108-0.24,0.24-0.24h24.62c0.132,0,0.24,0.108,0.24,0.24V24.803z"/>
  </g>
</svg>