<svg version="1.2" baseProfile="tiny" id="EdgeSVG_TOpsC" x="0px" y="0px" width="109.282px" height="38.549px" viewBox="0 0 109.282 38.549" xmlns:xlink="http://www.w3.org/1999/xlink" xmlns="http://www.w3.org/2000/svg">
  <linearGradient id="SVGID_1_" gradientUnits="userSpaceOnUse" x1="0" y1="19.2744" x2="109.2822" y2="19.2744">
    <stop offset="0" style="stop-color:#000000;stop-opacity:0.5"/>
    <stop offset="1" style="stop-color:#000000;stop-opacity:0.5"/>
  </linearGradient>
  <path fill="url(#SVGID_1_)" d="M109.282,5.093V0H0v5.093h7.357v5.046H7.262v0.803c-0.166-0.098-0.334-0.19-0.512-0.268&#xD;&#xA;&#x9;&#x9;c-0.063-0.028-0.13-0.049-0.195-0.075c-0.213-0.084-0.433-0.153-0.659-0.207c-0.082-0.02-0.163-0.04-0.246-0.055&#xD;&#xA;&#x9;&#x9;c-0.294-0.055-0.594-0.092-0.903-0.092c-1.363,0-2.599,0.556-3.502,1.45H0v0.039v3.995v20.529v2.29v0h109.282v0v-2.29V15.729&#xD;&#xA;&#x9;&#x9;v-3.995v-0.039h-1.559c-0.903-0.895-2.139-1.45-3.502-1.45c-0.31,0-0.609,0.038-0.904,0.092c-0.083,0.015-0.163,0.035-0.245,0.055&#xD;&#xA;&#x9;&#x9;c-0.227,0.054-0.446,0.123-0.66,0.208c-0.064,0.025-0.131,0.046-0.194,0.074c-0.105,0.046-0.205,0.101-0.306,0.154v-0.689h-0.096&#xD;&#xA;&#x9;&#x9;V5.093H109.282z M11.385,5.093H52.5v5.046h-0.097V10.9c-0.147-0.084-0.296-0.166-0.452-0.234c-0.053-0.023-0.108-0.039-0.162-0.06&#xD;&#xA;&#x9;&#x9;c-0.223-0.088-0.451-0.16-0.688-0.216c-0.079-0.019-0.157-0.037-0.238-0.052c-0.294-0.054-0.593-0.092-0.901-0.092&#xD;&#xA;&#x9;&#x9;c-0.31,0-0.609,0.038-0.903,0.092c-0.084,0.015-0.165,0.036-0.247,0.055c-0.226,0.054-0.444,0.123-0.657,0.206&#xD;&#xA;&#x9;&#x9;c-0.065,0.026-0.133,0.047-0.197,0.075c-0.264,0.117-0.516,0.254-0.754,0.414c-0.05,0.033-0.094,0.072-0.142,0.107&#xD;&#xA;&#x9;&#x9;c-0.19,0.137-0.369,0.286-0.537,0.447c-0.02,0.02-0.044,0.034-0.064,0.054h-2.039c-0.02-0.02-0.045-0.035-0.065-0.055&#xD;&#xA;&#x9;&#x9;c-0.168-0.161-0.346-0.309-0.535-0.445c-0.049-0.036-0.093-0.075-0.144-0.108c-0.238-0.159-0.49-0.296-0.753-0.413&#xD;&#xA;&#x9;&#x9;c-0.064-0.028-0.131-0.049-0.197-0.075c-0.213-0.083-0.432-0.152-0.657-0.206c-0.083-0.02-0.164-0.04-0.247-0.055&#xD;&#xA;&#x9;&#x9;c-0.294-0.055-0.594-0.092-0.903-0.092s-0.609,0.038-0.903,0.092c-0.083,0.015-0.165,0.036-0.247,0.055&#xD;&#xA;&#x9;&#x9;c-0.226,0.054-0.445,0.123-0.658,0.207c-0.065,0.025-0.132,0.046-0.196,0.075c-0.264,0.117-0.516,0.254-0.754,0.414&#xD;&#xA;&#x9;&#x9;c-0.05,0.033-0.094,0.072-0.142,0.107c-0.189,0.137-0.369,0.286-0.537,0.447c-0.021,0.019-0.045,0.034-0.065,0.054h-2.038&#xD;&#xA;&#x9;&#x9;c-0.02-0.02-0.044-0.035-0.065-0.054c-0.168-0.162-0.347-0.311-0.537-0.447c-0.048-0.035-0.093-0.074-0.143-0.107&#xD;&#xA;&#x9;&#x9;c-0.238-0.159-0.49-0.296-0.754-0.413c-0.063-0.028-0.13-0.049-0.195-0.075c-0.213-0.084-0.433-0.153-0.659-0.207&#xD;&#xA;&#x9;&#x9;c-0.082-0.02-0.163-0.04-0.247-0.055c-0.294-0.055-0.594-0.092-0.903-0.092s-0.609,0.038-0.903,0.092&#xD;&#xA;&#x9;&#x9;c-0.083,0.015-0.165,0.035-0.247,0.055c-0.227,0.054-0.446,0.123-0.659,0.207c-0.065,0.025-0.132,0.046-0.195,0.075&#xD;&#xA;&#x9;&#x9;c-0.264,0.117-0.517,0.254-0.754,0.413c-0.05,0.033-0.094,0.072-0.143,0.107c-0.189,0.137-0.368,0.286-0.537,0.447&#xD;&#xA;&#x9;&#x9;c-0.021,0.019-0.045,0.034-0.065,0.054h-2.038c-0.02-0.02-0.044-0.035-0.065-0.054c-0.168-0.162-0.348-0.311-0.537-0.447&#xD;&#xA;&#x9;&#x9;c-0.048-0.035-0.092-0.074-0.142-0.107c-0.238-0.159-0.49-0.297-0.754-0.414c-0.064-0.028-0.131-0.049-0.196-0.075&#xD;&#xA;&#x9;&#x9;c-0.213-0.084-0.432-0.153-0.658-0.207c-0.082-0.02-0.163-0.04-0.247-0.055c-0.294-0.055-0.594-0.092-0.903-0.092&#xD;&#xA;&#x9;&#x9;s-0.609,0.038-0.903,0.092c-0.083,0.015-0.165,0.035-0.247,0.055c-0.227,0.054-0.446,0.123-0.659,0.207&#xD;&#xA;&#x9;&#x9;c-0.065,0.025-0.132,0.046-0.195,0.075c-0.264,0.117-0.517,0.254-0.754,0.413c-0.05,0.033-0.094,0.072-0.143,0.107&#xD;&#xA;&#x9;&#x9;c-0.189,0.137-0.368,0.286-0.537,0.447c-0.021,0.019-0.045,0.034-0.065,0.054h-2.038c-0.02-0.02-0.044-0.035-0.065-0.054&#xD;&#xA;&#x9;&#x9;c-0.168-0.162-0.348-0.311-0.537-0.447c-0.048-0.035-0.092-0.074-0.142-0.107c-0.238-0.159-0.49-0.297-0.754-0.414&#xD;&#xA;&#x9;&#x9;c-0.064-0.028-0.131-0.049-0.196-0.075c-0.213-0.084-0.432-0.153-0.658-0.207c-0.082-0.02-0.163-0.04-0.247-0.055&#xD;&#xA;&#x9;&#x9;c-0.294-0.055-0.594-0.092-0.903-0.092s-0.609,0.038-0.903,0.092c-0.084,0.015-0.165,0.036-0.247,0.055&#xD;&#xA;&#x9;&#x9;c-0.226,0.054-0.445,0.123-0.658,0.206c-0.065,0.026-0.133,0.047-0.197,0.075c-0.104,0.046-0.204,0.101-0.305,0.154v-0.689h-0.095&#xD;&#xA;&#x9;&#x9;V5.093z M97.789,10.139h-0.096v0.804c-0.165-0.098-0.334-0.189-0.511-0.268c-0.064-0.029-0.132-0.05-0.198-0.076&#xD;&#xA;&#x9;&#x9;c-0.213-0.083-0.431-0.152-0.656-0.206c-0.082-0.02-0.163-0.04-0.247-0.055c-0.294-0.055-0.594-0.092-0.903-0.092&#xD;&#xA;&#x9;&#x9;s-0.609,0.038-0.903,0.092c-0.084,0.015-0.164,0.035-0.246,0.055c-0.227,0.054-0.447,0.123-0.661,0.208&#xD;&#xA;&#x9;&#x9;c-0.064,0.025-0.13,0.046-0.193,0.074c-0.265,0.117-0.518,0.255-0.756,0.415c-0.048,0.032-0.091,0.07-0.139,0.104&#xD;&#xA;&#x9;&#x9;c-0.19,0.138-0.371,0.288-0.541,0.451c-0.02,0.019-0.044,0.033-0.063,0.053h-2.037c-0.021-0.021-0.046-0.035-0.067-0.055&#xD;&#xA;&#x9;&#x9;c-0.167-0.16-0.345-0.308-0.532-0.443c-0.05-0.036-0.095-0.076-0.146-0.11c-0.237-0.159-0.489-0.295-0.752-0.412&#xD;&#xA;&#x9;&#x9;c-0.064-0.029-0.132-0.05-0.198-0.076c-0.213-0.083-0.432-0.152-0.657-0.206c-0.082-0.02-0.163-0.04-0.247-0.056&#xD;&#xA;&#x9;&#x9;c-0.294-0.054-0.594-0.092-0.903-0.092s-0.609,0.038-0.903,0.092c-0.084,0.015-0.164,0.035-0.246,0.055&#xD;&#xA;&#x9;&#x9;c-0.227,0.054-0.447,0.123-0.66,0.208c-0.065,0.025-0.131,0.046-0.194,0.074c-0.265,0.117-0.518,0.255-0.756,0.415&#xD;&#xA;&#x9;&#x9;c-0.048,0.032-0.091,0.07-0.139,0.104c-0.19,0.138-0.371,0.288-0.541,0.451c-0.02,0.019-0.044,0.033-0.063,0.053h-2.037&#xD;&#xA;&#x9;&#x9;c-0.02-0.02-0.044-0.034-0.063-0.053c-0.17-0.163-0.351-0.313-0.541-0.451c-0.048-0.034-0.091-0.072-0.139-0.104&#xD;&#xA;&#x9;&#x9;c-0.238-0.16-0.491-0.297-0.756-0.415c-0.063-0.028-0.13-0.048-0.194-0.074c-0.214-0.084-0.434-0.153-0.66-0.208&#xD;&#xA;&#x9;&#x9;c-0.082-0.02-0.162-0.04-0.246-0.055c-0.294-0.055-0.594-0.092-0.903-0.092s-0.609,0.038-0.903,0.092&#xD;&#xA;&#x9;&#x9;c-0.084,0.015-0.164,0.035-0.246,0.055c-0.227,0.054-0.447,0.123-0.66,0.208c-0.065,0.025-0.131,0.046-0.194,0.074&#xD;&#xA;&#x9;&#x9;c-0.265,0.117-0.518,0.255-0.756,0.415c-0.048,0.032-0.091,0.07-0.139,0.104c-0.19,0.138-0.371,0.288-0.541,0.451&#xD;&#xA;&#x9;&#x9;c-0.02,0.019-0.044,0.033-0.063,0.053h-2.037c-0.02-0.02-0.044-0.034-0.063-0.053c-0.17-0.163-0.351-0.313-0.541-0.451&#xD;&#xA;&#x9;&#x9;c-0.048-0.034-0.091-0.072-0.139-0.104c-0.238-0.16-0.491-0.297-0.756-0.415c-0.063-0.028-0.13-0.048-0.194-0.074&#xD;&#xA;&#x9;&#x9;c-0.214-0.084-0.434-0.153-0.66-0.208c-0.082-0.02-0.162-0.04-0.246-0.055c-0.294-0.055-0.594-0.092-0.903-0.092&#xD;&#xA;&#x9;&#x9;c-0.309,0-0.607,0.038-0.901,0.092c-0.081,0.015-0.159,0.034-0.238,0.052c-0.236,0.056-0.466,0.127-0.688,0.216&#xD;&#xA;&#x9;&#x9;c-0.054,0.021-0.109,0.037-0.161,0.06c-0.265,0.116-0.515,0.255-0.753,0.413c-0.057,0.038-0.108,0.08-0.164,0.12&#xD;&#xA;&#x9;&#x9;c-0.187,0.135-0.363,0.282-0.529,0.441c-0.021,0.021-0.047,0.036-0.068,0.057h-1.837c-0.023-0.026-0.049-0.049-0.073-0.075&#xD;&#xA;&#x9;&#x9;c-0.059-0.063-0.117-0.125-0.179-0.184c-0.182-0.175-0.375-0.337-0.581-0.484c-0.031-0.022-0.059-0.048-0.09-0.069&#xD;&#xA;&#x9;&#x9;c-0.239-0.162-0.494-0.298-0.76-0.417c-0.072-0.033-0.147-0.058-0.222-0.087c-0.207-0.081-0.42-0.147-0.64-0.2&#xD;&#xA;&#x9;&#x9;c-0.084-0.021-0.167-0.042-0.253-0.058c-0.295-0.055-0.596-0.092-0.906-0.092s-0.611,0.038-0.906,0.092&#xD;&#xA;&#x9;&#x9;c-0.086,0.016-0.169,0.038-0.253,0.058c-0.22,0.053-0.433,0.12-0.64,0.201c-0.074,0.029-0.148,0.054-0.221,0.086&#xD;&#xA;&#x9;&#x9;c-0.125,0.056-0.244,0.121-0.363,0.186v-0.514h-0.096V5.093h41.263V10.139z"/>
</svg>