<svg version="1.2" baseProfile="tiny" viewBox="0 0 100.0 32.325" xmlns:xlink="http://www.w3.org/1999/xlink" xmlns="http://www.w3.org/2000/svg">
<path style="fill:#ffffff;" d="M95.151,15.1911L84.358,15.1911L84.358,15.1911C84.933,9.341,83.865,4.3829,81.4,4.3829C79.146,4.3829,78.374,9.4499,79.366,15.1921L74.403,15.1921C74.977,9.341,73.909,4.3829,71.443,4.3829C69.191,4.3829,68.418,9.4499,69.411,15.1921L64.447,15.1921C65.021,9.341,63.952,4.3829,61.487,4.3829C59.234,4.3829,58.462,9.4499,59.453,15.1921L54.49,15.1921L54.49,15.1921C55.066,9.341,53.997,4.3829,51.532,4.3829C49.278,4.3829,48.506,9.4499,49.497,15.1921L44.534,15.1921C45.109,9.341,44.042,4.3829,41.576,4.3829C39.323,4.3829,38.551,9.4499,39.542,15.1921L34.579,15.1921C35.152,9.341,34.086,4.3829,31.62,4.3829C29.367,4.3829,28.595,9.4499,29.586,15.1921L24.623,15.1921C25.197,9.341,24.129,4.3829,21.665,4.3829C19.412,4.3829,18.639,9.4499,19.631,15.1921L14.647,15.1921L11.709,4.3829C9.457,4.3829,8.684,9.4499,9.674,15.1921L4.845,15.1921L4.845,15.1921L4.845,17.492L10.16,17.492C10.163,17.4991,10.163,17.5092,10.167,17.5169C10.781,19.962,11.623,22.0809,12.571,23.7799C14.187,26.6811,16.111,28.361,17.736,28.361C19.365,28.361,21.092,26.5579,22.423,23.5901C22.456,23.6528,22.491,23.7169,22.527,23.7789C24.144,26.6801,26.068,28.36,27.691,28.36C29.322,28.36,31.05,26.5569,32.379,23.5888C32.412,23.6519,32.447,23.7159,32.482,23.7779C34.099,26.6791,36.023,28.359,37.647,28.359C39.277,28.359,41.006,26.556,42.335,23.5879C42.37,23.6509,42.404,23.7149,42.439,23.777C44.055,26.6781,45.98,28.3581,47.604,28.3581C49.234,28.3581,50.962,26.555,52.291,23.5869C52.326,23.6499,52.361,23.7139,52.395,23.776C54.011,26.6769,55.935,28.3571,57.561,28.3571C59.19,28.3571,60.919,26.554,62.248,23.5859C62.283,23.649,62.316,23.713,62.351,23.775C63.969,26.6759,65.892,28.3561,67.518,28.3561C69.147,28.3561,70.876,26.553,72.204,23.585C72.239,23.648,72.274,23.712,72.309,23.7741C73.925,26.6749,75.848,28.3548,77.474,28.3548C79.103,28.3548,80.831,26.5521,82.161,23.584C82.195,23.647,82.229,23.711,82.265,23.7731C83.881,26.6739,85.804,28.3539,87.429,28.3539C89.06,28.3539,90.789,26.5479,92.119,23.5759C90.448,20.2571,89.856,17.8929,89.762,17.4849L95.154,17.4849L95.154,15.1911Z"/>
</svg>