<svg version="1.2" baseProfile="tiny" viewBox="0 0 79.624 63.797" xmlns:xlink="http://www.w3.org/1999/xlink" xmlns="http://www.w3.org/2000/svg">
<path style="fill:#ffffff;" d="M75.624,0.5c1.93,0,3.5,1.57,3.5,3.5v55.797c0,1.93-1.57,3.5-3.5,3.5H4c-1.93,0-3.5-1.57-3.5-3.5V4    c0-1.93,1.57-3.5,3.5-3.5H75.624 M75.624,0H4C1.8,0,0,1.8,0,4v55.797c0,2.2,1.8,4,4,4h71.624c2.2,0,4-1.8,4-4V4    C79.624,1.8,77.824,0,75.624,0L75.624,0z M74.516,2.101c1.645,0,2.983,1.338,2.983,2.983v53.632c0,1.645-1.338,2.982-2.983,2.982    H5.107c-1.645,0-2.983-1.338-2.983-2.982V5.083c0-1.645,1.338-2.983,2.983-2.983H74.516 M74.516,1.601H5.107    c-1.916,0-3.483,1.567-3.483,3.483v53.632c0,1.915,1.567,3.482,3.483,3.482h69.409c1.916,0,3.483-1.567,3.483-3.482V5.083    C77.999,3.168,76.432,1.601,74.516,1.601L74.516,1.601z"/>
</svg>