<svg version="1.2" baseProfile="tiny" viewBox="0 0 79.624 63.797" xmlns:xlink="http://www.w3.org/1999/xlink" xmlns="http://www.w3.org/2000/svg">
<path style="fill:#ffffff;" d="M6.943,1.787L1.88,6.805V5.7c0-2.152,1.06-3.913,3.949-3.913H6.943z M9.66,29.607l-7.779,7.71V41.7    L9.66,33.99V29.607z M30.417,1.787h-4.423l-6.223,6.167h4.423L30.417,1.787z M9.66,17.976L1.88,25.685v4.384l7.779-7.709V17.976z     M12.434,7.978l6.246-6.19h-4.423L1.88,14.053v4.383l7.802-7.732C9.852,9.281,10.998,8.145,12.434,7.978z M65.757,1.787h-4.551    l-6.223,6.167h4.538L65.757,1.787z M69.601,9.482l6.944-6.877c-0.689-0.581-1.7-0.817-2.671-0.817h-0.932L66.72,7.955h0.185    C68.049,7.955,69.051,8.57,69.601,9.482z M9.66,41.239l-7.779,7.71v4.382l7.779-7.708V41.239z M53.891,1.787h-4.423l-6.223,6.167    h4.422L53.891,1.787z M42.154,1.787h-4.423l-6.224,6.167h4.424L42.154,1.787z M70.872,61.998c0,0,0.818,0,3.002,0    s3.904-1.26,3.904-3.845c0-1.184,0.016-2.597,0.016-2.597L70.872,61.998z M70.045,52.718c0,1.712-1.413,3.111-3.14,3.111h-1.546    l-6.223,6.168h4.423l14.266-14.139v-4.382l-7.779,7.708V52.718z M70.045,43.936l7.779-7.709v-4.382l-7.779,7.708V43.936z     M70.045,32.305l7.779-7.709v-4.383l-7.779,7.709V32.305z M70.045,16.29v4.384l7.779-7.709V8.581L70.045,16.29z M23.925,61.998    h4.423l6.223-6.168h-4.423L23.925,61.998z M9.667,52.865l-7.378,7.307c0.547,0.928,1.598,1.487,2.683,1.729l6.459-6.388    C10.427,55.026,9.722,54.027,9.667,52.865z M47.398,61.998h4.423l6.223-6.168h-4.423L47.398,61.998z M12.188,61.998h4.423    l6.223-6.168h-4.423L12.188,61.998z M35.662,61.998h4.422l6.224-6.168h-4.423L35.662,61.998z"/>
</svg>