<svg version="1.2" baseProfile="tiny" id="EdgeSVG_2a0wm" x="0px" y="0px" width="153.742px" height="247.316px" viewBox="0 0 153.742 247.316" xmlns:xlink="http://www.w3.org/1999/xlink" xmlns="http://www.w3.org/2000/svg">
  <linearGradient id="SVGID_1_" gradientUnits="userSpaceOnUse" x1="37.5869" y1="70.1533" x2="115.5684" y2="70.1533">
    <stop offset="0" style="stop-color:#000000;stop-opacity:0.5"/>
    <stop offset="1" style="stop-color:#000000;stop-opacity:0.5"/>
  </linearGradient>
  <path fill="url(#SVGID_1_)" d="M114.543,1.146c-0.477-0.689-1.208-1.118-2.061-1.143c-0.058-0.002-0.335-0.003-0.777-0.004&#xD;&#xA;&#x9;&#x9;L96.621,0.003l-2.158,0.08v1.606h-35.46V0.022L41.507,0.018c-0.444,0.001-0.722,0.003-0.783,0.004&#xD;&#xA;&#x9;&#x9;c-0.848,0.028-1.576,0.457-2.051,1.143l-1.086,0.439v28.41l1.018,0.425c0.474,0.697,1.239,1.146,2.136,1.171&#xD;&#xA;&#x9;&#x9;c0.069,0.002,0.378,0.003,0.866,0.004l15.238-0.003l2.179-0.036l-0.018-1.803c0.027-0.001,0.73-0.002,0.73-0.002&#xD;&#xA;&#x9;&#x9;c3.044,0.184,3.044,2.5,3.044,3.358l-0.063,8.351c0,0.037-0.002,0.063-0.004,0.095h-1.699l-0.002,2.158&#xD;&#xA;&#x9;&#x9;c-0.003,2.475-0.015,14.844,0.001,15.315c0.022,0.838,0.435,1.56,1.103,2.037c0.162,0.489,0.37,0.97,0.569,1.383h-5.076&#xD;&#xA;&#x9;&#x9;l-0.278,0.075c-1.391,0.378-3.744,1.697-3.744,4.244v11.813c0,1.451,0.959,2.712,1.799,3.537v38.261&#xD;&#xA;&#x9;&#x9;c0,1.413,1.103,2.626,2.249,3.506c1.331,3.819,7.464,10.573,11.294,14.544l0.637,0.66h0.62v1.2h13.23v-1.2h0.659&#xD;&#xA;&#x9;&#x9;c0,0,2.206-2.54,2.7-3.083c5.277-5.804,8.371-9.535,9.222-12.091c1.002-0.726,2.23-1.942,2.23-3.536V82.153&#xD;&#xA;&#x9;&#x9;c0.821-0.785,1.8-2.068,1.8-3.724V66.842c0-2.583-2.929-3.895-3.826-4.234l-0.37-0.141h-4.88c0.291-0.561,0.496-1.023,0.64-1.404&#xD;&#xA;&#x9;&#x9;c0.604-0.478,0.987-1.19,1.01-2.015c0.015-0.543,0.003-12.854,0.001-15.316L92.6,41.573h-1.797&#xD;&#xA;&#x9;&#x9;c-0.002-0.033-0.004-0.065-0.004-0.108l-0.053-8.32c0-0.875,0-3.19,3.119-3.375h0.503c0.044,0,0.061,0.005,0.095,0.007v1.814&#xD;&#xA;&#x9;&#x9;l17.24,0.005c0.434-0.001,0.709-0.002,0.775-0.004c0.895-0.024,1.659-0.474,2.132-1.171l0.958-0.387L115.566,1.56L114.543,1.146z&#xD;&#xA;&#x9;&#x9; M90.415,41.573L90.415,41.573c0.003-0.001,0.004,0,0.007,0H90.415z M94.462,29.406L94.462,29.406l0.001,0.007&#xD;&#xA;&#x9;&#x9;C94.463,29.41,94.462,29.409,94.462,29.406z"/>
</svg>