<svg version="1.2" baseProfile="tiny" viewBox="0 0 153.742 247.316" xmlns:xlink="http://www.w3.org/1999/xlink" xmlns="http://www.w3.org/2000/svg">
<path style="fill:#ffffff;" d="M40.2543,28.7752L37.5822,27.6944L37.5822,3.9373L40.2543,2.854L40.2543,28.7752M56.843,29.4158C56.843,29.4158,56.8246,27.6079,59.0969,27.6079C59.0754,27.4892,59.1599,3.9496,59.0969,3.8878C56.7124,3.8878,56.843,2.2135,56.843,2.2135L56.843,29.4158M56.843,2.1813C56.843,2.1813,41.269,2.1665,40.7954,2.1813C40.3235,2.1962,40.2543,3.0049,40.2543,3.0049L40.2543,28.7233C40.2543,28.7233,40.2558,29.4355,40.7954,29.4504C41.3351,29.4652,56.843,29.4504,56.843,29.4504L56.843,2.1813M112.8943,28.7579L115.5663,27.6771L115.5663,3.9175L112.8943,2.8367L112.8943,28.7579M96.6222,2.1962C96.6222,2.1962,96.7545,3.8705,94.3684,3.8705C94.3053,3.9323,94.3914,27.4892,94.3684,27.6079C96.6391,27.6079,96.6222,29.3985,96.6222,29.3985L96.6222,2.1962M96.6222,29.4331C96.6222,29.4331,111.8811,29.4479,112.4208,29.4331C112.9589,29.4182,112.9604,28.7035,112.9604,28.7035L112.9604,2.9851C112.9604,2.9851,112.8928,2.1764,112.4208,2.164C111.9472,2.1492,96.6222,2.164,96.6222,2.164L96.6222,29.4331M94.9864,3.8507L56.8922,3.8507L56.8922,27.6104L56.8922,27.6104L94.988,27.6104L94.988,3.8507M59.0769,27.6079C59.0769,27.6079,64.9406,27.0712,64.9406,33.1428L64.8776,41.4774L88.6384,41.4774L88.5846,33.1428C88.5846,27.0712,94.5344,27.6079,94.5344,27.6079L59.0769,27.6079L59.0769,27.6079M63.9767,59.529C63.9767,60.35,64.9268,62.106,64.9268,62.106L88.6876,62.106C88.6876,62.106,89.7669,60.2116,89.7669,59.529L63.9767,59.529L63.9767,59.529M90.4064,43.7329C90.4064,43.7329,88.6384,43.7502,88.6384,41.4774C88.517,41.5021,64.9422,41.4155,64.8776,41.4774C64.8776,43.864,63.2049,43.7329,63.2049,43.7329L90.4064,43.7329L90.4064,43.7329M63.1726,43.7329C63.1726,43.7329,63.1572,58.515,63.1726,58.9898C63.1864,59.4622,63.9966,59.529,63.9966,59.529L89.7146,59.529C89.7146,59.529,90.4264,59.529,90.4418,58.9898C90.4572,58.4482,90.4418,43.7329,90.4418,43.7329L63.1726,43.7329L63.1726,43.7329M87.6053,62.106L66.0061,62.106L66.0061,64.6261L87.6053,64.6261L87.6053,62.106M97.8675,78.4288C97.8675,76.8559,97.8675,68.1356,97.8675,66.8421C97.8675,65.5486,95.4353,64.6261,95.4353,64.6261L57.8977,64.6261L57.8977,64.6261C57.8977,64.6261,55.7468,65.2098,55.7468,66.7852C55.7468,68.3606,55.7468,77.4173,55.7468,78.5995C55.7468,79.7792,57.5779,81.1864,57.5779,81.1864L95.9965,81.1864C95.9965,81.1864,97.8675,80.0042,97.8675,78.4288M81.2557,135.9001L72.3464,135.9001L72.3464,138.1458L81.2557,138.1458L81.2557,135.9001M96.0672,106.007L96.0672,81.1864L57.5456,81.1864L57.5456,106.007L57.5456,106.007L59.7072,106.007L59.7072,107.1249C59.7072,107.1249,57.5456,107.622,57.5456,108.9699C57.5456,110.3178,57.5456,119.4957,57.5456,120.3959C57.5456,121.2986,59.5335,122.602,59.5335,122.602C59.5335,125.5945,70.483,136.9463,70.483,136.9463L83.1298,136.9463L83.1298,136.9463C83.1298,136.9463,94.0793,125.6192,94.0793,122.602C94.0793,122.602,96.0672,121.4767,96.0672,120.3959C96.0672,119.3176,96.0672,109.9641,96.0672,108.9699C96.0672,107.9782,93.9072,107.1249,93.9072,107.1249L93.9072,107.1249L96.0672,106.007L96.0672,106.007Z"/>
</svg>