<svg version="1.2" baseProfile="tiny" viewBox="0 0 43.52 26.688" xmlns:xlink="http://www.w3.org/1999/xlink" xmlns="http://www.w3.org/2000/svg">
<path style="fill:#ffffff;" d="M34.809,26.0841C34.809,26.4459,34.809,26.684,34.5679,26.684L8.9499,26.684L8.9499,26.684C8.7079,26.684,8.7079,26.4459,8.7079,26.0841L8.7079,22.126C8.7079,21.7641,8.7079,21.5249,8.9499,21.5249L34.5679,21.5249C34.809,21.5249,34.809,21.7641,34.809,22.126L34.809,26.0841M33.6588,20.909C33.8912,20.909,34.0792,20.7211,34.0792,20.4889C34.0792,20.257,33.8912,20.0691,33.6588,20.0691C33.6588,20.0691,33.5979,20.0691,33.5979,19.9829C33.5979,19.897,33.5979,18.727,33.5979,18.597C33.5979,18.3571,33.5178,18.1969,33.1979,18.1969C32.8972,18.1969,10.638,18.1969,10.3182,18.1969C9.9978,18.1969,9.9182,18.3571,9.9182,18.597C9.9182,18.727,9.9182,19.8999,9.9182,19.9829C9.9182,20.067,9.8568,20.0691,9.8568,20.0691C9.6249,20.0691,9.4369,20.257,9.4369,20.4889C9.4369,20.7211,9.6249,20.909,9.8568,20.909C9.8568,20.909,9.9182,20.9141,9.9182,20.9949C9.9182,21.076,9.9182,21.1889,9.9182,21.2359C9.9182,21.4761,9.7981,21.5249,9.6379,21.5249L33.8781,21.5249C33.718,21.5249,33.5979,21.4761,33.5979,21.2359C33.5979,21.19,33.5979,21.0779,33.5979,20.9949C33.5979,20.9119,33.6588,20.909,33.6588,20.909Z"/>
</svg>