<svg version="1.2" baseProfile="tiny" id="EdgeSVG_WuDrA" x="0px" y="0px" width="43.52px" height="26.688px" viewBox="0 0 43.52 26.688" xmlns:xlink="http://www.w3.org/1999/xlink" xmlns="http://www.w3.org/2000/svg">
  <g>
    <linearGradient id="SVGID_2_" gradientUnits="userSpaceOnUse" x1="8.708" y1="24.104" x2="34.8091" y2="24.104">
      <stop offset="0" style="stop-color:#FFFFFF;stop-opacity:0.1"/>
      <stop offset="0.15" style="stop-color:#FFFFFF;stop-opacity:0"/>
      <stop offset="0.3" style="stop-color:#FFFFFF;stop-opacity:0.15"/>
      <stop offset="0.5" style="stop-color:#FFFFFF;stop-opacity:0.05"/>
      <stop offset="0.7" style="stop-color:#FFFFFF;stop-opacity:0.2"/>
      <stop offset="0.8415" style="stop-color:#FFFFFF;stop-opacity:0.02"/>
      <stop offset="0.8963" style="stop-color:#FFFFFF;stop-opacity:0.1"/>
      <stop offset="0.9451" style="stop-color:#FFFFFF;stop-opacity:0.05"/>
      <stop offset="1" style="stop-color:#FFFFFF;stop-opacity:0.1"/>
    </linearGradient>
    <path fill="url(#SVGID_2_)" d="M34.809,22.125c0-0.362,0-0.601-0.241-0.601H8.95c-0.242,0-0.242,0.239-0.242,0.601v3.958&#xD;&#xA;&#x9;&#x9;&#x9;c0,0.362,0,0.6,0.242,0.6h25.618c0.241,0,0.241-0.238,0.241-0.6V22.125z"/>
    <linearGradient id="SVGID_3_" gradientUnits="userSpaceOnUse" x1="21.7583" y1="21.5249" x2="21.7583" y2="26.6836">
      <stop offset="0" style="stop-color:#FFFFFF;stop-opacity:0.05"/>
      <stop offset="0.0244" style="stop-color:#FFFFFF;stop-opacity:0.15"/>
      <stop offset="0.0732" style="stop-color:#FFFFFF;stop-opacity:0"/>
      <stop offset="0.1714" style="stop-color:#FFFFFF;stop-opacity:0"/>
      <stop offset="0.7683" style="stop-color:#FFFFFF;stop-opacity:0"/>
      <stop offset="0.7808" style="stop-color:#F5F5F5;stop-opacity:0"/>
      <stop offset="0.8022" style="stop-color:#D9D9D9;stop-opacity:0"/>
      <stop offset="0.8301" style="stop-color:#ACACAC;stop-opacity:0"/>
      <stop offset="0.8632" style="stop-color:#6E6E6E;stop-opacity:0"/>
      <stop offset="0.9004" style="stop-color:#202020;stop-opacity:0"/>
      <stop offset="0.9146" style="stop-color:#000000;stop-opacity:0"/>
      <stop offset="0.9695" style="stop-color:#000000;stop-opacity:0.2"/>
    </linearGradient>
    <path fill="url(#SVGID_3_)" d="M34.809,22.125c0-0.362,0-0.601-0.241-0.601H8.95c-0.242,0-0.242,0.239-0.242,0.601v3.958&#xD;&#xA;&#x9;&#x9;&#x9;c0,0.362,0,0.6,0.242,0.6h25.618c0.241,0,0.241-0.238,0.241-0.6V22.125z"/>
    <linearGradient id="SVGID_4_" gradientUnits="userSpaceOnUse" x1="9.8574" y1="19.1323" x2="33.6597" y2="19.1323">
      <stop offset="0" style="stop-color:#FFFFFF;stop-opacity:0"/>
      <stop offset="0.5366" style="stop-color:#FFFFFF;stop-opacity:0.15"/>
      <stop offset="1" style="stop-color:#FFFFFF;stop-opacity:0"/>
    </linearGradient>
    <path fill="url(#SVGID_4_)" d="M33.66,20.069H9.857c0,0,0.062-0.002,0.062-0.086v-1.386c0-0.24,0.08-0.401,0.399-0.401h22.88&#xD;&#xA;&#x9;&#x9;&#x9;c0.32,0,0.4,0.161,0.4,0.401v1.386C33.599,20.069,33.66,20.069,33.66,20.069z"/>
    <linearGradient id="SVGID_5_" gradientUnits="userSpaceOnUse" x1="21.7583" y1="18.1958" x2="21.7583" y2="20.0688">
      <stop offset="0" style="stop-color:#FFFFFF;stop-opacity:0.05"/>
      <stop offset="0.0488" style="stop-color:#FFFFFF;stop-opacity:0.15"/>
      <stop offset="0.1829" style="stop-color:#FFFFFF;stop-opacity:0"/>
      <stop offset="0.2665" style="stop-color:#FFFFFF;stop-opacity:0"/>
      <stop offset="0.7744" style="stop-color:#FFFFFF;stop-opacity:0"/>
      <stop offset="0.9681" style="stop-color:#FFFFFF;stop-opacity:0.0429"/>
      <stop offset="1" style="stop-color:#FFFFFF;stop-opacity:0.05"/>
    </linearGradient>
    <path fill="url(#SVGID_5_)" d="M33.66,20.069H9.857c0,0,0.062-0.002,0.062-0.086v-1.386c0-0.24,0.08-0.401,0.399-0.401h22.88&#xD;&#xA;&#x9;&#x9;&#x9;c0.32,0,0.4,0.161,0.4,0.401v1.386C33.599,20.069,33.66,20.069,33.66,20.069z"/>
    <linearGradient id="SVGID_6_" gradientUnits="userSpaceOnUse" x1="9.5249" y1="21.2168" x2="33.7651" y2="21.2168">
      <stop offset="0" style="stop-color:#FFFFFF;stop-opacity:0"/>
      <stop offset="0.5366" style="stop-color:#FFFFFF;stop-opacity:0.15"/>
      <stop offset="1" style="stop-color:#FFFFFF;stop-opacity:0"/>
    </linearGradient>
    <path fill="url(#SVGID_6_)" d="M33.765,21.524H9.525c0.16,0,0.28-0.048,0.28-0.288v-0.241c0-0.081-0.062-0.086-0.062-0.086h23.802&#xD;&#xA;&#x9;&#x9;&#x9;c0,0-0.061,0.003-0.061,0.086v0.241C33.484,21.477,33.604,21.524,33.765,21.524z"/>
    <linearGradient id="SVGID_7_" gradientUnits="userSpaceOnUse" x1="21.645" y1="20.9092" x2="21.645" y2="21.5244">
      <stop offset="0" style="stop-color:#000000;stop-opacity:0.1"/>
      <stop offset="0.0915" style="stop-color:#000000;stop-opacity:0.2"/>
      <stop offset="1" style="stop-color:#000000;stop-opacity:0.05"/>
    </linearGradient>
    <path fill="url(#SVGID_7_)" d="M33.765,21.524H9.525c0.16,0,0.28-0.048,0.28-0.288v-0.241c0-0.081-0.062-0.086-0.062-0.086h23.802&#xD;&#xA;&#x9;&#x9;&#x9;c0,0-0.061,0.003-0.061,0.086v0.241C33.484,21.477,33.604,21.524,33.765,21.524z"/>
    <g>
      <linearGradient id="SVGID_8_" gradientUnits="userSpaceOnUse" x1="9.4375" y1="20.4888" x2="34.0796" y2="20.4888">
        <stop offset="0" style="stop-color:#FFFFFF;stop-opacity:0"/>
        <stop offset="0.5366" style="stop-color:#FFFFFF;stop-opacity:0.15"/>
        <stop offset="1" style="stop-color:#FFFFFF;stop-opacity:0"/>
      </linearGradient>
      <path fill="url(#SVGID_8_)" d="M34.08,20.489c0,0.232-0.188,0.42-0.42,0.42H9.857c-0.231,0-0.42-0.188-0.42-0.42&#xD;&#xA;&#x9;&#x9;&#x9;&#x9;c0-0.231,0.188-0.42,0.42-0.42H33.66C33.891,20.069,34.08,20.257,34.08,20.489z"/>
    </g>
    <g>
      <linearGradient id="SVGID_9_" gradientUnits="userSpaceOnUse" x1="21.7583" y1="20.0688" x2="21.7583" y2="20.9092">
        <stop offset="0" style="stop-color:#FFFFFF;stop-opacity:0.05"/>
        <stop offset="0.267" style="stop-color:#FFFFFF;stop-opacity:0.1359"/>
        <stop offset="0.311" style="stop-color:#FFFFFF;stop-opacity:0.15"/>
        <stop offset="0.3529" style="stop-color:#D2D2D2;stop-opacity:0.1559"/>
        <stop offset="0.4173" style="stop-color:#939393;stop-opacity:0.165"/>
        <stop offset="0.479" style="stop-color:#5E5E5E;stop-opacity:0.1737"/>
        <stop offset="0.5361" style="stop-color:#363636;stop-opacity:0.1818"/>
        <stop offset="0.5879" style="stop-color:#181818;stop-opacity:0.1891"/>
        <stop offset="0.6324" style="stop-color:#060606;stop-opacity:0.1954"/>
        <stop offset="0.6646" style="stop-color:#000000;stop-opacity:0.2"/>
        <stop offset="1" style="stop-color:#000000;stop-opacity:0.1"/>
      </linearGradient>
      <path fill="url(#SVGID_9_)" d="M34.08,20.489c0,0.232-0.188,0.42-0.42,0.42H9.857c-0.231,0-0.42-0.188-0.42-0.42&#xD;&#xA;&#x9;&#x9;&#x9;&#x9;c0-0.231,0.188-0.42,0.42-0.42H33.66C33.891,20.069,34.08,20.257,34.08,20.489z"/>
    </g>
  </g>
  <linearGradient id="SVGID_10_" gradientUnits="userSpaceOnUse" x1="21.7583" y1="21.5249" x2="21.7583" y2="26.6836">
    <stop offset="0.0061" style="stop-color:#FFFFFF;stop-opacity:0.35"/>
    <stop offset="0.1098" style="stop-color:#FFFFFF;stop-opacity:0.1"/>
    <stop offset="1" style="stop-color:#FFFFFF;stop-opacity:0"/>
  </linearGradient>
  <path fill="url(#SVGID_10_)" d="M34.809,22.125c0-0.362,0-0.601-0.241-0.601H8.95c-0.242,0-0.242,0.239-0.242,0.601v3.958&#xD;&#xA;&#x9;&#x9;c0,0.362,0,0.6,0.242,0.6h25.618c0.241,0,0.241-0.238,0.241-0.6V22.125z"/>
</svg>