<svg version="1.2" baseProfile="tiny" viewBox="0 0 270.176 133.469" xmlns:xlink="http://www.w3.org/1999/xlink" xmlns="http://www.w3.org/2000/svg">
<path style="fill:#ffffff;" d="M269.1763,56.8071L269.1763,64.7071C269.1763,65.7295,268.3388,66.5663,267.3175,66.5663L236.177,66.5663L236.177,87.4035L232.6161,87.4035L232.6161,110.2747L229.4713,114.9235L229.4713,119.1184C229.4713,119.8872,228.8418,120.5145,228.0745,120.5145L222.1279,120.5145C221.3606,120.5145,220.7338,119.8872,220.7338,119.1184L220.7338,2.3944C220.7338,1.6283,221.3606,0.9997,222.1279,0.9997L228.0745,0.9997C228.8418,0.9997,229.4713,1.627,229.4713,2.3944L229.4713,6.592L232.6161,11.2394L232.6161,34.1093L236.177,34.1093L236.177,54.9478L267.3175,54.9478C268.3388,54.9478,269.1763,55.7847,269.1763,56.8071M219.337,1.2493C219.337,1.2493,193.4163,1.2493,190.3174,1.2493C190.2282,1.2493,190.1255,1.2533,190.0094,1.2626C186.0243,1.6297,165.7719,8.0856,163.3592,8.0856C160.8817,8.0856,6.4221,8.0856,6.4221,8.0856C5.6548,8.0856,5.028,8.7129,5.028,9.4816L5.028,9.0145C5.028,8.5033,4.6092,8.0856,4.0959,8.0856L1.9291,8.0856L1.9291,8.0856C1.4184,8.0842,0.9997,8.502,0.9997,9.0145L0.9997,112.5023C0.9997,113.0135,1.4184,113.4326,1.9291,113.4326L4.0986,113.4326C4.6092,113.4326,5.028,113.0135,5.028,112.5023L5.028,112.0379C5.028,112.8067,5.6548,113.4326,6.4221,113.4326C6.4221,113.4326,11.9121,113.4326,20.8306,113.4326C22.3787,113.4326,22.9974,114.5391,22.9974,115.4694L22.9974,115.5895L22.9974,118.5685C22.9974,119.8044,24.3915,120.4264,24.3915,120.4264C24.3915,120.4264,22.9974,120.6586,22.9974,121.8225C22.9974,122.985,22.9974,125.3074,22.9974,125.3074L22.1842,126.1202L22.1842,127.7845L22.9974,128.4999L22.9974,131.7339L23.735,132.468L44.5709,132.468L45.3058,131.7339L45.3058,128.4999L46.119,127.7845L46.119,126.1202L45.3058,125.3074C45.3058,125.3074,45.3058,122.9837,45.3058,121.8225C45.3058,120.66,43.9117,120.4264,43.9117,120.4264C43.9117,120.4264,45.3058,119.8044,45.3058,118.5685L45.3058,115.7016L45.3058,115.4694C45.3058,114.5391,45.9299,113.4326,47.4753,113.4326C93.4242,113.4326,161.7192,113.4326,163.3592,113.4326C165.7719,113.4326,186.0243,119.8885,190.0094,120.2556C190.1255,120.2649,190.2282,120.2702,190.3174,120.2702C193.4163,120.2702,219.337,120.2702,219.337,120.2702C220.1043,120.2702,220.7311,119.6429,220.7311,118.8755L220.7311,2.6427C220.7311,1.8766,220.1043,1.2493,219.337,1.2493Z"/>
</svg>