<svg version="1.2" baseProfile="tiny" id="EdgeSVG_SUfdV" x="0px" y="0px" width="270.176px" height="133.469px" viewBox="0 0 270.176 133.469" xmlns:xlink="http://www.w3.org/1999/xlink" xmlns="http://www.w3.org/2000/svg">
  <linearGradient id="SVGID_1_" gradientUnits="userSpaceOnUse" x1="0" y1="66.7349" x2="270.1763" y2="66.7349">
    <stop offset="0" style="stop-color:#000000;stop-opacity:0.5"/>
    <stop offset="1" style="stop-color:#000000;stop-opacity:0.5"/>
  </linearGradient>
  <path fill="url(#SVGID_1_)" d="M267.317,53.948h-30.14V33.11h-3.561V10.933l-3.146-4.648v-3.89c0-1.32-1.074-2.395-2.395-2.395&#xD;&#xA;&#x9;&#x9;h-5.947c-0.602,0-1.145,0.23-1.565,0.597c-0.359-0.216-0.776-0.349-1.226-0.349H191.01V0.166l-1.073,0.099&#xD;&#xA;&#x9;&#x9;c-0.002,0-0.004,0-0.007,0l-0.92,0.074v0.06c-2.696,0.48-8.261,2.056-13.668,3.587c-5.132,1.453-10.948,3.1-11.982,3.1h-1H6.422&#xD;&#xA;&#x9;&#x9;c-0.449,0-0.864,0.132-1.224,0.348C4.886,7.214,4.507,7.084,4.098,7.084H1.93C0.866,7.084,0,7.95,0,9.014v103.488&#xD;&#xA;&#x9;&#x9;c0,1.064,0.866,1.93,1.93,1.93h2.168c0.409,0,0.787-0.13,1.099-0.348c0.36,0.217,0.776,0.349,1.225,0.349h13.408h1&#xD;&#xA;&#x9;&#x9;c1.082,0,1.166,0.793,1.166,1.036v2.026v1.073c0,0.684,0.264,1.255,0.621,1.705c-0.36,0.37-0.621,0.877-0.621,1.549v3.071&#xD;&#xA;&#x9;&#x9;l-0.813,0.813v2.53l0.813,0.716v3.198l1.326,1.318h21.663l1.32-1.32v-3.196l0.813-0.716v-2.53l-0.813-0.813v-3.071&#xD;&#xA;&#x9;&#x9;c0-0.672-0.261-1.179-0.621-1.549c0.357-0.45,0.621-1.021,0.621-1.705v-0.938v-2.161c0-0.243,0.084-1.036,1.17-1.036h1H162.36h1&#xD;&#xA;&#x9;&#x9;c1.034,0,6.851,1.647,11.982,3.101c5.408,1.531,10.973,3.106,13.668,3.587v0.063l0.902,0.067c0.002,0,0.004,0.001,0.006,0.001&#xD;&#xA;&#x9;&#x9;l1.092,0.101v-0.083h28.328c0.45,0,0.867-0.133,1.228-0.35c0.421,0.366,0.963,0.596,1.563,0.596h5.947&#xD;&#xA;&#x9;&#x9;c1.32,0,2.395-1.074,2.395-2.395v-3.89l3.146-4.648V88.405h3.561V67.567h30.14c1.577,0,2.859-1.282,2.859-2.859v-7.9&#xD;&#xA;&#x9;&#x9;C270.176,55.23,268.894,53.948,267.317,53.948z"/>
</svg>