<svg version="1.2" baseProfile="tiny" id="EdgeSVG_0qHV3" x="0px" y="0px" width="272.98px" height="162.713px" viewBox="0 0 272.98 162.713" xmlns:xlink="http://www.w3.org/1999/xlink" xmlns="http://www.w3.org/2000/svg">
  <linearGradient id="SVGID_2_" gradientUnits="userSpaceOnUse" x1="71.208" y1="145.022" x2="215.522" y2="145.022">
    <stop offset="0.457" style="stop-color:#000000;stop-opacity:0.05"/>
    <stop offset="0.5339" style="stop-color:#000000;stop-opacity:0.2"/>
    <stop offset="0.5852" style="stop-color:#000000;stop-opacity:0.1647"/>
    <stop offset="0.5907" style="stop-color:#303030;stop-opacity:0.1752"/>
    <stop offset="0.5971" style="stop-color:#606060;stop-opacity:0.1873"/>
    <stop offset="0.6037" style="stop-color:#8B8B8B;stop-opacity:0.2001"/>
    <stop offset="0.6107" style="stop-color:#AFAFAF;stop-opacity:0.2133"/>
    <stop offset="0.6179" style="stop-color:#CCCCCC;stop-opacity:0.2272"/>
    <stop offset="0.6256" style="stop-color:#E3E3E3;stop-opacity:0.2418"/>
    <stop offset="0.634" style="stop-color:#F3F3F3;stop-opacity:0.2577"/>
    <stop offset="0.6433" style="stop-color:#FCFCFC;stop-opacity:0.2756"/>
    <stop offset="0.6561" style="stop-color:#FFFFFF;stop-opacity:0.3"/>
    <stop offset="0.667" style="stop-color:#FBFBFB;stop-opacity:0.2867"/>
    <stop offset="0.677" style="stop-color:#F0F0F0;stop-opacity:0.2746"/>
    <stop offset="0.6867" style="stop-color:#DEDEDE;stop-opacity:0.2629"/>
    <stop offset="0.6961" style="stop-color:#C4C4C4;stop-opacity:0.2515"/>
    <stop offset="0.7053" style="stop-color:#A2A2A2;stop-opacity:0.2403"/>
    <stop offset="0.7144" style="stop-color:#787878;stop-opacity:0.2292"/>
    <stop offset="0.7235" style="stop-color:#474747;stop-opacity:0.2183"/>
    <stop offset="0.7322" style="stop-color:#101010;stop-opacity:0.2077"/>
    <stop offset="0.7345" style="stop-color:#000000;stop-opacity:0.2048"/>
    <stop offset="0.7662" style="stop-color:#000000;stop-opacity:0.25"/>
    <stop offset="0.8446" style="stop-color:#000000;stop-opacity:0.05"/>
  </linearGradient>
  <path fill="url(#SVGID_2_)" d="M215.522,147.668v9.862h-29.281c-1.817,0-3.369-2.203-5.01-4.536&#xD;&#xA;&#x9;&#x9;c-1.479-2.092-2.998-4.253-5.131-5.326c-0.145-0.075-0.293-0.14-0.446-0.205c-4.56-1.887-15.138-1.821-18.563,0.112&#xD;&#xA;&#x9;&#x9;c-0.051,0.032-0.107,0.06-0.158,0.093c-2.208,1.292-3.746,3.095-5.238,4.847c-2.389,2.803-4.276,5.016-8.445,5.016H71.208v-9.862&#xD;&#xA;&#x9;&#x9;c0,0,63.907,0,72.041,0c8.133,0,9.528-10.923,14.873-13.943c2.636-1.492,12.549-1.734,16.732,0&#xD;&#xA;&#x9;&#x9;c4.183,1.729,6.274,13.943,11.387,13.943C191.354,147.668,215.522,147.668,215.522,147.668z"/>
  <linearGradient id="SVGID_3_" gradientUnits="userSpaceOnUse" x1="143.3652" y1="132.5132" x2="143.3652" y2="157.5308">
    <stop offset="0.3092" style="stop-color:#000000;stop-opacity:0.1"/>
    <stop offset="0.7179" style="stop-color:#000000;stop-opacity:0"/>
    <stop offset="0.7259" style="stop-color:#070707;stop-opacity:0.0044"/>
    <stop offset="0.7375" style="stop-color:#1A1A1A;stop-opacity:0.0108"/>
    <stop offset="0.7514" style="stop-color:#3A3A3A;stop-opacity:0.0185"/>
    <stop offset="0.7669" style="stop-color:#676767;stop-opacity:0.0271"/>
    <stop offset="0.7839" style="stop-color:#A0A0A0;stop-opacity:0.0365"/>
    <stop offset="0.8019" style="stop-color:#E4E4E4;stop-opacity:0.0464"/>
    <stop offset="0.8084" style="stop-color:#FFFFFF;stop-opacity:0.05"/>
    <stop offset="0.9646" style="stop-color:#FFFFFF;stop-opacity:0.3225"/>
    <stop offset="0.9804" style="stop-color:#FFFFFF;stop-opacity:0.35"/>
  </linearGradient>
  <path fill="url(#SVGID_3_)" d="M215.522,147.668v9.862h-29.281c-1.817,0-3.369-2.203-5.01-4.536&#xD;&#xA;&#x9;&#x9;c-1.479-2.092-2.998-4.253-5.131-5.326c-0.145-0.075-0.293-0.14-0.446-0.205c-4.56-1.887-15.138-1.821-18.563,0.112&#xD;&#xA;&#x9;&#x9;c-0.051,0.032-0.107,0.06-0.158,0.093c-2.208,1.292-3.746,3.095-5.238,4.847c-2.389,2.803-4.276,5.016-8.445,5.016H71.208v-9.862&#xD;&#xA;&#x9;&#x9;c0,0,63.907,0,72.041,0c8.133,0,9.528-10.923,14.873-13.943c2.636-1.492,12.549-1.734,16.732,0&#xD;&#xA;&#x9;&#x9;c4.183,1.729,6.274,13.943,11.387,13.943C191.354,147.668,215.522,147.668,215.522,147.668z"/>
  <g>
    <linearGradient id="SVGID_4_" gradientUnits="userSpaceOnUse" x1="143.3652" y1="146.0864" x2="143.3652" y2="161.7134">
      <stop offset="0.1116" style="stop-color:#000000;stop-opacity:0.2"/>
      <stop offset="0.1434" style="stop-color:#070707;stop-opacity:0.1868"/>
      <stop offset="0.1896" style="stop-color:#1A1A1A;stop-opacity:0.1675"/>
      <stop offset="0.2448" style="stop-color:#3A3A3A;stop-opacity:0.1446"/>
      <stop offset="0.3068" style="stop-color:#676767;stop-opacity:0.1188"/>
      <stop offset="0.3745" style="stop-color:#A0A0A0;stop-opacity:0.0906"/>
      <stop offset="0.4459" style="stop-color:#E4E4E4;stop-opacity:0.0609"/>
      <stop offset="0.4721" style="stop-color:#FFFFFF;stop-opacity:0.05"/>
      <stop offset="0.5254" style="stop-color:#D6D6D6;stop-opacity:0.0751"/>
      <stop offset="0.6291" style="stop-color:#8B8B8B;stop-opacity:0.1238"/>
      <stop offset="0.7218" style="stop-color:#4F4F4F;stop-opacity:0.1674"/>
      <stop offset="0.8002" style="stop-color:#242424;stop-opacity:0.2043"/>
      <stop offset="0.8613" style="stop-color:#0A0A0A;stop-opacity:0.233"/>
      <stop offset="0.8974" style="stop-color:#000000;stop-opacity:0.25"/>
      <stop offset="1" style="stop-color:#000000;stop-opacity:0.4"/>
    </linearGradient>
    <path fill="url(#SVGID_4_)" d="M215.522,157.531v4.183h-29.281c-3.039,0-5.131-1.947-6.878-4.183&#xD;&#xA;&#x9;&#x9;&#x9;c-0.543-0.697-1.055-1.422-1.552-2.124c-1.231-1.752-2.51-3.561-3.755-4.076c-3.742-1.552-12.963-1.209-14.906-0.111&#xD;&#xA;&#x9;&#x9;&#x9;c-1.645,0.929-2.919,2.426-4.271,4.011c-0.646,0.763-1.319,1.548-2.054,2.301c-2.203,2.249-5.001,4.183-9.575,4.183H71.208v-4.183&#xD;&#xA;&#x9;&#x9;&#x9;h72.041c4.169,0,6.056-2.213,8.445-5.016c1.529-1.794,3.105-3.644,5.396-4.939c3.425-1.934,14.004-1.999,18.563-0.112&#xD;&#xA;&#x9;&#x9;&#x9;c2.37,0.981,3.997,3.296,5.577,5.531c1.641,2.333,3.192,4.536,5.01,4.536H215.522z"/>
  </g>
  <linearGradient id="SVGID_5_" gradientUnits="userSpaceOnUse" x1="1" y1="75.1997" x2="14.8491" y2="75.1997">
    <stop offset="0" style="stop-color:#000000;stop-opacity:0.25"/>
    <stop offset="0.0709" style="stop-color:#000000;stop-opacity:0"/>
    <stop offset="0.9291" style="stop-color:#000000;stop-opacity:0"/>
    <stop offset="1" style="stop-color:#000000;stop-opacity:0.25"/>
  </linearGradient>
  <path fill="url(#SVGID_5_)" d="M14.849,147.667c0,0.952-0.627,1.731-1.395,1.731H2.394c-0.767,0-1.394-0.779-1.394-1.731V2.732&#xD;&#xA;&#x9;&#x9;C1,1.78,1.627,1.001,2.394,1.001h11.061c0.767,0,1.395,0.779,1.395,1.731V147.667z"/>
  <linearGradient id="SVGID_6_" gradientUnits="userSpaceOnUse" x1="221.5708" y1="75.1987" x2="235.4204" y2="75.1987">
    <stop offset="0" style="stop-color:#000000;stop-opacity:0.25"/>
    <stop offset="0.0709" style="stop-color:#000000;stop-opacity:0"/>
    <stop offset="0.9291" style="stop-color:#000000;stop-opacity:0"/>
    <stop offset="1" style="stop-color:#000000;stop-opacity:0.25"/>
  </linearGradient>
  <path fill="url(#SVGID_6_)" d="M235.42,147.666c0,0.953-0.627,1.731-1.395,1.731h-11.061c-0.767,0-1.395-0.778-1.395-1.731V2.731&#xD;&#xA;&#x9;&#x9;c0-0.952,0.628-1.731,1.395-1.731h11.061c0.768,0,1.395,0.779,1.395,1.731V147.666z"/>
  <linearGradient id="SVGID_7_" gradientUnits="userSpaceOnUse" x1="228.4956" y1="1" x2="228.4956" y2="149.3975">
    <stop offset="0" style="stop-color:#000000;stop-opacity:0.2"/>
    <stop offset="0.0176" style="stop-color:#000000;stop-opacity:0"/>
    <stop offset="0.0462" style="stop-color:#000000;stop-opacity:0.1"/>
    <stop offset="0.057" style="stop-color:#393939;stop-opacity:0.1425"/>
    <stop offset="0.0714" style="stop-color:#7F7F7F;stop-opacity:0.1992"/>
    <stop offset="0.0845" style="stop-color:#B6B6B6;stop-opacity:0.2504"/>
    <stop offset="0.0956" style="stop-color:#DEDEDE;stop-opacity:0.2941"/>
    <stop offset="0.1045" style="stop-color:#F6F6F6;stop-opacity:0.3288"/>
    <stop offset="0.1099" style="stop-color:#FFFFFF;stop-opacity:0.35"/>
    <stop offset="0.2615" style="stop-color:#FFFFFF;stop-opacity:0.15"/>
    <stop offset="0.611" style="stop-color:#000000;stop-opacity:0.15"/>
    <stop offset="0.9165" style="stop-color:#000000;stop-opacity:0.45"/>
    <stop offset="0.9582" style="stop-color:#000000;stop-opacity:0.3"/>
    <stop offset="1" style="stop-color:#000000;stop-opacity:0.55"/>
  </linearGradient>
  <path fill="url(#SVGID_7_)" d="M235.42,147.666c0,0.953-0.627,1.731-1.395,1.731h-11.061c-0.767,0-1.395-0.778-1.395-1.731V2.731&#xD;&#xA;&#x9;&#x9;c0-0.952,0.628-1.731,1.395-1.731h11.061c0.768,0,1.395,0.779,1.395,1.731V147.666z"/>
  <linearGradient id="SVGID_8_" gradientUnits="userSpaceOnUse" x1="7.9248" y1="1" x2="7.9248" y2="149.3975">
    <stop offset="0" style="stop-color:#000000;stop-opacity:0.2"/>
    <stop offset="0.0176" style="stop-color:#000000;stop-opacity:0"/>
    <stop offset="0.0462" style="stop-color:#000000;stop-opacity:0.1"/>
    <stop offset="0.057" style="stop-color:#393939;stop-opacity:0.1425"/>
    <stop offset="0.0714" style="stop-color:#7F7F7F;stop-opacity:0.1992"/>
    <stop offset="0.0845" style="stop-color:#B6B6B6;stop-opacity:0.2504"/>
    <stop offset="0.0956" style="stop-color:#DEDEDE;stop-opacity:0.2941"/>
    <stop offset="0.1045" style="stop-color:#F6F6F6;stop-opacity:0.3288"/>
    <stop offset="0.1099" style="stop-color:#FFFFFF;stop-opacity:0.35"/>
    <stop offset="0.2615" style="stop-color:#FFFFFF;stop-opacity:0.15"/>
    <stop offset="0.611" style="stop-color:#000000;stop-opacity:0.15"/>
    <stop offset="0.9165" style="stop-color:#000000;stop-opacity:0.45"/>
    <stop offset="0.9582" style="stop-color:#000000;stop-opacity:0.3"/>
    <stop offset="1" style="stop-color:#000000;stop-opacity:0.55"/>
  </linearGradient>
  <path fill="url(#SVGID_8_)" d="M14.849,147.666c0,0.953-0.627,1.731-1.395,1.731H2.394c-0.767,0-1.394-0.778-1.394-1.731V2.731&#xD;&#xA;&#x9;&#x9;C1,1.779,1.627,1,2.394,1h11.061c0.767,0,1.395,0.779,1.395,1.731V147.666z"/>
  <rect x="235.42" y="24.798" fill="#CCCCCC" width="3.561" height="100.8"/>
  <path fill="#CCCCCC" d="M271.98,71.248v7.901c0,1.022-0.836,1.859-1.858,1.859h-31.141c0-3.142,0-8.24,0-11.62h31.141&#xD;&#xA;&#x9;&#x9;C271.144,69.388,271.98,70.226,271.98,71.248z"/>
  <linearGradient id="SVGID_9_" gradientUnits="userSpaceOnUse" x1="255.481" y1="69.3882" x2="255.481" y2="81.0083">
    <stop offset="0.0123" style="stop-color:#000000;stop-opacity:0.2"/>
    <stop offset="0.0736" style="stop-color:#000000;stop-opacity:0"/>
    <stop offset="0.1227" style="stop-color:#000000;stop-opacity:0.4"/>
    <stop offset="0.1634" style="stop-color:#393939;stop-opacity:0.4596"/>
    <stop offset="0.2177" style="stop-color:#7F7F7F;stop-opacity:0.5389"/>
    <stop offset="0.2666" style="stop-color:#B6B6B6;stop-opacity:0.6105"/>
    <stop offset="0.3085" style="stop-color:#DEDEDE;stop-opacity:0.6718"/>
    <stop offset="0.3417" style="stop-color:#F6F6F6;stop-opacity:0.7203"/>
    <stop offset="0.362" style="stop-color:#FFFFFF;stop-opacity:0.75"/>
    <stop offset="0.4042" style="stop-color:#F6F6F6;stop-opacity:0.75"/>
    <stop offset="0.473" style="stop-color:#DEDEDE;stop-opacity:0.75"/>
    <stop offset="0.56" style="stop-color:#B6B6B6;stop-opacity:0.75"/>
    <stop offset="0.6617" style="stop-color:#7F7F7F;stop-opacity:0.75"/>
    <stop offset="0.7743" style="stop-color:#393939;stop-opacity:0.75"/>
    <stop offset="0.8589" style="stop-color:#000000;stop-opacity:0.75"/>
    <stop offset="0.9325" style="stop-color:#000000;stop-opacity:0.45"/>
    <stop offset="0.9755" style="stop-color:#000000;stop-opacity:0.75"/>
  </linearGradient>
  <path fill="url(#SVGID_9_)" d="M271.98,71.248v7.901c0,1.022-0.836,1.859-1.858,1.859h-31.141c0-3.142,0-8.24,0-11.62h31.141&#xD;&#xA;&#x9;&#x9;C271.144,69.388,271.98,70.226,271.98,71.248z"/>
  <linearGradient id="SVGID_10_" gradientUnits="userSpaceOnUse" x1="238.981" y1="75.1987" x2="271.98" y2="75.1987">
    <stop offset="0" style="stop-color:#000000;stop-opacity:0.35"/>
    <stop offset="0.1227" style="stop-color:#000000;stop-opacity:0.2"/>
    <stop offset="0.1683" style="stop-color:#000000;stop-opacity:0.1882"/>
    <stop offset="0.8957" style="stop-color:#000000;stop-opacity:0"/>
    <stop offset="0.9962" style="stop-color:#000000;stop-opacity:0.2891"/>
    <stop offset="1" style="stop-color:#000000;stop-opacity:0.3"/>
  </linearGradient>
  <path fill="url(#SVGID_10_)" d="M271.98,71.248v7.901c0,1.022-0.836,1.859-1.858,1.859h-31.141c0-3.142,0-8.24,0-11.62h31.141&#xD;&#xA;&#x9;&#x9;C271.144,69.388,271.98,70.226,271.98,71.248z"/>
  <linearGradient id="SVGID_11_" gradientUnits="userSpaceOnUse" x1="237.2007" y1="24.7983" x2="237.2007" y2="125.5986">
    <stop offset="0.0123" style="stop-color:#000000;stop-opacity:0.2"/>
    <stop offset="0.0736" style="stop-color:#000000;stop-opacity:0"/>
    <stop offset="0.1227" style="stop-color:#000000;stop-opacity:0.4"/>
    <stop offset="0.1634" style="stop-color:#393939;stop-opacity:0.4596"/>
    <stop offset="0.2177" style="stop-color:#7F7F7F;stop-opacity:0.5389"/>
    <stop offset="0.2666" style="stop-color:#B6B6B6;stop-opacity:0.6105"/>
    <stop offset="0.3085" style="stop-color:#DEDEDE;stop-opacity:0.6718"/>
    <stop offset="0.3417" style="stop-color:#F6F6F6;stop-opacity:0.7203"/>
    <stop offset="0.362" style="stop-color:#FFFFFF;stop-opacity:0.75"/>
    <stop offset="0.4042" style="stop-color:#F6F6F6;stop-opacity:0.75"/>
    <stop offset="0.473" style="stop-color:#DEDEDE;stop-opacity:0.75"/>
    <stop offset="0.56" style="stop-color:#B6B6B6;stop-opacity:0.75"/>
    <stop offset="0.6617" style="stop-color:#7F7F7F;stop-opacity:0.75"/>
    <stop offset="0.7743" style="stop-color:#393939;stop-opacity:0.75"/>
    <stop offset="0.8589" style="stop-color:#000000;stop-opacity:0.75"/>
    <stop offset="0.9325" style="stop-color:#000000;stop-opacity:0.45"/>
    <stop offset="0.9755" style="stop-color:#000000;stop-opacity:0.75"/>
  </linearGradient>
  <rect x="235.42" y="24.798" fill="url(#SVGID_11_)" width="3.561" height="100.8"/>
  <linearGradient id="SVGID_12_" gradientUnits="userSpaceOnUse" x1="118.209" y1="2.731" x2="118.209" y2="147.6689">
    <stop offset="0" style="stop-color:#000000;stop-opacity:0.2"/>
    <stop offset="0.0176" style="stop-color:#000000;stop-opacity:0"/>
    <stop offset="0.0462" style="stop-color:#000000;stop-opacity:0.1"/>
    <stop offset="0.057" style="stop-color:#393939;stop-opacity:0.1425"/>
    <stop offset="0.0714" style="stop-color:#7F7F7F;stop-opacity:0.1992"/>
    <stop offset="0.0845" style="stop-color:#B6B6B6;stop-opacity:0.2504"/>
    <stop offset="0.0956" style="stop-color:#DEDEDE;stop-opacity:0.2941"/>
    <stop offset="0.1045" style="stop-color:#F6F6F6;stop-opacity:0.3288"/>
    <stop offset="0.1099" style="stop-color:#FFFFFF;stop-opacity:0.35"/>
    <stop offset="0.2615" style="stop-color:#FFFFFF;stop-opacity:0.15"/>
    <stop offset="0.611" style="stop-color:#000000;stop-opacity:0.15"/>
    <stop offset="0.9165" style="stop-color:#000000;stop-opacity:0.45"/>
    <stop offset="0.9582" style="stop-color:#000000;stop-opacity:0.3"/>
    <stop offset="1" style="stop-color:#000000;stop-opacity:0.55"/>
  </linearGradient>
  <path fill="url(#SVGID_12_)" d="M221.569,2.731v144.938h-6.047c0,0-24.168,0-29.281,0c-5.112,0-7.204-12.215-11.387-13.943&#xD;&#xA;&#x9;&#x9;c-4.183-1.734-14.097-1.492-16.732,0c-5.345,3.021-6.739,13.943-14.873,13.943c-8.134,0-72.041,0-72.041,0H14.849V2.731H221.569z"/>
  <linearGradient id="SVGID_13_" gradientUnits="userSpaceOnUse" x1="118.21" y1="19.2583" x2="118.21" y2="65.7373">
    <stop offset="0" style="stop-color:#FFFFFF;stop-opacity:0.05"/>
    <stop offset="1" style="stop-color:#FFFFFF;stop-opacity:0.08"/>
  </linearGradient>
  <polygon fill="url(#SVGID_13_)" points="1,19.258 14.849,19.258 14.849,21.35 221.571,21.35 221.571,19.258 235.42,19.258 &#xD;&#xA;&#x9;&#x9;235.42,64.575 221.571,64.575 221.571,65.737 14.849,65.737 14.849,64.575 1,64.575 &#x9;"/>
  <linearGradient id="SVGID_14_" gradientUnits="userSpaceOnUse" x1="118.21" y1="112.6792" x2="118.21" y2="131.271">
    <stop offset="0" style="stop-color:#FFFFFF;stop-opacity:0.05"/>
    <stop offset="1" style="stop-color:#FFFFFF;stop-opacity:0.08"/>
  </linearGradient>
  <polygon fill="url(#SVGID_14_)" points="1,131.271 14.849,131.271 14.849,129.179 221.571,129.179 221.571,131.271 235.42,131.271 &#xD;&#xA;&#x9;&#x9;235.42,113.841 221.571,113.841 221.571,112.679 14.849,112.679 14.849,113.841 1,113.841 &#x9;"/>
  <linearGradient id="SVGID_15_" gradientUnits="userSpaceOnUse" x1="149.0679" y1="146.0552" x2="183.5127" y2="146.0552">
    <stop offset="0" style="stop-color:#FFFFFF;stop-opacity:0.15"/>
    <stop offset="0.0555" style="stop-color:#FFFFFF;stop-opacity:0.1335"/>
    <stop offset="0.5038" style="stop-color:#FFFFFF;stop-opacity:0"/>
    <stop offset="1" style="stop-color:#FFFFFF;stop-opacity:0.1"/>
  </linearGradient>
  <path fill="url(#SVGID_15_)" d="M183.513,146.404c-0.627,2.385-1.371,4.62-2.221,6.679c-0.019-0.027-0.042-0.061-0.061-0.088&#xD;&#xA;&#x9;&#x9;c-1.432-2.026-2.905-4.123-4.941-5.225c1.218-2.352,2.236-5.126,2.994-8.217C180.589,142.109,181.896,144.847,183.513,146.404z&#xD;&#xA;&#x9;&#x9; M153.483,139.028c-1.348,2.165-2.672,4.48-4.416,6.167c0.66,2.719,1.469,5.257,2.408,7.576c0.075-0.083,0.144-0.172,0.218-0.256&#xD;&#xA;&#x9;&#x9;c1.427-1.673,2.891-3.393,4.945-4.67C155.333,145.349,154.26,142.361,153.483,139.028z"/>
  <g>
    <linearGradient id="SVGID_16_" gradientUnits="userSpaceOnUse" x1="176.3018" y1="136.2759" x2="176.3018" y2="147.77">
      <stop offset="0" style="stop-color:#FFFFFF;stop-opacity:0.05"/>
      <stop offset="0.1101" style="stop-color:#FFFFFF;stop-opacity:0.0665"/>
      <stop offset="1" style="stop-color:#FFFFFF;stop-opacity:0.2"/>
    </linearGradient>
    <path fill="url(#SVGID_16_)" d="M179.284,139.548v0.005c-0.758,3.091-1.776,5.865-2.994,8.217c-0.06-0.037-0.125-0.069-0.19-0.102&#xD;&#xA;&#x9;&#x9;&#x9;c-0.145-0.075-0.293-0.14-0.446-0.205c-0.665-0.274-1.455-0.507-2.333-0.697c1.994-2.579,3.472-6.251,4.131-10.49&#xD;&#xA;&#x9;&#x9;&#x9;C178.084,137.238,178.684,138.373,179.284,139.548z"/>
    <linearGradient id="SVGID_17_" gradientUnits="userSpaceOnUse" x1="156.5088" y1="136.1782" x2="156.5088" y2="147.8452">
      <stop offset="0" style="stop-color:#FFFFFF;stop-opacity:0.05"/>
      <stop offset="0.1101" style="stop-color:#FFFFFF;stop-opacity:0.0665"/>
      <stop offset="1" style="stop-color:#FFFFFF;stop-opacity:0.2"/>
    </linearGradient>
    <path fill="url(#SVGID_17_)" d="M159.535,146.72c-0.994,0.223-1.831,0.511-2.444,0.855c-0.051,0.032-0.107,0.06-0.158,0.093&#xD;&#xA;&#x9;&#x9;&#x9;c-0.098,0.056-0.195,0.116-0.293,0.177c-1.306-2.496-2.379-5.484-3.156-8.817c0.627-1.009,1.26-1.984,1.943-2.85&#xD;&#xA;&#x9;&#x9;&#x9;C156.072,140.436,157.545,144.126,159.535,146.72z"/>
  </g>
  <linearGradient id="SVGID_18_" gradientUnits="userSpaceOnUse" x1="166.4438" y1="132.5122" x2="166.4438" y2="143.2017">
    <stop offset="0" style="stop-color:#FFFFFF;stop-opacity:0"/>
    <stop offset="1" style="stop-color:#FFFFFF;stop-opacity:0.3"/>
  </linearGradient>
  <path fill="url(#SVGID_18_)" d="M172.749,134.524c0,4.792-2.821,8.678-6.303,8.678c-3.485,0-6.307-3.886-6.307-8.678&#xD;&#xA;&#x9;&#x9;c0-0.511,0.032-1.009,0.098-1.491c3.253-0.675,8.687-0.73,12.424,0.051C172.721,133.552,172.749,134.032,172.749,134.524z"/>
  <linearGradient id="SVGID_19_" gradientUnits="userSpaceOnUse" x1="143.3652" y1="127.7056" x2="143.3652" y2="147.6685">
    <stop offset="0" style="stop-color:#FFFFFF;stop-opacity:0"/>
    <stop offset="0.8587" style="stop-color:#FFFFFF;stop-opacity:0.0859"/>
    <stop offset="1" style="stop-color:#FFFFFF;stop-opacity:0.1"/>
  </linearGradient>
  <path fill="url(#SVGID_19_)" d="M215.522,127.706v19.963h-29.281c-5.112,0-7.204-12.215-11.387-13.943&#xD;&#xA;&#x9;&#x9;c-4.183-1.734-14.097-1.492-16.732,0c-5.345,3.021-6.739,13.943-14.873,13.943H71.208v-19.963H215.522z"/>
  <linearGradient id="SVGID_20_" gradientUnits="userSpaceOnUse" x1="71.208" y1="143.2065" x2="215.522" y2="143.2065">
    <stop offset="0" style="stop-color:#000000;stop-opacity:0.45"/>
    <stop offset="1" style="stop-color:#000000;stop-opacity:0.45"/>
  </linearGradient>
  <path fill="url(#SVGID_20_)" d="M215.522,147.668v6.232c0,0-21.732,0-26.692,0c-4.955,0-8.208-8.533-9.844-13.204&#xD;&#xA;&#x9;&#x9;c-1.631-4.672-2.956-7.103-12.54-7.103c-9.588,0-11.02,2.584-12.628,6.776c-1.608,4.192-6.195,13.53-10.453,13.53&#xD;&#xA;&#x9;&#x9;c-4.257,0-72.157,0-72.157,0v-6.232c0,0,63.907,0,72.041,0c8.133,0,9.528-10.923,14.873-13.943c2.636-1.492,12.549-1.734,16.732,0&#xD;&#xA;&#x9;&#x9;c4.183,1.729,6.274,13.943,11.387,13.943C191.354,147.668,215.522,147.668,215.522,147.668z"/>
  <g>
    <linearGradient id="SVGID_21_" gradientUnits="userSpaceOnUse" x1="71.208" y1="151.812" x2="215.522" y2="151.812">
      <stop offset="0.1116" style="stop-color:#FFFFFF;stop-opacity:0.25"/>
      <stop offset="0.4721" style="stop-color:#FFFFFF;stop-opacity:0.3"/>
      <stop offset="0.8974" style="stop-color:#FFFFFF;stop-opacity:0.25"/>
    </linearGradient>
    <path fill="url(#SVGID_21_)" d="M215.522,157.693h-29.281c-1.904,0-3.478-2.236-5.143-4.604l-0.026-0.036&#xD;&#xA;&#x9;&#x9;&#x9;c-1.456-2.061-2.96-4.189-5.045-5.238c-0.143-0.074-0.288-0.137-0.438-0.201c-4.522-1.872-15.024-1.813-18.419,0.104&#xD;&#xA;&#x9;&#x9;&#x9;c-0.021,0.014-0.05,0.03-0.079,0.047c-0.024,0.014-0.048,0.027-0.071,0.042c-2.194,1.284-3.724,3.079-5.202,4.815&#xD;&#xA;&#x9;&#x9;&#x9;c-2.415,2.834-4.323,5.072-8.569,5.072H71.208v-0.324h72.041c4.095,0,5.96-2.188,8.321-4.958c1.496-1.757,3.043-3.574,5.28-4.883&#xD;&#xA;&#x9;&#x9;&#x9;c0.022-0.015,0.052-0.031,0.081-0.048c0.024-0.014,0.048-0.027,0.071-0.042c3.462-1.954,14.126-2.023,18.713-0.125&#xD;&#xA;&#x9;&#x9;&#x9;c0.159,0.067,0.311,0.135,0.458,0.21c2.156,1.085,3.685,3.249,5.164,5.342l0.025,0.036c1.616,2.298,3.141,4.468,4.877,4.468&#xD;&#xA;&#x9;&#x9;&#x9;h29.281V157.693z"/>
  </g>
</svg>