<svg version="1.2" baseProfile="tiny" id="EdgeSVG_SUfdV" x="0px" y="0px" width="270.176px" height="133.469px" viewBox="0 0 270.176 133.469" xmlns:xlink="http://www.w3.org/1999/xlink" xmlns="http://www.w3.org/2000/svg">
  <path fill="#CCCCCC" d="M229.471,119.121c0,0.768-0.627,1.395-1.395,1.395h-5.947c-0.768,0-1.395-0.627-1.395-1.395V2.395&#xD;&#xA;&#x9;&#x9;c0-0.767,0.627-1.395,1.395-1.395h5.947c0.768,0,1.395,0.627,1.395,1.395V119.121z"/>
  <path fill="#CCCCCC" d="M5.028,112.501c0,0.511-0.418,0.93-0.93,0.93H1.93c-0.511,0-0.93-0.419-0.93-0.93V9.014&#xD;&#xA;&#x9;&#x9;c0-0.511,0.418-0.929,0.93-0.929h2.168c0.512,0,0.93,0.418,0.93,0.929V112.501z"/>
  <path fill="#CCCCCC" d="M269.176,56.807v7.9c0,1.023-0.836,1.859-1.859,1.859h-31.14c0-3.142,0-8.24,0-11.619h31.14&#xD;&#xA;&#x9;&#x9;C268.34,54.948,269.176,55.785,269.176,56.807z"/>
  <path fill="#CCCCCC" d="M229.471,119.121c0,0.768-0.627,1.395-1.395,1.395h-5.947c-0.768,0-1.395-0.627-1.395-1.395V2.395&#xD;&#xA;&#x9;&#x9;c0-0.767,0.627-1.395,1.395-1.395h5.947c0.768,0,1.395,0.627,1.395,1.395V119.121z"/>
  <polygon fill="#CCCCCC" points="232.617,110.276 229.471,114.924 229.471,6.591 232.617,11.239 &#x9;"/>
  <path fill="#CCCCCC" d="M269.176,56.807v7.9c0,1.023-0.836,1.859-1.859,1.859h-31.14c0-3.142,0-8.24,0-11.619h31.14&#xD;&#xA;&#x9;&#x9;C268.34,54.948,269.176,55.785,269.176,56.807z"/>
  <linearGradient id="SVGID_2_" gradientUnits="userSpaceOnUse" x1="225.103" y1="1" x2="225.103" y2="120.5156">
    <stop offset="0" style="stop-color:#000000;stop-opacity:0.2"/>
    <stop offset="0.0061" style="stop-color:#000000;stop-opacity:0"/>
    <stop offset="0.0462" style="stop-color:#000000;stop-opacity:0.35"/>
    <stop offset="0.057" style="stop-color:#393939;stop-opacity:0.4181"/>
    <stop offset="0.0714" style="stop-color:#7F7F7F;stop-opacity:0.5088"/>
    <stop offset="0.0845" style="stop-color:#B6B6B6;stop-opacity:0.5906"/>
    <stop offset="0.0956" style="stop-color:#DEDEDE;stop-opacity:0.6606"/>
    <stop offset="0.1045" style="stop-color:#F6F6F6;stop-opacity:0.716"/>
    <stop offset="0.1099" style="stop-color:#FFFFFF;stop-opacity:0.75"/>
    <stop offset="0.2615" style="stop-color:#FFFFFF;stop-opacity:0.25"/>
    <stop offset="0.611" style="stop-color:#000000;stop-opacity:0.25"/>
    <stop offset="0.9165" style="stop-color:#000000;stop-opacity:0.55"/>
    <stop offset="0.9582" style="stop-color:#000000;stop-opacity:0.3"/>
    <stop offset="1" style="stop-color:#000000;stop-opacity:0.75"/>
  </linearGradient>
  <path fill="url(#SVGID_2_)" d="M229.471,119.121c0,0.768-0.627,1.395-1.395,1.395h-5.947c-0.768,0-1.395-0.627-1.395-1.395V2.395&#xD;&#xA;&#x9;&#x9;c0-0.767,0.627-1.395,1.395-1.395h5.947c0.768,0,1.395,0.627,1.395,1.395V119.121z"/>
  <linearGradient id="SVGID_3_" gradientUnits="userSpaceOnUse" x1="220.7349" y1="60.7573" x2="229.4712" y2="60.7573">
    <stop offset="0" style="stop-color:#000000;stop-opacity:0.25"/>
    <stop offset="0.1" style="stop-color:#000000;stop-opacity:0"/>
    <stop offset="0.9" style="stop-color:#000000;stop-opacity:0"/>
    <stop offset="1" style="stop-color:#000000;stop-opacity:0.25"/>
  </linearGradient>
  <path fill="url(#SVGID_3_)" d="M229.471,119.121c0,0.768-0.627,1.395-1.395,1.395h-5.947c-0.768,0-1.395-0.627-1.395-1.395V2.395&#xD;&#xA;&#x9;&#x9;c0-0.767,0.627-1.395,1.395-1.395h5.947c0.768,0,1.395,0.627,1.395,1.395V119.121z"/>
  <linearGradient id="SVGID_4_" gradientUnits="userSpaceOnUse" x1="231.0435" y1="6.5913" x2="231.0435" y2="114.9248">
    <stop offset="0.0123" style="stop-color:#000000;stop-opacity:0.2"/>
    <stop offset="0.0736" style="stop-color:#000000;stop-opacity:0"/>
    <stop offset="0.1227" style="stop-color:#000000;stop-opacity:0.4"/>
    <stop offset="0.1634" style="stop-color:#393939;stop-opacity:0.4596"/>
    <stop offset="0.2177" style="stop-color:#7F7F7F;stop-opacity:0.5389"/>
    <stop offset="0.2666" style="stop-color:#B6B6B6;stop-opacity:0.6105"/>
    <stop offset="0.3085" style="stop-color:#DEDEDE;stop-opacity:0.6718"/>
    <stop offset="0.3417" style="stop-color:#F6F6F6;stop-opacity:0.7203"/>
    <stop offset="0.362" style="stop-color:#FFFFFF;stop-opacity:0.75"/>
    <stop offset="0.4042" style="stop-color:#F6F6F6;stop-opacity:0.75"/>
    <stop offset="0.473" style="stop-color:#DEDEDE;stop-opacity:0.75"/>
    <stop offset="0.56" style="stop-color:#B6B6B6;stop-opacity:0.75"/>
    <stop offset="0.6617" style="stop-color:#7F7F7F;stop-opacity:0.75"/>
    <stop offset="0.7743" style="stop-color:#393939;stop-opacity:0.75"/>
    <stop offset="0.8589" style="stop-color:#000000;stop-opacity:0.75"/>
    <stop offset="0.9325" style="stop-color:#000000;stop-opacity:0.45"/>
    <stop offset="0.9755" style="stop-color:#000000;stop-opacity:0.75"/>
  </linearGradient>
  <polygon fill="url(#SVGID_4_)" points="232.617,110.276 229.471,114.924 229.471,6.591 232.617,11.239 &#x9;"/>
  <linearGradient id="SVGID_5_" gradientUnits="userSpaceOnUse" x1="229.4712" y1="60.7583" x2="232.6167" y2="60.7583">
    <stop offset="0" style="stop-color:#000000;stop-opacity:0.3"/>
    <stop offset="0.3988" style="stop-color:#000000;stop-opacity:0"/>
    <stop offset="1" style="stop-color:#000000;stop-opacity:0"/>
  </linearGradient>
  <polygon fill="url(#SVGID_5_)" points="232.617,110.276 229.471,114.924 229.471,6.591 232.617,11.239 &#x9;"/>
  <linearGradient id="SVGID_6_" gradientUnits="userSpaceOnUse" x1="252.6763" y1="54.9478" x2="252.6763" y2="66.5674">
    <stop offset="0.0123" style="stop-color:#000000;stop-opacity:0.2"/>
    <stop offset="0.0736" style="stop-color:#000000;stop-opacity:0"/>
    <stop offset="0.1227" style="stop-color:#000000;stop-opacity:0.4"/>
    <stop offset="0.1634" style="stop-color:#393939;stop-opacity:0.4596"/>
    <stop offset="0.2177" style="stop-color:#7F7F7F;stop-opacity:0.5389"/>
    <stop offset="0.2666" style="stop-color:#B6B6B6;stop-opacity:0.6105"/>
    <stop offset="0.3085" style="stop-color:#DEDEDE;stop-opacity:0.6718"/>
    <stop offset="0.3417" style="stop-color:#F6F6F6;stop-opacity:0.7203"/>
    <stop offset="0.362" style="stop-color:#FFFFFF;stop-opacity:0.75"/>
    <stop offset="0.4042" style="stop-color:#F6F6F6;stop-opacity:0.75"/>
    <stop offset="0.473" style="stop-color:#DEDEDE;stop-opacity:0.75"/>
    <stop offset="0.56" style="stop-color:#B6B6B6;stop-opacity:0.75"/>
    <stop offset="0.6617" style="stop-color:#7F7F7F;stop-opacity:0.75"/>
    <stop offset="0.7743" style="stop-color:#393939;stop-opacity:0.75"/>
    <stop offset="0.8589" style="stop-color:#000000;stop-opacity:0.75"/>
    <stop offset="0.9325" style="stop-color:#000000;stop-opacity:0.45"/>
    <stop offset="0.9755" style="stop-color:#000000;stop-opacity:0.75"/>
  </linearGradient>
  <path fill="url(#SVGID_6_)" d="M269.176,56.807v7.9c0,1.023-0.836,1.859-1.859,1.859h-31.14c0-3.142,0-8.24,0-11.619h31.14&#xD;&#xA;&#x9;&#x9;C268.34,54.948,269.176,55.785,269.176,56.807z"/>
  <linearGradient id="SVGID_7_" gradientUnits="userSpaceOnUse" x1="236.1772" y1="60.7573" x2="269.1763" y2="60.7573">
    <stop offset="0" style="stop-color:#000000;stop-opacity:0.35"/>
    <stop offset="0.1227" style="stop-color:#000000;stop-opacity:0.2"/>
    <stop offset="0.1683" style="stop-color:#000000;stop-opacity:0.1882"/>
    <stop offset="0.8957" style="stop-color:#000000;stop-opacity:0"/>
    <stop offset="0.9962" style="stop-color:#000000;stop-opacity:0.2891"/>
    <stop offset="1" style="stop-color:#000000;stop-opacity:0.3"/>
  </linearGradient>
  <path fill="url(#SVGID_7_)" d="M269.176,56.807v7.9c0,1.023-0.836,1.859-1.859,1.859h-31.14c0-3.142,0-8.24,0-11.619h31.14&#xD;&#xA;&#x9;&#x9;C268.34,54.948,269.176,55.785,269.176,56.807z"/>
  <linearGradient id="SVGID_8_" gradientUnits="userSpaceOnUse" x1="205.3711" y1="1.2485" x2="205.3711" y2="120.2695">
    <stop offset="0" style="stop-color:#000000;stop-opacity:0.2"/>
    <stop offset="0.0176" style="stop-color:#000000;stop-opacity:0"/>
    <stop offset="0.0462" style="stop-color:#000000;stop-opacity:0.1"/>
    <stop offset="0.057" style="stop-color:#393939;stop-opacity:0.1425"/>
    <stop offset="0.0714" style="stop-color:#7F7F7F;stop-opacity:0.1992"/>
    <stop offset="0.0845" style="stop-color:#B6B6B6;stop-opacity:0.2504"/>
    <stop offset="0.0956" style="stop-color:#DEDEDE;stop-opacity:0.2941"/>
    <stop offset="0.1045" style="stop-color:#F6F6F6;stop-opacity:0.3288"/>
    <stop offset="0.1099" style="stop-color:#FFFFFF;stop-opacity:0.35"/>
    <stop offset="0.2615" style="stop-color:#FFFFFF;stop-opacity:0.15"/>
    <stop offset="0.611" style="stop-color:#000000;stop-opacity:0.15"/>
    <stop offset="0.9165" style="stop-color:#000000;stop-opacity:0.45"/>
    <stop offset="0.9582" style="stop-color:#000000;stop-opacity:0.3"/>
    <stop offset="1" style="stop-color:#000000;stop-opacity:0.55"/>
  </linearGradient>
  <path fill="url(#SVGID_8_)" d="M220.732,2.643v116.232c0,0.767-0.627,1.394-1.394,1.394c0,0-25.921,0-29.021,0&#xD;&#xA;&#x9;&#x9;c-0.088,0-0.191-0.005-0.307-0.014V1.262c0.116-0.009,0.219-0.014,0.307-0.014c3.1,0,29.021,0,29.021,0&#xD;&#xA;&#x9;&#x9;C220.105,1.249,220.732,1.876,220.732,2.643z"/>
  <linearGradient id="SVGID_9_" gradientUnits="userSpaceOnUse" x1="84.1938" y1="8.0854" x2="84.1938" y2="113.4326">
    <stop offset="0" style="stop-color:#000000;stop-opacity:0.2"/>
    <stop offset="0.0176" style="stop-color:#000000;stop-opacity:0"/>
    <stop offset="0.0462" style="stop-color:#000000;stop-opacity:0.1"/>
    <stop offset="0.057" style="stop-color:#393939;stop-opacity:0.1425"/>
    <stop offset="0.0714" style="stop-color:#7F7F7F;stop-opacity:0.1992"/>
    <stop offset="0.0845" style="stop-color:#B6B6B6;stop-opacity:0.2504"/>
    <stop offset="0.0956" style="stop-color:#DEDEDE;stop-opacity:0.2941"/>
    <stop offset="0.1045" style="stop-color:#F6F6F6;stop-opacity:0.3288"/>
    <stop offset="0.1099" style="stop-color:#FFFFFF;stop-opacity:0.35"/>
    <stop offset="0.2615" style="stop-color:#FFFFFF;stop-opacity:0.15"/>
    <stop offset="0.611" style="stop-color:#000000;stop-opacity:0.15"/>
    <stop offset="0.9165" style="stop-color:#000000;stop-opacity:0.45"/>
    <stop offset="0.9582" style="stop-color:#000000;stop-opacity:0.3"/>
    <stop offset="1" style="stop-color:#000000;stop-opacity:0.55"/>
  </linearGradient>
  <path fill="url(#SVGID_9_)" d="M163.36,8.085v105.347c-2.477,0-156.938,0-156.938,0c-0.767,0-1.395-0.627-1.395-1.395V9.48&#xD;&#xA;&#x9;&#x9;c0-0.767,0.628-1.395,1.395-1.395C6.422,8.085,160.883,8.085,163.36,8.085z"/>
  <linearGradient id="SVGID_10_" gradientUnits="userSpaceOnUse" x1="3.0137" y1="8.0845" x2="3.0137" y2="113.4316">
    <stop offset="0" style="stop-color:#000000;stop-opacity:0.2"/>
    <stop offset="0.0061" style="stop-color:#000000;stop-opacity:0"/>
    <stop offset="0.0462" style="stop-color:#000000;stop-opacity:0.35"/>
    <stop offset="0.057" style="stop-color:#393939;stop-opacity:0.4181"/>
    <stop offset="0.0714" style="stop-color:#7F7F7F;stop-opacity:0.5088"/>
    <stop offset="0.0845" style="stop-color:#B6B6B6;stop-opacity:0.5906"/>
    <stop offset="0.0956" style="stop-color:#DEDEDE;stop-opacity:0.6606"/>
    <stop offset="0.1045" style="stop-color:#F6F6F6;stop-opacity:0.716"/>
    <stop offset="0.1099" style="stop-color:#FFFFFF;stop-opacity:0.75"/>
    <stop offset="0.2615" style="stop-color:#FFFFFF;stop-opacity:0.25"/>
    <stop offset="0.611" style="stop-color:#000000;stop-opacity:0.25"/>
    <stop offset="0.9165" style="stop-color:#000000;stop-opacity:0.55"/>
    <stop offset="0.9582" style="stop-color:#000000;stop-opacity:0.3"/>
    <stop offset="1" style="stop-color:#000000;stop-opacity:0.75"/>
  </linearGradient>
  <path fill="url(#SVGID_10_)" d="M5.028,112.501c0,0.511-0.418,0.93-0.93,0.93H1.93c-0.511,0-0.93-0.419-0.93-0.93V9.014&#xD;&#xA;&#x9;&#x9;c0-0.511,0.418-0.929,0.93-0.929h2.168c0.512,0,0.93,0.418,0.93,0.929V112.501z"/>
  <linearGradient id="SVGID_11_" gradientUnits="userSpaceOnUse" x1="190.0103" y1="60.7583" x2="220.7319" y2="60.7583">
    <stop offset="0.9429" style="stop-color:#000000;stop-opacity:0"/>
    <stop offset="1" style="stop-color:#000000;stop-opacity:0.25"/>
  </linearGradient>
  <path fill="url(#SVGID_11_)" d="M220.732,2.643v116.232c0,0.767-0.627,1.394-1.394,1.394c0,0-25.921,0-29.021,0&#xD;&#xA;&#x9;&#x9;c-0.088,0-0.191-0.005-0.307-0.014V1.262c0.116-0.009,0.219-0.014,0.307-0.014c3.1,0,29.021,0,29.021,0&#xD;&#xA;&#x9;&#x9;C220.105,1.249,220.732,1.876,220.732,2.643z"/>
  <linearGradient id="SVGID_12_" gradientUnits="userSpaceOnUse" x1="234.397" y1="34.1099" x2="234.397" y2="87.4053">
    <stop offset="0" style="stop-color:#000000;stop-opacity:0.2"/>
    <stop offset="0.1538" style="stop-color:#FFFFFF;stop-opacity:0.25"/>
    <stop offset="0.611" style="stop-color:#000000;stop-opacity:0.25"/>
    <stop offset="1" style="stop-color:#000000;stop-opacity:0.55"/>
  </linearGradient>
  <rect x="232.617" y="34.11" fill="url(#SVGID_12_)" width="3.561" height="53.295"/>
  <linearGradient id="SVGID_13_" gradientUnits="userSpaceOnUse" x1="5.0278" y1="60.7583" x2="163.3599" y2="60.7583">
    <stop offset="0" style="stop-color:#000000;stop-opacity:0.25"/>
    <stop offset="0.011" style="stop-color:#000000;stop-opacity:0"/>
  </linearGradient>
  <path fill="url(#SVGID_13_)" d="M163.36,8.085v105.347c-2.477,0-156.938,0-156.938,0c-0.767,0-1.395-0.627-1.395-1.395V9.48&#xD;&#xA;&#x9;&#x9;c0-0.767,0.628-1.395,1.395-1.395C6.422,8.085,160.883,8.085,163.36,8.085z"/>
  <linearGradient id="SVGID_14_" gradientUnits="userSpaceOnUse" x1="1" y1="60.7583" x2="5.0278" y2="60.7583">
    <stop offset="0" style="stop-color:#000000;stop-opacity:0.25"/>
    <stop offset="0.222" style="stop-color:#000000;stop-opacity:0"/>
    <stop offset="0.7626" style="stop-color:#000000;stop-opacity:0"/>
    <stop offset="1" style="stop-color:#000000;stop-opacity:0.25"/>
  </linearGradient>
  <path fill="url(#SVGID_14_)" d="M5.028,112.501c0,0.511-0.418,0.93-0.93,0.93H1.93c-0.511,0-0.93-0.419-0.93-0.93V9.014&#xD;&#xA;&#x9;&#x9;c0-0.511,0.418-0.929,0.93-0.929h2.168c0.512,0,0.93,0.418,0.93,0.929V112.501z"/>
  <linearGradient id="SVGID_15_" gradientUnits="userSpaceOnUse" x1="171.0474" y1="5.7207" x2="195.1192" y2="113.7004">
    <stop offset="0" style="stop-color:#000000;stop-opacity:0.2"/>
    <stop offset="0.0176" style="stop-color:#000000;stop-opacity:0"/>
    <stop offset="0.0462" style="stop-color:#000000;stop-opacity:0.1"/>
    <stop offset="0.057" style="stop-color:#393939;stop-opacity:0.1425"/>
    <stop offset="0.0714" style="stop-color:#7F7F7F;stop-opacity:0.1992"/>
    <stop offset="0.0845" style="stop-color:#B6B6B6;stop-opacity:0.2504"/>
    <stop offset="0.0956" style="stop-color:#DEDEDE;stop-opacity:0.2941"/>
    <stop offset="0.1045" style="stop-color:#F6F6F6;stop-opacity:0.3288"/>
    <stop offset="0.1099" style="stop-color:#FFFFFF;stop-opacity:0.35"/>
    <stop offset="0.2615" style="stop-color:#FFFFFF;stop-opacity:0.15"/>
    <stop offset="0.611" style="stop-color:#000000;stop-opacity:0.15"/>
    <stop offset="0.9165" style="stop-color:#000000;stop-opacity:0.45"/>
    <stop offset="0.9582" style="stop-color:#000000;stop-opacity:0.3"/>
    <stop offset="1" style="stop-color:#000000;stop-opacity:0.55"/>
  </linearGradient>
  <path fill="url(#SVGID_15_)" d="M190.01,1.262v59.496h-26.65V8.085C165.772,8.085,186.023,1.629,190.01,1.262z"/>
  <linearGradient id="SVGID_16_" gradientUnits="userSpaceOnUse" x1="194.6069" y1="8.7319" x2="171.2353" y2="115.3693">
    <stop offset="0" style="stop-color:#000000;stop-opacity:0.2"/>
    <stop offset="0.0176" style="stop-color:#000000;stop-opacity:0"/>
    <stop offset="0.0462" style="stop-color:#000000;stop-opacity:0.1"/>
    <stop offset="0.057" style="stop-color:#393939;stop-opacity:0.1425"/>
    <stop offset="0.0714" style="stop-color:#7F7F7F;stop-opacity:0.1992"/>
    <stop offset="0.0845" style="stop-color:#B6B6B6;stop-opacity:0.2504"/>
    <stop offset="0.0956" style="stop-color:#DEDEDE;stop-opacity:0.2941"/>
    <stop offset="0.1045" style="stop-color:#F6F6F6;stop-opacity:0.3288"/>
    <stop offset="0.1099" style="stop-color:#FFFFFF;stop-opacity:0.35"/>
    <stop offset="0.2615" style="stop-color:#FFFFFF;stop-opacity:0.15"/>
    <stop offset="0.611" style="stop-color:#000000;stop-opacity:0.15"/>
    <stop offset="0.9165" style="stop-color:#000000;stop-opacity:0.45"/>
    <stop offset="0.9582" style="stop-color:#000000;stop-opacity:0.3"/>
    <stop offset="1" style="stop-color:#000000;stop-opacity:0.55"/>
  </linearGradient>
  <path fill="url(#SVGID_16_)" d="M190.01,60.758v59.497c-3.987-0.367-24.238-6.823-26.65-6.823V60.758H190.01z"/>
  <linearGradient id="SVGID_17_" gradientUnits="userSpaceOnUse" x1="163.3599" y1="60.7583" x2="190.0103" y2="60.7583">
    <stop offset="0" style="stop-color:#000000;stop-opacity:0"/>
    <stop offset="0.0681" style="stop-color:#000000;stop-opacity:0.12"/>
    <stop offset="0.9077" style="stop-color:#000000;stop-opacity:0.17"/>
    <stop offset="1" style="stop-color:#000000;stop-opacity:0"/>
  </linearGradient>
  <path fill="url(#SVGID_17_)" d="M163.36,8.085v52.673v52.674c2.412,0,22.663,6.456,26.65,6.823V60.758V1.262&#xD;&#xA;&#x9;&#x9;C186.023,1.629,165.772,8.085,163.36,8.085z"/>
  <linearGradient id="SVGID_18_" gradientUnits="userSpaceOnUse" x1="116.8081" y1="19.7231" x2="116.8081" y2="56.9053">
    <stop offset="0" style="stop-color:#FFFFFF;stop-opacity:0.05"/>
    <stop offset="1" style="stop-color:#FFFFFF;stop-opacity:0.08"/>
  </linearGradient>
  <path fill="url(#SVGID_18_)" d="M5.028,25.61H163.36c1.551,0,24.483-5.887,26.65-5.887c2.167,0,30.725,0,30.725,0h8.736v5.887&#xD;&#xA;&#x9;&#x9;l3.146,2.479v26.859h-3.146h-8.736c0,0-28.244,0-30.725,0s-24.482,1.958-26.65,1.958c-2.167,0-158.332,0-158.332,0H1V25.61H5.028z"/>
  <path fill="#CCCCCC" d="M45.306,125.307l0.813,0.813v1.664l-0.813,0.716v3.234l-0.734,0.734H23.735l-0.739-0.734V128.5&#xD;&#xA;&#x9;&#x9;l-0.813-0.716v-1.664l0.813-0.813c0,0,0-2.323,0-3.485s1.395-1.395,1.395-1.395s-1.395-0.623-1.395-1.859v-3.1&#xD;&#xA;&#x9;&#x9;c0-0.93-0.618-2.036-2.166-2.036c0-2.812,5.73-4.317,13.32-4.317c7.595,0,13.325,1.506,13.325,4.317&#xD;&#xA;&#x9;&#x9;c-1.547,0-2.17,1.106-2.17,2.036v3.1c0,1.236-1.395,1.859-1.395,1.859s1.395,0.232,1.395,1.395S45.306,125.307,45.306,125.307z"/>
  <path fill="#CCCCCC" d="M47.476,113.432c-1.547,0-2.17,1.106-2.17,2.036v0.232c-1.464-1.032-4.969-2.269-11.155-2.269&#xD;&#xA;&#x9;&#x9;c-6.125,0-9.439,0.972-11.154,2.156v-0.12c0-0.93-0.618-2.036-2.166-2.036c0-2.812,5.73-4.317,13.32-4.317&#xD;&#xA;&#x9;&#x9;C41.746,109.115,47.476,110.621,47.476,113.432z"/>
  <linearGradient id="SVGID_19_" gradientUnits="userSpaceOnUse" x1="20.8306" y1="120.7915" x2="47.4761" y2="120.7915">
    <stop offset="0.0769" style="stop-color:#000000;stop-opacity:0.5"/>
    <stop offset="0.1473" style="stop-color:#000000;stop-opacity:0.25"/>
    <stop offset="0.2593" style="stop-color:#000000;stop-opacity:0.4"/>
    <stop offset="0.2915" style="stop-color:#393939;stop-opacity:0.4085"/>
    <stop offset="0.3344" style="stop-color:#7F7F7F;stop-opacity:0.4198"/>
    <stop offset="0.373" style="stop-color:#B6B6B6;stop-opacity:0.4301"/>
    <stop offset="0.4061" style="stop-color:#DEDEDE;stop-opacity:0.4388"/>
    <stop offset="0.4323" style="stop-color:#F6F6F6;stop-opacity:0.4458"/>
    <stop offset="0.4484" style="stop-color:#FFFFFF;stop-opacity:0.45"/>
    <stop offset="0.4735" style="stop-color:#F6F6F6;stop-opacity:0.4458"/>
    <stop offset="0.5147" style="stop-color:#DEDEDE;stop-opacity:0.4388"/>
    <stop offset="0.5666" style="stop-color:#B6B6B6;stop-opacity:0.4301"/>
    <stop offset="0.6273" style="stop-color:#7F7F7F;stop-opacity:0.4198"/>
    <stop offset="0.6946" style="stop-color:#393939;stop-opacity:0.4085"/>
    <stop offset="0.7451" style="stop-color:#000000;stop-opacity:0.4"/>
    <stop offset="0.8198" style="stop-color:#000000;stop-opacity:0.25"/>
    <stop offset="0.9755" style="stop-color:#000000;stop-opacity:0.5"/>
  </linearGradient>
  <path fill="url(#SVGID_19_)" d="M45.306,125.307l0.813,0.813v1.664l-0.813,0.716v3.234l-0.734,0.734H23.735l-0.739-0.734V128.5&#xD;&#xA;&#x9;&#x9;l-0.813-0.716v-1.664l0.813-0.813c0,0,0-2.323,0-3.485s1.395-1.395,1.395-1.395s-1.395-0.623-1.395-1.859v-3.1&#xD;&#xA;&#x9;&#x9;c0-0.93-0.618-2.036-2.166-2.036c0-2.812,5.73-4.317,13.32-4.317c7.595,0,13.325,1.506,13.325,4.317&#xD;&#xA;&#x9;&#x9;c-1.547,0-2.17,1.106-2.17,2.036v3.1c0,1.236-1.395,1.859-1.395,1.859s1.395,0.232,1.395,1.395S45.306,125.307,45.306,125.307z"/>
  <linearGradient id="SVGID_20_" gradientUnits="userSpaceOnUse" x1="34.1533" y1="109.1147" x2="34.1533" y2="132.4692">
    <stop offset="0" style="stop-color:#000000;stop-opacity:0"/>
    <stop offset="0.4" style="stop-color:#000000;stop-opacity:0"/>
    <stop offset="0.4615" style="stop-color:#000000;stop-opacity:0.35"/>
    <stop offset="0.4967" style="stop-color:#FFFFFF;stop-opacity:0.35"/>
    <stop offset="0.5714" style="stop-color:#FFFFFF;stop-opacity:0"/>
    <stop offset="0.6901" style="stop-color:#FFFFFF;stop-opacity:0"/>
    <stop offset="0.6932" style="stop-color:#FFFFFF;stop-opacity:0.0495"/>
    <stop offset="0.7121" style="stop-color:#FFFFFF;stop-opacity:0.35"/>
    <stop offset="0.7291" style="stop-color:#FFFFFF;stop-opacity:0.0495"/>
    <stop offset="0.7319" style="stop-color:#FFFFFF;stop-opacity:0"/>
    <stop offset="0.789" style="stop-color:#000000;stop-opacity:0"/>
    <stop offset="0.7921" style="stop-color:#000000;stop-opacity:0.0495"/>
    <stop offset="0.811" style="stop-color:#000000;stop-opacity:0.35"/>
    <stop offset="0.8299" style="stop-color:#000000;stop-opacity:0.0495"/>
    <stop offset="0.833" style="stop-color:#000000;stop-opacity:0"/>
    <stop offset="0.9604" style="stop-color:#000000;stop-opacity:0"/>
    <stop offset="0.9645" style="stop-color:#000000;stop-opacity:0.0495"/>
    <stop offset="0.989" style="stop-color:#000000;stop-opacity:0.35"/>
  </linearGradient>
  <path fill="url(#SVGID_20_)" d="M45.306,125.307l0.813,0.813v1.664l-0.813,0.716v3.234l-0.734,0.734H23.735l-0.739-0.734V128.5&#xD;&#xA;&#x9;&#x9;l-0.813-0.716v-1.664l0.813-0.813c0,0,0-2.323,0-3.485s1.395-1.395,1.395-1.395s-1.395-0.623-1.395-1.859v-3.1&#xD;&#xA;&#x9;&#x9;c0-0.93-0.618-2.036-2.166-2.036c0-2.812,5.73-4.317,13.32-4.317c7.595,0,13.325,1.506,13.325,4.317&#xD;&#xA;&#x9;&#x9;c-1.547,0-2.17,1.106-2.17,2.036v3.1c0,1.236-1.395,1.859-1.395,1.859s1.395,0.232,1.395,1.395S45.306,125.307,45.306,125.307z"/>
  <linearGradient id="SVGID_21_" gradientUnits="userSpaceOnUse" x1="47.4761" y1="112.4077" x2="39.7332" y2="112.4077">
    <stop offset="0" style="stop-color:#000000;stop-opacity:0.2"/>
    <stop offset="0.4923" style="stop-color:#000000;stop-opacity:0"/>
  </linearGradient>
  <path fill="url(#SVGID_21_)" d="M47.476,113.432c-1.547,0-2.17,1.106-2.17,2.036v0.232c-1.464-1.032-4.969-2.269-11.155-2.269&#xD;&#xA;&#x9;&#x9;c-6.125,0-9.439,0.972-11.154,2.156v-0.12c0-0.93-0.618-2.036-2.166-2.036c0-2.812,5.73-4.317,13.32-4.317&#xD;&#xA;&#x9;&#x9;C41.746,109.115,47.476,110.621,47.476,113.432z"/>
  <linearGradient id="SVGID_22_" gradientUnits="userSpaceOnUse" x1="20.7285" y1="112.4077" x2="27.2716" y2="112.4077">
    <stop offset="0" style="stop-color:#000000;stop-opacity:0.2"/>
    <stop offset="0.4923" style="stop-color:#000000;stop-opacity:0"/>
  </linearGradient>
  <path fill="url(#SVGID_22_)" d="M47.476,113.432c-1.547,0-2.17,1.106-2.17,2.036v0.232c-1.464-1.032-4.969-2.269-11.155-2.269&#xD;&#xA;&#x9;&#x9;c-6.125,0-9.439,0.972-11.154,2.156v-0.12c0-0.93-0.618-2.036-2.166-2.036c0-2.812,5.73-4.317,13.32-4.317&#xD;&#xA;&#x9;&#x9;C41.746,109.115,47.476,110.621,47.476,113.432z"/>
  <radialGradient id="SVGID_23_" cx="34.1533" cy="118.813" r="13.1936" gradientUnits="userSpaceOnUse">
    <stop offset="0.5077" style="stop-color:#000000;stop-opacity:0"/>
    <stop offset="1" style="stop-color:#000000;stop-opacity:0.2"/>
  </radialGradient>
  <path fill="url(#SVGID_23_)" d="M47.476,113.432c-1.547,0-2.17,1.106-2.17,2.036v0.232c-1.464-1.032-4.969-2.269-11.155-2.269&#xD;&#xA;&#x9;&#x9;c-6.125,0-9.439,0.972-11.154,2.156v-0.12c0-0.93-0.618-2.036-2.166-2.036c0-2.812,5.73-4.317,13.32-4.317&#xD;&#xA;&#x9;&#x9;C41.746,109.115,47.476,110.621,47.476,113.432z"/>
</svg>