<svg version="1.2" baseProfile="tiny" id="EdgeSVG_0qHV3" x="0px" y="0px" width="272.98px" height="162.713px" viewBox="0 0 272.98 162.713" xmlns:xlink="http://www.w3.org/1999/xlink" xmlns="http://www.w3.org/2000/svg">
  <linearGradient id="SVGID_1_" gradientUnits="userSpaceOnUse" x1="0" y1="81.3569" x2="272.98" y2="81.3569">
    <stop offset="0" style="stop-color:#000000;stop-opacity:0.5"/>
    <stop offset="1" style="stop-color:#000000;stop-opacity:0.5"/>
  </linearGradient>
  <path fill="url(#SVGID_1_)" d="M270.122,68.388h-30.141v-44.59h-3.561V2.731c0-1.506-1.074-2.731-2.395-2.731h-11.061&#xD;&#xA;&#x9;&#x9;c-1.01,0-1.872,0.719-2.223,1.731H15.677C15.326,0.719,14.465,0,13.455,0H2.394C1.074,0,0,1.225,0,2.731v144.934&#xD;&#xA;&#x9;&#x9;c0,1.506,1.074,2.731,2.394,2.731h11.061c1.009,0,1.871-0.719,2.222-1.729h54.531v7.862v2v4.183h73.041&#xD;&#xA;&#x9;&#x9;c5.228,0,8.245-2.396,10.291-4.484c0.765-0.784,1.458-1.593,2.116-2.37c1.286-1.507,2.501-2.931,3.985-3.769&#xD;&#xA;&#x9;&#x9;c0.696-0.394,3.273-0.811,6.679-0.811c3.132,0,5.88,0.364,7.353,0.975c0.987,0.409,2.28,2.249,3.322,3.73l0.063,0.089&#xD;&#xA;&#x9;&#x9;c0.486,0.687,0.986,1.392,1.518,2.073c1.662,2.126,4.036,4.566,7.666,4.566h30.281v-4.183v-2v-7.862h4.221&#xD;&#xA;&#x9;&#x9;c0.353,1.01,1.213,1.729,2.223,1.729h11.061c1.32,0,2.395-1.226,2.395-2.731v-21.067h3.561v-44.59h30.141&#xD;&#xA;&#x9;&#x9;c1.576,0,2.858-1.282,2.858-2.859v-7.901C272.98,69.67,271.698,68.388,270.122,68.388z"/>
</svg>