<svg width="16" height="16" viewBox="0 0 16 16" fill="none" xmlns="http://www.w3.org/2000/svg">
<g clip-path="url(#clip0_519_2425)">
<path d="M3.031 16C2.679 16 2.325 15.89 2.023 15.663L1.795 15.491C1.439 15.222 1.208 14.829 1.146 14.385C1.085 13.94 1.199 13.5 1.468 13.143L5.334 8.01902C4.153 6.20902 4.223 3.79802 5.536 2.05802C7 0.119017 9.659 -0.545983 11.859 0.477017C11.965 0.526017 12.043 0.621017 12.071 0.734017C12.099 0.847017 12.075 0.967017 12.005 1.06102L9.446 4.45302L10.515 5.26002L13.061 1.88502C13.132 1.79102 13.242 1.73402 13.361 1.73102C13.48 1.72902 13.592 1.78002 13.668 1.87102C15.213 3.73002 15.274 6.37602 13.817 8.30702C12.519 10.027 10.317 10.756 8.266 10.174L4.372 15.335C4.042 15.77 3.54 16 3.031 16ZM9.691 0.773017C8.336 0.773017 7.007 1.39402 6.154 2.52502C4.987 4.07202 4.974 6.24102 6.123 7.80002C6.224 7.93802 6.223 8.12602 6.12 8.26202L2.085 13.609C1.941 13.8 1.88 14.038 1.913 14.277C1.947 14.517 2.07 14.728 2.262 14.873L2.49 15.045C2.887 15.345 3.454 15.265 3.754 14.868L7.812 9.49002C7.913 9.35602 8.089 9.30302 8.246 9.35702C10.056 9.97702 12.046 9.36802 13.199 7.84002C14.338 6.33102 14.386 4.30702 13.368 2.76202L10.899 6.03302C10.771 6.20302 10.528 6.23802 10.357 6.10902L8.671 4.83702C8.589 4.77502 8.535 4.68302 8.521 4.58202C8.507 4.48002 8.534 4.37702 8.595 4.29502L11.082 0.999017C10.628 0.847017 10.158 0.773017 9.691 0.773017Z" fill="black"/>
</g>
<defs>
<clipPath id="clip0_519_2425">
<rect width="16" height="16" fill="white"/>
</clipPath>
</defs>
</svg>
