<svg version="1.2" baseProfile="tiny" viewBox="0 0 15.542 18.000" xmlns:xlink="http://www.w3.org/1999/xlink" xmlns="http://www.w3.org/2000/svg">
<path style="fill:#ffffff;" d="M15.084,0H0.451C0.213,0,0.019,0.193,0.019,0.432v17.135C0.019,17.807,0.213,18,0.451,18h14.633   c0.239,0,0.433-0.193,0.433-0.433V0.432C15.517,0.193,15.324,0,15.084,0z M14.653,17.136H0.883V0.864h13.77V17.136z M10.657,5.765   h1.907c0.238,0,0.432-0.194,0.432-0.432V3.079c0-0.238-0.193-0.432-0.432-0.432h-1.907c-0.239,0-0.433,0.194-0.433,0.432v2.254   C10.224,5.571,10.417,5.765,10.657,5.765z M11.088,3.511h1.043V4.9h-1.043V3.511z M7.218,3.079c0-0.238-0.194-0.432-0.432-0.432   H2.972c-0.239,0-0.432,0.194-0.432,0.432v6.776c0,0.239,0.193,0.432,0.432,0.432h3.813c0.238,0,0.432-0.193,0.432-0.432V3.079z    M3.404,3.511h1.042V4.9H3.404V3.511z M3.404,5.772h1.042v1.39H3.404V5.772z M3.404,8.033h1.042v1.39H3.404V8.033z M6.354,9.423   H5.312v-1.39h1.042V9.423z M6.354,7.162H5.312v-1.39h1.042V7.162z M6.354,4.9H5.312v-1.39h1.042V4.9z M6.786,12.212l-3.807,0.004   c-0.239,0-0.432,0.194-0.432,0.433v2.254c0,0.239,0.193,0.433,0.432,0.433l3.807-0.005c0.238,0,0.432-0.193,0.432-0.432v-2.255   C7.218,12.405,7.024,12.212,6.786,12.212z M3.411,13.08h1.035v1.391H3.411V13.08z M6.354,14.466H5.318v-1.39h1.035V14.466z"/>
</svg>