<svg version="1.2" baseProfile="tiny" id="EdgeSVG_3BZNs" x="0px" y="0px" width="38.664px" height="150px" viewBox="0 0 38.664 150" xmlns:xlink="http://www.w3.org/1999/xlink" xmlns="http://www.w3.org/2000/svg">
  <linearGradient id="SVGID_2_" gradientUnits="userSpaceOnUse" x1="19.3315" y1="0" x2="19.3315" y2="150.001">
    <stop offset="0.0181" style="stop-color:#000000;stop-opacity:0.55"/>
    <stop offset="0.0675" style="stop-color:#000000;stop-opacity:0.3"/>
    <stop offset="0.9325" style="stop-color:#000000;stop-opacity:0.2"/>
    <stop offset="0.9864" style="stop-color:#FFFFFF;stop-opacity:0.3"/>
  </linearGradient>
  <path fill="url(#SVGID_2_)" d="M38.474,145.271c-0.041-0.136-4.181-14.219-4.181-70.271c0-56.051,4.14-70.135,4.179-70.262&#xD;&#xA;&#x9;&#x9;c0.372-1.17,0.199-2.369-0.476-3.289C37.324,0.528,36.233,0,35.005,0H3.658C2.43,0,1.34,0.528,0.666,1.449&#xD;&#xA;&#x9;&#x9;c-0.672,0.92-0.845,2.119-0.474,3.289C0.234,4.87,4.369,18.535,4.369,75c0,56.052-4.138,70.135-4.177,70.262&#xD;&#xA;&#x9;&#x9;c-0.371,1.169-0.198,2.369,0.474,3.289C1.34,149.472,2.43,150,3.658,150h31.347c1.229,0,2.319-0.528,2.991-1.449&#xD;&#xA;&#x9;&#x9;C38.671,147.631,38.844,146.431,38.474,145.271z M35.005,147.9H3.658c-1.156,0-1.814-0.901-1.464-2.002&#xD;&#xA;&#x9;&#x9;c0,0,4.276-13.453,4.276-70.897c0-57.443-4.276-70.898-4.276-70.898c-0.35-1.101,0.309-2.001,1.464-2.001h31.347&#xD;&#xA;&#x9;&#x9;c1.155,0,1.814,0.901,1.465,2.001c0,0-4.277,13.455-4.277,70.898c0,57.444,4.277,70.897,4.277,70.897&#xD;&#xA;&#x9;&#x9;C36.819,146.999,36.16,147.9,35.005,147.9z"/>
  <linearGradient id="SVGID_3_" gradientUnits="userSpaceOnUse" x1="19.3315" y1="147.8999" x2="19.3315" y2="2.1011">
    <stop offset="0.0181" style="stop-color:#000000;stop-opacity:0.35"/>
    <stop offset="0.681" style="stop-color:#000000;stop-opacity:0.03"/>
    <stop offset="1" style="stop-color:#000000;stop-opacity:0.2"/>
  </linearGradient>
  <path fill="url(#SVGID_3_)" d="M36.47,145.898c0.35,1.101-0.31,2.002-1.465,2.002H3.658c-1.156,0-1.814-0.901-1.464-2.002&#xD;&#xA;&#x9;&#x9;c0,0,4.276-13.453,4.276-70.897c0-57.443-4.276-70.898-4.276-70.898c-0.35-1.101,0.309-2.001,1.464-2.001h31.347&#xD;&#xA;&#x9;&#x9;c1.155,0,1.814,0.901,1.465,2.001c0,0-4.277,13.455-4.277,70.898C32.192,132.445,36.47,145.898,36.47,145.898z"/>
  <linearGradient id="SVGID_4_" gradientUnits="userSpaceOnUse" x1="2.0996" y1="75.0005" x2="36.5635" y2="75.0005">
    <stop offset="0" style="stop-color:#000000;stop-opacity:0.35"/>
    <stop offset="0.0463" style="stop-color:#000000;stop-opacity:0.3175"/>
    <stop offset="0.4977" style="stop-color:#000000;stop-opacity:0"/>
    <stop offset="1" style="stop-color:#000000;stop-opacity:0.35"/>
  </linearGradient>
  <path fill="url(#SVGID_4_)" d="M36.47,145.898c0.35,1.101-0.31,2.002-1.465,2.002H3.658c-1.156,0-1.814-0.901-1.464-2.002&#xD;&#xA;&#x9;&#x9;c0,0,4.276-13.453,4.276-70.897c0-57.443-4.276-70.898-4.276-70.898c-0.35-1.101,0.309-2.001,1.464-2.001h31.347&#xD;&#xA;&#x9;&#x9;c1.155,0,1.814,0.901,1.465,2.001c0,0-4.277,13.455-4.277,70.898C32.192,132.445,36.47,145.898,36.47,145.898z"/>
</svg>