<svg version="1.2" baseProfile="tiny" viewBox="0 0 61.174 150.0" xmlns:xlink="http://www.w3.org/1999/xlink" xmlns="http://www.w3.org/2000/svg">
<path style="fill:#ffffff;" d="M30.5858,150.0C7.0521,150.0,1.1568,137.268,0.9182,136.725L0.8381,136.5435L0.7922,136.353C0.2961,134.283,0.0,129.4425,0.0,125.958L0.0,24.0465C0.0,20.562,0.2961,15.723,0.7922,13.6545L0.8381,13.464L0.9182,13.2825C1.1568,12.741,7.0521,0.0,30.5858,0.0C54.1188,0.0,60.016,12.7395,60.2552,13.2825L60.3353,13.4625L60.3812,13.6545C60.8779,15.729,61.174,20.5665,61.174,24.0465L61.174,125.958C61.174,129.4365,60.8779,134.2755,60.3812,136.3515L60.3353,136.5435L60.2552,136.725C60.016,137.268,54.12,150.0,30.5858,150.0Z"/>
</svg>