<svg version="1.2" baseProfile="tiny" viewBox="0 0 38.664 150.0" xmlns:xlink="http://www.w3.org/1999/xlink" xmlns="http://www.w3.org/2000/svg">
<path style="fill:#ffffff;" d="M3.658,150.0C2.43,150.0,1.3401,149.472,0.6662,148.551C-0.0062,147.6315,-0.179,146.4315,0.1922,145.2615C0.2308,145.1355,4.369,131.052,4.369,75.0C4.369,18.5355,0.2339,4.8705,0.1922,4.7385C-0.179,3.5685,-0.0062,2.3685,0.6662,1.449C1.3401,0.528,2.43,0.0,3.658,0.0L35.0048,0.0C36.234,0.0,37.3239,0.528,37.9959,1.449C38.671,2.3685,38.8442,3.5685,38.4718,4.7385C38.4332,4.866,34.293,18.9495,34.293,75.0C34.293,131.052,38.4332,145.1355,38.4742,145.2705C38.8442,146.4315,38.671,147.6315,37.9959,148.551C37.3239,149.472,36.2328,150.0,35.0048,150.0L3.658,150.0L3.658,150.0Z"/>
</svg>