<svg version="1.2" baseProfile="tiny" viewBox="0 0 159.749 225.0" xmlns:xlink="http://www.w3.org/1999/xlink" xmlns="http://www.w3.org/2000/svg">
<path style="fill:#ffffff;" d="M158.9502,201.7305L158.9502,75.3727C158.9502,69.4755,152.9325,67.7903,147.0985,67.311L147.0985,46.8405L147.2534,46.8405L147.2534,44.64L150.8286,44.64L150.8286,46.8405L151.7919,46.8405L153.9916,46.8405L154.9549,46.8405L154.9549,44.64L158.7266,44.64L158.7266,35.838L154.9549,35.838L154.9549,33.6375L153.9916,33.6375L151.7919,33.6375L150.8286,33.6375L150.8286,35.838L147.2534,35.838L147.2534,33.6375L146.8381,33.6375C145.7965,28.134,141.6223,23.805,135.5247,20.6573L136.9464,15.408L138.7085,15.885L139.3235,13.6058L139.3107,13.6035L139.3123,13.599L136.9544,12.9645C136.9544,12.9645,132.8153,7.5375,117.2414,3.1793C101.6675,-1.1767,95.589,1.764,95.589,1.764L92.8222,1.0103L92.5122,2.151L92.5266,2.1532L92.2167,3.2963L94.2423,3.8453L91.3892,14.382L55.0367,14.382L55.0367,14.382C33.9403,14.382,14.5547,20.8327,12.1297,33.6353L11.6425,33.6353L11.6425,35.8358L8.6153,35.8358L8.6153,33.6353L8.6153,33.6353L7.652,33.6353L7.652,33.6353L5.4522,33.6353L4.4889,33.6353L4.4889,33.6353L4.4889,35.8358L1.2253,35.8358L1.2253,35.8358L1.2253,44.64L4.4905,44.64L4.4905,46.8382L5.4522,46.8382L7.6536,46.8382L8.6153,46.8382L8.6153,44.64L12.192,44.64L12.192,46.8382L12.6521,46.8382L12.6521,67.311C6.8165,67.788,0.7987,69.4733,0.7987,75.3727L0.7987,201.7305C0.7987,201.7305,-1.4425,224.208,79.8745,224.208C161.1915,224.208,158.9502,201.7305,158.9502,201.7305Z"/>
</svg>