<svg version="1.2" baseProfile="tiny" viewBox="0 0 56.238 150.0" xmlns:xlink="http://www.w3.org/1999/xlink" xmlns="http://www.w3.org/2000/svg">
<path style="fill:#ffffff;" d="M26.4459,149.8695C27.2282,150.0375,28.507,150.045,29.2899,149.8845L50.4078,145.5495C51.1912,145.389,51.9431,144.6135,52.0792,143.8245L53.601,135.0225C53.7371,134.2335,53.6241,132.9765,53.3507,132.225L50.563,124.5795C50.2891,123.8295,50.301,122.6055,50.59,121.86L56.098,107.6535C56.387,106.908,56.2099,105.7905,55.706,105.171L51.9909,100.6065C51.487,99.987,50.9882,98.832,50.8819,98.0385L48.7432,81.9975C48.6369,81.2055,48.7167,79.9245,48.9192,79.1505L50.9578,71.3655C51.1608,70.5915,51.1861,69.321,51.014,68.5395L48.8641,58.764C48.692,57.984,48.778,56.7315,49.053,55.9815L53.3462,44.3295C53.6218,43.5795,53.6409,42.3465,53.3879,41.5875L50.5231,32.9925C50.27,32.2335,50.4191,31.065,50.8549,30.3945L52.551,27.7875C52.9869,27.117,52.9768,26.0265,52.5302,25.3635L47.8501,18.4395C47.403,17.7765,47.1241,16.587,47.2298,15.795L48.6099,5.5575C48.7162,4.7655,48.1628,3.987,47.38,3.8265L29.2899,0.1215C28.507,-0.0405,27.2259,-0.0405,26.4431,0.12L5.8302,4.3305C5.0468,4.491,4.2949,5.2665,4.1582,6.054L2.637,14.7945C2.4998,15.582,2.6128,16.8405,2.8873,17.5905L5.6727,25.2045C5.9472,25.9545,5.9359,27.1785,5.6469,27.9225L0.1389,42.1155C-0.1513,42.861,0.0259,43.977,0.5309,44.5965L4.2448,49.155C4.7499,49.7745,5.2493,50.9295,5.355,51.7215L7.4943,67.7595C7.6,68.5515,7.5201,69.8325,7.3183,70.6065L5.2791,78.39C5.076,79.1625,5.0507,80.4345,5.2228,81.2145L7.3728,90.9885C7.5449,91.7685,7.4588,93.021,7.1833,93.771L2.8912,105.4215C2.6151,106.1715,2.5959,107.406,2.8479,108.1635L5.7132,116.7585C5.9657,117.5175,5.8173,118.686,5.3809,119.3565L3.6853,121.965C3.2489,122.6355,3.259,123.7245,3.7061,124.3875L8.3862,131.313C8.8327,131.9745,9.1128,133.1655,9.0071,133.9575L7.6259,144.3195C7.5201,145.1115,8.073,145.8975,8.8552,146.067L26.4459,149.8695Z"/>
</svg>