<svg version="1.2" baseProfile="tiny" viewBox="0 0 145.518 81.738" xmlns:xlink="http://www.w3.org/1999/xlink" xmlns="http://www.w3.org/2000/svg">
<path style="fill:#ffffff;" d="M70.89,81.666c0.644,0.092,1.697,0.097,2.343,0.009l67.483-2.362   c0.645-0.088,1.264-0.512,1.377-0.94l1.252-4.796c0.113-0.429,0.021-1.115-0.205-1.524l-2.296-4.166   c-0.227-0.41-0.216-1.076,0.022-1.482l4.537-7.742c0.238-0.406,0.092-1.015-0.323-1.352l-3.061-2.487   c-0.415-0.338-0.826-0.968-0.913-1.4l-1.763-8.742c-0.086-0.432-0.021-1.129,0.146-1.55l1.68-4.244   c0.167-0.421,0.188-1.113,0.046-1.539l-1.771-5.327c-0.142-0.425-0.07-1.107,0.156-1.516l3.536-6.35   c0.228-0.408,0.244-1.081,0.036-1.494l-2.36-4.684c-0.207-0.413-0.085-1.05,0.274-1.415l1.396-1.421   c0.358-0.366,0.351-0.959-0.018-1.32l-3.855-3.773c-0.368-0.361-0.598-1.009-0.511-1.441l1.136-5.579   c0.089-0.432-0.368-0.855-1.013-0.943L73.232,0.066c-0.646-0.088-1.7-0.088-2.346-0.001L4.802,2.361   C4.157,2.448,3.537,2.87,3.424,3.299L2.172,8.062c-0.113,0.429-0.02,1.115,0.206,1.524l2.295,4.148   c0.226,0.41,0.217,1.077-0.022,1.482L0.114,22.95c-0.238,0.406-0.093,1.015,0.323,1.352l3.06,2.484   c0.416,0.338,0.827,0.966,0.914,1.398l1.762,8.74c0.087,0.431,0.021,1.13-0.145,1.55l-1.679,4.242   c-0.167,0.421-0.188,1.114-0.047,1.538l1.771,5.327c0.142,0.425,0.072,1.107-0.156,1.517l-3.536,6.349   c-0.227,0.408-0.244,1.081-0.035,1.494l2.36,4.684c0.208,0.413,0.085,1.05-0.274,1.415l-1.397,1.421   c-0.359,0.366-0.351,0.959,0.018,1.32l3.854,3.773c0.369,0.361,0.6,1.01,0.512,1.442l-1.138,5.647   c-0.088,0.431,0.368,0.859,1.011,0.952L70.89,81.666z"/>
</svg>