<svg version="1.2" baseProfile="tiny" id="EdgeSVG_Q6udX" x="0px" y="0px" width="56.238px" height="150px" viewBox="0 0 56.238 150" xmlns:xlink="http://www.w3.org/1999/xlink" xmlns="http://www.w3.org/2000/svg">
  <linearGradient id="SVGID_2_" gradientUnits="userSpaceOnUse" x1="4.3203" y1="75.0005" x2="51.917" y2="75.0005">
    <stop offset="0" style="stop-color:#000000;stop-opacity:0.35"/>
    <stop offset="0.0463" style="stop-color:#000000;stop-opacity:0.3175"/>
    <stop offset="0.4977" style="stop-color:#000000;stop-opacity:0"/>
    <stop offset="1" style="stop-color:#000000;stop-opacity:0.35"/>
  </linearGradient>
  <path fill="url(#SVGID_2_)" d="M26.703,148.686c0.662,0.166,1.744,0.173,2.407,0.014l17.874-4.267&#xD;&#xA;&#x9;&#x9;c0.662-0.157,1.299-0.921,1.415-1.696l1.288-8.664c0.116-0.774,0.02-2.014-0.211-2.752l-2.359-7.523&#xD;&#xA;&#x9;&#x9;c-0.232-0.739-0.222-1.943,0.023-2.678l4.662-13.982c0.244-0.733,0.095-1.833-0.333-2.443l-3.144-4.491&#xD;&#xA;&#x9;&#x9;c-0.427-0.61-0.85-1.748-0.939-2.528l-1.81-15.788c-0.089-0.78-0.022-2.041,0.149-2.801l1.726-7.663&#xD;&#xA;&#x9;&#x9;c0.171-0.761,0.192-2.012,0.047-2.78l-1.82-9.622c-0.146-0.768-0.073-2,0.161-2.738l3.634-11.469&#xD;&#xA;&#x9;&#x9;c0.233-0.738,0.25-1.953,0.036-2.699l-2.424-8.459c-0.214-0.746-0.087-1.896,0.281-2.555l1.435-2.568&#xD;&#xA;&#x9;&#x9;c0.369-0.659,0.36-1.732-0.019-2.384l-3.96-6.816c-0.379-0.651-0.614-1.823-0.524-2.603l1.167-10.075&#xD;&#xA;&#x9;&#x9;c0.09-0.78-0.378-1.546-1.041-1.705L29.109,1.305c-0.663-0.158-1.747-0.158-2.409-0.001L9.254,5.449&#xD;&#xA;&#x9;&#x9;c-0.662,0.157-1.299,0.92-1.415,1.695l-1.287,8.602c-0.116,0.775-0.02,2.014,0.212,2.752l2.357,7.493&#xD;&#xA;&#x9;&#x9;c0.232,0.739,0.223,1.943-0.022,2.676L4.438,42.636c-0.244,0.733-0.095,1.832,0.333,2.441l3.143,4.486&#xD;&#xA;&#x9;&#x9;c0.427,0.609,0.85,1.746,0.939,2.526l1.811,15.786c0.089,0.78,0.022,2.04-0.149,2.801l-1.726,7.662&#xD;&#xA;&#x9;&#x9;c-0.172,0.761-0.193,2.011-0.048,2.778l1.82,9.621c0.146,0.768,0.073,2.001-0.161,2.738l-3.633,11.468&#xD;&#xA;&#x9;&#x9;c-0.233,0.737-0.25,1.953-0.036,2.698l2.424,8.459c0.213,0.746,0.087,1.896-0.282,2.555l-1.435,2.568&#xD;&#xA;&#x9;&#x9;c-0.369,0.66-0.36,1.732,0.019,2.385l3.96,6.814c0.379,0.652,0.616,1.824,0.526,2.604l-1.169,10.199&#xD;&#xA;&#x9;&#x9;c-0.09,0.779,0.378,1.553,1.039,1.72L26.703,148.686z"/>
  <linearGradient id="SVGID_3_" gradientUnits="userSpaceOnUse" x1="28.1187" y1="148.8149" x2="28.1186" y2="1.1865">
    <stop offset="0.0181" style="stop-color:#000000;stop-opacity:0.35"/>
    <stop offset="0.681" style="stop-color:#000000;stop-opacity:0.03"/>
    <stop offset="1" style="stop-color:#000000;stop-opacity:0.2"/>
  </linearGradient>
  <path fill="url(#SVGID_3_)" d="M26.703,148.686c0.662,0.166,1.744,0.173,2.407,0.014l17.874-4.267&#xD;&#xA;&#x9;&#x9;c0.662-0.157,1.299-0.921,1.415-1.696l1.288-8.664c0.116-0.774,0.02-2.014-0.211-2.752l-2.359-7.523&#xD;&#xA;&#x9;&#x9;c-0.232-0.739-0.222-1.943,0.023-2.678l4.662-13.982c0.244-0.733,0.095-1.833-0.333-2.443l-3.144-4.491&#xD;&#xA;&#x9;&#x9;c-0.427-0.61-0.85-1.748-0.939-2.528l-1.81-15.788c-0.089-0.78-0.022-2.041,0.149-2.801l1.726-7.663&#xD;&#xA;&#x9;&#x9;c0.171-0.761,0.192-2.012,0.047-2.78l-1.82-9.622c-0.146-0.768-0.073-2,0.161-2.738l3.634-11.469&#xD;&#xA;&#x9;&#x9;c0.233-0.738,0.25-1.953,0.036-2.699l-2.424-8.459c-0.214-0.746-0.087-1.896,0.281-2.555l1.435-2.568&#xD;&#xA;&#x9;&#x9;c0.369-0.659,0.36-1.732-0.019-2.384l-3.96-6.816c-0.379-0.651-0.614-1.823-0.524-2.603l1.167-10.075&#xD;&#xA;&#x9;&#x9;c0.09-0.78-0.378-1.546-1.041-1.705L29.109,1.305c-0.663-0.158-1.747-0.158-2.409-0.001L9.254,5.449&#xD;&#xA;&#x9;&#x9;c-0.662,0.157-1.299,0.92-1.415,1.695l-1.287,8.602c-0.116,0.775-0.02,2.014,0.212,2.752l2.357,7.493&#xD;&#xA;&#x9;&#x9;c0.232,0.739,0.223,1.943-0.022,2.676L4.438,42.636c-0.244,0.733-0.095,1.832,0.333,2.441l3.143,4.486&#xD;&#xA;&#x9;&#x9;c0.427,0.609,0.85,1.746,0.939,2.526l1.811,15.786c0.089,0.78,0.022,2.04-0.149,2.801l-1.726,7.662&#xD;&#xA;&#x9;&#x9;c-0.172,0.761-0.193,2.011-0.048,2.778l1.82,9.621c0.146,0.768,0.073,2.001-0.161,2.738l-3.633,11.468&#xD;&#xA;&#x9;&#x9;c-0.233,0.737-0.25,1.953-0.036,2.698l2.424,8.459c0.213,0.746,0.087,1.896-0.282,2.555l-1.435,2.568&#xD;&#xA;&#x9;&#x9;c-0.369,0.66-0.36,1.732,0.019,2.385l3.96,6.814c0.379,0.652,0.616,1.824,0.526,2.604l-1.169,10.199&#xD;&#xA;&#x9;&#x9;c-0.09,0.779,0.378,1.553,1.039,1.72L26.703,148.686z"/>
  <linearGradient id="SVGID_4_" gradientUnits="userSpaceOnUse" x1="42.3047" y1="0.02" x2="42.3047" y2="149.9834">
    <stop offset="0.0307" style="stop-color:#000000;stop-opacity:0.45"/>
    <stop offset="0.0675" style="stop-color:#FFFFFF;stop-opacity:0.05"/>
    <stop offset="0.1288" style="stop-color:#000000;stop-opacity:0.25"/>
    <stop offset="0.1345" style="stop-color:#050505;stop-opacity:0.2398"/>
    <stop offset="0.1413" style="stop-color:#141414;stop-opacity:0.2274"/>
    <stop offset="0.1487" style="stop-color:#2D2D2D;stop-opacity:0.2139"/>
    <stop offset="0.1566" style="stop-color:#4F4F4F;stop-opacity:0.1996"/>
    <stop offset="0.1649" style="stop-color:#7B7B7B;stop-opacity:0.1847"/>
    <stop offset="0.1735" style="stop-color:#B1B1B1;stop-opacity:0.1692"/>
    <stop offset="0.1821" style="stop-color:#F0F0F0;stop-opacity:0.1535"/>
    <stop offset="0.184" style="stop-color:#FFFFFF;stop-opacity:0.15"/>
    <stop offset="0.1897" style="stop-color:#FBFBFB;stop-opacity:0.15"/>
    <stop offset="0.1951" style="stop-color:#F0F0F0;stop-opacity:0.15"/>
    <stop offset="0.2004" style="stop-color:#DCDCDC;stop-opacity:0.15"/>
    <stop offset="0.2057" style="stop-color:#C1C1C1;stop-opacity:0.15"/>
    <stop offset="0.211" style="stop-color:#9D9D9D;stop-opacity:0.15"/>
    <stop offset="0.2162" style="stop-color:#727272;stop-opacity:0.15"/>
    <stop offset="0.2215" style="stop-color:#3F3F3F;stop-opacity:0.15"/>
    <stop offset="0.2266" style="stop-color:#050505;stop-opacity:0.15"/>
    <stop offset="0.227" style="stop-color:#000000;stop-opacity:0.15"/>
    <stop offset="0.2417" style="stop-color:#030303;stop-opacity:0.15"/>
    <stop offset="0.2523" style="stop-color:#0C0C0C;stop-opacity:0.15"/>
    <stop offset="0.2616" style="stop-color:#1C1C1C;stop-opacity:0.15"/>
    <stop offset="0.2702" style="stop-color:#323232;stop-opacity:0.15"/>
    <stop offset="0.2782" style="stop-color:#4F4F4F;stop-opacity:0.15"/>
    <stop offset="0.286" style="stop-color:#737373;stop-opacity:0.15"/>
    <stop offset="0.2934" style="stop-color:#9D9D9D;stop-opacity:0.15"/>
    <stop offset="0.3003" style="stop-color:#CCCCCC;stop-opacity:0.15"/>
    <stop offset="0.3067" style="stop-color:#FFFFFF;stop-opacity:0.15"/>
    <stop offset="0.3359" style="stop-color:#FDFDFD;stop-opacity:0.1522"/>
    <stop offset="0.3476" style="stop-color:#F6F6F6;stop-opacity:0.1531"/>
    <stop offset="0.3562" style="stop-color:#EAEAEA;stop-opacity:0.1538"/>
    <stop offset="0.3632" style="stop-color:#D8D8D8;stop-opacity:0.1543"/>
    <stop offset="0.3693" style="stop-color:#C2C2C2;stop-opacity:0.1548"/>
    <stop offset="0.3748" style="stop-color:#A6A6A6;stop-opacity:0.1552"/>
    <stop offset="0.3797" style="stop-color:#848484;stop-opacity:0.1556"/>
    <stop offset="0.3843" style="stop-color:#5D5D5D;stop-opacity:0.1559"/>
    <stop offset="0.3885" style="stop-color:#333333;stop-opacity:0.1563"/>
    <stop offset="0.3924" style="stop-color:#040404;stop-opacity:0.1566"/>
    <stop offset="0.3926" style="stop-color:#000000;stop-opacity:0.1566"/>
    <stop offset="0.4261" style="stop-color:#020202;stop-opacity:0.136"/>
    <stop offset="0.4385" style="stop-color:#090909;stop-opacity:0.1284"/>
    <stop offset="0.4474" style="stop-color:#151515;stop-opacity:0.1229"/>
    <stop offset="0.4547" style="stop-color:#262626;stop-opacity:0.1184"/>
    <stop offset="0.4609" style="stop-color:#3C3C3C;stop-opacity:0.1146"/>
    <stop offset="0.4664" style="stop-color:#575757;stop-opacity:0.1112"/>
    <stop offset="0.4714" style="stop-color:#787878;stop-opacity:0.1082"/>
    <stop offset="0.476" style="stop-color:#9E9E9E;stop-opacity:0.1053"/>
    <stop offset="0.4803" style="stop-color:#C9C9C9;stop-opacity:0.1027"/>
    <stop offset="0.4841" style="stop-color:#F8F8F8;stop-opacity:0.1003"/>
    <stop offset="0.4847" style="stop-color:#FFFFFF;stop-opacity:0.1"/>
    <stop offset="0.5055" style="stop-color:#FDFDFD;stop-opacity:0.117"/>
    <stop offset="0.5138" style="stop-color:#F6F6F6;stop-opacity:0.1238"/>
    <stop offset="0.52" style="stop-color:#EAEAEA;stop-opacity:0.1288"/>
    <stop offset="0.525" style="stop-color:#D8D8D8;stop-opacity:0.1329"/>
    <stop offset="0.5294" style="stop-color:#C2C2C2;stop-opacity:0.1364"/>
    <stop offset="0.5333" style="stop-color:#A6A6A6;stop-opacity:0.1396"/>
    <stop offset="0.5368" style="stop-color:#848484;stop-opacity:0.1425"/>
    <stop offset="0.5401" style="stop-color:#5D5D5D;stop-opacity:0.1452"/>
    <stop offset="0.5431" style="stop-color:#333333;stop-opacity:0.1476"/>
    <stop offset="0.5458" style="stop-color:#040404;stop-opacity:0.1498"/>
    <stop offset="0.546" style="stop-color:#000000;stop-opacity:0.15"/>
    <stop offset="0.6566" style="stop-color:#000000;stop-opacity:0.2359"/>
    <stop offset="0.6748" style="stop-color:#000000;stop-opacity:0.25"/>
    <stop offset="0.6811" style="stop-color:#050505;stop-opacity:0.2398"/>
    <stop offset="0.6887" style="stop-color:#141414;stop-opacity:0.2274"/>
    <stop offset="0.697" style="stop-color:#2D2D2D;stop-opacity:0.2139"/>
    <stop offset="0.7057" style="stop-color:#4F4F4F;stop-opacity:0.1996"/>
    <stop offset="0.7149" style="stop-color:#7B7B7B;stop-opacity:0.1847"/>
    <stop offset="0.7244" style="stop-color:#B1B1B1;stop-opacity:0.1692"/>
    <stop offset="0.734" style="stop-color:#F0F0F0;stop-opacity:0.1535"/>
    <stop offset="0.7362" style="stop-color:#FFFFFF;stop-opacity:0.15"/>
    <stop offset="0.7526" style="stop-color:#FCFCFC;stop-opacity:0.1589"/>
    <stop offset="0.7648" style="stop-color:#F3F3F3;stop-opacity:0.1655"/>
    <stop offset="0.7756" style="stop-color:#E2E2E2;stop-opacity:0.1714"/>
    <stop offset="0.7856" style="stop-color:#CCCCCC;stop-opacity:0.1769"/>
    <stop offset="0.7951" style="stop-color:#AEAEAE;stop-opacity:0.182"/>
    <stop offset="0.8042" style="stop-color:#8A8A8A;stop-opacity:0.1869"/>
    <stop offset="0.8129" style="stop-color:#606060;stop-opacity:0.1917"/>
    <stop offset="0.8212" style="stop-color:#303030;stop-opacity:0.1962"/>
    <stop offset="0.8282" style="stop-color:#000000;stop-opacity:0.2"/>
    <stop offset="0.8579" style="stop-color:#020202;stop-opacity:0.1441"/>
    <stop offset="0.8686" style="stop-color:#090909;stop-opacity:0.124"/>
    <stop offset="0.8763" style="stop-color:#141414;stop-opacity:0.1096"/>
    <stop offset="0.8825" style="stop-color:#252525;stop-opacity:0.098"/>
    <stop offset="0.8877" style="stop-color:#3B3B3B;stop-opacity:0.0881"/>
    <stop offset="0.8924" style="stop-color:#575757;stop-opacity:0.0793"/>
    <stop offset="0.8967" style="stop-color:#777777;stop-opacity:0.0713"/>
    <stop offset="0.9006" style="stop-color:#9D9D9D;stop-opacity:0.064"/>
    <stop offset="0.9042" style="stop-color:#C8C8C8;stop-opacity:0.0572"/>
    <stop offset="0.9074" style="stop-color:#F6F6F6;stop-opacity:0.0511"/>
    <stop offset="0.908" style="stop-color:#FFFFFF;stop-opacity:0.05"/>
    <stop offset="0.9501" style="stop-color:#FFFFFF;stop-opacity:0.2647"/>
    <stop offset="0.9571" style="stop-color:#FFFFFF;stop-opacity:0.3"/>
  </linearGradient>
  <path fill="url(#SVGID_4_)" d="M56.099,107.654c0.289-0.745,0.112-1.863-0.392-2.482l-3.715-4.564&#xD;&#xA;&#x9;&#x9;c-0.504-0.62-1.003-1.775-1.109-2.568l-2.139-16.042c-0.106-0.792-0.026-2.073,0.176-2.846l2.039-7.786&#xD;&#xA;&#x9;&#x9;c0.203-0.773,0.228-2.044,0.056-2.825l-2.15-9.776c-0.172-0.78-0.086-2.032,0.189-2.782l4.293-11.653&#xD;&#xA;&#x9;&#x9;c0.275-0.75,0.295-1.983,0.042-2.742l-2.865-8.595c-0.253-0.758-0.104-1.927,0.332-2.597l1.696-2.608&#xD;&#xA;&#x9;&#x9;c0.436-0.67,0.426-1.761-0.021-2.423l-4.68-6.925c-0.447-0.662-0.726-1.852-0.62-2.644L48.61,5.558&#xD;&#xA;&#x9;&#x9;c0.106-0.792-0.447-1.571-1.23-1.732L29.29,0.121c-0.261-0.054-0.583-0.083-0.918-0.101v1.188c0.269,0.018,0.527,0.047,0.738,0.097&#xD;&#xA;&#x9;&#x9;l15.312,3.646c0.663,0.158,1.131,0.925,1.041,1.705l-1.167,10.075c-0.09,0.78,0.146,1.951,0.524,2.603l3.96,6.816&#xD;&#xA;&#x9;&#x9;c0.379,0.652,0.387,1.725,0.019,2.384l-1.435,2.568c-0.369,0.659-0.495,1.81-0.281,2.555l2.424,8.459&#xD;&#xA;&#x9;&#x9;c0.214,0.746,0.197,1.961-0.036,2.699l-3.634,11.469c-0.233,0.738-0.306,1.97-0.161,2.738l1.82,9.622&#xD;&#xA;&#x9;&#x9;c0.145,0.768,0.124,2.019-0.047,2.78l-1.726,7.663c-0.171,0.76-0.238,2.021-0.149,2.801l1.81,15.788&#xD;&#xA;&#x9;&#x9;c0.09,0.78,0.512,1.918,0.939,2.528l3.144,4.491c0.427,0.61,0.577,1.71,0.333,2.443l-4.662,13.982&#xD;&#xA;&#x9;&#x9;c-0.245,0.734-0.255,1.938-0.023,2.678l2.359,7.523c0.231,0.738,0.327,1.978,0.211,2.752l-1.288,8.664&#xD;&#xA;&#x9;&#x9;c-0.116,0.775-0.752,1.539-1.415,1.696L29.109,148.7c-0.211,0.051-0.469,0.078-0.738,0.096v1.188&#xD;&#xA;&#x9;&#x9;c0.335-0.017,0.657-0.046,0.918-0.099l21.118-4.336c0.783-0.16,1.535-0.936,1.671-1.724l1.522-8.803&#xD;&#xA;&#x9;&#x9;c0.137-0.788,0.023-2.046-0.25-2.797l-2.788-7.645c-0.274-0.751-0.262-1.975,0.027-2.72L56.099,107.654z"/>
  <linearGradient id="SVGID_5_" gradientUnits="userSpaceOnUse" x1="14.1855" y1="149.9946" x2="14.1855" y2="0.0063">
    <stop offset="0.0245" style="stop-color:#FFFFFF;stop-opacity:0.3"/>
    <stop offset="0.0675" style="stop-color:#000000;stop-opacity:0.05"/>
    <stop offset="0.1288" style="stop-color:#FFFFFF;stop-opacity:0.25"/>
    <stop offset="0.1345" style="stop-color:#FAFAFA;stop-opacity:0.2398"/>
    <stop offset="0.1413" style="stop-color:#EBEBEB;stop-opacity:0.2274"/>
    <stop offset="0.1487" style="stop-color:#D2D2D2;stop-opacity:0.2139"/>
    <stop offset="0.1566" style="stop-color:#B0B0B0;stop-opacity:0.1996"/>
    <stop offset="0.1649" style="stop-color:#848484;stop-opacity:0.1847"/>
    <stop offset="0.1735" style="stop-color:#4E4E4E;stop-opacity:0.1692"/>
    <stop offset="0.1821" style="stop-color:#0F0F0F;stop-opacity:0.1535"/>
    <stop offset="0.184" style="stop-color:#000000;stop-opacity:0.15"/>
    <stop offset="0.1897" style="stop-color:#040404;stop-opacity:0.15"/>
    <stop offset="0.1951" style="stop-color:#0F0F0F;stop-opacity:0.15"/>
    <stop offset="0.2004" style="stop-color:#232323;stop-opacity:0.15"/>
    <stop offset="0.2057" style="stop-color:#3E3E3E;stop-opacity:0.15"/>
    <stop offset="0.211" style="stop-color:#626262;stop-opacity:0.15"/>
    <stop offset="0.2162" style="stop-color:#8D8D8D;stop-opacity:0.15"/>
    <stop offset="0.2215" style="stop-color:#C0C0C0;stop-opacity:0.15"/>
    <stop offset="0.2266" style="stop-color:#FAFAFA;stop-opacity:0.15"/>
    <stop offset="0.227" style="stop-color:#FFFFFF;stop-opacity:0.15"/>
    <stop offset="0.2417" style="stop-color:#FCFCFC;stop-opacity:0.15"/>
    <stop offset="0.2523" style="stop-color:#F3F3F3;stop-opacity:0.15"/>
    <stop offset="0.2616" style="stop-color:#E3E3E3;stop-opacity:0.15"/>
    <stop offset="0.2702" style="stop-color:#CDCDCD;stop-opacity:0.15"/>
    <stop offset="0.2782" style="stop-color:#B0B0B0;stop-opacity:0.15"/>
    <stop offset="0.286" style="stop-color:#8C8C8C;stop-opacity:0.15"/>
    <stop offset="0.2934" style="stop-color:#626262;stop-opacity:0.15"/>
    <stop offset="0.3003" style="stop-color:#333333;stop-opacity:0.15"/>
    <stop offset="0.3067" style="stop-color:#000000;stop-opacity:0.15"/>
    <stop offset="0.3359" style="stop-color:#020202;stop-opacity:0.1522"/>
    <stop offset="0.3476" style="stop-color:#090909;stop-opacity:0.1531"/>
    <stop offset="0.3562" style="stop-color:#151515;stop-opacity:0.1538"/>
    <stop offset="0.3632" style="stop-color:#272727;stop-opacity:0.1543"/>
    <stop offset="0.3693" style="stop-color:#3D3D3D;stop-opacity:0.1548"/>
    <stop offset="0.3748" style="stop-color:#595959;stop-opacity:0.1552"/>
    <stop offset="0.3797" style="stop-color:#7B7B7B;stop-opacity:0.1556"/>
    <stop offset="0.3843" style="stop-color:#A2A2A2;stop-opacity:0.1559"/>
    <stop offset="0.3885" style="stop-color:#CCCCCC;stop-opacity:0.1563"/>
    <stop offset="0.3924" style="stop-color:#FBFBFB;stop-opacity:0.1566"/>
    <stop offset="0.3926" style="stop-color:#FFFFFF;stop-opacity:0.1566"/>
    <stop offset="0.4261" style="stop-color:#FDFDFD;stop-opacity:0.136"/>
    <stop offset="0.4385" style="stop-color:#F6F6F6;stop-opacity:0.1284"/>
    <stop offset="0.4474" style="stop-color:#EAEAEA;stop-opacity:0.1229"/>
    <stop offset="0.4547" style="stop-color:#D9D9D9;stop-opacity:0.1184"/>
    <stop offset="0.4609" style="stop-color:#C3C3C3;stop-opacity:0.1146"/>
    <stop offset="0.4664" style="stop-color:#A8A8A8;stop-opacity:0.1112"/>
    <stop offset="0.4714" style="stop-color:#878787;stop-opacity:0.1082"/>
    <stop offset="0.476" style="stop-color:#616161;stop-opacity:0.1053"/>
    <stop offset="0.4803" style="stop-color:#353535;stop-opacity:0.1027"/>
    <stop offset="0.4841" style="stop-color:#070707;stop-opacity:0.1003"/>
    <stop offset="0.4847" style="stop-color:#000000;stop-opacity:0.1"/>
    <stop offset="0.5055" style="stop-color:#020202;stop-opacity:0.117"/>
    <stop offset="0.5138" style="stop-color:#090909;stop-opacity:0.1238"/>
    <stop offset="0.52" style="stop-color:#151515;stop-opacity:0.1288"/>
    <stop offset="0.525" style="stop-color:#272727;stop-opacity:0.1329"/>
    <stop offset="0.5294" style="stop-color:#3D3D3D;stop-opacity:0.1364"/>
    <stop offset="0.5333" style="stop-color:#595959;stop-opacity:0.1396"/>
    <stop offset="0.5368" style="stop-color:#7B7B7B;stop-opacity:0.1425"/>
    <stop offset="0.5401" style="stop-color:#A2A2A2;stop-opacity:0.1452"/>
    <stop offset="0.5431" style="stop-color:#CCCCCC;stop-opacity:0.1476"/>
    <stop offset="0.5458" style="stop-color:#FBFBFB;stop-opacity:0.1498"/>
    <stop offset="0.546" style="stop-color:#FFFFFF;stop-opacity:0.15"/>
    <stop offset="0.6566" style="stop-color:#FFFFFF;stop-opacity:0.2359"/>
    <stop offset="0.6748" style="stop-color:#FFFFFF;stop-opacity:0.25"/>
    <stop offset="0.6811" style="stop-color:#FAFAFA;stop-opacity:0.2398"/>
    <stop offset="0.6887" style="stop-color:#EBEBEB;stop-opacity:0.2274"/>
    <stop offset="0.697" style="stop-color:#D2D2D2;stop-opacity:0.2139"/>
    <stop offset="0.7057" style="stop-color:#B0B0B0;stop-opacity:0.1996"/>
    <stop offset="0.7149" style="stop-color:#848484;stop-opacity:0.1847"/>
    <stop offset="0.7244" style="stop-color:#4E4E4E;stop-opacity:0.1692"/>
    <stop offset="0.734" style="stop-color:#0F0F0F;stop-opacity:0.1535"/>
    <stop offset="0.7362" style="stop-color:#000000;stop-opacity:0.15"/>
    <stop offset="0.7526" style="stop-color:#030303;stop-opacity:0.1589"/>
    <stop offset="0.7648" style="stop-color:#0C0C0C;stop-opacity:0.1655"/>
    <stop offset="0.7756" style="stop-color:#1D1D1D;stop-opacity:0.1714"/>
    <stop offset="0.7856" style="stop-color:#333333;stop-opacity:0.1769"/>
    <stop offset="0.7951" style="stop-color:#515151;stop-opacity:0.182"/>
    <stop offset="0.8042" style="stop-color:#757575;stop-opacity:0.1869"/>
    <stop offset="0.8129" style="stop-color:#9F9F9F;stop-opacity:0.1917"/>
    <stop offset="0.8212" style="stop-color:#CFCFCF;stop-opacity:0.1962"/>
    <stop offset="0.8282" style="stop-color:#FFFFFF;stop-opacity:0.2"/>
    <stop offset="0.8579" style="stop-color:#FDFDFD;stop-opacity:0.1441"/>
    <stop offset="0.8686" style="stop-color:#F6F6F6;stop-opacity:0.124"/>
    <stop offset="0.8763" style="stop-color:#EBEBEB;stop-opacity:0.1096"/>
    <stop offset="0.8825" style="stop-color:#DADADA;stop-opacity:0.098"/>
    <stop offset="0.8877" style="stop-color:#C4C4C4;stop-opacity:0.0881"/>
    <stop offset="0.8924" style="stop-color:#A8A8A8;stop-opacity:0.0793"/>
    <stop offset="0.8967" style="stop-color:#888888;stop-opacity:0.0713"/>
    <stop offset="0.9006" style="stop-color:#626262;stop-opacity:0.064"/>
    <stop offset="0.9042" style="stop-color:#373737;stop-opacity:0.0572"/>
    <stop offset="0.9074" style="stop-color:#090909;stop-opacity:0.0511"/>
    <stop offset="0.908" style="stop-color:#000000;stop-opacity:0.05"/>
    <stop offset="0.9693" style="stop-color:#000000;stop-opacity:0.45"/>
  </linearGradient>
  <path fill="url(#SVGID_5_)" d="M26.703,148.686l-14.889-3.741c-0.661-0.167-1.129-0.94-1.039-1.72l1.169-10.199&#xD;&#xA;&#x9;&#x9;c0.09-0.779-0.147-1.951-0.526-2.604l-3.96-6.814c-0.379-0.652-0.387-1.725-0.019-2.385l1.435-2.568&#xD;&#xA;&#x9;&#x9;c0.369-0.659,0.495-1.809,0.282-2.555l-2.424-8.459c-0.214-0.745-0.198-1.961,0.036-2.698L10.4,93.475&#xD;&#xA;&#x9;&#x9;c0.234-0.737,0.306-1.971,0.161-2.738l-1.82-9.621c-0.145-0.768-0.124-2.018,0.048-2.778l1.726-7.662&#xD;&#xA;&#x9;&#x9;c0.171-0.761,0.238-2.021,0.149-2.801L8.852,52.089c-0.089-0.78-0.512-1.917-0.939-2.526L4.77,45.077&#xD;&#xA;&#x9;&#x9;c-0.427-0.609-0.577-1.708-0.333-2.441l4.662-13.968c0.245-0.733,0.254-1.938,0.022-2.676l-2.357-7.493&#xD;&#xA;&#x9;&#x9;c-0.232-0.739-0.328-1.977-0.212-2.752l1.287-8.602c0.116-0.775,0.753-1.538,1.415-1.695L26.7,1.304&#xD;&#xA;&#x9;&#x9;c0.452-0.107,1.094-0.136,1.671-0.096V0.02c-0.669-0.035-1.406-0.007-1.928,0.1L5.83,4.331c-0.783,0.16-1.535,0.935-1.672,1.723&#xD;&#xA;&#x9;&#x9;l-1.521,8.74c-0.137,0.788-0.024,2.046,0.25,2.797l2.786,7.613c0.274,0.751,0.263,1.975-0.026,2.719L0.139,42.116&#xD;&#xA;&#x9;&#x9;c-0.29,0.745-0.113,1.861,0.392,2.48l3.714,4.559c0.505,0.619,1.004,1.774,1.11,2.566L7.494,67.76&#xD;&#xA;&#x9;&#x9;c0.106,0.792,0.026,2.073-0.176,2.846L5.279,78.39c-0.203,0.772-0.228,2.044-0.056,2.824l2.15,9.775&#xD;&#xA;&#x9;&#x9;c0.172,0.78,0.086,2.032-0.19,2.782l-4.292,11.651c-0.276,0.75-0.295,1.984-0.043,2.742l2.865,8.595&#xD;&#xA;&#x9;&#x9;c0.253,0.758,0.104,1.927-0.332,2.597l-1.696,2.609c-0.436,0.67-0.426,1.76,0.021,2.422l4.68,6.926&#xD;&#xA;&#x9;&#x9;c0.447,0.662,0.727,1.853,0.621,2.645l-1.381,10.362c-0.106,0.792,0.447,1.578,1.229,1.747l17.592,3.802&#xD;&#xA;&#x9;&#x9;c0.521,0.112,1.256,0.146,1.925,0.113v-1.188C27.795,148.832,27.153,148.798,26.703,148.686z"/>
</svg>