<svg version="1.2" baseProfile="tiny" viewBox="0 0 133.847 235.056" xmlns:xlink="http://www.w3.org/1999/xlink" xmlns="http://www.w3.org/2000/svg">
<path style="fill:#ffffff;" d="M133.799,213.703v-17.821l-0.001-128.641V43.767l0.049-8.93l-0.286-2.823   c-0.927-4.888-4.546-8.993-10.759-12.201l-0.63-0.326c0.152-0.611,1.245-4.997,1.808-7.617c0,0-4.693-5.36-18.222-9.31   C93.572-0.997,83.717-0.246,83.137,1.22c-0.903,2.283-3.209,10.583-3.704,12.375H41.695c-19.271,0-39.238,5.702-41.647,18.426   L0.047,43.767L0.045,67.241v7.507C0.027,126.06,0,205.843,0,207.604v0.32c0.01,0.022,0.032,0.047,0.046,0.07v5.673l-0.003,0.076   c-0.002,0.028-0.103,2.645,2.553,5.964c0,0,4.297,4.647,12.554,8.377c6.987,3.156,26.999,6.56,45.767,6.932l0.812,0.017l8.613,0.022   l0.821-0.012c19.554-0.269,36.747-2.33,47.221-6.889c9.936-4.325,12.822-8.396,12.822-8.396c2.696-3.341,2.599-5.982,2.598-6   L133.799,213.703z"/>
</svg>