<svg version="1.2" baseProfile="tiny" id="EdgeSVG_zvxWf" x="0px" y="0px" width="150px" height="86.427px" viewBox="0 0 150 86.427" xmlns:xlink="http://www.w3.org/1999/xlink" xmlns="http://www.w3.org/2000/svg">
  <linearGradient id="SVGID_2_" gradientUnits="userSpaceOnUse" x1="2.2407" y1="43.2017" x2="147.7583" y2="43.2017">
    <stop offset="0" style="stop-color:#000000;stop-opacity:0.35"/>
    <stop offset="0.0463" style="stop-color:#000000;stop-opacity:0.3175"/>
    <stop offset="0.4977" style="stop-color:#000000;stop-opacity:0"/>
    <stop offset="1" style="stop-color:#000000;stop-opacity:0.35"/>
  </linearGradient>
  <path fill="url(#SVGID_2_)" d="M73.13,83.999c0.644,0.092,1.697,0.097,2.343,0.009l67.483-2.362&#xD;&#xA;&#x9;&#x9;c0.645-0.088,1.264-0.512,1.377-0.94l1.252-4.796c0.113-0.429,0.021-1.115-0.205-1.524l-2.296-4.166&#xD;&#xA;&#x9;&#x9;c-0.227-0.41-0.216-1.076,0.022-1.482l4.537-7.742c0.238-0.406,0.092-1.015-0.323-1.352l-3.061-2.487&#xD;&#xA;&#x9;&#x9;c-0.415-0.338-0.826-0.968-0.913-1.4l-1.763-8.742c-0.086-0.432-0.021-1.129,0.146-1.55l1.68-4.244&#xD;&#xA;&#x9;&#x9;c0.167-0.421,0.188-1.113,0.046-1.539l-1.771-5.327c-0.142-0.425-0.07-1.107,0.156-1.516l3.536-6.35&#xD;&#xA;&#x9;&#x9;c0.228-0.408,0.244-1.081,0.036-1.494l-2.36-4.684c-0.207-0.413-0.085-1.05,0.274-1.415l1.396-1.421&#xD;&#xA;&#x9;&#x9;c0.358-0.366,0.351-0.959-0.018-1.32l-3.855-3.773c-0.368-0.361-0.598-1.009-0.511-1.441l1.136-5.579&#xD;&#xA;&#x9;&#x9;c0.089-0.432-0.368-0.855-1.013-0.943L75.473,2.399c-0.646-0.088-1.7-0.088-2.346-0.001L7.042,4.693&#xD;&#xA;&#x9;&#x9;C6.398,4.78,5.778,5.202,5.665,5.632l-1.252,4.763c-0.113,0.429-0.02,1.115,0.206,1.524l2.295,4.148&#xD;&#xA;&#x9;&#x9;c0.226,0.41,0.217,1.077-0.022,1.482l-4.537,7.734c-0.238,0.406-0.093,1.015,0.323,1.352l3.06,2.484&#xD;&#xA;&#x9;&#x9;c0.416,0.338,0.827,0.966,0.914,1.398l1.762,8.74c0.087,0.431,0.021,1.13-0.145,1.55l-1.679,4.242&#xD;&#xA;&#x9;&#x9;c-0.167,0.421-0.188,1.114-0.047,1.538l1.771,5.327c0.142,0.425,0.072,1.107-0.156,1.517L4.622,59.78&#xD;&#xA;&#x9;&#x9;c-0.227,0.408-0.244,1.081-0.035,1.494l2.36,4.684c0.208,0.413,0.085,1.05-0.274,1.415l-1.397,1.421&#xD;&#xA;&#x9;&#x9;c-0.359,0.366-0.351,0.959,0.018,1.32l3.854,3.773c0.369,0.361,0.6,1.01,0.512,1.442l-1.138,5.647&#xD;&#xA;&#x9;&#x9;c-0.088,0.431,0.368,0.859,1.011,0.952L73.13,83.999z"/>
  <linearGradient id="SVGID_3_" gradientUnits="userSpaceOnUse" x1="74.9995" y1="84.0708" x2="74.9995" y2="2.333">
    <stop offset="0.0181" style="stop-color:#000000;stop-opacity:0.35"/>
    <stop offset="0.681" style="stop-color:#000000;stop-opacity:0.03"/>
    <stop offset="1" style="stop-color:#000000;stop-opacity:0.2"/>
  </linearGradient>
  <path fill="url(#SVGID_3_)" d="M73.13,83.999c0.644,0.092,1.697,0.097,2.343,0.009l67.483-2.362&#xD;&#xA;&#x9;&#x9;c0.645-0.088,1.264-0.512,1.377-0.94l1.252-4.796c0.113-0.429,0.021-1.115-0.205-1.524l-2.296-4.166&#xD;&#xA;&#x9;&#x9;c-0.227-0.41-0.216-1.076,0.022-1.482l4.537-7.742c0.238-0.406,0.092-1.015-0.323-1.352l-3.061-2.487&#xD;&#xA;&#x9;&#x9;c-0.415-0.338-0.826-0.968-0.913-1.4l-1.763-8.742c-0.086-0.432-0.021-1.129,0.146-1.55l1.68-4.244&#xD;&#xA;&#x9;&#x9;c0.167-0.421,0.188-1.113,0.046-1.539l-1.771-5.327c-0.142-0.425-0.07-1.107,0.156-1.516l3.536-6.35&#xD;&#xA;&#x9;&#x9;c0.228-0.408,0.244-1.081,0.036-1.494l-2.36-4.684c-0.207-0.413-0.085-1.05,0.274-1.415l1.396-1.421&#xD;&#xA;&#x9;&#x9;c0.358-0.366,0.351-0.959-0.018-1.32l-3.855-3.773c-0.368-0.361-0.598-1.009-0.511-1.441l1.136-5.579&#xD;&#xA;&#x9;&#x9;c0.089-0.432-0.368-0.855-1.013-0.943L75.473,2.399c-0.646-0.088-1.7-0.088-2.346-0.001L7.042,4.693&#xD;&#xA;&#x9;&#x9;C6.398,4.78,5.778,5.202,5.665,5.632l-1.252,4.763c-0.113,0.429-0.02,1.115,0.206,1.524l2.295,4.148&#xD;&#xA;&#x9;&#x9;c0.226,0.41,0.217,1.077-0.022,1.482l-4.537,7.734c-0.238,0.406-0.093,1.015,0.323,1.352l3.06,2.484&#xD;&#xA;&#x9;&#x9;c0.416,0.338,0.827,0.966,0.914,1.398l1.762,8.74c0.087,0.431,0.021,1.13-0.145,1.55l-1.679,4.242&#xD;&#xA;&#x9;&#x9;c-0.167,0.421-0.188,1.114-0.047,1.538l1.771,5.327c0.142,0.425,0.072,1.107-0.156,1.517L4.622,59.78&#xD;&#xA;&#x9;&#x9;c-0.227,0.408-0.244,1.081-0.035,1.494l2.36,4.684c0.208,0.413,0.085,1.05-0.274,1.415l-1.397,1.421&#xD;&#xA;&#x9;&#x9;c-0.359,0.366-0.351,0.959,0.018,1.32l3.854,3.773c0.369,0.361,0.6,1.01,0.512,1.442l-1.138,5.647&#xD;&#xA;&#x9;&#x9;c-0.088,0.431,0.368,0.859,1.011,0.952L73.13,83.999z"/>
  <linearGradient id="SVGID_4_" gradientUnits="userSpaceOnUse" x1="112.3765" y1="0.0117" x2="112.3765" y2="86.4189">
    <stop offset="0.0429" style="stop-color:#000000;stop-opacity:0.45"/>
    <stop offset="0.0798" style="stop-color:#FFFFFF;stop-opacity:0.05"/>
    <stop offset="0.1288" style="stop-color:#000000;stop-opacity:0.25"/>
    <stop offset="0.1345" style="stop-color:#050505;stop-opacity:0.2398"/>
    <stop offset="0.1413" style="stop-color:#141414;stop-opacity:0.2274"/>
    <stop offset="0.1487" style="stop-color:#2D2D2D;stop-opacity:0.2139"/>
    <stop offset="0.1566" style="stop-color:#4F4F4F;stop-opacity:0.1996"/>
    <stop offset="0.1649" style="stop-color:#7B7B7B;stop-opacity:0.1847"/>
    <stop offset="0.1735" style="stop-color:#B1B1B1;stop-opacity:0.1692"/>
    <stop offset="0.1821" style="stop-color:#F0F0F0;stop-opacity:0.1535"/>
    <stop offset="0.184" style="stop-color:#FFFFFF;stop-opacity:0.15"/>
    <stop offset="0.1897" style="stop-color:#FBFBFB;stop-opacity:0.15"/>
    <stop offset="0.1951" style="stop-color:#F0F0F0;stop-opacity:0.15"/>
    <stop offset="0.2004" style="stop-color:#DCDCDC;stop-opacity:0.15"/>
    <stop offset="0.2057" style="stop-color:#C1C1C1;stop-opacity:0.15"/>
    <stop offset="0.211" style="stop-color:#9D9D9D;stop-opacity:0.15"/>
    <stop offset="0.2162" style="stop-color:#727272;stop-opacity:0.15"/>
    <stop offset="0.2215" style="stop-color:#3F3F3F;stop-opacity:0.15"/>
    <stop offset="0.2266" style="stop-color:#050505;stop-opacity:0.15"/>
    <stop offset="0.227" style="stop-color:#000000;stop-opacity:0.15"/>
    <stop offset="0.2417" style="stop-color:#030303;stop-opacity:0.15"/>
    <stop offset="0.2523" style="stop-color:#0C0C0C;stop-opacity:0.15"/>
    <stop offset="0.2616" style="stop-color:#1C1C1C;stop-opacity:0.15"/>
    <stop offset="0.2702" style="stop-color:#323232;stop-opacity:0.15"/>
    <stop offset="0.2782" style="stop-color:#4F4F4F;stop-opacity:0.15"/>
    <stop offset="0.286" style="stop-color:#737373;stop-opacity:0.15"/>
    <stop offset="0.2934" style="stop-color:#9D9D9D;stop-opacity:0.15"/>
    <stop offset="0.3003" style="stop-color:#CCCCCC;stop-opacity:0.15"/>
    <stop offset="0.3067" style="stop-color:#FFFFFF;stop-opacity:0.15"/>
    <stop offset="0.3359" style="stop-color:#FDFDFD;stop-opacity:0.1522"/>
    <stop offset="0.3476" style="stop-color:#F6F6F6;stop-opacity:0.1531"/>
    <stop offset="0.3562" style="stop-color:#EAEAEA;stop-opacity:0.1538"/>
    <stop offset="0.3632" style="stop-color:#D8D8D8;stop-opacity:0.1543"/>
    <stop offset="0.3693" style="stop-color:#C2C2C2;stop-opacity:0.1548"/>
    <stop offset="0.3748" style="stop-color:#A6A6A6;stop-opacity:0.1552"/>
    <stop offset="0.3797" style="stop-color:#848484;stop-opacity:0.1556"/>
    <stop offset="0.3843" style="stop-color:#5D5D5D;stop-opacity:0.1559"/>
    <stop offset="0.3885" style="stop-color:#333333;stop-opacity:0.1563"/>
    <stop offset="0.3924" style="stop-color:#040404;stop-opacity:0.1566"/>
    <stop offset="0.3926" style="stop-color:#000000;stop-opacity:0.1566"/>
    <stop offset="0.4261" style="stop-color:#020202;stop-opacity:0.136"/>
    <stop offset="0.4385" style="stop-color:#090909;stop-opacity:0.1284"/>
    <stop offset="0.4474" style="stop-color:#151515;stop-opacity:0.1229"/>
    <stop offset="0.4547" style="stop-color:#262626;stop-opacity:0.1184"/>
    <stop offset="0.4609" style="stop-color:#3C3C3C;stop-opacity:0.1146"/>
    <stop offset="0.4664" style="stop-color:#575757;stop-opacity:0.1112"/>
    <stop offset="0.4714" style="stop-color:#787878;stop-opacity:0.1082"/>
    <stop offset="0.476" style="stop-color:#9E9E9E;stop-opacity:0.1053"/>
    <stop offset="0.4803" style="stop-color:#C9C9C9;stop-opacity:0.1027"/>
    <stop offset="0.4841" style="stop-color:#F8F8F8;stop-opacity:0.1003"/>
    <stop offset="0.4847" style="stop-color:#FFFFFF;stop-opacity:0.1"/>
    <stop offset="0.5055" style="stop-color:#FDFDFD;stop-opacity:0.117"/>
    <stop offset="0.5138" style="stop-color:#F6F6F6;stop-opacity:0.1238"/>
    <stop offset="0.52" style="stop-color:#EAEAEA;stop-opacity:0.1288"/>
    <stop offset="0.525" style="stop-color:#D8D8D8;stop-opacity:0.1329"/>
    <stop offset="0.5294" style="stop-color:#C2C2C2;stop-opacity:0.1364"/>
    <stop offset="0.5333" style="stop-color:#A6A6A6;stop-opacity:0.1396"/>
    <stop offset="0.5368" style="stop-color:#848484;stop-opacity:0.1425"/>
    <stop offset="0.5401" style="stop-color:#5D5D5D;stop-opacity:0.1452"/>
    <stop offset="0.5431" style="stop-color:#333333;stop-opacity:0.1476"/>
    <stop offset="0.5458" style="stop-color:#040404;stop-opacity:0.1498"/>
    <stop offset="0.546" style="stop-color:#000000;stop-opacity:0.15"/>
    <stop offset="0.6566" style="stop-color:#000000;stop-opacity:0.2359"/>
    <stop offset="0.6748" style="stop-color:#000000;stop-opacity:0.25"/>
    <stop offset="0.6811" style="stop-color:#050505;stop-opacity:0.2398"/>
    <stop offset="0.6887" style="stop-color:#141414;stop-opacity:0.2274"/>
    <stop offset="0.697" style="stop-color:#2D2D2D;stop-opacity:0.2139"/>
    <stop offset="0.7057" style="stop-color:#4F4F4F;stop-opacity:0.1996"/>
    <stop offset="0.7149" style="stop-color:#7B7B7B;stop-opacity:0.1847"/>
    <stop offset="0.7244" style="stop-color:#B1B1B1;stop-opacity:0.1692"/>
    <stop offset="0.734" style="stop-color:#F0F0F0;stop-opacity:0.1535"/>
    <stop offset="0.7362" style="stop-color:#FFFFFF;stop-opacity:0.15"/>
    <stop offset="0.7526" style="stop-color:#FCFCFC;stop-opacity:0.1589"/>
    <stop offset="0.7648" style="stop-color:#F3F3F3;stop-opacity:0.1655"/>
    <stop offset="0.7756" style="stop-color:#E2E2E2;stop-opacity:0.1714"/>
    <stop offset="0.7856" style="stop-color:#CCCCCC;stop-opacity:0.1769"/>
    <stop offset="0.7951" style="stop-color:#AEAEAE;stop-opacity:0.182"/>
    <stop offset="0.8042" style="stop-color:#8A8A8A;stop-opacity:0.1869"/>
    <stop offset="0.8129" style="stop-color:#606060;stop-opacity:0.1917"/>
    <stop offset="0.8212" style="stop-color:#303030;stop-opacity:0.1962"/>
    <stop offset="0.8282" style="stop-color:#000000;stop-opacity:0.2"/>
    <stop offset="0.8579" style="stop-color:#020202;stop-opacity:0.1441"/>
    <stop offset="0.8686" style="stop-color:#090909;stop-opacity:0.124"/>
    <stop offset="0.8763" style="stop-color:#141414;stop-opacity:0.1096"/>
    <stop offset="0.8825" style="stop-color:#252525;stop-opacity:0.098"/>
    <stop offset="0.8877" style="stop-color:#3B3B3B;stop-opacity:0.0881"/>
    <stop offset="0.8924" style="stop-color:#575757;stop-opacity:0.0793"/>
    <stop offset="0.8967" style="stop-color:#777777;stop-opacity:0.0713"/>
    <stop offset="0.9006" style="stop-color:#9D9D9D;stop-opacity:0.064"/>
    <stop offset="0.9042" style="stop-color:#C8C8C8;stop-opacity:0.0572"/>
    <stop offset="0.9074" style="stop-color:#F6F6F6;stop-opacity:0.0511"/>
    <stop offset="0.908" style="stop-color:#FFFFFF;stop-opacity:0.05"/>
    <stop offset="0.9501" style="stop-color:#FFFFFF;stop-opacity:0.2647"/>
    <stop offset="0.9571" style="stop-color:#FFFFFF;stop-opacity:0.3"/>
  </linearGradient>
  <path fill="url(#SVGID_4_)" d="M149.865,61.281c0.28-0.413,0.109-1.031-0.382-1.374l-3.616-2.527&#xD;&#xA;&#x9;&#x9;c-0.491-0.343-0.977-0.983-1.08-1.422l-2.081-8.882c-0.103-0.439-0.025-1.148,0.172-1.576l1.983-4.311&#xD;&#xA;&#x9;&#x9;c0.197-0.428,0.223-1.132,0.055-1.564l-2.093-5.412c-0.168-0.433-0.083-1.125,0.186-1.541l4.178-6.452&#xD;&#xA;&#x9;&#x9;c0.269-0.416,0.287-1.098,0.042-1.518l-2.789-4.759c-0.246-0.42-0.1-1.067,0.324-1.438l1.649-1.444&#xD;&#xA;&#x9;&#x9;c0.424-0.371,0.414-0.975-0.021-1.342l-4.554-3.834c-0.435-0.366-0.707-1.025-0.604-1.463l1.343-7.344&#xD;&#xA;&#x9;&#x9;c0.104-0.438-0.436-0.87-1.197-0.959L75.648,0.067c-0.253-0.03-0.568-0.046-0.894-0.056v2.333c0.262,0.01,0.514,0.026,0.719,0.054&#xD;&#xA;&#x9;&#x9;l64.989,2.019c0.645,0.088,1.102,0.512,1.013,0.943l-1.136,5.579c-0.087,0.432,0.143,1.08,0.511,1.441l3.855,3.773&#xD;&#xA;&#x9;&#x9;c0.368,0.361,0.376,0.955,0.018,1.32l-1.396,1.421c-0.359,0.365-0.481,1.002-0.274,1.415l2.36,4.684&#xD;&#xA;&#x9;&#x9;c0.208,0.413,0.191,1.086-0.036,1.494l-3.536,6.35c-0.227,0.409-0.298,1.091-0.156,1.516l1.771,5.327&#xD;&#xA;&#x9;&#x9;c0.142,0.425,0.121,1.118-0.046,1.539l-1.68,4.244c-0.166,0.421-0.231,1.118-0.146,1.55l1.763,8.742&#xD;&#xA;&#x9;&#x9;c0.087,0.432,0.498,1.062,0.913,1.4l3.061,2.487c0.415,0.337,0.562,0.946,0.323,1.352l-4.537,7.742&#xD;&#xA;&#x9;&#x9;c-0.238,0.407-0.249,1.073-0.022,1.482l2.296,4.166c0.226,0.41,0.318,1.096,0.205,1.524l-1.252,4.796&#xD;&#xA;&#x9;&#x9;c-0.113,0.429-0.732,0.853-1.377,0.94l-67.483,2.362c-0.206,0.026-0.457,0.043-0.719,0.054v2.357&#xD;&#xA;&#x9;&#x9;c0.325-0.01,0.64-0.025,0.894-0.056l68.678-2.401c0.762-0.088,1.493-0.518,1.627-0.953l1.48-6.574&#xD;&#xA;&#x9;&#x9;c0.134-0.437,0.023-1.133-0.243-1.548l-2.713-4.232c-0.267-0.417-0.255-1.094,0.026-1.506L149.865,61.281z"/>
  <linearGradient id="SVGID_5_" gradientUnits="userSpaceOnUse" x1="37.3765" y1="86.4243" x2="37.3765" y2="0.0039">
    <stop offset="0.0245" style="stop-color:#FFFFFF;stop-opacity:0.3"/>
    <stop offset="0.0675" style="stop-color:#000000;stop-opacity:0.05"/>
    <stop offset="0.1288" style="stop-color:#FFFFFF;stop-opacity:0.25"/>
    <stop offset="0.1345" style="stop-color:#FAFAFA;stop-opacity:0.2398"/>
    <stop offset="0.1413" style="stop-color:#EBEBEB;stop-opacity:0.2274"/>
    <stop offset="0.1487" style="stop-color:#D2D2D2;stop-opacity:0.2139"/>
    <stop offset="0.1566" style="stop-color:#B0B0B0;stop-opacity:0.1996"/>
    <stop offset="0.1649" style="stop-color:#848484;stop-opacity:0.1847"/>
    <stop offset="0.1735" style="stop-color:#4E4E4E;stop-opacity:0.1692"/>
    <stop offset="0.1821" style="stop-color:#0F0F0F;stop-opacity:0.1535"/>
    <stop offset="0.184" style="stop-color:#000000;stop-opacity:0.15"/>
    <stop offset="0.1897" style="stop-color:#040404;stop-opacity:0.15"/>
    <stop offset="0.1951" style="stop-color:#0F0F0F;stop-opacity:0.15"/>
    <stop offset="0.2004" style="stop-color:#232323;stop-opacity:0.15"/>
    <stop offset="0.2057" style="stop-color:#3E3E3E;stop-opacity:0.15"/>
    <stop offset="0.211" style="stop-color:#626262;stop-opacity:0.15"/>
    <stop offset="0.2162" style="stop-color:#8D8D8D;stop-opacity:0.15"/>
    <stop offset="0.2215" style="stop-color:#C0C0C0;stop-opacity:0.15"/>
    <stop offset="0.2266" style="stop-color:#FAFAFA;stop-opacity:0.15"/>
    <stop offset="0.227" style="stop-color:#FFFFFF;stop-opacity:0.15"/>
    <stop offset="0.2417" style="stop-color:#FCFCFC;stop-opacity:0.15"/>
    <stop offset="0.2523" style="stop-color:#F3F3F3;stop-opacity:0.15"/>
    <stop offset="0.2616" style="stop-color:#E3E3E3;stop-opacity:0.15"/>
    <stop offset="0.2702" style="stop-color:#CDCDCD;stop-opacity:0.15"/>
    <stop offset="0.2782" style="stop-color:#B0B0B0;stop-opacity:0.15"/>
    <stop offset="0.286" style="stop-color:#8C8C8C;stop-opacity:0.15"/>
    <stop offset="0.2934" style="stop-color:#626262;stop-opacity:0.15"/>
    <stop offset="0.3003" style="stop-color:#333333;stop-opacity:0.15"/>
    <stop offset="0.3067" style="stop-color:#000000;stop-opacity:0.15"/>
    <stop offset="0.3359" style="stop-color:#020202;stop-opacity:0.1522"/>
    <stop offset="0.3476" style="stop-color:#090909;stop-opacity:0.1531"/>
    <stop offset="0.3562" style="stop-color:#151515;stop-opacity:0.1538"/>
    <stop offset="0.3632" style="stop-color:#272727;stop-opacity:0.1543"/>
    <stop offset="0.3693" style="stop-color:#3D3D3D;stop-opacity:0.1548"/>
    <stop offset="0.3748" style="stop-color:#595959;stop-opacity:0.1552"/>
    <stop offset="0.3797" style="stop-color:#7B7B7B;stop-opacity:0.1556"/>
    <stop offset="0.3843" style="stop-color:#A2A2A2;stop-opacity:0.1559"/>
    <stop offset="0.3885" style="stop-color:#CCCCCC;stop-opacity:0.1563"/>
    <stop offset="0.3924" style="stop-color:#FBFBFB;stop-opacity:0.1566"/>
    <stop offset="0.3926" style="stop-color:#FFFFFF;stop-opacity:0.1566"/>
    <stop offset="0.4261" style="stop-color:#FDFDFD;stop-opacity:0.136"/>
    <stop offset="0.4385" style="stop-color:#F6F6F6;stop-opacity:0.1284"/>
    <stop offset="0.4474" style="stop-color:#EAEAEA;stop-opacity:0.1229"/>
    <stop offset="0.4547" style="stop-color:#D9D9D9;stop-opacity:0.1184"/>
    <stop offset="0.4609" style="stop-color:#C3C3C3;stop-opacity:0.1146"/>
    <stop offset="0.4664" style="stop-color:#A8A8A8;stop-opacity:0.1112"/>
    <stop offset="0.4714" style="stop-color:#878787;stop-opacity:0.1082"/>
    <stop offset="0.476" style="stop-color:#616161;stop-opacity:0.1053"/>
    <stop offset="0.4803" style="stop-color:#353535;stop-opacity:0.1027"/>
    <stop offset="0.4841" style="stop-color:#070707;stop-opacity:0.1003"/>
    <stop offset="0.4847" style="stop-color:#000000;stop-opacity:0.1"/>
    <stop offset="0.5055" style="stop-color:#020202;stop-opacity:0.117"/>
    <stop offset="0.5138" style="stop-color:#090909;stop-opacity:0.1238"/>
    <stop offset="0.52" style="stop-color:#151515;stop-opacity:0.1288"/>
    <stop offset="0.525" style="stop-color:#272727;stop-opacity:0.1329"/>
    <stop offset="0.5294" style="stop-color:#3D3D3D;stop-opacity:0.1364"/>
    <stop offset="0.5333" style="stop-color:#595959;stop-opacity:0.1396"/>
    <stop offset="0.5368" style="stop-color:#7B7B7B;stop-opacity:0.1425"/>
    <stop offset="0.5401" style="stop-color:#A2A2A2;stop-opacity:0.1452"/>
    <stop offset="0.5431" style="stop-color:#CCCCCC;stop-opacity:0.1476"/>
    <stop offset="0.5458" style="stop-color:#FBFBFB;stop-opacity:0.1498"/>
    <stop offset="0.546" style="stop-color:#FFFFFF;stop-opacity:0.15"/>
    <stop offset="0.6566" style="stop-color:#FFFFFF;stop-opacity:0.2359"/>
    <stop offset="0.6748" style="stop-color:#FFFFFF;stop-opacity:0.25"/>
    <stop offset="0.6811" style="stop-color:#FAFAFA;stop-opacity:0.2398"/>
    <stop offset="0.6887" style="stop-color:#EBEBEB;stop-opacity:0.2274"/>
    <stop offset="0.697" style="stop-color:#D2D2D2;stop-opacity:0.2139"/>
    <stop offset="0.7057" style="stop-color:#B0B0B0;stop-opacity:0.1996"/>
    <stop offset="0.7149" style="stop-color:#848484;stop-opacity:0.1847"/>
    <stop offset="0.7244" style="stop-color:#4E4E4E;stop-opacity:0.1692"/>
    <stop offset="0.734" style="stop-color:#0F0F0F;stop-opacity:0.1535"/>
    <stop offset="0.7362" style="stop-color:#000000;stop-opacity:0.15"/>
    <stop offset="0.7526" style="stop-color:#030303;stop-opacity:0.1589"/>
    <stop offset="0.7648" style="stop-color:#0C0C0C;stop-opacity:0.1655"/>
    <stop offset="0.7756" style="stop-color:#1D1D1D;stop-opacity:0.1714"/>
    <stop offset="0.7856" style="stop-color:#333333;stop-opacity:0.1769"/>
    <stop offset="0.7951" style="stop-color:#515151;stop-opacity:0.182"/>
    <stop offset="0.8042" style="stop-color:#757575;stop-opacity:0.1869"/>
    <stop offset="0.8129" style="stop-color:#9F9F9F;stop-opacity:0.1917"/>
    <stop offset="0.8212" style="stop-color:#CFCFCF;stop-opacity:0.1962"/>
    <stop offset="0.8282" style="stop-color:#FFFFFF;stop-opacity:0.2"/>
    <stop offset="0.8579" style="stop-color:#FDFDFD;stop-opacity:0.1441"/>
    <stop offset="0.8686" style="stop-color:#F6F6F6;stop-opacity:0.124"/>
    <stop offset="0.8763" style="stop-color:#EBEBEB;stop-opacity:0.1096"/>
    <stop offset="0.8825" style="stop-color:#DADADA;stop-opacity:0.098"/>
    <stop offset="0.8877" style="stop-color:#C4C4C4;stop-opacity:0.0881"/>
    <stop offset="0.8924" style="stop-color:#A8A8A8;stop-opacity:0.0793"/>
    <stop offset="0.8967" style="stop-color:#888888;stop-opacity:0.0713"/>
    <stop offset="0.9006" style="stop-color:#626262;stop-opacity:0.064"/>
    <stop offset="0.9042" style="stop-color:#373737;stop-opacity:0.0572"/>
    <stop offset="0.9074" style="stop-color:#090909;stop-opacity:0.0511"/>
    <stop offset="0.908" style="stop-color:#000000;stop-opacity:0.05"/>
    <stop offset="0.9509" style="stop-color:#000000;stop-opacity:0.45"/>
  </linearGradient>
  <path fill="url(#SVGID_5_)" d="M73.13,83.999l-63.597-2.07c-0.644-0.093-1.099-0.521-1.011-0.952l1.138-5.647&#xD;&#xA;&#x9;&#x9;c0.087-0.432-0.144-1.081-0.512-1.442l-3.854-3.773c-0.369-0.361-0.377-0.955-0.018-1.32l1.397-1.421&#xD;&#xA;&#x9;&#x9;c0.359-0.365,0.482-1.002,0.274-1.415l-2.36-4.684c-0.208-0.413-0.192-1.086,0.035-1.494l3.536-6.349&#xD;&#xA;&#x9;&#x9;c0.228-0.409,0.298-1.091,0.156-1.517l-1.771-5.327c-0.141-0.424-0.121-1.117,0.047-1.538l1.679-4.242&#xD;&#xA;&#x9;&#x9;c0.167-0.42,0.232-1.119,0.145-1.55l-1.762-8.74c-0.087-0.432-0.498-1.061-0.914-1.398l-3.06-2.484&#xD;&#xA;&#x9;&#x9;c-0.416-0.337-0.561-0.946-0.323-1.352l4.537-7.734c0.239-0.405,0.248-1.072,0.022-1.482l-2.295-4.148&#xD;&#xA;&#x9;&#x9;c-0.226-0.409-0.319-1.095-0.206-1.524l1.252-4.763c0.113-0.43,0.733-0.852,1.377-0.938l66.085-2.295&#xD;&#xA;&#x9;&#x9;c0.44-0.059,1.065-0.076,1.627-0.053V0.012c-0.651-0.02-1.369-0.004-1.876,0.055L5.674,2.398C4.912,2.486,4.18,2.916,4.046,3.352&#xD;&#xA;&#x9;&#x9;l-1.48,6.515C2.433,10.304,2.543,11,2.81,11.416l2.711,4.215c0.267,0.416,0.255,1.093-0.026,1.505l-5.36,7.858&#xD;&#xA;&#x9;&#x9;c-0.282,0.413-0.11,1.03,0.381,1.373l3.615,2.524c0.492,0.343,0.978,0.982,1.081,1.421l2.081,8.88&#xD;&#xA;&#x9;&#x9;c0.104,0.439,0.026,1.148-0.171,1.576l-1.984,4.31c-0.197,0.427-0.222,1.131-0.054,1.563l2.093,5.412&#xD;&#xA;&#x9;&#x9;c0.167,0.433,0.084,1.126-0.185,1.541l-4.178,6.452c-0.269,0.415-0.288,1.099-0.042,1.518l2.788,4.758&#xD;&#xA;&#x9;&#x9;c0.246,0.42,0.101,1.067-0.323,1.438l-1.65,1.445c-0.424,0.371-0.415,0.974,0.021,1.34l4.555,3.835&#xD;&#xA;&#x9;&#x9;c0.436,0.366,0.708,1.024,0.604,1.463l-1.344,7.438c-0.103,0.439,0.435,0.874,1.195,0.967l64.263,2.105&#xD;&#xA;&#x9;&#x9;c0.507,0.063,1.224,0.08,1.874,0.063v-2.357C74.194,84.08,73.569,84.062,73.13,83.999z"/>
</svg>