<svg version="1.2" baseProfile="tiny" viewBox="0 0 163.753 285.0" xmlns:xlink="http://www.w3.org/1999/xlink" xmlns="http://www.w3.org/2000/svg">
<path style="fill:#ffffff;" d="M156.728,212.393L156.728,212.393c5.372-4.561,4.99-8.454,4.99-8.454V76.198    c0-5.963-6.085-7.666-11.984-8.15v-3.324V47.354h0.159v-2.225h3.615v2.225h0.973h2.224h0.974v-2.225h3.812V36.23h-3.812v-2.225    h-0.974h-2.224h-0.973v2.225h-3.615v-2.225h-0.42c-1.054-5.563-5.273-9.939-11.438-13.121l1.438-5.308l1.78,0.482l0.624-2.303    l-0.014-0.004l0.001-0.003l-2.384-0.643c0,0-4.184-5.487-19.928-9.892c-15.736-4.402-21.884-1.434-21.891-1.43l-0.4-0.108    l-2.397-0.652l-0.313,1.152l0.013,0.003l-0.312,1.155l2.049,0.555l-2.884,10.651H56.663c-21.325,0-40.924,6.522-43.375,19.466    h-0.494v2.225H9.735v-2.225H8.762H6.537H5.563v2.225H2.265v8.898h3.299v2.225h0.974h2.225h0.974v-2.225h3.615v2.225h0.465v17.371    v3.324c-5.899,0.485-11.983,2.188-11.983,8.15v127.741c0,0-0.377,3.835,4.872,8.354v0l0.002,0.001    c-0.001,0-0.001-0.001-0.002-0.001v70.791H0.778v1.113h24.773v-1.113h-6.2v-63.968l-0.003-0.001c0.001,0,0.002,0,0.003,0.001v0    c10.8,3.889,28.242,7.103,56.416,7.502v56.466h-4.783v1.113h20.069v-1.113h-5.04v-56.446c29.113-0.288,47.039-3.531,58.072-7.482    l-0.007,0.003v63.925h-5.924v1.113h24.773v-1.113h-6.201V212.393 M13.027,36.786v-0.367h0.017    C13.041,36.542,13.027,36.662,13.027,36.786z M149.733,36.419v0.367c0-0.124-0.014-0.244-0.017-0.367H149.733z"/>
</svg>