<svg version="1.2" baseProfile="tiny" viewBox="0 0 150.0 86.427" xmlns:xlink="http://www.w3.org/1999/xlink" xmlns="http://www.w3.org/2000/svg">
<path style="fill:#ffffff;" d="M72.8805,86.3553C73.641,86.4477,74.886,86.4521,75.648,86.363L144.3255,83.9621C145.0875,83.8739,145.8195,83.4444,145.953,83.0088L147.4335,76.4352C147.567,75.9979,147.456,75.3021,147.1905,74.8873L144.477,70.6549C144.21,70.2384,144.222,69.5608,144.5025,69.1494L149.8635,61.2828C150.144,60.8697,149.973,60.2517,149.4825,59.9086L145.866,57.3823C145.3755,57.0392,144.8895,56.3988,144.786,55.9598L142.7055,47.0777C142.602,46.6386,142.68,45.9299,142.8765,45.5021L144.8595,41.1911C145.0575,40.7633,145.083,40.0589,144.915,39.6268L142.8225,34.2147C142.6545,33.7817,142.7385,33.0903,143.0085,32.6737L147.186,26.222C147.4545,25.8062,147.4725,25.1243,147.228,24.7043L144.4395,19.9448C144.1935,19.5247,144.339,18.8783,144.7635,18.5066L146.412,17.0633C146.8365,16.6916,146.826,16.0884,146.391,15.7211L141.837,11.8872C141.402,11.5207,141.1305,10.8621,141.2325,10.424L142.5765,3.0803C142.68,2.6421,142.14,2.2099,141.3795,2.1209L75.648,0.0674C74.886,-0.0216,73.6395,-0.0216,72.8775,0.0657L5.6745,2.3983C4.9125,2.4856,4.1805,2.916,4.0455,3.3516L2.5665,9.8674C2.433,10.3038,2.5425,11.0004,2.8095,11.4161L5.5215,15.6312C5.7885,16.0469,5.7765,16.7236,5.4945,17.1359L0.135,24.9938C-0.147,25.4069,0.0255,26.024,0.516,26.3671L4.131,28.8908C4.623,29.2339,5.109,29.8726,5.2125,30.3117L7.293,39.1921C7.3965,39.6311,7.3185,40.3398,7.122,40.7676L5.1375,45.0777C4.941,45.5047,4.9155,46.2091,5.0835,46.6412L7.1775,52.0533C7.344,52.4863,7.2615,53.1794,6.9915,53.5942L2.814,60.046C2.5455,60.4609,2.526,61.1454,2.772,61.5637L5.5605,66.3223C5.8065,66.7424,5.661,67.3889,5.2365,67.7596L3.5865,69.2047C3.1635,69.5763,3.1725,70.1787,3.6075,70.5452L8.163,74.3799C8.5995,74.7464,8.871,75.4041,8.7675,75.8431L7.4235,83.2811C7.32,83.7201,7.8585,84.1548,8.6175,84.2482L72.8805,86.3553Z"/>
</svg>