<svg version="1.2" baseProfile="tiny" viewBox="0 0 57.107 150.0" xmlns:xlink="http://www.w3.org/1999/xlink" xmlns="http://www.w3.org/2000/svg">
<path style="fill:#ffffff;" d="M28.5541,150.0C27.9327,150.0,27.0122,149.9175,26.155,149.529L10.992,142.6365C9.4878,141.9525,8.2731,140.1945,8.1669,138.5445L0.0080,11.8125C-0.1102,9.9705,1.129,8.166,2.8908,7.6155L26.2829,0.306C27.091,0.0525,27.9642,0.0,28.5541,0.0C29.144,0.0,30.016,0.0525,30.8252,0.3045L54.2191,7.6155C55.9803,8.166,57.2189,9.9705,57.1007,11.8125L48.9418,138.5445C48.8362,140.1945,47.621,141.9525,46.1162,142.6365L30.9548,149.5305C30.096,149.9175,29.1748,150.0,28.5541,150.0Z"/>
</svg>