<svg version="1.2" baseProfile="tiny" viewBox="0 0 47.597 147.629" xmlns:xlink="http://www.w3.org/1999/xlink" xmlns="http://www.w3.org/2000/svg">
<path style="fill:#ffffff;" d="M22.382,147.5c0.662,0.166,1.744,0.173,2.407,0.014l17.874-4.267   c0.662-0.157,1.299-0.921,1.415-1.696l1.288-8.664c0.116-0.774,0.02-2.014-0.211-2.752l-2.359-7.523   c-0.232-0.739-0.222-1.943,0.023-2.678l4.662-13.982c0.244-0.733,0.095-1.833-0.333-2.443l-3.144-4.491   c-0.427-0.61-0.85-1.748-0.939-2.528L41.254,80.7c-0.089-0.78-0.022-2.041,0.149-2.801l1.726-7.663   c0.171-0.761,0.192-2.012,0.047-2.78l-1.82-9.622c-0.146-0.768-0.073-2,0.161-2.738l3.634-11.469   c0.233-0.738,0.25-1.953,0.036-2.699l-2.424-8.459c-0.214-0.746-0.087-1.896,0.281-2.555l1.435-2.568   c0.369-0.659,0.36-1.732-0.019-2.384l-3.96-6.816c-0.379-0.651-0.614-1.823-0.524-2.603L41.141,5.47   c0.09-0.78-0.378-1.546-1.041-1.705L24.789,0.119C24.126-0.04,23.042-0.04,22.38,0.118L4.934,4.263   C4.271,4.42,3.634,5.183,3.519,5.958L2.231,14.56c-0.116,0.775-0.02,2.014,0.212,2.752l2.357,7.493   c0.232,0.739,0.223,1.943-0.022,2.676L0.117,41.45c-0.244,0.733-0.095,1.832,0.333,2.441l3.143,4.486   c0.427,0.609,0.85,1.746,0.939,2.526l1.811,15.786c0.089,0.78,0.022,2.04-0.149,2.801l-1.726,7.662   c-0.172,0.761-0.193,2.011-0.048,2.778l1.82,9.621c0.146,0.768,0.073,2.001-0.161,2.738l-3.633,11.468   c-0.233,0.737-0.25,1.953-0.036,2.698l2.424,8.459c0.213,0.746,0.087,1.896-0.282,2.555l-1.435,2.568   c-0.369,0.66-0.36,1.732,0.019,2.385l3.96,6.814c0.379,0.652,0.616,1.824,0.526,2.604l-1.169,10.199   c-0.09,0.779,0.378,1.553,1.039,1.72L22.382,147.5z"/>
</svg>