<svg version="1.2" baseProfile="tiny" viewBox="0 0 133.477 218.819" xmlns:xlink="http://www.w3.org/1999/xlink" xmlns="http://www.w3.org/2000/svg">
<path style="fill:#ffffff;" d="M0,207.604c0-2.601,0.06-175.291,0.06-175.291   c2.521-12.69,22.606-18.371,41.808-18.371h37.47c0,0,2.785-10.159,3.8-12.723c0.58-1.466,10.436-2.217,22.621,1.34   c13.528,3.95,18.222,9.31,18.222,9.31c-0.605,2.82-1.827,7.694-1.827,7.694c6.195,3.199,10.359,7.882,11.324,12.762   c0,0-0.056,173.562-0.028,174.95c0.016,0.765,0.024-0.248-0.007,0.646c0,0-0.244,0.837-2.396,2.057l-1.787,0.878   c-11.181,4.074-30.264,7.962-62.401,7.962c-31.109,0-49.758-3.641-61.059-7.571c-0.423-0.146-5.311-2.228-5.798-3.324"/>
</svg>