<svg version="1.2" baseProfile="tiny" id="EdgeSVG_a6UXf" x="0px" y="0px" width="61.174px" height="150px" viewBox="0 0 61.174 150" xmlns:xlink="http://www.w3.org/1999/xlink" xmlns="http://www.w3.org/2000/svg">
  <linearGradient id="SVGID_2_" gradientUnits="userSpaceOnUse" x1="2.1797" y1="75" x2="58.9946" y2="75">
    <stop offset="0" style="stop-color:#000000;stop-opacity:0.35"/>
    <stop offset="0.0463" style="stop-color:#000000;stop-opacity:0.3175"/>
    <stop offset="0.4977" style="stop-color:#000000;stop-opacity:0"/>
    <stop offset="1" style="stop-color:#000000;stop-opacity:0.35"/>
  </linearGradient>
  <path fill="url(#SVGID_2_)" d="M2.911,135.844c-0.402-1.681-0.731-6.133-0.731-9.886V24.046c0-3.758,0.329-8.204,0.731-9.883&#xD;&#xA;&#x9;&#x9;c0,0,5.29-11.983,27.675-11.983c22.384,0,27.675,11.983,27.675,11.983c0.402,1.679,0.733,6.125,0.733,9.883v101.912&#xD;&#xA;&#x9;&#x9;c0,3.753-0.331,8.205-0.733,9.886c0,0-5.291,11.977-27.675,11.977C8.201,147.82,2.911,135.844,2.911,135.844z"/>
  <linearGradient id="SVGID_3_" gradientUnits="userSpaceOnUse" x1="30.5874" y1="147.8203" x2="30.5874" y2="2.1797">
    <stop offset="0.0181" style="stop-color:#000000;stop-opacity:0.35"/>
    <stop offset="0.681" style="stop-color:#000000;stop-opacity:0.03"/>
    <stop offset="1" style="stop-color:#000000;stop-opacity:0.2"/>
  </linearGradient>
  <path fill="url(#SVGID_3_)" d="M2.911,135.844c-0.402-1.681-0.731-6.133-0.731-9.886V24.046c0-3.758,0.329-8.204,0.731-9.883&#xD;&#xA;&#x9;&#x9;c0,0,5.29-11.983,27.675-11.983c22.384,0,27.675,11.983,27.675,11.983c0.402,1.679,0.733,6.125,0.733,9.883v101.912&#xD;&#xA;&#x9;&#x9;c0,3.753-0.331,8.205-0.733,9.886c0,0-5.291,11.977-27.675,11.977C8.201,147.82,2.911,135.844,2.911,135.844z"/>
  <linearGradient id="SVGID_4_" gradientUnits="userSpaceOnUse" x1="30.5874" y1="0" x2="30.5874" y2="150.0005">
    <stop offset="0.0491" style="stop-color:#000000;stop-opacity:0.55"/>
    <stop offset="0.1166" style="stop-color:#000000;stop-opacity:0.3"/>
    <stop offset="0.8957" style="stop-color:#000000;stop-opacity:0.2"/>
    <stop offset="0.9448" style="stop-color:#FFFFFF;stop-opacity:0.3"/>
  </linearGradient>
  <path fill="url(#SVGID_4_)" d="M60.381,13.655l-0.046-0.192l-0.08-0.181C60.016,12.74,54.12,0,30.586,0&#xD;&#xA;&#x9;&#x9;C7.052,0,1.157,12.741,0.917,13.282l-0.08,0.181l-0.046,0.191C0.296,15.723,0,20.562,0,24.046v101.912&#xD;&#xA;&#x9;&#x9;c0,3.484,0.296,8.325,0.792,10.395l0.046,0.191l0.08,0.181C1.157,137.268,7.052,150,30.586,150&#xD;&#xA;&#x9;&#x9;c23.533,0,29.429-12.732,29.668-13.275l0.08-0.181l0.046-0.193c0.497-2.074,0.793-6.913,0.793-10.393V24.046&#xD;&#xA;&#x9;&#x9;C61.174,20.567,60.878,15.729,60.381,13.655z M58.995,125.958c0,3.753-0.331,8.205-0.733,9.886c0,0-5.291,11.977-27.675,11.977&#xD;&#xA;&#x9;&#x9;c-22.385,0-27.675-11.977-27.675-11.977c-0.402-1.681-0.731-6.133-0.731-9.886V24.046c0-3.758,0.329-8.204,0.731-9.883&#xD;&#xA;&#x9;&#x9;c0,0,5.29-11.983,27.675-11.983c22.384,0,27.675,11.983,27.675,11.983c0.402,1.679,0.733,6.125,0.733,9.883V125.958z"/>
</svg>