<svg version="1.2" baseProfile="tiny" id="EdgeSVG_SUgtx" x="0px" y="0px" width="57.107px" height="150px" viewBox="0 0 57.107 150" xmlns:xlink="http://www.w3.org/1999/xlink" xmlns="http://www.w3.org/2000/svg">
  <linearGradient id="SVGID_2_" gradientUnits="userSpaceOnUse" x1="28.5537" y1="0" x2="28.5537" y2="150.0005">
    <stop offset="0.0491" style="stop-color:#000000;stop-opacity:0.55"/>
    <stop offset="0.1166" style="stop-color:#000000;stop-opacity:0.3"/>
    <stop offset="0.8957" style="stop-color:#000000;stop-opacity:0.2"/>
    <stop offset="0.9448" style="stop-color:#FFFFFF;stop-opacity:0.3"/>
  </linearGradient>
  <path fill="url(#SVGID_2_)" d="M54.218,7.616L30.824,0.305C30.016,0.053,29.144,0,28.554,0s-1.462,0.053-2.271,0.306L2.891,7.616&#xD;&#xA;&#x9;&#x9;C1.129,8.166-0.11,9.97,0.008,11.812l8.159,126.733c0.106,1.649,1.321,3.408,2.825,4.092l15.163,6.893&#xD;&#xA;&#x9;&#x9;c0.857,0.389,1.778,0.471,2.399,0.471s1.542-0.082,2.4-0.471l15.161-6.893c1.505-0.684,2.72-2.442,2.826-4.092L57.1,11.812&#xD;&#xA;&#x9;&#x9;C57.218,9.97,55.979,8.166,54.218,7.616z M47.132,138.428c-0.064,0.995-0.859,2.146-1.767,2.559l-15.162,6.893&#xD;&#xA;&#x9;&#x9;c-0.907,0.412-2.393,0.412-3.3,0l-15.162-6.893c-0.908-0.412-1.703-1.563-1.767-2.559L1.817,11.696&#xD;&#xA;&#x9;&#x9;c-0.064-0.995,0.662-2.053,1.614-2.35l23.393-7.311c0.952-0.297,2.508-0.297,3.46,0l23.393,7.311&#xD;&#xA;&#x9;&#x9;c0.952,0.297,1.678,1.354,1.614,2.35L47.132,138.428z"/>
  <linearGradient id="SVGID_3_" gradientUnits="userSpaceOnUse" x1="28.5537" y1="148.1875" x2="28.5537" y2="1.813">
    <stop offset="0.0181" style="stop-color:#000000;stop-opacity:0.35"/>
    <stop offset="0.681" style="stop-color:#000000;stop-opacity:0.03"/>
    <stop offset="1" style="stop-color:#000000;stop-opacity:0.2"/>
  </linearGradient>
  <path fill="url(#SVGID_3_)" d="M47.132,138.428c-0.064,0.995-0.859,2.146-1.767,2.559l-15.162,6.893&#xD;&#xA;&#x9;&#x9;c-0.907,0.411-2.393,0.411-3.3,0l-15.162-6.893c-0.908-0.412-1.703-1.563-1.767-2.559L1.817,11.696&#xD;&#xA;&#x9;&#x9;c-0.064-0.995,0.662-2.053,1.614-2.35l23.393-7.311c0.952-0.297,2.508-0.297,3.46,0l23.393,7.311&#xD;&#xA;&#x9;&#x9;c0.952,0.297,1.678,1.354,1.614,2.35L47.132,138.428z"/>
  <linearGradient id="SVGID_4_" gradientUnits="userSpaceOnUse" x1="1.813" y1="75" x2="55.2944" y2="75">
    <stop offset="0" style="stop-color:#000000;stop-opacity:0.35"/>
    <stop offset="0.0463" style="stop-color:#000000;stop-opacity:0.3175"/>
    <stop offset="0.4977" style="stop-color:#000000;stop-opacity:0"/>
    <stop offset="1" style="stop-color:#000000;stop-opacity:0.35"/>
  </linearGradient>
  <path fill="url(#SVGID_4_)" d="M47.132,138.428c-0.064,0.995-0.859,2.146-1.767,2.559l-15.162,6.893&#xD;&#xA;&#x9;&#x9;c-0.907,0.411-2.393,0.411-3.3,0l-15.162-6.893c-0.908-0.412-1.703-1.563-1.767-2.559L1.817,11.696&#xD;&#xA;&#x9;&#x9;c-0.064-0.995,0.662-2.053,1.614-2.35l23.393-7.311c0.952-0.297,2.508-0.297,3.46,0l23.393,7.311&#xD;&#xA;&#x9;&#x9;c0.952,0.297,1.678,1.354,1.614,2.35L47.132,138.428z"/>
</svg>