<svg version="1.2" baseProfile="tiny" viewBox="0 0 162.577 240.0" xmlns:xlink="http://www.w3.org/1999/xlink" xmlns="http://www.w3.org/2000/svg">
<path style="fill:#ffffff;" d="M149.5627,68.5368L149.5627,47.7456L149.7204,47.7456L149.7204,45.5088L153.3524,45.5088L153.3524,47.7456L154.3295,47.7456L156.5649,47.7456L157.5436,47.7456L157.5436,45.5088L161.3723,45.5088L161.3723,36.5712L157.5436,36.5712L157.5436,34.3344L156.5649,34.3344L154.3295,34.3344L153.3524,34.3344L153.3524,36.5712L149.7204,36.5712L149.7204,34.3344L149.2993,34.3344C148.241,28.7472,144.0026,24.3504,137.8084,21.1536L139.2521,15.8208L141.0404,16.3056L141.6663,13.9896L141.6533,13.9872L141.655,13.9848L139.2586,13.3368C139.2586,13.3368,135.0576,7.8264,119.2389,3.4008C103.4217,-1.0248,97.2471,1.9632,97.2471,1.9632L94.4377,1.2L94.1239,2.3568L94.1386,2.3592L93.8248,3.5208L95.883,4.0776L92.9875,14.7768L56.0614,14.7768L56.0614,14.7768C34.6387,14.7768,14.949,21.3288,12.4875,34.332L11.9901,34.332L11.9901,36.5688L11.9901,36.5688L8.9173,36.5688L8.9173,34.332L8.9173,34.332L7.9386,34.332L7.9386,34.332L5.7032,34.332L5.7032,34.332L4.7277,34.332L4.7277,36.5688L4.7277,36.5688L1.4112,36.5688L1.4112,45.5088L1.4112,45.5088L4.7261,45.5088L4.7261,47.7432L5.7032,47.7432L7.9386,47.7432L8.9173,47.7432L8.9173,45.5088L12.5493,45.5088L12.5493,47.7456L13.0175,47.7456L13.0175,68.5368C7.09,69.0216,0.9787,70.7328,0.9787,76.7232L0.9787,191.5632C0.9787,197.5512,7.09,199.2624,13.0159,199.7496L13.0159,216.228C13.0159,216.228,12.6973,220.008,17.0462,224.4912C17.0462,224.4912,22.0048,229.0968,29.7532,232.1904C39.781,236.196,53.1952,238.5576,75.2536,238.9968L85.548,239.0232C108.5201,238.7064,123.2594,235.8408,132.7067,232.236C132.7067,232.236,140.5722,229.6968,145.4137,224.7504C149.5611,220.512,149.5611,216.228,149.5611,216.228L149.5611,199.7496C155.4886,199.2624,161.5983,197.5536,161.5983,191.5632L161.5983,76.7232C161.5999,70.7328,155.487,69.0216,149.5627,68.5368Z"/>
</svg>