<svg version="1.2" baseProfile="tiny" viewBox="0 0 132.958 218.689" xmlns:xlink="http://www.w3.org/1999/xlink" xmlns="http://www.w3.org/2000/svg">
<path style="fill:#ffffff;" d="M0,207.593c0-2.601,0.06-175.291,0.06-175.291   c2.521-12.69,22.088-18.489,41.289-18.489h37.47c0,0,2.785-10.159,3.8-12.723c0.58-1.466,10.346-1.917,22.531,1.641   c13.528,3.95,18.312,9.491,18.312,9.491c-0.605,2.82-1.827,7.213-1.827,7.213c6.195,3.199,10.359,7.882,11.324,12.762   c0,0-0.056,173.562-0.028,174.95c0.016,0.765,0.024-0.248-0.007,0.646c0,0-0.244,0.837-2.396,2.057l-1.787,0.878   c-11.181,4.074-30.264,7.962-62.401,7.962c-31.109,0-49.758-3.641-61.059-7.571c-0.423-0.146-4.792-2.109-5.279-3.206"/>
</svg>