<svg version="1.2" baseProfile="tiny" id="EdgeSVG_EUvbY" x="0px" y="0px" width="15.77px" height="67.834px" viewBox="0 0 15.77 67.834" xmlns:xlink="http://www.w3.org/1999/xlink" xmlns="http://www.w3.org/2000/svg">
  <g>
    <line fill="none" stroke="#333333" stroke-width="0.3572" stroke-linecap="round" stroke-miterlimit="10" x1="8.121" y1="64.61" x2="9.306" y2="64.61"/>
    <line fill="none" stroke="#333333" stroke-width="0.3572" stroke-linecap="round" stroke-miterlimit="10" x1="8.121" y1="57.825" x2="9.306" y2="57.825"/>
    <line fill="none" stroke="#333333" stroke-width="0.3572" stroke-linecap="round" stroke-miterlimit="10" x1="8.487" y1="63.254" x2="9.306" y2="63.254"/>
    <line fill="none" stroke="#333333" stroke-width="0.3572" stroke-linecap="round" stroke-miterlimit="10" x1="8.487" y1="61.896" x2="9.306" y2="61.896"/>
    <line fill="none" stroke="#333333" stroke-width="0.3572" stroke-linecap="round" stroke-miterlimit="10" x1="8.487" y1="60.54" x2="9.306" y2="60.54"/>
    <line fill="none" stroke="#333333" stroke-width="0.3572" stroke-linecap="round" stroke-miterlimit="10" x1="8.487" y1="59.182" x2="9.306" y2="59.182"/>
    <line fill="none" stroke="#333333" stroke-width="0.3572" stroke-linecap="round" stroke-miterlimit="10" x1="8.121" y1="51.041" x2="9.306" y2="51.041"/>
    <line fill="none" stroke="#333333" stroke-width="0.3572" stroke-linecap="round" stroke-miterlimit="10" x1="8.487" y1="56.469" x2="9.306" y2="56.469"/>
    <line fill="none" stroke="#333333" stroke-width="0.3572" stroke-linecap="round" stroke-miterlimit="10" x1="8.487" y1="55.111" x2="9.306" y2="55.111"/>
    <line fill="none" stroke="#333333" stroke-width="0.3572" stroke-linecap="round" stroke-miterlimit="10" x1="8.487" y1="53.754" x2="9.306" y2="53.754"/>
    <line fill="none" stroke="#333333" stroke-width="0.3572" stroke-linecap="round" stroke-miterlimit="10" x1="8.487" y1="52.397" x2="9.306" y2="52.397"/>
    <line fill="none" stroke="#333333" stroke-width="0.3572" stroke-linecap="round" stroke-miterlimit="10" x1="8.121" y1="44.254" x2="9.306" y2="44.254"/>
    <line fill="none" stroke="#333333" stroke-width="0.3572" stroke-linecap="round" stroke-miterlimit="10" x1="8.487" y1="49.683" x2="9.306" y2="49.683"/>
    <line fill="none" stroke="#333333" stroke-width="0.3572" stroke-linecap="round" stroke-miterlimit="10" x1="8.487" y1="48.325" x2="9.306" y2="48.325"/>
    <line fill="none" stroke="#333333" stroke-width="0.3572" stroke-linecap="round" stroke-miterlimit="10" x1="8.487" y1="46.968" x2="9.306" y2="46.968"/>
    <line fill="none" stroke="#333333" stroke-width="0.3572" stroke-linecap="round" stroke-miterlimit="10" x1="8.487" y1="45.612" x2="9.306" y2="45.612"/>
    <line fill="none" stroke="#333333" stroke-width="0.3572" stroke-linecap="round" stroke-miterlimit="10" x1="8.121" y1="37.469" x2="9.306" y2="37.469"/>
    <line fill="none" stroke="#333333" stroke-width="0.3572" stroke-linecap="round" stroke-miterlimit="10" x1="8.487" y1="42.898" x2="9.306" y2="42.898"/>
    <line fill="none" stroke="#333333" stroke-width="0.3572" stroke-linecap="round" stroke-miterlimit="10" x1="8.487" y1="41.541" x2="9.306" y2="41.541"/>
    <line fill="none" stroke="#333333" stroke-width="0.3572" stroke-linecap="round" stroke-miterlimit="10" x1="8.487" y1="40.183" x2="9.306" y2="40.183"/>
    <line fill="none" stroke="#333333" stroke-width="0.3572" stroke-linecap="round" stroke-miterlimit="10" x1="8.487" y1="38.826" x2="9.306" y2="38.826"/>
    <line fill="none" stroke="#333333" stroke-width="0.3572" stroke-linecap="round" stroke-miterlimit="10" x1="8.121" y1="30.683" x2="9.306" y2="30.683"/>
    <line fill="none" stroke="#333333" stroke-width="0.3572" stroke-linecap="round" stroke-miterlimit="10" x1="8.487" y1="36.112" x2="9.306" y2="36.112"/>
    <line fill="none" stroke="#333333" stroke-width="0.3572" stroke-linecap="round" stroke-miterlimit="10" x1="8.487" y1="34.755" x2="9.306" y2="34.755"/>
    <line fill="none" stroke="#333333" stroke-width="0.3572" stroke-linecap="round" stroke-miterlimit="10" x1="8.487" y1="33.397" x2="9.306" y2="33.397"/>
    <line fill="none" stroke="#333333" stroke-width="0.3572" stroke-linecap="round" stroke-miterlimit="10" x1="8.487" y1="32.041" x2="9.306" y2="32.041"/>
    <line fill="none" stroke="#333333" stroke-width="0.3572" stroke-linecap="round" stroke-miterlimit="10" x1="8.121" y1="23.898" x2="9.306" y2="23.898"/>
    <line fill="none" stroke="#333333" stroke-width="0.3572" stroke-linecap="round" stroke-miterlimit="10" x1="8.487" y1="29.327" x2="9.306" y2="29.327"/>
    <line fill="none" stroke="#333333" stroke-width="0.3572" stroke-linecap="round" stroke-miterlimit="10" x1="8.487" y1="27.969" x2="9.306" y2="27.969"/>
    <line fill="none" stroke="#333333" stroke-width="0.3572" stroke-linecap="round" stroke-miterlimit="10" x1="8.487" y1="26.612" x2="9.306" y2="26.612"/>
    <line fill="none" stroke="#333333" stroke-width="0.3572" stroke-linecap="round" stroke-miterlimit="10" x1="8.487" y1="25.256" x2="9.306" y2="25.256"/>
    <line fill="none" stroke="#333333" stroke-width="0.3572" stroke-linecap="round" stroke-miterlimit="10" x1="8.121" y1="17.112" x2="9.306" y2="17.112"/>
    <line fill="none" stroke="#333333" stroke-width="0.3572" stroke-linecap="round" stroke-miterlimit="10" x1="8.487" y1="22.541" x2="9.306" y2="22.541"/>
    <line fill="none" stroke="#333333" stroke-width="0.3572" stroke-linecap="round" stroke-miterlimit="10" x1="8.487" y1="21.184" x2="9.306" y2="21.184"/>
    <line fill="none" stroke="#333333" stroke-width="0.3572" stroke-linecap="round" stroke-miterlimit="10" x1="8.487" y1="19.827" x2="9.306" y2="19.827"/>
    <line fill="none" stroke="#333333" stroke-width="0.3572" stroke-linecap="round" stroke-miterlimit="10" x1="8.487" y1="18.47" x2="9.306" y2="18.47"/>
    <line fill="none" stroke="#333333" stroke-width="0.3572" stroke-linecap="round" stroke-miterlimit="10" x1="8.121" y1="10.328" x2="9.306" y2="10.328"/>
    <line fill="none" stroke="#333333" stroke-width="0.3572" stroke-linecap="round" stroke-miterlimit="10" x1="8.487" y1="15.756" x2="9.306" y2="15.756"/>
    <line fill="none" stroke="#333333" stroke-width="0.3572" stroke-linecap="round" stroke-miterlimit="10" x1="8.487" y1="14.398" x2="9.306" y2="14.398"/>
    <line fill="none" stroke="#333333" stroke-width="0.3572" stroke-linecap="round" stroke-miterlimit="10" x1="8.487" y1="13.042" x2="9.306" y2="13.042"/>
    <line fill="none" stroke="#333333" stroke-width="0.3572" stroke-linecap="round" stroke-miterlimit="10" x1="8.487" y1="11.686" x2="9.306" y2="11.686"/>
    <line fill="none" stroke="#333333" stroke-width="0.3572" stroke-linecap="round" stroke-miterlimit="10" x1="8.121" y1="3.542" x2="9.306" y2="3.542"/>
    <line fill="none" stroke="#333333" stroke-width="0.3572" stroke-linecap="round" stroke-miterlimit="10" x1="8.487" y1="8.971" x2="9.306" y2="8.971"/>
    <line fill="none" stroke="#333333" stroke-width="0.3572" stroke-linecap="round" stroke-miterlimit="10" x1="8.487" y1="7.614" x2="9.306" y2="7.614"/>
    <line fill="none" stroke="#333333" stroke-width="0.3572" stroke-linecap="round" stroke-miterlimit="10" x1="8.487" y1="6.257" x2="9.306" y2="6.257"/>
    <line fill="none" stroke="#333333" stroke-width="0.3572" stroke-linecap="round" stroke-miterlimit="10" x1="8.487" y1="4.899" x2="9.306" y2="4.899"/>
  </g>
</svg>