<svg version="1.2" baseProfile="tiny" viewBox="0 0 18.000 18.000" xmlns:xlink="http://www.w3.org/1999/xlink" xmlns="http://www.w3.org/2000/svg">
<path style="fill:#ffffff;" d="M18,16.746v0.627C18,17.721,17.408,18,16.693,18H1.307C0.593,18,0,17.432,0,16.746V1.254   C0,0.568,0.291,0,0.653,0h0.653v16.746H18z M15.399,7.519l-2.202,1.695c-0.06,0.045-0.12,0.081-0.182,0.126l-0.834,0.65   l-1.221-0.244c-0.026,0-0.038-0.011-0.062-0.011L8.613,9.259H8.576L7.342,9.003l-0.653,1.01c-0.012,0.012-0.024,0.035-0.036,0.046   l-2.867,4.435v0.01l-0.689,1.058h13.317V6.729L15.399,7.519z M3.512,12.927l3.947-8.662l4.388,2.829   c0.101,0.064,0.223,0.088,0.342,0.066c0.118-0.022,0.223-0.089,0.29-0.187l4.315-6.238c0.138-0.199,0.081-0.471-0.128-0.604   C16.457,0,16.176,0.053,16.037,0.254l-4.063,5.872l-4.46-2.875c-0.112-0.073-0.251-0.094-0.38-0.058   C7.005,3.231,6.899,3.321,6.846,3.438l-4.165,9.14c-0.101,0.22,0.005,0.477,0.234,0.574c0.06,0.024,0.121,0.036,0.182,0.036   C3.271,13.188,3.438,13.09,3.512,12.927z"/>
</svg>