<svg version="1.2" baseProfile="tiny" id="EdgeSVG_EUvbY" x="0px" y="0px" width="15.77px" height="67.834px" viewBox="0 0 15.77 67.834" xmlns:xlink="http://www.w3.org/1999/xlink" xmlns="http://www.w3.org/2000/svg">
  <linearGradient id="SVGID_8_" gradientUnits="userSpaceOnUse" x1="1.0039" y1="34.0513" x2="14.7666" y2="34.0513">
    <stop offset="0" style="stop-color:#000000;stop-opacity:0.1"/>
    <stop offset="0.4969" style="stop-color:#000000;stop-opacity:0"/>
    <stop offset="1" style="stop-color:#000000;stop-opacity:0.1"/>
  </linearGradient>
  <path fill="url(#SVGID_8_)" d="M14.767,66.315c0,0.279-0.229,0.507-0.508,0.507H1.512c-0.279,0-0.508-0.228-0.508-0.507V1.788&#xD;&#xA;&#x9;&#x9;c0-0.279,0.229-0.508,0.508-0.508h12.747c0.279,0,0.508,0.229,0.508,0.508V66.315z M9.239,4.563c0-0.465-0.381-0.846-0.847-0.846&#xD;&#xA;&#x9;&#x9;H7.378c-0.466,0-0.847,0.38-0.847,0.846v26.186c0,0.465,0.381,0.846,0.847,0.846h1.015c0.466,0,0.847-0.38,0.847-0.846V4.563z&#xD;&#xA;&#x9;&#x9; M9.239,37.354c0-0.465-0.381-0.846-0.847-0.846H7.378c-0.466,0-0.847,0.381-0.847,0.846V63.54c0,0.465,0.381,0.846,0.847,0.846&#xD;&#xA;&#x9;&#x9;h1.015c0.466,0,0.847-0.381,0.847-0.846V37.354z"/>
  <linearGradient id="SVGID_9_" gradientUnits="userSpaceOnUse" x1="7.8848" y1="1.2803" x2="7.8848" y2="66.8223">
    <stop offset="0" style="stop-color:#000000;stop-opacity:0.15"/>
    <stop offset="0.3804" style="stop-color:#FFFFFF;stop-opacity:0.15"/>
    <stop offset="0.6196" style="stop-color:#000000;stop-opacity:0.3"/>
    <stop offset="1" style="stop-color:#000000;stop-opacity:0.1"/>
  </linearGradient>
  <path fill="url(#SVGID_9_)" d="M14.767,66.315c0,0.279-0.229,0.507-0.508,0.507H1.512c-0.279,0-0.508-0.228-0.508-0.507V1.788&#xD;&#xA;&#x9;&#x9;c0-0.279,0.229-0.508,0.508-0.508h12.747c0.279,0,0.508,0.229,0.508,0.508V66.315z M9.239,4.563c0-0.465-0.381-0.846-0.847-0.846&#xD;&#xA;&#x9;&#x9;H7.378c-0.466,0-0.847,0.38-0.847,0.846v26.186c0,0.465,0.381,0.846,0.847,0.846h1.015c0.466,0,0.847-0.38,0.847-0.846V4.563z&#xD;&#xA;&#x9;&#x9; M9.239,37.354c0-0.465-0.381-0.846-0.847-0.846H7.378c-0.466,0-0.847,0.381-0.847,0.846V63.54c0,0.465,0.381,0.846,0.847,0.846&#xD;&#xA;&#x9;&#x9;h1.015c0.466,0,0.847-0.381,0.847-0.846V37.354z"/>
  <linearGradient id="SVGID_10_" gradientUnits="userSpaceOnUse" x1="1.1201" y1="1.479" x2="14.6436" y2="1.479">
    <stop offset="0" style="stop-color:#FFFFFF;stop-opacity:0.25"/>
    <stop offset="0.5153" style="stop-color:#FFFFFF;stop-opacity:0.35"/>
    <stop offset="1" style="stop-color:#FFFFFF;stop-opacity:0.25"/>
  </linearGradient>
  <path fill="url(#SVGID_10_)" d="M14.644,1.457l-0.286,0.196c-0.028-0.022-0.063-0.034-0.098-0.034H1.511&#xD;&#xA;&#x9;&#x9;c-0.051,0-0.097,0.024-0.125,0.06L1.12,1.465C1.213,1.353,1.354,1.28,1.511,1.28H14.26C14.412,1.28,14.551,1.348,14.644,1.457z"/>
  <linearGradient id="SVGID_11_" gradientUnits="userSpaceOnUse" x1="1.0967" y1="66.605" x2="14.6016" y2="66.605">
    <stop offset="0" style="stop-color:#000000;stop-opacity:0.35"/>
    <stop offset="0.0551" style="stop-color:#000000;stop-opacity:0.35"/>
    <stop offset="1" style="stop-color:#000000;stop-opacity:0.35"/>
  </linearGradient>
  <path fill="url(#SVGID_11_)" d="M14.602,66.688c-0.092,0.083-0.21,0.134-0.342,0.134H1.511c-0.171,0-0.321-0.084-0.414-0.215&#xD;&#xA;&#x9;&#x9;l0.285-0.185c0.031,0.038,0.078,0.061,0.129,0.061H14.26c0.065,0,0.123-0.039,0.15-0.095L14.602,66.688z"/>
  <g>
    <linearGradient id="SVGID_12_" gradientUnits="userSpaceOnUse" x1="7.8848" y1="36.1689" x2="7.8848" y2="37.1113">
      <stop offset="0" style="stop-color:#000000;stop-opacity:0.35"/>
      <stop offset="1" style="stop-color:#000000;stop-opacity:0.15"/>
    </linearGradient>
    <path fill="url(#SVGID_12_)" d="M9.552,37.111H9.201c-0.103-0.349-0.428-0.604-0.809-0.604H7.378c-0.381,0-0.706,0.255-0.81,0.604&#xD;&#xA;&#x9;&#x9;&#x9;h-0.35c0.111-0.538,0.589-0.942,1.159-0.942h1.015C8.963,36.169,9.44,36.573,9.552,37.111z"/>
    <linearGradient id="SVGID_13_" gradientUnits="userSpaceOnUse" x1="7.8848" y1="3.3784" x2="7.8848" y2="4.4106">
      <stop offset="0" style="stop-color:#000000;stop-opacity:0.35"/>
      <stop offset="1" style="stop-color:#000000;stop-opacity:0.15"/>
    </linearGradient>
    <path fill="url(#SVGID_13_)" d="M9.565,4.411h-0.34c-0.073-0.393-0.42-0.693-0.833-0.693H7.378c-0.413,0-0.76,0.301-0.833,0.693&#xD;&#xA;&#x9;&#x9;&#x9;h-0.34c0.072-0.582,0.57-1.032,1.173-1.032h1.015C8.995,3.378,9.493,3.829,9.565,4.411z"/>
  </g>
  <g>
    <linearGradient id="SVGID_14_" gradientUnits="userSpaceOnUse" x1="7.8848" y1="63.7627" x2="7.8848" y2="64.7236">
      <stop offset="0" style="stop-color:#000000;stop-opacity:0.25"/>
      <stop offset="0.0371" style="stop-color:#141414;stop-opacity:0.2519"/>
      <stop offset="0.1456" style="stop-color:#4B4B4B;stop-opacity:0.2573"/>
      <stop offset="0.2581" style="stop-color:#7B7B7B;stop-opacity:0.2629"/>
      <stop offset="0.3721" style="stop-color:#A4A4A4;stop-opacity:0.2686"/>
      <stop offset="0.4881" style="stop-color:#C5C5C5;stop-opacity:0.2744"/>
      <stop offset="0.6066" style="stop-color:#DEDEDE;stop-opacity:0.2803"/>
      <stop offset="0.7287" style="stop-color:#F1F1F1;stop-opacity:0.2864"/>
      <stop offset="0.8566" style="stop-color:#FBFBFB;stop-opacity:0.2928"/>
      <stop offset="1" style="stop-color:#FFFFFF;stop-opacity:0.3"/>
    </linearGradient>
    <path fill="url(#SVGID_14_)" d="M9.556,63.763c-0.104,0.546-0.586,0.961-1.163,0.961H7.378c-0.577,0-1.06-0.415-1.163-0.961h0.349&#xD;&#xA;&#x9;&#x9;&#x9;c0.097,0.358,0.427,0.623,0.814,0.623h1.015c0.388,0,0.718-0.264,0.814-0.623H9.556z"/>
    <linearGradient id="SVGID_15_" gradientUnits="userSpaceOnUse" x1="7.8848" y1="31.0195" x2="7.8848" y2="31.9336">
      <stop offset="0" style="stop-color:#000000;stop-opacity:0.25"/>
      <stop offset="0.0371" style="stop-color:#141414;stop-opacity:0.2519"/>
      <stop offset="0.1456" style="stop-color:#4B4B4B;stop-opacity:0.2573"/>
      <stop offset="0.2581" style="stop-color:#7B7B7B;stop-opacity:0.2629"/>
      <stop offset="0.3721" style="stop-color:#A4A4A4;stop-opacity:0.2686"/>
      <stop offset="0.4881" style="stop-color:#C5C5C5;stop-opacity:0.2744"/>
      <stop offset="0.6066" style="stop-color:#DEDEDE;stop-opacity:0.2803"/>
      <stop offset="0.7287" style="stop-color:#F1F1F1;stop-opacity:0.2864"/>
      <stop offset="0.8566" style="stop-color:#FBFBFB;stop-opacity:0.2928"/>
      <stop offset="1" style="stop-color:#FFFFFF;stop-opacity:0.3"/>
    </linearGradient>
    <path fill="url(#SVGID_15_)" d="M9.545,31.02c-0.122,0.523-0.592,0.914-1.152,0.914H7.378c-0.561,0-1.031-0.391-1.152-0.914h0.352&#xD;&#xA;&#x9;&#x9;&#x9;c0.113,0.333,0.43,0.576,0.801,0.576h1.015c0.371,0,0.688-0.242,0.801-0.576H9.545z"/>
  </g>
  <linearGradient id="SVGID_16_" gradientUnits="userSpaceOnUse" x1="6.3809" y1="37.1113" x2="6.3809" y2="63.7627">
    <stop offset="0" style="stop-color:#000000;stop-opacity:0.2"/>
    <stop offset="1" style="stop-color:#000000;stop-opacity:0.25"/>
  </linearGradient>
  <path fill="url(#SVGID_16_)" d="M6.531,63.539c0,0.078,0.011,0.152,0.032,0.224H6.215C6.2,63.69,6.193,63.615,6.193,63.539V37.354&#xD;&#xA;&#x9;&#x9;c0-0.083,0.008-0.165,0.025-0.242h0.35c-0.025,0.076-0.037,0.157-0.037,0.242V63.539z"/>
  <linearGradient id="SVGID_17_" gradientUnits="userSpaceOnUse" x1="9.3887" y1="37.1113" x2="9.3887" y2="63.7627">
    <stop offset="0" style="stop-color:#000000;stop-opacity:0.2"/>
    <stop offset="1" style="stop-color:#000000;stop-opacity:0.25"/>
  </linearGradient>
  <path fill="url(#SVGID_17_)" d="M9.577,37.354v26.186c0,0.076-0.007,0.151-0.021,0.224H9.207c0.021-0.071,0.032-0.146,0.032-0.224&#xD;&#xA;&#x9;&#x9;V37.354c0-0.085-0.012-0.166-0.038-0.242h0.351C9.569,37.189,9.577,37.271,9.577,37.354z"/>
  <linearGradient id="SVGID_18_" gradientUnits="userSpaceOnUse" x1="6.3848" y1="4.4106" x2="6.3848" y2="31.0195">
    <stop offset="0" style="stop-color:#000000;stop-opacity:0.2"/>
    <stop offset="1" style="stop-color:#000000;stop-opacity:0.25"/>
  </linearGradient>
  <path fill="url(#SVGID_18_)" d="M6.577,31.02H6.226c-0.022-0.086-0.032-0.177-0.032-0.271V4.563c0-0.051,0.003-0.103,0.012-0.152&#xD;&#xA;&#x9;&#x9;h0.34c-0.009,0.049-0.014,0.1-0.014,0.152v26.186C6.531,30.844,6.547,30.935,6.577,31.02z"/>
  <linearGradient id="SVGID_19_" gradientUnits="userSpaceOnUse" x1="1.1943" y1="1.4648" x2="1.1943" y2="66.6069">
    <stop offset="0" style="stop-color:#000000;stop-opacity:0.2"/>
    <stop offset="1" style="stop-color:#000000;stop-opacity:0.25"/>
  </linearGradient>
  <path fill="url(#SVGID_19_)" d="M1.342,66.314c0,0.041,0.015,0.079,0.04,0.108l-0.285,0.185c-0.058-0.083-0.094-0.183-0.094-0.292&#xD;&#xA;&#x9;&#x9;V1.788c0-0.122,0.044-0.235,0.117-0.323l0.266,0.213c-0.029,0.03-0.044,0.069-0.044,0.11V66.314z"/>
  <linearGradient id="SVGID_20_" gradientUnits="userSpaceOnUse" x1="9.3848" y1="4.4106" x2="9.3848" y2="31.0195">
    <stop offset="0" style="stop-color:#000000;stop-opacity:0.2"/>
    <stop offset="1" style="stop-color:#000000;stop-opacity:0.25"/>
  </linearGradient>
  <path fill="url(#SVGID_20_)" d="M9.577,4.563v26.186c0,0.093-0.01,0.185-0.032,0.271H9.193c0.03-0.084,0.046-0.176,0.046-0.271&#xD;&#xA;&#x9;&#x9;V4.563c0-0.052-0.006-0.103-0.014-0.152h0.34C9.574,4.46,9.577,4.512,9.577,4.563z"/>
  <g>
    <g>
      <linearGradient id="SVGID_21_" gradientUnits="userSpaceOnUse" x1="6.5313" y1="50.2939" x2="9.2393" y2="50.2939">
        <stop offset="0" style="stop-color:#000000;stop-opacity:0.6"/>
        <stop offset="1" style="stop-color:#000000;stop-opacity:0.6"/>
      </linearGradient>
      <path fill="url(#SVGID_21_)" d="M9.239,37.354v26.186c0,0.078-0.011,0.152-0.032,0.224c-0.032,0.118-0.09,0.227-0.168,0.318&#xD;&#xA;&#x9;&#x9;&#x9;&#x9;V37.971c0-0.073-0.01-0.142-0.032-0.207c-0.088-0.298-0.363-0.516-0.688-0.516H7.452c-0.325,0-0.601,0.218-0.688,0.516&#xD;&#xA;&#x9;&#x9;&#x9;&#x9;c-0.022,0.064-0.032,0.133-0.032,0.207v26.109c-0.078-0.091-0.136-0.2-0.168-0.318c-0.021-0.071-0.032-0.146-0.032-0.224V37.354&#xD;&#xA;&#x9;&#x9;&#x9;&#x9;c0-0.085,0.012-0.166,0.037-0.242c0.104-0.349,0.429-0.604,0.81-0.604h1.015c0.381,0,0.706,0.255,0.809,0.604&#xD;&#xA;&#x9;&#x9;&#x9;&#x9;C9.228,37.188,9.239,37.269,9.239,37.354z"/>
    </g>
    <linearGradient id="SVGID_22_" gradientUnits="userSpaceOnUse" x1="6.5313" y1="17.5044" x2="9.2393" y2="17.5044">
      <stop offset="0" style="stop-color:#000000;stop-opacity:0.6"/>
      <stop offset="1" style="stop-color:#000000;stop-opacity:0.6"/>
    </linearGradient>
    <path fill="url(#SVGID_22_)" d="M9.239,4.563v26.186c0,0.095-0.016,0.186-0.046,0.271c-0.034,0.102-0.086,0.193-0.154,0.272V5.169&#xD;&#xA;&#x9;&#x9;&#x9;c0-0.044-0.003-0.088-0.012-0.128C8.967,4.706,8.67,4.448,8.318,4.448H7.452c-0.353,0-0.648,0.257-0.709,0.592&#xD;&#xA;&#x9;&#x9;&#x9;C6.734,5.081,6.731,5.125,6.731,5.169v26.123c-0.068-0.08-0.12-0.171-0.154-0.272c-0.03-0.084-0.046-0.176-0.046-0.271V4.563&#xD;&#xA;&#x9;&#x9;&#x9;c0-0.052,0.005-0.103,0.014-0.152c0.073-0.393,0.42-0.693,0.833-0.693h1.015c0.413,0,0.76,0.301,0.833,0.693&#xD;&#xA;&#x9;&#x9;&#x9;C9.233,4.46,9.239,4.511,9.239,4.563z"/>
  </g>
  <linearGradient id="SVGID_23_" gradientUnits="userSpaceOnUse" x1="14.5625" y1="1.4565" x2="14.5625" y2="66.688">
    <stop offset="0" style="stop-color:#000000;stop-opacity:0.2"/>
    <stop offset="1" style="stop-color:#000000;stop-opacity:0.25"/>
  </linearGradient>
  <path fill="url(#SVGID_23_)" d="M14.768,1.788v64.526c0,0.147-0.064,0.281-0.166,0.374l-0.191-0.299&#xD;&#xA;&#x9;&#x9;c0.012-0.022,0.019-0.047,0.019-0.074V1.788c0-0.056-0.028-0.105-0.071-0.135l0.286-0.196C14.72,1.546,14.768,1.663,14.768,1.788z"/>
  <g>
    <g>
      <linearGradient id="SVGID_24_" gradientUnits="userSpaceOnUse" x1="2.6396" y1="50.3442" x2="2.6396" y2="52.2905">
        <stop offset="0" style="stop-color:#FFFFFF;stop-opacity:0.3"/>
        <stop offset="0.0852" style="stop-color:#F7F7F7;stop-opacity:0.3043"/>
        <stop offset="0.22" style="stop-color:#E0E0E0;stop-opacity:0.311"/>
        <stop offset="0.3875" style="stop-color:#BBBBBB;stop-opacity:0.3194"/>
        <stop offset="0.5812" style="stop-color:#878787;stop-opacity:0.3291"/>
        <stop offset="0.7939" style="stop-color:#464646;stop-opacity:0.3397"/>
        <stop offset="1" style="stop-color:#000000;stop-opacity:0.35"/>
      </linearGradient>
      <path fill="url(#SVGID_24_)" d="M2.64,50.344c-0.538,0-0.973,0.435-0.973,0.973s0.435,0.973,0.973,0.973s0.973-0.435,0.973-0.973&#xD;&#xA;&#x9;&#x9;&#x9;&#x9;S3.178,50.344,2.64,50.344z M2.64,52.131c-0.45,0-0.814-0.364-0.814-0.814c0-0.45,0.364-0.814,0.814-0.814&#xD;&#xA;&#x9;&#x9;&#x9;&#x9;s0.813,0.364,0.813,0.814C3.453,51.768,3.09,52.131,2.64,52.131z"/>
      <linearGradient id="SVGID_25_" gradientUnits="userSpaceOnUse" x1="13.1309" y1="50.3442" x2="13.1309" y2="52.2905">
        <stop offset="0" style="stop-color:#FFFFFF;stop-opacity:0.3"/>
        <stop offset="0.0852" style="stop-color:#F7F7F7;stop-opacity:0.3043"/>
        <stop offset="0.22" style="stop-color:#E0E0E0;stop-opacity:0.311"/>
        <stop offset="0.3875" style="stop-color:#BBBBBB;stop-opacity:0.3194"/>
        <stop offset="0.5812" style="stop-color:#878787;stop-opacity:0.3291"/>
        <stop offset="0.7939" style="stop-color:#464646;stop-opacity:0.3397"/>
        <stop offset="1" style="stop-color:#000000;stop-opacity:0.35"/>
      </linearGradient>
      <path fill="url(#SVGID_25_)" d="M13.131,50.344c-0.538,0-0.973,0.435-0.973,0.973s0.435,0.973,0.973,0.973&#xD;&#xA;&#x9;&#x9;&#x9;&#x9;s0.973-0.435,0.973-0.973S13.669,50.344,13.131,50.344z M13.131,52.131c-0.45,0-0.814-0.364-0.814-0.814&#xD;&#xA;&#x9;&#x9;&#x9;&#x9;c0-0.45,0.364-0.814,0.814-0.814s0.813,0.364,0.813,0.814C13.944,51.768,13.581,52.131,13.131,52.131z"/>
      <linearGradient id="SVGID_26_" gradientUnits="userSpaceOnUse" x1="2.6396" y1="2.0249" x2="2.6396" y2="3.9707">
        <stop offset="0" style="stop-color:#FFFFFF;stop-opacity:0.3"/>
        <stop offset="0.0852" style="stop-color:#F7F7F7;stop-opacity:0.3043"/>
        <stop offset="0.22" style="stop-color:#E0E0E0;stop-opacity:0.311"/>
        <stop offset="0.3875" style="stop-color:#BBBBBB;stop-opacity:0.3194"/>
        <stop offset="0.5812" style="stop-color:#878787;stop-opacity:0.3291"/>
        <stop offset="0.7939" style="stop-color:#464646;stop-opacity:0.3397"/>
        <stop offset="1" style="stop-color:#000000;stop-opacity:0.35"/>
      </linearGradient>
      <path fill="url(#SVGID_26_)" d="M2.64,2.025c-0.538,0-0.973,0.435-0.973,0.973S2.102,3.971,2.64,3.971s0.973-0.435,0.973-0.973&#xD;&#xA;&#x9;&#x9;&#x9;&#x9;S3.178,2.025,2.64,2.025z M2.64,3.812c-0.45,0-0.814-0.364-0.814-0.814S2.189,2.184,2.64,2.184s0.813,0.364,0.813,0.814&#xD;&#xA;&#x9;&#x9;&#x9;&#x9;S3.09,3.812,2.64,3.812z"/>
      <linearGradient id="SVGID_27_" gradientUnits="userSpaceOnUse" x1="13.1309" y1="2.0249" x2="13.1309" y2="3.9707">
        <stop offset="0" style="stop-color:#FFFFFF;stop-opacity:0.3"/>
        <stop offset="0.0852" style="stop-color:#F7F7F7;stop-opacity:0.3043"/>
        <stop offset="0.22" style="stop-color:#E0E0E0;stop-opacity:0.311"/>
        <stop offset="0.3875" style="stop-color:#BBBBBB;stop-opacity:0.3194"/>
        <stop offset="0.5812" style="stop-color:#878787;stop-opacity:0.3291"/>
        <stop offset="0.7939" style="stop-color:#464646;stop-opacity:0.3397"/>
        <stop offset="1" style="stop-color:#000000;stop-opacity:0.35"/>
      </linearGradient>
      <path fill="url(#SVGID_27_)" d="M13.131,2.025c-0.538,0-0.973,0.435-0.973,0.973s0.435,0.973,0.973,0.973&#xD;&#xA;&#x9;&#x9;&#x9;&#x9;s0.973-0.435,0.973-0.973S13.669,2.025,13.131,2.025z M13.131,3.812c-0.45,0-0.814-0.364-0.814-0.814s0.364-0.814,0.814-0.814&#xD;&#xA;&#x9;&#x9;&#x9;&#x9;s0.813,0.364,0.813,0.814S13.581,3.812,13.131,3.812z"/>
      <linearGradient id="SVGID_28_" gradientUnits="userSpaceOnUse" x1="2.6396" y1="57.2476" x2="2.6396" y2="59.1934">
        <stop offset="0" style="stop-color:#FFFFFF;stop-opacity:0.3"/>
        <stop offset="0.0852" style="stop-color:#F7F7F7;stop-opacity:0.3043"/>
        <stop offset="0.22" style="stop-color:#E0E0E0;stop-opacity:0.311"/>
        <stop offset="0.3875" style="stop-color:#BBBBBB;stop-opacity:0.3194"/>
        <stop offset="0.5812" style="stop-color:#878787;stop-opacity:0.3291"/>
        <stop offset="0.7939" style="stop-color:#464646;stop-opacity:0.3397"/>
        <stop offset="1" style="stop-color:#000000;stop-opacity:0.35"/>
      </linearGradient>
      <path fill="url(#SVGID_28_)" d="M2.64,57.248c-0.538,0-0.973,0.435-0.973,0.973s0.435,0.973,0.973,0.973s0.973-0.435,0.973-0.973&#xD;&#xA;&#x9;&#x9;&#x9;&#x9;S3.178,57.248,2.64,57.248z M2.64,59.034c-0.45,0-0.814-0.364-0.814-0.814s0.364-0.814,0.814-0.814s0.813,0.364,0.813,0.814&#xD;&#xA;&#x9;&#x9;&#x9;&#x9;S3.09,59.034,2.64,59.034z"/>
      <linearGradient id="SVGID_29_" gradientUnits="userSpaceOnUse" x1="13.1309" y1="57.2476" x2="13.1309" y2="59.1934">
        <stop offset="0" style="stop-color:#FFFFFF;stop-opacity:0.3"/>
        <stop offset="0.0852" style="stop-color:#F7F7F7;stop-opacity:0.3043"/>
        <stop offset="0.22" style="stop-color:#E0E0E0;stop-opacity:0.311"/>
        <stop offset="0.3875" style="stop-color:#BBBBBB;stop-opacity:0.3194"/>
        <stop offset="0.5812" style="stop-color:#878787;stop-opacity:0.3291"/>
        <stop offset="0.7939" style="stop-color:#464646;stop-opacity:0.3397"/>
        <stop offset="1" style="stop-color:#000000;stop-opacity:0.35"/>
      </linearGradient>
      <path fill="url(#SVGID_29_)" d="M13.131,57.248c-0.538,0-0.973,0.435-0.973,0.973s0.435,0.973,0.973,0.973&#xD;&#xA;&#x9;&#x9;&#x9;&#x9;s0.973-0.435,0.973-0.973S13.669,57.248,13.131,57.248z M13.131,59.034c-0.45,0-0.814-0.364-0.814-0.814s0.364-0.814,0.814-0.814&#xD;&#xA;&#x9;&#x9;&#x9;&#x9;s0.813,0.364,0.813,0.814S13.581,59.034,13.131,59.034z"/>
      <linearGradient id="SVGID_30_" gradientUnits="userSpaceOnUse" x1="2.6396" y1="36.5391" x2="2.6396" y2="38.4849">
        <stop offset="0" style="stop-color:#FFFFFF;stop-opacity:0.3"/>
        <stop offset="0.0852" style="stop-color:#F7F7F7;stop-opacity:0.3043"/>
        <stop offset="0.22" style="stop-color:#E0E0E0;stop-opacity:0.311"/>
        <stop offset="0.3875" style="stop-color:#BBBBBB;stop-opacity:0.3194"/>
        <stop offset="0.5812" style="stop-color:#878787;stop-opacity:0.3291"/>
        <stop offset="0.7939" style="stop-color:#464646;stop-opacity:0.3397"/>
        <stop offset="1" style="stop-color:#000000;stop-opacity:0.35"/>
      </linearGradient>
      <path fill="url(#SVGID_30_)" d="M2.64,36.539c-0.538,0-0.973,0.435-0.973,0.973s0.435,0.973,0.973,0.973s0.973-0.435,0.973-0.973&#xD;&#xA;&#x9;&#x9;&#x9;&#x9;S3.178,36.539,2.64,36.539z M2.64,38.326c-0.45,0-0.814-0.364-0.814-0.814c0-0.45,0.364-0.814,0.814-0.814&#xD;&#xA;&#x9;&#x9;&#x9;&#x9;s0.813,0.364,0.813,0.814C3.453,37.962,3.09,38.326,2.64,38.326z"/>
      <linearGradient id="SVGID_31_" gradientUnits="userSpaceOnUse" x1="13.1309" y1="36.5391" x2="13.1309" y2="38.4849">
        <stop offset="0" style="stop-color:#FFFFFF;stop-opacity:0.3"/>
        <stop offset="0.0852" style="stop-color:#F7F7F7;stop-opacity:0.3043"/>
        <stop offset="0.22" style="stop-color:#E0E0E0;stop-opacity:0.311"/>
        <stop offset="0.3875" style="stop-color:#BBBBBB;stop-opacity:0.3194"/>
        <stop offset="0.5812" style="stop-color:#878787;stop-opacity:0.3291"/>
        <stop offset="0.7939" style="stop-color:#464646;stop-opacity:0.3397"/>
        <stop offset="1" style="stop-color:#000000;stop-opacity:0.35"/>
      </linearGradient>
      <path fill="url(#SVGID_31_)" d="M13.131,36.539c-0.538,0-0.973,0.435-0.973,0.973s0.435,0.973,0.973,0.973&#xD;&#xA;&#x9;&#x9;&#x9;&#x9;s0.973-0.435,0.973-0.973S13.669,36.539,13.131,36.539z M13.131,38.326c-0.45,0-0.814-0.364-0.814-0.814&#xD;&#xA;&#x9;&#x9;&#x9;&#x9;c0-0.45,0.364-0.814,0.814-0.814s0.813,0.364,0.813,0.814C13.944,37.962,13.581,38.326,13.131,38.326z"/>
      <linearGradient id="SVGID_32_" gradientUnits="userSpaceOnUse" x1="2.6396" y1="8.9277" x2="2.6396" y2="10.8735">
        <stop offset="0" style="stop-color:#FFFFFF;stop-opacity:0.3"/>
        <stop offset="0.0852" style="stop-color:#F7F7F7;stop-opacity:0.3043"/>
        <stop offset="0.22" style="stop-color:#E0E0E0;stop-opacity:0.311"/>
        <stop offset="0.3875" style="stop-color:#BBBBBB;stop-opacity:0.3194"/>
        <stop offset="0.5812" style="stop-color:#878787;stop-opacity:0.3291"/>
        <stop offset="0.7939" style="stop-color:#464646;stop-opacity:0.3397"/>
        <stop offset="1" style="stop-color:#000000;stop-opacity:0.35"/>
      </linearGradient>
      <path fill="url(#SVGID_32_)" d="M2.64,8.928c-0.538,0-0.973,0.435-0.973,0.973s0.435,0.973,0.973,0.973s0.973-0.435,0.973-0.973&#xD;&#xA;&#x9;&#x9;&#x9;&#x9;S3.178,8.928,2.64,8.928z M2.64,10.715c-0.45,0-0.814-0.364-0.814-0.814S2.189,9.087,2.64,9.087s0.813,0.364,0.813,0.814&#xD;&#xA;&#x9;&#x9;&#x9;&#x9;S3.09,10.715,2.64,10.715z"/>
      <linearGradient id="SVGID_33_" gradientUnits="userSpaceOnUse" x1="13.1309" y1="8.9277" x2="13.1309" y2="10.8735">
        <stop offset="0" style="stop-color:#FFFFFF;stop-opacity:0.3"/>
        <stop offset="0.0852" style="stop-color:#F7F7F7;stop-opacity:0.3043"/>
        <stop offset="0.22" style="stop-color:#E0E0E0;stop-opacity:0.311"/>
        <stop offset="0.3875" style="stop-color:#BBBBBB;stop-opacity:0.3194"/>
        <stop offset="0.5812" style="stop-color:#878787;stop-opacity:0.3291"/>
        <stop offset="0.7939" style="stop-color:#464646;stop-opacity:0.3397"/>
        <stop offset="1" style="stop-color:#000000;stop-opacity:0.35"/>
      </linearGradient>
      <path fill="url(#SVGID_33_)" d="M13.131,8.928c-0.538,0-0.973,0.435-0.973,0.973s0.435,0.973,0.973,0.973&#xD;&#xA;&#x9;&#x9;&#x9;&#x9;s0.973-0.435,0.973-0.973S13.669,8.928,13.131,8.928z M13.131,10.715c-0.45,0-0.814-0.364-0.814-0.814s0.364-0.814,0.814-0.814&#xD;&#xA;&#x9;&#x9;&#x9;&#x9;s0.813,0.364,0.813,0.814S13.581,10.715,13.131,10.715z"/>
      <linearGradient id="SVGID_34_" gradientUnits="userSpaceOnUse" x1="2.6396" y1="15.8306" x2="2.6396" y2="17.7764">
        <stop offset="0" style="stop-color:#FFFFFF;stop-opacity:0.3"/>
        <stop offset="0.0852" style="stop-color:#F7F7F7;stop-opacity:0.3043"/>
        <stop offset="0.22" style="stop-color:#E0E0E0;stop-opacity:0.311"/>
        <stop offset="0.3875" style="stop-color:#BBBBBB;stop-opacity:0.3194"/>
        <stop offset="0.5812" style="stop-color:#878787;stop-opacity:0.3291"/>
        <stop offset="0.7939" style="stop-color:#464646;stop-opacity:0.3397"/>
        <stop offset="1" style="stop-color:#000000;stop-opacity:0.35"/>
      </linearGradient>
      <path fill="url(#SVGID_34_)" d="M2.64,15.831c-0.538,0-0.973,0.435-0.973,0.973c0,0.539,0.435,0.973,0.973,0.973&#xD;&#xA;&#x9;&#x9;&#x9;&#x9;s0.973-0.435,0.973-0.973C3.612,16.265,3.178,15.831,2.64,15.831z M2.64,17.618c-0.45,0-0.814-0.364-0.814-0.814&#xD;&#xA;&#x9;&#x9;&#x9;&#x9;c0-0.45,0.364-0.813,0.814-0.813s0.813,0.364,0.813,0.813C3.453,17.253,3.09,17.618,2.64,17.618z"/>
      <linearGradient id="SVGID_35_" gradientUnits="userSpaceOnUse" x1="13.1309" y1="15.8306" x2="13.1309" y2="17.7764">
        <stop offset="0" style="stop-color:#FFFFFF;stop-opacity:0.3"/>
        <stop offset="0.0852" style="stop-color:#F7F7F7;stop-opacity:0.3043"/>
        <stop offset="0.22" style="stop-color:#E0E0E0;stop-opacity:0.311"/>
        <stop offset="0.3875" style="stop-color:#BBBBBB;stop-opacity:0.3194"/>
        <stop offset="0.5812" style="stop-color:#878787;stop-opacity:0.3291"/>
        <stop offset="0.7939" style="stop-color:#464646;stop-opacity:0.3397"/>
        <stop offset="1" style="stop-color:#000000;stop-opacity:0.35"/>
      </linearGradient>
      <path fill="url(#SVGID_35_)" d="M13.131,15.831c-0.538,0-0.973,0.435-0.973,0.973c0,0.539,0.435,0.973,0.973,0.973&#xD;&#xA;&#x9;&#x9;&#x9;&#x9;s0.973-0.435,0.973-0.973C14.104,16.265,13.669,15.831,13.131,15.831z M13.131,17.618c-0.45,0-0.814-0.364-0.814-0.814&#xD;&#xA;&#x9;&#x9;&#x9;&#x9;c0-0.45,0.364-0.813,0.814-0.813s0.813,0.364,0.813,0.813C13.944,17.253,13.581,17.618,13.131,17.618z"/>
      <linearGradient id="SVGID_36_" gradientUnits="userSpaceOnUse" x1="2.6396" y1="22.7334" x2="2.6396" y2="24.6792">
        <stop offset="0" style="stop-color:#FFFFFF;stop-opacity:0.3"/>
        <stop offset="0.0852" style="stop-color:#F7F7F7;stop-opacity:0.3043"/>
        <stop offset="0.22" style="stop-color:#E0E0E0;stop-opacity:0.311"/>
        <stop offset="0.3875" style="stop-color:#BBBBBB;stop-opacity:0.3194"/>
        <stop offset="0.5812" style="stop-color:#878787;stop-opacity:0.3291"/>
        <stop offset="0.7939" style="stop-color:#464646;stop-opacity:0.3397"/>
        <stop offset="1" style="stop-color:#000000;stop-opacity:0.35"/>
      </linearGradient>
      <path fill="url(#SVGID_36_)" d="M2.64,22.733c-0.538,0-0.973,0.435-0.973,0.973s0.435,0.973,0.973,0.973s0.973-0.435,0.973-0.973&#xD;&#xA;&#x9;&#x9;&#x9;&#x9;S3.178,22.733,2.64,22.733z M2.64,24.52c-0.45,0-0.814-0.364-0.814-0.814c0-0.45,0.364-0.814,0.814-0.814&#xD;&#xA;&#x9;&#x9;&#x9;&#x9;s0.813,0.364,0.813,0.814C3.453,24.156,3.09,24.52,2.64,24.52z"/>
      <linearGradient id="SVGID_37_" gradientUnits="userSpaceOnUse" x1="13.1309" y1="22.7334" x2="13.1309" y2="24.6792">
        <stop offset="0" style="stop-color:#FFFFFF;stop-opacity:0.3"/>
        <stop offset="0.0852" style="stop-color:#F7F7F7;stop-opacity:0.3043"/>
        <stop offset="0.22" style="stop-color:#E0E0E0;stop-opacity:0.311"/>
        <stop offset="0.3875" style="stop-color:#BBBBBB;stop-opacity:0.3194"/>
        <stop offset="0.5812" style="stop-color:#878787;stop-opacity:0.3291"/>
        <stop offset="0.7939" style="stop-color:#464646;stop-opacity:0.3397"/>
        <stop offset="1" style="stop-color:#000000;stop-opacity:0.35"/>
      </linearGradient>
      <path fill="url(#SVGID_37_)" d="M13.131,22.733c-0.538,0-0.973,0.435-0.973,0.973s0.435,0.973,0.973,0.973&#xD;&#xA;&#x9;&#x9;&#x9;&#x9;s0.973-0.435,0.973-0.973S13.669,22.733,13.131,22.733z M13.131,24.52c-0.45,0-0.814-0.364-0.814-0.814&#xD;&#xA;&#x9;&#x9;&#x9;&#x9;c0-0.45,0.364-0.814,0.814-0.814s0.813,0.364,0.813,0.814C13.944,24.156,13.581,24.52,13.131,24.52z"/>
      <linearGradient id="SVGID_38_" gradientUnits="userSpaceOnUse" x1="2.6396" y1="29.6362" x2="2.6396" y2="31.582">
        <stop offset="0" style="stop-color:#FFFFFF;stop-opacity:0.3"/>
        <stop offset="0.0852" style="stop-color:#F7F7F7;stop-opacity:0.3043"/>
        <stop offset="0.22" style="stop-color:#E0E0E0;stop-opacity:0.311"/>
        <stop offset="0.3875" style="stop-color:#BBBBBB;stop-opacity:0.3194"/>
        <stop offset="0.5812" style="stop-color:#878787;stop-opacity:0.3291"/>
        <stop offset="0.7939" style="stop-color:#464646;stop-opacity:0.3397"/>
        <stop offset="1" style="stop-color:#000000;stop-opacity:0.35"/>
      </linearGradient>
      <path fill="url(#SVGID_38_)" d="M2.64,29.636c-0.538,0-0.973,0.435-0.973,0.973s0.435,0.973,0.973,0.973s0.973-0.435,0.973-0.973&#xD;&#xA;&#x9;&#x9;&#x9;&#x9;S3.178,29.636,2.64,29.636z M2.64,31.423c-0.45,0-0.814-0.364-0.814-0.814c0-0.45,0.364-0.814,0.814-0.814&#xD;&#xA;&#x9;&#x9;&#x9;&#x9;s0.813,0.364,0.813,0.814C3.453,31.059,3.09,31.423,2.64,31.423z"/>
      <linearGradient id="SVGID_39_" gradientUnits="userSpaceOnUse" x1="13.1309" y1="29.6362" x2="13.1309" y2="31.582">
        <stop offset="0" style="stop-color:#FFFFFF;stop-opacity:0.3"/>
        <stop offset="0.0852" style="stop-color:#F7F7F7;stop-opacity:0.3043"/>
        <stop offset="0.22" style="stop-color:#E0E0E0;stop-opacity:0.311"/>
        <stop offset="0.3875" style="stop-color:#BBBBBB;stop-opacity:0.3194"/>
        <stop offset="0.5812" style="stop-color:#878787;stop-opacity:0.3291"/>
        <stop offset="0.7939" style="stop-color:#464646;stop-opacity:0.3397"/>
        <stop offset="1" style="stop-color:#000000;stop-opacity:0.35"/>
      </linearGradient>
      <path fill="url(#SVGID_39_)" d="M13.131,29.636c-0.538,0-0.973,0.435-0.973,0.973s0.435,0.973,0.973,0.973&#xD;&#xA;&#x9;&#x9;&#x9;&#x9;s0.973-0.435,0.973-0.973S13.669,29.636,13.131,29.636z M13.131,31.423c-0.45,0-0.814-0.364-0.814-0.814&#xD;&#xA;&#x9;&#x9;&#x9;&#x9;c0-0.45,0.364-0.814,0.814-0.814s0.813,0.364,0.813,0.814C13.944,31.059,13.581,31.423,13.131,31.423z"/>
      <linearGradient id="SVGID_40_" gradientUnits="userSpaceOnUse" x1="2.6396" y1="43.4419" x2="2.6396" y2="45.3877">
        <stop offset="0" style="stop-color:#FFFFFF;stop-opacity:0.3"/>
        <stop offset="0.0852" style="stop-color:#F7F7F7;stop-opacity:0.3043"/>
        <stop offset="0.22" style="stop-color:#E0E0E0;stop-opacity:0.311"/>
        <stop offset="0.3875" style="stop-color:#BBBBBB;stop-opacity:0.3194"/>
        <stop offset="0.5812" style="stop-color:#878787;stop-opacity:0.3291"/>
        <stop offset="0.7939" style="stop-color:#464646;stop-opacity:0.3397"/>
        <stop offset="1" style="stop-color:#000000;stop-opacity:0.35"/>
      </linearGradient>
      <path fill="url(#SVGID_40_)" d="M2.64,43.442c-0.538,0-0.973,0.435-0.973,0.973s0.435,0.973,0.973,0.973s0.973-0.435,0.973-0.973&#xD;&#xA;&#x9;&#x9;&#x9;&#x9;S3.178,43.442,2.64,43.442z M2.64,45.229c-0.45,0-0.814-0.364-0.814-0.814s0.364-0.814,0.814-0.814s0.813,0.364,0.813,0.814&#xD;&#xA;&#x9;&#x9;&#x9;&#x9;S3.09,45.229,2.64,45.229z"/>
      <linearGradient id="SVGID_41_" gradientUnits="userSpaceOnUse" x1="13.1309" y1="43.4419" x2="13.1309" y2="45.3877">
        <stop offset="0" style="stop-color:#FFFFFF;stop-opacity:0.3"/>
        <stop offset="0.0852" style="stop-color:#F7F7F7;stop-opacity:0.3043"/>
        <stop offset="0.22" style="stop-color:#E0E0E0;stop-opacity:0.311"/>
        <stop offset="0.3875" style="stop-color:#BBBBBB;stop-opacity:0.3194"/>
        <stop offset="0.5812" style="stop-color:#878787;stop-opacity:0.3291"/>
        <stop offset="0.7939" style="stop-color:#464646;stop-opacity:0.3397"/>
        <stop offset="1" style="stop-color:#000000;stop-opacity:0.35"/>
      </linearGradient>
      <path fill="url(#SVGID_41_)" d="M13.131,43.442c-0.538,0-0.973,0.435-0.973,0.973s0.435,0.973,0.973,0.973&#xD;&#xA;&#x9;&#x9;&#x9;&#x9;s0.973-0.435,0.973-0.973S13.669,43.442,13.131,43.442z M13.131,45.229c-0.45,0-0.814-0.364-0.814-0.814s0.364-0.814,0.814-0.814&#xD;&#xA;&#x9;&#x9;&#x9;&#x9;s0.813,0.364,0.813,0.814S13.581,45.229,13.131,45.229z"/>
      <linearGradient id="SVGID_42_" gradientUnits="userSpaceOnUse" x1="2.6396" y1="64.1504" x2="2.6396" y2="66.0962">
        <stop offset="0" style="stop-color:#FFFFFF;stop-opacity:0.3"/>
        <stop offset="0.0852" style="stop-color:#F7F7F7;stop-opacity:0.3043"/>
        <stop offset="0.22" style="stop-color:#E0E0E0;stop-opacity:0.311"/>
        <stop offset="0.3875" style="stop-color:#BBBBBB;stop-opacity:0.3194"/>
        <stop offset="0.5812" style="stop-color:#878787;stop-opacity:0.3291"/>
        <stop offset="0.7939" style="stop-color:#464646;stop-opacity:0.3397"/>
        <stop offset="1" style="stop-color:#000000;stop-opacity:0.35"/>
      </linearGradient>
      <path fill="url(#SVGID_42_)" d="M2.64,64.15c-0.538,0-0.973,0.435-0.973,0.973s0.435,0.973,0.973,0.973s0.973-0.435,0.973-0.973&#xD;&#xA;&#x9;&#x9;&#x9;&#x9;S3.178,64.15,2.64,64.15z M2.64,65.937c-0.45,0-0.814-0.364-0.814-0.814s0.364-0.814,0.814-0.814s0.813,0.364,0.813,0.814&#xD;&#xA;&#x9;&#x9;&#x9;&#x9;S3.09,65.937,2.64,65.937z"/>
      <linearGradient id="SVGID_43_" gradientUnits="userSpaceOnUse" x1="13.1309" y1="64.1504" x2="13.1309" y2="66.0962">
        <stop offset="0" style="stop-color:#FFFFFF;stop-opacity:0.3"/>
        <stop offset="0.0852" style="stop-color:#F7F7F7;stop-opacity:0.3043"/>
        <stop offset="0.22" style="stop-color:#E0E0E0;stop-opacity:0.311"/>
        <stop offset="0.3875" style="stop-color:#BBBBBB;stop-opacity:0.3194"/>
        <stop offset="0.5812" style="stop-color:#878787;stop-opacity:0.3291"/>
        <stop offset="0.7939" style="stop-color:#464646;stop-opacity:0.3397"/>
        <stop offset="1" style="stop-color:#000000;stop-opacity:0.35"/>
      </linearGradient>
      <path fill="url(#SVGID_43_)" d="M13.131,64.15c-0.538,0-0.973,0.435-0.973,0.973s0.435,0.973,0.973,0.973&#xD;&#xA;&#x9;&#x9;&#x9;&#x9;s0.973-0.435,0.973-0.973S13.669,64.15,13.131,64.15z M13.131,65.937c-0.45,0-0.814-0.364-0.814-0.814s0.364-0.814,0.814-0.814&#xD;&#xA;&#x9;&#x9;&#x9;&#x9;s0.813,0.364,0.813,0.814S13.581,65.937,13.131,65.937z"/>
    </g>
    <g>
      <linearGradient id="SVGID_44_" gradientUnits="userSpaceOnUse" x1="2.6387" y1="50.5034" x2="2.6387" y2="52.1313">
        <stop offset="0" style="stop-color:#FFFFFF;stop-opacity:0.02"/>
        <stop offset="1" style="stop-color:#000000;stop-opacity:0.02"/>
      </linearGradient>
      <path fill="url(#SVGID_44_)" d="M2.64,50.503c-0.45,0-0.814,0.364-0.814,0.814c0,0.45,0.364,0.814,0.814,0.814&#xD;&#xA;&#x9;&#x9;&#x9;&#x9;s0.813-0.364,0.813-0.814C3.453,50.868,3.09,50.503,2.64,50.503z M2.64,51.978c-0.364,0-0.66-0.296-0.66-0.66&#xD;&#xA;&#x9;&#x9;&#x9;&#x9;s0.296-0.66,0.66-0.66c0.363,0,0.66,0.296,0.66,0.66S3.003,51.978,2.64,51.978z"/>
      <linearGradient id="SVGID_45_" gradientUnits="userSpaceOnUse" x1="13.1309" y1="50.5034" x2="13.1309" y2="52.1313">
        <stop offset="0" style="stop-color:#FFFFFF;stop-opacity:0.02"/>
        <stop offset="1" style="stop-color:#000000;stop-opacity:0.02"/>
      </linearGradient>
      <path fill="url(#SVGID_45_)" d="M13.131,50.503c-0.45,0-0.814,0.364-0.814,0.814c0,0.45,0.364,0.814,0.814,0.814&#xD;&#xA;&#x9;&#x9;&#x9;&#x9;s0.813-0.364,0.813-0.814C13.944,50.868,13.581,50.503,13.131,50.503z M13.131,51.978c-0.364,0-0.66-0.296-0.66-0.66&#xD;&#xA;&#x9;&#x9;&#x9;&#x9;s0.296-0.66,0.66-0.66c0.363,0,0.66,0.296,0.66,0.66S13.494,51.978,13.131,51.978z"/>
      <linearGradient id="SVGID_46_" gradientUnits="userSpaceOnUse" x1="2.6387" y1="2.1841" x2="2.6387" y2="3.812">
        <stop offset="0" style="stop-color:#FFFFFF;stop-opacity:0.02"/>
        <stop offset="1" style="stop-color:#000000;stop-opacity:0.02"/>
      </linearGradient>
      <path fill="url(#SVGID_46_)" d="M2.64,2.184c-0.45,0-0.814,0.364-0.814,0.814S2.189,3.812,2.64,3.812s0.813-0.364,0.813-0.814&#xD;&#xA;&#x9;&#x9;&#x9;&#x9;S3.09,2.184,2.64,2.184z M2.64,3.658c-0.364,0-0.66-0.296-0.66-0.66s0.296-0.66,0.66-0.66c0.363,0,0.66,0.296,0.66,0.66&#xD;&#xA;&#x9;&#x9;&#x9;&#x9;S3.003,3.658,2.64,3.658z"/>
      <linearGradient id="SVGID_47_" gradientUnits="userSpaceOnUse" x1="13.1309" y1="2.1841" x2="13.1309" y2="3.812">
        <stop offset="0" style="stop-color:#FFFFFF;stop-opacity:0.02"/>
        <stop offset="1" style="stop-color:#000000;stop-opacity:0.02"/>
      </linearGradient>
      <path fill="url(#SVGID_47_)" d="M13.131,2.184c-0.45,0-0.814,0.364-0.814,0.814s0.364,0.814,0.814,0.814s0.813-0.364,0.813-0.814&#xD;&#xA;&#x9;&#x9;&#x9;&#x9;S13.581,2.184,13.131,2.184z M13.131,3.658c-0.364,0-0.66-0.296-0.66-0.66s0.296-0.66,0.66-0.66c0.363,0,0.66,0.296,0.66,0.66&#xD;&#xA;&#x9;&#x9;&#x9;&#x9;S13.494,3.658,13.131,3.658z"/>
      <linearGradient id="SVGID_48_" gradientUnits="userSpaceOnUse" x1="2.6387" y1="57.4063" x2="2.6387" y2="59.0342">
        <stop offset="0" style="stop-color:#FFFFFF;stop-opacity:0.02"/>
        <stop offset="1" style="stop-color:#000000;stop-opacity:0.02"/>
      </linearGradient>
      <path fill="url(#SVGID_48_)" d="M2.64,57.406c-0.45,0-0.814,0.364-0.814,0.814s0.364,0.814,0.814,0.814s0.813-0.364,0.813-0.814&#xD;&#xA;&#x9;&#x9;&#x9;&#x9;S3.09,57.406,2.64,57.406z M2.64,58.88c-0.364,0-0.66-0.296-0.66-0.66s0.296-0.66,0.66-0.66c0.363,0,0.66,0.296,0.66,0.66&#xD;&#xA;&#x9;&#x9;&#x9;&#x9;S3.003,58.88,2.64,58.88z"/>
      <linearGradient id="SVGID_49_" gradientUnits="userSpaceOnUse" x1="13.1309" y1="57.4063" x2="13.1309" y2="59.0342">
        <stop offset="0" style="stop-color:#FFFFFF;stop-opacity:0.02"/>
        <stop offset="1" style="stop-color:#000000;stop-opacity:0.02"/>
      </linearGradient>
      <path fill="url(#SVGID_49_)" d="M13.131,57.406c-0.45,0-0.814,0.364-0.814,0.814s0.364,0.814,0.814,0.814&#xD;&#xA;&#x9;&#x9;&#x9;&#x9;s0.813-0.364,0.813-0.814S13.581,57.406,13.131,57.406z M13.131,58.88c-0.364,0-0.66-0.296-0.66-0.66s0.296-0.66,0.66-0.66&#xD;&#xA;&#x9;&#x9;&#x9;&#x9;c0.363,0,0.66,0.296,0.66,0.66S13.494,58.88,13.131,58.88z"/>
      <linearGradient id="SVGID_50_" gradientUnits="userSpaceOnUse" x1="2.6387" y1="36.6978" x2="2.6387" y2="38.3257">
        <stop offset="0" style="stop-color:#FFFFFF;stop-opacity:0.02"/>
        <stop offset="1" style="stop-color:#000000;stop-opacity:0.02"/>
      </linearGradient>
      <path fill="url(#SVGID_50_)" d="M2.64,36.698c-0.45,0-0.814,0.364-0.814,0.814c0,0.45,0.364,0.814,0.814,0.814&#xD;&#xA;&#x9;&#x9;&#x9;&#x9;s0.813-0.364,0.813-0.814C3.453,37.062,3.09,36.698,2.64,36.698z M2.64,38.172c-0.364,0-0.66-0.296-0.66-0.66&#xD;&#xA;&#x9;&#x9;&#x9;&#x9;s0.296-0.66,0.66-0.66c0.363,0,0.66,0.296,0.66,0.66S3.003,38.172,2.64,38.172z"/>
      <linearGradient id="SVGID_51_" gradientUnits="userSpaceOnUse" x1="13.1309" y1="36.6978" x2="13.1309" y2="38.3257">
        <stop offset="0" style="stop-color:#FFFFFF;stop-opacity:0.02"/>
        <stop offset="1" style="stop-color:#000000;stop-opacity:0.02"/>
      </linearGradient>
      <path fill="url(#SVGID_51_)" d="M13.131,36.698c-0.45,0-0.814,0.364-0.814,0.814c0,0.45,0.364,0.814,0.814,0.814&#xD;&#xA;&#x9;&#x9;&#x9;&#x9;s0.813-0.364,0.813-0.814C13.944,37.062,13.581,36.698,13.131,36.698z M13.131,38.172c-0.364,0-0.66-0.296-0.66-0.66&#xD;&#xA;&#x9;&#x9;&#x9;&#x9;s0.296-0.66,0.66-0.66c0.363,0,0.66,0.296,0.66,0.66S13.494,38.172,13.131,38.172z"/>
      <linearGradient id="SVGID_52_" gradientUnits="userSpaceOnUse" x1="2.6387" y1="9.0869" x2="2.6387" y2="10.7148">
        <stop offset="0" style="stop-color:#FFFFFF;stop-opacity:0.02"/>
        <stop offset="1" style="stop-color:#000000;stop-opacity:0.02"/>
      </linearGradient>
      <path fill="url(#SVGID_52_)" d="M2.64,9.087c-0.45,0-0.814,0.364-0.814,0.814s0.364,0.814,0.814,0.814s0.813-0.364,0.813-0.814&#xD;&#xA;&#x9;&#x9;&#x9;&#x9;S3.09,9.087,2.64,9.087z M2.64,10.561c-0.364,0-0.66-0.296-0.66-0.66s0.296-0.66,0.66-0.66c0.363,0,0.66,0.296,0.66,0.66&#xD;&#xA;&#x9;&#x9;&#x9;&#x9;S3.003,10.561,2.64,10.561z"/>
      <linearGradient id="SVGID_53_" gradientUnits="userSpaceOnUse" x1="13.1309" y1="9.0869" x2="13.1309" y2="10.7148">
        <stop offset="0" style="stop-color:#FFFFFF;stop-opacity:0.02"/>
        <stop offset="1" style="stop-color:#000000;stop-opacity:0.02"/>
      </linearGradient>
      <path fill="url(#SVGID_53_)" d="M13.131,9.087c-0.45,0-0.814,0.364-0.814,0.814s0.364,0.814,0.814,0.814s0.813-0.364,0.813-0.814&#xD;&#xA;&#x9;&#x9;&#x9;&#x9;S13.581,9.087,13.131,9.087z M13.131,10.561c-0.364,0-0.66-0.296-0.66-0.66s0.296-0.66,0.66-0.66c0.363,0,0.66,0.296,0.66,0.66&#xD;&#xA;&#x9;&#x9;&#x9;&#x9;S13.494,10.561,13.131,10.561z"/>
      <linearGradient id="SVGID_54_" gradientUnits="userSpaceOnUse" x1="2.6387" y1="15.9897" x2="2.6387" y2="17.6177">
        <stop offset="0" style="stop-color:#FFFFFF;stop-opacity:0.02"/>
        <stop offset="1" style="stop-color:#000000;stop-opacity:0.02"/>
      </linearGradient>
      <path fill="url(#SVGID_54_)" d="M2.64,15.99c-0.45,0-0.814,0.364-0.814,0.813c0,0.45,0.364,0.814,0.814,0.814&#xD;&#xA;&#x9;&#x9;&#x9;&#x9;s0.813-0.364,0.813-0.814C3.453,16.354,3.09,15.99,2.64,15.99z M2.64,17.463c-0.364,0-0.66-0.296-0.66-0.66&#xD;&#xA;&#x9;&#x9;&#x9;&#x9;c0-0.363,0.296-0.66,0.66-0.66c0.363,0,0.66,0.296,0.66,0.66C3.3,17.167,3.003,17.463,2.64,17.463z"/>
      <linearGradient id="SVGID_55_" gradientUnits="userSpaceOnUse" x1="13.1309" y1="15.9897" x2="13.1309" y2="17.6177">
        <stop offset="0" style="stop-color:#FFFFFF;stop-opacity:0.02"/>
        <stop offset="1" style="stop-color:#000000;stop-opacity:0.02"/>
      </linearGradient>
      <path fill="url(#SVGID_55_)" d="M13.131,15.99c-0.45,0-0.814,0.364-0.814,0.813c0,0.45,0.364,0.814,0.814,0.814&#xD;&#xA;&#x9;&#x9;&#x9;&#x9;s0.813-0.364,0.813-0.814C13.944,16.354,13.581,15.99,13.131,15.99z M13.131,17.463c-0.364,0-0.66-0.296-0.66-0.66&#xD;&#xA;&#x9;&#x9;&#x9;&#x9;c0-0.363,0.296-0.66,0.66-0.66c0.363,0,0.66,0.296,0.66,0.66C13.791,17.167,13.494,17.463,13.131,17.463z"/>
      <linearGradient id="SVGID_56_" gradientUnits="userSpaceOnUse" x1="2.6387" y1="22.8921" x2="2.6387" y2="24.52">
        <stop offset="0" style="stop-color:#FFFFFF;stop-opacity:0.02"/>
        <stop offset="1" style="stop-color:#000000;stop-opacity:0.02"/>
      </linearGradient>
      <path fill="url(#SVGID_56_)" d="M2.64,22.892c-0.45,0-0.814,0.364-0.814,0.814c0,0.45,0.364,0.814,0.814,0.814&#xD;&#xA;&#x9;&#x9;&#x9;&#x9;s0.813-0.364,0.813-0.814C3.453,23.256,3.09,22.892,2.64,22.892z M2.64,24.366c-0.364,0-0.66-0.296-0.66-0.66&#xD;&#xA;&#x9;&#x9;&#x9;&#x9;s0.296-0.66,0.66-0.66c0.363,0,0.66,0.296,0.66,0.66S3.003,24.366,2.64,24.366z"/>
      <linearGradient id="SVGID_57_" gradientUnits="userSpaceOnUse" x1="13.1309" y1="22.8921" x2="13.1309" y2="24.52">
        <stop offset="0" style="stop-color:#FFFFFF;stop-opacity:0.02"/>
        <stop offset="1" style="stop-color:#000000;stop-opacity:0.02"/>
      </linearGradient>
      <path fill="url(#SVGID_57_)" d="M13.131,22.892c-0.45,0-0.814,0.364-0.814,0.814c0,0.45,0.364,0.814,0.814,0.814&#xD;&#xA;&#x9;&#x9;&#x9;&#x9;s0.813-0.364,0.813-0.814C13.944,23.256,13.581,22.892,13.131,22.892z M13.131,24.366c-0.364,0-0.66-0.296-0.66-0.66&#xD;&#xA;&#x9;&#x9;&#x9;&#x9;s0.296-0.66,0.66-0.66c0.363,0,0.66,0.296,0.66,0.66S13.494,24.366,13.131,24.366z"/>
      <linearGradient id="SVGID_58_" gradientUnits="userSpaceOnUse" x1="2.6387" y1="29.7949" x2="2.6387" y2="31.4229">
        <stop offset="0" style="stop-color:#FFFFFF;stop-opacity:0.02"/>
        <stop offset="1" style="stop-color:#000000;stop-opacity:0.02"/>
      </linearGradient>
      <path fill="url(#SVGID_58_)" d="M2.64,29.795c-0.45,0-0.814,0.364-0.814,0.814c0,0.45,0.364,0.814,0.814,0.814&#xD;&#xA;&#x9;&#x9;&#x9;&#x9;s0.813-0.364,0.813-0.814C3.453,30.159,3.09,29.795,2.64,29.795z M2.64,31.269c-0.364,0-0.66-0.296-0.66-0.66&#xD;&#xA;&#x9;&#x9;&#x9;&#x9;s0.296-0.66,0.66-0.66c0.363,0,0.66,0.296,0.66,0.66S3.003,31.269,2.64,31.269z"/>
      <linearGradient id="SVGID_59_" gradientUnits="userSpaceOnUse" x1="13.1309" y1="29.7949" x2="13.1309" y2="31.4229">
        <stop offset="0" style="stop-color:#FFFFFF;stop-opacity:0.02"/>
        <stop offset="1" style="stop-color:#000000;stop-opacity:0.02"/>
      </linearGradient>
      <path fill="url(#SVGID_59_)" d="M13.131,29.795c-0.45,0-0.814,0.364-0.814,0.814c0,0.45,0.364,0.814,0.814,0.814&#xD;&#xA;&#x9;&#x9;&#x9;&#x9;s0.813-0.364,0.813-0.814C13.944,30.159,13.581,29.795,13.131,29.795z M13.131,31.269c-0.364,0-0.66-0.296-0.66-0.66&#xD;&#xA;&#x9;&#x9;&#x9;&#x9;s0.296-0.66,0.66-0.66c0.363,0,0.66,0.296,0.66,0.66S13.494,31.269,13.131,31.269z"/>
      <linearGradient id="SVGID_60_" gradientUnits="userSpaceOnUse" x1="2.6387" y1="43.6006" x2="2.6387" y2="45.2285">
        <stop offset="0" style="stop-color:#FFFFFF;stop-opacity:0.02"/>
        <stop offset="1" style="stop-color:#000000;stop-opacity:0.02"/>
      </linearGradient>
      <path fill="url(#SVGID_60_)" d="M2.64,43.601c-0.45,0-0.814,0.364-0.814,0.814s0.364,0.814,0.814,0.814s0.813-0.364,0.813-0.814&#xD;&#xA;&#x9;&#x9;&#x9;&#x9;S3.09,43.601,2.64,43.601z M2.64,45.075c-0.364,0-0.66-0.296-0.66-0.66s0.296-0.66,0.66-0.66c0.363,0,0.66,0.296,0.66,0.66&#xD;&#xA;&#x9;&#x9;&#x9;&#x9;S3.003,45.075,2.64,45.075z"/>
      <linearGradient id="SVGID_61_" gradientUnits="userSpaceOnUse" x1="13.1309" y1="43.6006" x2="13.1309" y2="45.2285">
        <stop offset="0" style="stop-color:#FFFFFF;stop-opacity:0.02"/>
        <stop offset="1" style="stop-color:#000000;stop-opacity:0.02"/>
      </linearGradient>
      <path fill="url(#SVGID_61_)" d="M13.131,43.601c-0.45,0-0.814,0.364-0.814,0.814s0.364,0.814,0.814,0.814&#xD;&#xA;&#x9;&#x9;&#x9;&#x9;s0.813-0.364,0.813-0.814S13.581,43.601,13.131,43.601z M13.131,45.075c-0.364,0-0.66-0.296-0.66-0.66s0.296-0.66,0.66-0.66&#xD;&#xA;&#x9;&#x9;&#x9;&#x9;c0.363,0,0.66,0.296,0.66,0.66S13.494,45.075,13.131,45.075z"/>
      <linearGradient id="SVGID_62_" gradientUnits="userSpaceOnUse" x1="2.6387" y1="64.3091" x2="2.6387" y2="65.937">
        <stop offset="0" style="stop-color:#FFFFFF;stop-opacity:0.02"/>
        <stop offset="1" style="stop-color:#000000;stop-opacity:0.02"/>
      </linearGradient>
      <path fill="url(#SVGID_62_)" d="M2.64,64.309c-0.45,0-0.814,0.364-0.814,0.814s0.364,0.814,0.814,0.814s0.813-0.364,0.813-0.814&#xD;&#xA;&#x9;&#x9;&#x9;&#x9;S3.09,64.309,2.64,64.309z M2.64,65.783c-0.364,0-0.66-0.296-0.66-0.66s0.296-0.66,0.66-0.66c0.363,0,0.66,0.296,0.66,0.66&#xD;&#xA;&#x9;&#x9;&#x9;&#x9;S3.003,65.783,2.64,65.783z"/>
      <linearGradient id="SVGID_63_" gradientUnits="userSpaceOnUse" x1="13.1309" y1="64.3091" x2="13.1309" y2="65.937">
        <stop offset="0" style="stop-color:#FFFFFF;stop-opacity:0.02"/>
        <stop offset="1" style="stop-color:#000000;stop-opacity:0.02"/>
      </linearGradient>
      <path fill="url(#SVGID_63_)" d="M13.131,64.309c-0.45,0-0.814,0.364-0.814,0.814s0.364,0.814,0.814,0.814&#xD;&#xA;&#x9;&#x9;&#x9;&#x9;s0.813-0.364,0.813-0.814S13.581,64.309,13.131,64.309z M13.131,65.783c-0.364,0-0.66-0.296-0.66-0.66s0.296-0.66,0.66-0.66&#xD;&#xA;&#x9;&#x9;&#x9;&#x9;c0.363,0,0.66,0.296,0.66,0.66S13.494,65.783,13.131,65.783z"/>
    </g>
    <g>
      <linearGradient id="SVGID_64_" gradientUnits="userSpaceOnUse" x1="2.6396" y1="51.9775" x2="2.6396" y2="50.6577">
        <stop offset="0" style="stop-color:#FFFFFF;stop-opacity:0.2"/>
        <stop offset="1" style="stop-color:#000000;stop-opacity:0.2"/>
      </linearGradient>
      <circle fill="url(#SVGID_64_)" cx="2.64" cy="51.317" r="0.66"/>
      <linearGradient id="SVGID_65_" gradientUnits="userSpaceOnUse" x1="13.1309" y1="51.9775" x2="13.1309" y2="50.6577">
        <stop offset="0" style="stop-color:#FFFFFF;stop-opacity:0.2"/>
        <stop offset="1" style="stop-color:#000000;stop-opacity:0.2"/>
      </linearGradient>
      <circle fill="url(#SVGID_65_)" cx="13.131" cy="51.317" r="0.66"/>
      <linearGradient id="SVGID_66_" gradientUnits="userSpaceOnUse" x1="2.6396" y1="3.6577" x2="2.6396" y2="2.3379">
        <stop offset="0" style="stop-color:#FFFFFF;stop-opacity:0.2"/>
        <stop offset="1" style="stop-color:#000000;stop-opacity:0.2"/>
      </linearGradient>
      <circle fill="url(#SVGID_66_)" cx="2.64" cy="2.998" r="0.66"/>
      <linearGradient id="SVGID_67_" gradientUnits="userSpaceOnUse" x1="13.1309" y1="3.6577" x2="13.1309" y2="2.3379">
        <stop offset="0" style="stop-color:#FFFFFF;stop-opacity:0.2"/>
        <stop offset="1" style="stop-color:#000000;stop-opacity:0.2"/>
      </linearGradient>
      <circle fill="url(#SVGID_67_)" cx="13.131" cy="2.998" r="0.66"/>
      <linearGradient id="SVGID_68_" gradientUnits="userSpaceOnUse" x1="2.6396" y1="58.8804" x2="2.6396" y2="57.5601">
        <stop offset="0" style="stop-color:#FFFFFF;stop-opacity:0.2"/>
        <stop offset="1" style="stop-color:#000000;stop-opacity:0.2"/>
      </linearGradient>
      <circle fill="url(#SVGID_68_)" cx="2.64" cy="58.22" r="0.66"/>
      <linearGradient id="SVGID_69_" gradientUnits="userSpaceOnUse" x1="13.1309" y1="58.8804" x2="13.1309" y2="57.5601">
        <stop offset="0" style="stop-color:#FFFFFF;stop-opacity:0.2"/>
        <stop offset="1" style="stop-color:#000000;stop-opacity:0.2"/>
      </linearGradient>
      <circle fill="url(#SVGID_69_)" cx="13.131" cy="58.22" r="0.66"/>
      <linearGradient id="SVGID_70_" gradientUnits="userSpaceOnUse" x1="2.6396" y1="38.1719" x2="2.6396" y2="36.8521">
        <stop offset="0" style="stop-color:#FFFFFF;stop-opacity:0.2"/>
        <stop offset="1" style="stop-color:#000000;stop-opacity:0.2"/>
      </linearGradient>
      <circle fill="url(#SVGID_70_)" cx="2.64" cy="37.512" r="0.66"/>
      <linearGradient id="SVGID_71_" gradientUnits="userSpaceOnUse" x1="13.1309" y1="38.1719" x2="13.1309" y2="36.8521">
        <stop offset="0" style="stop-color:#FFFFFF;stop-opacity:0.2"/>
        <stop offset="1" style="stop-color:#000000;stop-opacity:0.2"/>
      </linearGradient>
      <circle fill="url(#SVGID_71_)" cx="13.131" cy="37.512" r="0.66"/>
      <linearGradient id="SVGID_72_" gradientUnits="userSpaceOnUse" x1="2.6396" y1="10.5605" x2="2.6396" y2="9.2407">
        <stop offset="0" style="stop-color:#FFFFFF;stop-opacity:0.2"/>
        <stop offset="1" style="stop-color:#000000;stop-opacity:0.2"/>
      </linearGradient>
      <circle fill="url(#SVGID_72_)" cx="2.64" cy="9.901" r="0.66"/>
      <linearGradient id="SVGID_73_" gradientUnits="userSpaceOnUse" x1="13.1309" y1="10.5605" x2="13.1309" y2="9.2407">
        <stop offset="0" style="stop-color:#FFFFFF;stop-opacity:0.2"/>
        <stop offset="1" style="stop-color:#000000;stop-opacity:0.2"/>
      </linearGradient>
      <circle fill="url(#SVGID_73_)" cx="13.131" cy="9.901" r="0.66"/>
      <linearGradient id="SVGID_74_" gradientUnits="userSpaceOnUse" x1="2.6396" y1="17.4634" x2="2.6396" y2="16.1436">
        <stop offset="0" style="stop-color:#FFFFFF;stop-opacity:0.2"/>
        <stop offset="1" style="stop-color:#000000;stop-opacity:0.2"/>
      </linearGradient>
      <circle fill="url(#SVGID_74_)" cx="2.64" cy="16.803" r="0.66"/>
      <linearGradient id="SVGID_75_" gradientUnits="userSpaceOnUse" x1="13.1309" y1="17.4634" x2="13.1309" y2="16.1436">
        <stop offset="0" style="stop-color:#FFFFFF;stop-opacity:0.2"/>
        <stop offset="1" style="stop-color:#000000;stop-opacity:0.2"/>
      </linearGradient>
      <circle fill="url(#SVGID_75_)" cx="13.131" cy="16.803" r="0.66"/>
      <linearGradient id="SVGID_76_" gradientUnits="userSpaceOnUse" x1="2.6396" y1="24.3662" x2="2.6396" y2="23.0464">
        <stop offset="0" style="stop-color:#FFFFFF;stop-opacity:0.2"/>
        <stop offset="1" style="stop-color:#000000;stop-opacity:0.2"/>
      </linearGradient>
      <circle fill="url(#SVGID_76_)" cx="2.64" cy="23.706" r="0.66"/>
      <linearGradient id="SVGID_77_" gradientUnits="userSpaceOnUse" x1="13.1309" y1="24.3662" x2="13.1309" y2="23.0464">
        <stop offset="0" style="stop-color:#FFFFFF;stop-opacity:0.2"/>
        <stop offset="1" style="stop-color:#000000;stop-opacity:0.2"/>
      </linearGradient>
      <circle fill="url(#SVGID_77_)" cx="13.131" cy="23.706" r="0.66"/>
      <linearGradient id="SVGID_78_" gradientUnits="userSpaceOnUse" x1="2.6396" y1="31.269" x2="2.6396" y2="29.9492">
        <stop offset="0" style="stop-color:#FFFFFF;stop-opacity:0.2"/>
        <stop offset="1" style="stop-color:#000000;stop-opacity:0.2"/>
      </linearGradient>
      <circle fill="url(#SVGID_78_)" cx="2.64" cy="30.609" r="0.66"/>
      <linearGradient id="SVGID_79_" gradientUnits="userSpaceOnUse" x1="13.1309" y1="31.269" x2="13.1309" y2="29.9492">
        <stop offset="0" style="stop-color:#FFFFFF;stop-opacity:0.2"/>
        <stop offset="1" style="stop-color:#000000;stop-opacity:0.2"/>
      </linearGradient>
      <circle fill="url(#SVGID_79_)" cx="13.131" cy="30.609" r="0.66"/>
      <linearGradient id="SVGID_80_" gradientUnits="userSpaceOnUse" x1="2.6396" y1="45.0747" x2="2.6396" y2="43.7549">
        <stop offset="0" style="stop-color:#FFFFFF;stop-opacity:0.2"/>
        <stop offset="1" style="stop-color:#000000;stop-opacity:0.2"/>
      </linearGradient>
      <circle fill="url(#SVGID_80_)" cx="2.64" cy="44.415" r="0.66"/>
      <linearGradient id="SVGID_81_" gradientUnits="userSpaceOnUse" x1="13.1309" y1="45.0747" x2="13.1309" y2="43.7549">
        <stop offset="0" style="stop-color:#FFFFFF;stop-opacity:0.2"/>
        <stop offset="1" style="stop-color:#000000;stop-opacity:0.2"/>
      </linearGradient>
      <circle fill="url(#SVGID_81_)" cx="13.131" cy="44.415" r="0.66"/>
      <linearGradient id="SVGID_82_" gradientUnits="userSpaceOnUse" x1="2.6396" y1="65.7832" x2="2.6396" y2="64.4634">
        <stop offset="0" style="stop-color:#FFFFFF;stop-opacity:0.2"/>
        <stop offset="1" style="stop-color:#000000;stop-opacity:0.2"/>
      </linearGradient>
      <circle fill="url(#SVGID_82_)" cx="2.64" cy="65.123" r="0.66"/>
      <linearGradient id="SVGID_83_" gradientUnits="userSpaceOnUse" x1="13.1309" y1="65.7832" x2="13.1309" y2="64.4634">
        <stop offset="0" style="stop-color:#FFFFFF;stop-opacity:0.2"/>
        <stop offset="1" style="stop-color:#000000;stop-opacity:0.2"/>
      </linearGradient>
      <circle fill="url(#SVGID_83_)" cx="13.131" cy="65.123" r="0.66"/>
    </g>
    <g>
      <linearGradient id="SVGID_84_" gradientUnits="userSpaceOnUse" x1="1.667" y1="51.9839" x2="3.6123" y2="51.9839">
        <stop offset="0" style="stop-color:#000000;stop-opacity:0.45"/>
        <stop offset="1" style="stop-color:#000000;stop-opacity:0.45"/>
      </linearGradient>
      <path fill="url(#SVGID_84_)" d="M3.612,51.558c0,0.538-0.435,0.973-0.973,0.973s-0.973-0.435-0.973-0.973&#xD;&#xA;&#x9;&#x9;&#x9;&#x9;c0-0.041,0.001-0.081,0.008-0.12c0.058,0.481,0.468,0.853,0.965,0.853s0.907-0.372,0.965-0.853&#xD;&#xA;&#x9;&#x9;&#x9;&#x9;C3.611,51.477,3.612,51.517,3.612,51.558z"/>
      <linearGradient id="SVGID_85_" gradientUnits="userSpaceOnUse" x1="12.1582" y1="51.9839" x2="14.1035" y2="51.9839">
        <stop offset="0" style="stop-color:#000000;stop-opacity:0.45"/>
        <stop offset="1" style="stop-color:#000000;stop-opacity:0.45"/>
      </linearGradient>
      <path fill="url(#SVGID_85_)" d="M14.104,51.558c0,0.538-0.435,0.973-0.973,0.973s-0.973-0.435-0.973-0.973&#xD;&#xA;&#x9;&#x9;&#x9;&#x9;c0-0.041,0.001-0.081,0.008-0.12c0.058,0.481,0.468,0.853,0.965,0.853s0.907-0.372,0.965-0.853&#xD;&#xA;&#x9;&#x9;&#x9;&#x9;C14.103,51.477,14.104,51.517,14.104,51.558z"/>
      <linearGradient id="SVGID_86_" gradientUnits="userSpaceOnUse" x1="1.667" y1="3.6646" x2="3.6123" y2="3.6646">
        <stop offset="0" style="stop-color:#000000;stop-opacity:0.45"/>
        <stop offset="1" style="stop-color:#000000;stop-opacity:0.45"/>
      </linearGradient>
      <path fill="url(#SVGID_86_)" d="M3.612,3.238c0,0.538-0.435,0.973-0.973,0.973S1.667,3.776,1.667,3.238&#xD;&#xA;&#x9;&#x9;&#x9;&#x9;c0-0.041,0.001-0.082,0.008-0.12c0.058,0.48,0.468,0.853,0.965,0.853s0.907-0.372,0.965-0.853&#xD;&#xA;&#x9;&#x9;&#x9;&#x9;C3.611,3.157,3.612,3.198,3.612,3.238z"/>
      <linearGradient id="SVGID_87_" gradientUnits="userSpaceOnUse" x1="12.1582" y1="3.6646" x2="14.1035" y2="3.6646">
        <stop offset="0" style="stop-color:#000000;stop-opacity:0.45"/>
        <stop offset="1" style="stop-color:#000000;stop-opacity:0.45"/>
      </linearGradient>
      <path fill="url(#SVGID_87_)" d="M14.104,3.238c0,0.538-0.435,0.973-0.973,0.973s-0.973-0.435-0.973-0.973&#xD;&#xA;&#x9;&#x9;&#x9;&#x9;c0-0.041,0.001-0.082,0.008-0.12c0.058,0.48,0.468,0.853,0.965,0.853s0.907-0.372,0.965-0.853&#xD;&#xA;&#x9;&#x9;&#x9;&#x9;C14.103,3.157,14.104,3.198,14.104,3.238z"/>
      <linearGradient id="SVGID_88_" gradientUnits="userSpaceOnUse" x1="1.667" y1="58.8872" x2="3.6123" y2="58.8872">
        <stop offset="0" style="stop-color:#000000;stop-opacity:0.45"/>
        <stop offset="1" style="stop-color:#000000;stop-opacity:0.45"/>
      </linearGradient>
      <path fill="url(#SVGID_88_)" d="M3.612,58.46c0,0.538-0.435,0.973-0.973,0.973s-0.973-0.435-0.973-0.973&#xD;&#xA;&#x9;&#x9;&#x9;&#x9;c0-0.041,0.001-0.081,0.008-0.12c0.058,0.48,0.468,0.853,0.965,0.853s0.907-0.373,0.965-0.853&#xD;&#xA;&#x9;&#x9;&#x9;&#x9;C3.611,58.379,3.612,58.42,3.612,58.46z"/>
      <linearGradient id="SVGID_89_" gradientUnits="userSpaceOnUse" x1="12.1582" y1="58.8872" x2="14.1035" y2="58.8872">
        <stop offset="0" style="stop-color:#000000;stop-opacity:0.45"/>
        <stop offset="1" style="stop-color:#000000;stop-opacity:0.45"/>
      </linearGradient>
      <path fill="url(#SVGID_89_)" d="M14.104,58.46c0,0.538-0.435,0.973-0.973,0.973s-0.973-0.435-0.973-0.973&#xD;&#xA;&#x9;&#x9;&#x9;&#x9;c0-0.041,0.001-0.081,0.008-0.12c0.058,0.48,0.468,0.853,0.965,0.853s0.907-0.373,0.965-0.853&#xD;&#xA;&#x9;&#x9;&#x9;&#x9;C14.103,58.379,14.104,58.42,14.104,58.46z"/>
      <linearGradient id="SVGID_90_" gradientUnits="userSpaceOnUse" x1="1.667" y1="38.1782" x2="3.6123" y2="38.1782">
        <stop offset="0" style="stop-color:#000000;stop-opacity:0.45"/>
        <stop offset="1" style="stop-color:#000000;stop-opacity:0.45"/>
      </linearGradient>
      <path fill="url(#SVGID_90_)" d="M3.612,37.752c0,0.538-0.435,0.973-0.973,0.973s-0.973-0.435-0.973-0.973&#xD;&#xA;&#x9;&#x9;&#x9;&#x9;c0-0.041,0.001-0.081,0.008-0.12c0.058,0.481,0.468,0.853,0.965,0.853s0.907-0.372,0.965-0.853&#xD;&#xA;&#x9;&#x9;&#x9;&#x9;C3.611,37.671,3.612,37.711,3.612,37.752z"/>
      <linearGradient id="SVGID_91_" gradientUnits="userSpaceOnUse" x1="12.1582" y1="38.1782" x2="14.1035" y2="38.1782">
        <stop offset="0" style="stop-color:#000000;stop-opacity:0.45"/>
        <stop offset="1" style="stop-color:#000000;stop-opacity:0.45"/>
      </linearGradient>
      <path fill="url(#SVGID_91_)" d="M14.104,37.752c0,0.538-0.435,0.973-0.973,0.973s-0.973-0.435-0.973-0.973&#xD;&#xA;&#x9;&#x9;&#x9;&#x9;c0-0.041,0.001-0.081,0.008-0.12c0.058,0.481,0.468,0.853,0.965,0.853s0.907-0.372,0.965-0.853&#xD;&#xA;&#x9;&#x9;&#x9;&#x9;C14.103,37.671,14.104,37.711,14.104,37.752z"/>
      <linearGradient id="SVGID_92_" gradientUnits="userSpaceOnUse" x1="1.667" y1="10.5674" x2="3.6123" y2="10.5674">
        <stop offset="0" style="stop-color:#000000;stop-opacity:0.45"/>
        <stop offset="1" style="stop-color:#000000;stop-opacity:0.45"/>
      </linearGradient>
      <path fill="url(#SVGID_92_)" d="M3.612,10.141c0,0.538-0.435,0.973-0.973,0.973s-0.973-0.435-0.973-0.973&#xD;&#xA;&#x9;&#x9;&#x9;&#x9;c0-0.041,0.001-0.082,0.008-0.12c0.058,0.48,0.468,0.853,0.965,0.853s0.907-0.372,0.965-0.853&#xD;&#xA;&#x9;&#x9;&#x9;&#x9;C3.611,10.06,3.612,10.101,3.612,10.141z"/>
      <linearGradient id="SVGID_93_" gradientUnits="userSpaceOnUse" x1="12.1582" y1="10.5674" x2="14.1035" y2="10.5674">
        <stop offset="0" style="stop-color:#000000;stop-opacity:0.45"/>
        <stop offset="1" style="stop-color:#000000;stop-opacity:0.45"/>
      </linearGradient>
      <path fill="url(#SVGID_93_)" d="M14.104,10.141c0,0.538-0.435,0.973-0.973,0.973s-0.973-0.435-0.973-0.973&#xD;&#xA;&#x9;&#x9;&#x9;&#x9;c0-0.041,0.001-0.082,0.008-0.12c0.058,0.48,0.468,0.853,0.965,0.853s0.907-0.372,0.965-0.853&#xD;&#xA;&#x9;&#x9;&#x9;&#x9;C14.103,10.06,14.104,10.101,14.104,10.141z"/>
      <linearGradient id="SVGID_94_" gradientUnits="userSpaceOnUse" x1="1.667" y1="17.4702" x2="3.6123" y2="17.4702">
        <stop offset="0" style="stop-color:#000000;stop-opacity:0.45"/>
        <stop offset="1" style="stop-color:#000000;stop-opacity:0.45"/>
      </linearGradient>
      <path fill="url(#SVGID_94_)" d="M3.612,17.043c0,0.539-0.435,0.973-0.973,0.973s-0.973-0.435-0.973-0.973&#xD;&#xA;&#x9;&#x9;&#x9;&#x9;c0-0.04,0.001-0.081,0.008-0.12c0.058,0.481,0.468,0.853,0.965,0.853s0.907-0.372,0.965-0.853&#xD;&#xA;&#x9;&#x9;&#x9;&#x9;C3.611,16.962,3.612,17.003,3.612,17.043z"/>
      <linearGradient id="SVGID_95_" gradientUnits="userSpaceOnUse" x1="12.1582" y1="17.4702" x2="14.1035" y2="17.4702">
        <stop offset="0" style="stop-color:#000000;stop-opacity:0.45"/>
        <stop offset="1" style="stop-color:#000000;stop-opacity:0.45"/>
      </linearGradient>
      <path fill="url(#SVGID_95_)" d="M14.104,17.043c0,0.539-0.435,0.973-0.973,0.973s-0.973-0.435-0.973-0.973&#xD;&#xA;&#x9;&#x9;&#x9;&#x9;c0-0.04,0.001-0.081,0.008-0.12c0.058,0.481,0.468,0.853,0.965,0.853s0.907-0.372,0.965-0.853&#xD;&#xA;&#x9;&#x9;&#x9;&#x9;C14.103,16.962,14.104,17.003,14.104,17.043z"/>
      <linearGradient id="SVGID_96_" gradientUnits="userSpaceOnUse" x1="1.667" y1="24.3726" x2="3.6123" y2="24.3726">
        <stop offset="0" style="stop-color:#000000;stop-opacity:0.45"/>
        <stop offset="1" style="stop-color:#000000;stop-opacity:0.45"/>
      </linearGradient>
      <path fill="url(#SVGID_96_)" d="M3.612,23.946c0,0.539-0.435,0.973-0.973,0.973s-0.973-0.435-0.973-0.973&#xD;&#xA;&#x9;&#x9;&#x9;&#x9;c0-0.041,0.001-0.081,0.008-0.12c0.058,0.481,0.468,0.853,0.965,0.853s0.907-0.372,0.965-0.853&#xD;&#xA;&#x9;&#x9;&#x9;&#x9;C3.611,23.865,3.612,23.906,3.612,23.946z"/>
      <linearGradient id="SVGID_97_" gradientUnits="userSpaceOnUse" x1="12.1582" y1="24.3726" x2="14.1035" y2="24.3726">
        <stop offset="0" style="stop-color:#000000;stop-opacity:0.45"/>
        <stop offset="1" style="stop-color:#000000;stop-opacity:0.45"/>
      </linearGradient>
      <path fill="url(#SVGID_97_)" d="M14.104,23.946c0,0.539-0.435,0.973-0.973,0.973s-0.973-0.435-0.973-0.973&#xD;&#xA;&#x9;&#x9;&#x9;&#x9;c0-0.041,0.001-0.081,0.008-0.12c0.058,0.481,0.468,0.853,0.965,0.853s0.907-0.372,0.965-0.853&#xD;&#xA;&#x9;&#x9;&#x9;&#x9;C14.103,23.865,14.104,23.906,14.104,23.946z"/>
      <linearGradient id="SVGID_98_" gradientUnits="userSpaceOnUse" x1="1.667" y1="31.2759" x2="3.6123" y2="31.2759">
        <stop offset="0" style="stop-color:#000000;stop-opacity:0.45"/>
        <stop offset="1" style="stop-color:#000000;stop-opacity:0.45"/>
      </linearGradient>
      <path fill="url(#SVGID_98_)" d="M3.612,30.849c0,0.538-0.435,0.973-0.973,0.973s-0.973-0.435-0.973-0.973&#xD;&#xA;&#x9;&#x9;&#x9;&#x9;c0-0.041,0.001-0.081,0.008-0.12c0.058,0.481,0.468,0.853,0.965,0.853s0.907-0.372,0.965-0.853&#xD;&#xA;&#x9;&#x9;&#x9;&#x9;C3.611,30.768,3.612,30.809,3.612,30.849z"/>
      <linearGradient id="SVGID_99_" gradientUnits="userSpaceOnUse" x1="12.1582" y1="31.2759" x2="14.1035" y2="31.2759">
        <stop offset="0" style="stop-color:#000000;stop-opacity:0.45"/>
        <stop offset="1" style="stop-color:#000000;stop-opacity:0.45"/>
      </linearGradient>
      <path fill="url(#SVGID_99_)" d="M14.104,30.849c0,0.538-0.435,0.973-0.973,0.973s-0.973-0.435-0.973-0.973&#xD;&#xA;&#x9;&#x9;&#x9;&#x9;c0-0.041,0.001-0.081,0.008-0.12c0.058,0.481,0.468,0.853,0.965,0.853s0.907-0.372,0.965-0.853&#xD;&#xA;&#x9;&#x9;&#x9;&#x9;C14.103,30.768,14.104,30.809,14.104,30.849z"/>
      <linearGradient id="SVGID_100_" gradientUnits="userSpaceOnUse" x1="1.667" y1="45.0815" x2="3.6123" y2="45.0815">
        <stop offset="0" style="stop-color:#000000;stop-opacity:0.45"/>
        <stop offset="1" style="stop-color:#000000;stop-opacity:0.45"/>
      </linearGradient>
      <path fill="url(#SVGID_100_)" d="M3.612,44.655c0,0.538-0.435,0.973-0.973,0.973s-0.973-0.435-0.973-0.973&#xD;&#xA;&#x9;&#x9;&#x9;&#x9;c0-0.041,0.001-0.081,0.008-0.12c0.058,0.48,0.468,0.853,0.965,0.853s0.907-0.373,0.965-0.853&#xD;&#xA;&#x9;&#x9;&#x9;&#x9;C3.611,44.574,3.612,44.614,3.612,44.655z"/>
      <linearGradient id="SVGID_101_" gradientUnits="userSpaceOnUse" x1="12.1582" y1="45.0815" x2="14.1035" y2="45.0815">
        <stop offset="0" style="stop-color:#000000;stop-opacity:0.45"/>
        <stop offset="1" style="stop-color:#000000;stop-opacity:0.45"/>
      </linearGradient>
      <path fill="url(#SVGID_101_)" d="M14.104,44.655c0,0.538-0.435,0.973-0.973,0.973s-0.973-0.435-0.973-0.973&#xD;&#xA;&#x9;&#x9;&#x9;&#x9;c0-0.041,0.001-0.081,0.008-0.12c0.058,0.48,0.468,0.853,0.965,0.853s0.907-0.373,0.965-0.853&#xD;&#xA;&#x9;&#x9;&#x9;&#x9;C14.103,44.574,14.104,44.614,14.104,44.655z"/>
      <linearGradient id="SVGID_102_" gradientUnits="userSpaceOnUse" x1="1.667" y1="65.7896" x2="3.6123" y2="65.7896">
        <stop offset="0" style="stop-color:#000000;stop-opacity:0.45"/>
        <stop offset="1" style="stop-color:#000000;stop-opacity:0.45"/>
      </linearGradient>
      <path fill="url(#SVGID_102_)" d="M3.612,65.363c0,0.538-0.435,0.973-0.973,0.973s-0.973-0.435-0.973-0.973&#xD;&#xA;&#x9;&#x9;&#x9;&#x9;c0-0.041,0.001-0.081,0.008-0.12c0.058,0.48,0.468,0.853,0.965,0.853s0.907-0.373,0.965-0.853&#xD;&#xA;&#x9;&#x9;&#x9;&#x9;C3.611,65.282,3.612,65.323,3.612,65.363z"/>
      <linearGradient id="SVGID_103_" gradientUnits="userSpaceOnUse" x1="12.1582" y1="65.7896" x2="14.1035" y2="65.7896">
        <stop offset="0" style="stop-color:#000000;stop-opacity:0.45"/>
        <stop offset="1" style="stop-color:#000000;stop-opacity:0.45"/>
      </linearGradient>
      <path fill="url(#SVGID_103_)" d="M14.104,65.363c0,0.538-0.435,0.973-0.973,0.973s-0.973-0.435-0.973-0.973&#xD;&#xA;&#x9;&#x9;&#x9;&#x9;c0-0.041,0.001-0.081,0.008-0.12c0.058,0.48,0.468,0.853,0.965,0.853s0.907-0.373,0.965-0.853&#xD;&#xA;&#x9;&#x9;&#x9;&#x9;C14.103,65.282,14.104,65.323,14.104,65.363z"/>
    </g>
  </g>
</svg>