<svg version="1.2" baseProfile="tiny" viewBox="0 0 15.77 67.834" xmlns:xlink="http://www.w3.org/1999/xlink" xmlns="http://www.w3.org/2000/svg">
<path style="fill:#ffffff;" d="M14.767,66.3152C14.767,66.594,14.538,66.8219,14.2591,66.8219L1.512,66.8219L1.512,66.8219C1.2331,66.8219,1.0041,66.594,1.0041,66.3152L1.0041,1.7881C1.0041,1.5093,1.2331,1.28,1.512,1.28L14.2591,1.28C14.538,1.28,14.767,1.5093,14.767,1.7881L14.767,66.3152M9.239,4.5632C9.239,4.0979,8.858,3.7173,8.392,3.7173L7.378,3.7173L7.378,3.7173C6.912,3.7173,6.531,4.0972,6.531,4.5632L6.531,30.7492C6.531,31.2138,6.912,31.595,7.378,31.595L8.393,31.595C8.859,31.595,9.24,31.2152,9.24,30.7492L9.24,4.5632M9.239,37.3541C9.239,36.8888,8.858,36.5083,8.392,36.5083L7.378,36.5083L7.378,36.5083C6.912,36.5083,6.531,36.8888,6.531,37.3541L6.531,63.5401C6.531,64.0048,6.912,64.386,7.378,64.386L8.393,64.386C8.859,64.386,9.24,64.0048,9.24,63.5401L9.24,37.3541Z"/>
</svg>