<svg version="1.2" baseProfile="tiny" viewBox="0 0 24.0 24.0" xmlns:xlink="http://www.w3.org/1999/xlink" xmlns="http://www.w3.org/2000/svg">
<path style="fill:#ffffff;" d="M11.287,14.793c0,0-0.504-5.134-0.504-6.064c0-0.564,0.476-1.25,1.276-1.25
		c0.834,0,1.272,0.682,1.272,1.272c0.004,0.908-0.466,6.042-0.466,6.042c-0.072,0.688-0.354,1.218-0.788,1.244
		C11.637,16.011,11.329,15.497,11.287,14.793 M12.076,17.291c-0.632,0-1.142,0.512-1.142,1.138c0,0.632,0.51,1.146,1.142,1.146
		c0.632,0,1.142-0.514,1.142-1.146C13.22,17.803,12.71,17.291,12.076,17.291"/>
</svg>